<?xml version="1.0" standalone="no"?>
<!DOCTYPE svg PUBLIC "-//W3C//DTD SVG 20010904//EN"
 "http://www.w3.org/TR/2001/REC-SVG-20010904/DTD/svg10.dtd">
<svg version="1.0" xmlns="http://www.w3.org/2000/svg"
 width="737.000000pt" height="737.000000pt" viewBox="0 0 737.000000 737.000000"
 preserveAspectRatio="xMidYMid meet">

<g transform="translate(0.000000,737.000000) scale(0.100000,-0.100000)"
fill="#000000" stroke="none">
<path d="M7073 7363 c-18 -7 -16 -23 2 -23 7 0 18 -8 24 -17 5 -10 12 -15 16
-12 3 4 0 13 -8 20 -7 8 -12 20 -9 27 4 12 -4 14 -25 5z"/>
<path d="M7183 7355 c2 -5 13 -11 25 -13 12 -2 22 -10 22 -18 0 -8 -4 -13 -9
-9 -12 7 -24 -12 -16 -25 11 -17 35 9 35 36 0 19 5 24 25 24 14 0 25 4 25 9 0
5 -25 9 -55 8 -33 -1 -54 -5 -52 -12z"/>
<path d="M7310 7346 c0 -23 -2 -24 -30 -16 -18 5 -30 5 -30 -1 0 -5 9 -9 19
-9 14 0 19 -6 16 -20 -2 -13 2 -20 11 -20 8 0 12 5 9 10 -3 6 0 10 8 10 8 0
17 -7 21 -15 3 -8 12 -12 21 -9 18 7 20 44 3 44 -9 0 -10 3 -2 8 22 14 11 38
-18 40 -24 2 -28 -1 -28 -22z"/>
<path d="M7046 7304 c-5 -12 -2 -15 10 -10 8 3 18 6 20 6 2 0 4 5 4 10 0 16
-27 11 -34 -6z"/>
<path d="M7243 7284 c-13 -14 -23 -34 -23 -44 0 -11 -5 -20 -10 -20 -6 0 -8
12 -5 28 3 15 2 21 -1 15 -3 -7 -17 -13 -30 -13 -13 0 -24 -4 -24 -10 0 -5 6
-7 14 -4 9 3 18 -5 24 -23 6 -15 11 -22 11 -15 1 6 8 12 16 12 9 0 15 9 15 23
0 30 10 40 26 26 8 -6 14 -6 18 0 4 5 2 12 -3 16 -6 3 -8 12 -4 20 7 20 2 18
-24 -11z"/>
<path d="M6860 7289 c0 -5 5 -7 10 -4 6 3 10 8 10 11 0 2 -4 4 -10 4 -5 0 -10
-5 -10 -11z"/>
<path d="M7165 7290 c3 -5 -1 -10 -9 -10 -25 0 -26 -15 0 -16 13 -1 21 2 18 7
-3 5 0 9 6 9 6 0 8 5 5 10 -3 6 -11 10 -16 10 -6 0 -7 -4 -4 -10z"/>
<path d="M6955 7280 c-3 -5 -1 -10 4 -10 6 0 11 5 11 10 0 6 -2 10 -4 10 -3 0
-8 -4 -11 -10z"/>
<path d="M6530 7271 c0 -8 -7 -11 -17 -6 -15 5 -16 4 -5 -6 9 -10 15 -10 24
-1 6 6 9 15 5 19 -4 3 -7 1 -7 -6z"/>
<path d="M6626 7263 c-6 -14 -5 -15 5 -6 7 7 10 15 7 18 -3 3 -9 -2 -12 -12z"/>
<path d="M6722 7260 c0 -14 2 -19 5 -12 2 6 2 18 0 25 -3 6 -5 1 -5 -13z"/>
<path d="M6785 7270 c-3 -6 1 -7 9 -4 18 7 21 14 7 14 -6 0 -13 -4 -16 -10z"/>
<path d="M7319 7277 c0 -1 -2 -11 -4 -21 -2 -10 -9 -22 -16 -27 -14 -8 -39 -1
-39 12 0 22 -18 6 -24 -22 -4 -20 -10 -28 -18 -23 -7 5 -9 2 -6 -8 4 -8 2 -21
-3 -29 -7 -11 -9 -11 -9 2 0 9 -7 20 -16 23 -10 4 -14 12 -9 24 5 13 3 14 -6
5 -9 -9 -15 -8 -26 3 -8 8 -20 12 -26 8 -7 -3 -4 1 5 9 16 13 16 15 -6 25 -19
9 -25 8 -30 -3 -3 -8 0 -14 7 -12 7 1 11 -3 10 -10 -2 -7 13 -20 32 -29 19 -9
35 -20 35 -26 0 -9 45 -58 55 -58 3 0 5 6 5 14 0 17 29 25 55 15 20 -8 20 -8
0 -9 -19 -1 -19 -2 -1 -9 17 -7 18 -8 3 -14 -10 -4 -20 0 -26 10 -8 14 -12 13
-36 -13 -16 -16 -26 -21 -22 -12 6 18 -11 28 -49 28 -15 0 -23 4 -19 10 4 7
-2 9 -18 5 -16 -4 -26 -2 -30 8 -8 20 -97 22 -97 2 0 -8 -8 -12 -20 -10 -11 2
-22 -1 -25 -6 -4 -5 -10 -7 -14 -5 -4 3 -13 0 -21 -6 -12 -8 -12 -9 3 -4 11 4
17 0 18 -12 0 -15 1 -14 8 2 9 23 41 31 41 10 0 -8 5 -14 11 -14 5 0 8 4 4 9
-6 10 21 41 35 41 12 0 -1 -73 -14 -82 -7 -5 -7 -8 2 -8 7 0 10 -5 7 -10 -4
-6 -4 -18 -1 -27 6 -14 8 -14 21 3 8 10 14 15 14 9 0 -5 -6 -19 -15 -30 -13
-18 -13 -20 3 -27 16 -6 16 -7 2 -7 -25 -1 -31 -28 -8 -34 31 -8 22 -27 -13
-28 -18 0 -27 -3 -20 -6 6 -2 12 -9 12 -15 0 -6 -7 -8 -15 -4 -8 3 -15 1 -15
-4 0 -14 -27 -12 -34 3 -3 6 -4 1 -3 -12 1 -14 8 -26 16 -29 8 -3 11 0 8 5 -3
5 -1 10 6 10 7 0 17 2 22 3 6 1 21 2 35 1 25 -2 25 -2 3 -11 -26 -11 -29 -25
-9 -45 9 -9 17 -10 24 -3 6 6 12 6 17 -3 5 -8 4 -10 -3 -5 -8 5 -10 -2 -6 -24
5 -25 3 -30 -12 -30 -16 0 -16 -2 -4 -10 16 -10 44 6 35 20 -3 5 -1 11 5 15
14 9 12 -17 -4 -37 -8 -11 -21 -15 -37 -12 l-24 5 23 -11 c13 -5 28 -8 33 -4
8 4 14 -16 10 -38 0 -4 6 -5 14 -2 18 7 18 14 0 38 -13 17 -13 22 1 37 13 14
13 22 4 40 -9 15 -2 12 22 -12 26 -25 31 -35 20 -39 -12 -5 -12 -8 0 -18 11
-9 18 -7 30 8 9 10 15 20 13 22 -2 1 3 9 10 15 9 8 16 9 20 3 3 -6 0 -10 -7
-10 -14 -1 28 -40 43 -40 4 0 6 9 4 21 -3 13 0 19 8 16 7 -2 12 -9 12 -15 0
-13 45 -48 45 -35 0 4 5 1 10 -7 6 -9 10 -10 10 -3 0 7 -10 18 -22 24 -22 12
-22 12 -3 20 18 7 17 8 -5 9 -28 1 -74 30 -49 30 10 1 9 4 -4 11 -10 6 -30 8
-45 5 -25 -6 -26 -5 -9 8 13 10 15 15 5 19 -7 3 -3 4 9 4 12 -1 19 -5 17 -9
-3 -4 0 -8 5 -8 6 0 11 5 11 10 0 6 7 10 15 10 10 0 12 6 8 18 -6 15 -5 15 11
3 16 -14 16 -15 -6 -28 l-23 -14 23 4 c15 4 20 1 15 -6 -11 -18 -12 -37 -3
-37 15 0 21 18 8 23 -10 4 -10 6 0 6 6 1 12 12 12 25 0 13 6 23 13 22 6 0 12
4 12 9 0 6 -4 9 -8 7 -4 -1 -3 7 3 18 6 11 16 18 23 15 7 -4 4 0 -5 8 -21 16
-23 28 -6 25 8 -2 13 19 14 69 2 70 1 72 -18 62 -14 -8 -17 -14 -9 -22 7 -7 5
-14 -7 -23 -16 -13 -15 -14 6 -20 18 -5 20 -9 11 -20 -9 -11 -8 -14 2 -14 11
0 11 -2 -1 -9 -18 -12 -31 -5 -23 14 3 9 -1 23 -8 32 -11 13 -11 17 -1 20 19
7 14 19 -14 32 -21 9 -30 9 -43 -1 -14 -12 -15 -11 -2 5 8 10 21 15 29 12 23
-9 35 6 15 20 -17 13 -16 14 5 8 12 -3 22 -9 22 -14 0 -5 5 -9 11 -9 6 0 8 7
5 16 -5 14 -4 15 9 4 10 -9 15 -9 15 -1 0 6 -13 19 -28 29 -17 10 -26 24 -24
34 2 10 -4 25 -12 34 -19 18 -12 36 9 27 8 -3 15 0 15 6 0 6 8 11 17 11 14 0
13 -3 -5 -16 -20 -14 -33 -42 -13 -30 4 3 6 -6 3 -20 -4 -23 9 -43 28 -44 12
0 9 54 -2 62 -8 4 -9 8 -2 8 6 0 11 15 12 33 1 25 -4 35 -23 44 -14 6 -25 10
-26 10z m-49 -77 c-18 -12 -30 -13 -30 -2 0 4 10 9 22 9 18 2 20 0 8 -7z m20
-24 c0 -9 -8 -12 -27 -8 -25 5 -25 6 -8 13 29 11 35 10 35 -5z m-212 -28 c7
-7 12 -22 12 -34 0 -17 -4 -21 -20 -17 -11 3 -20 0 -20 -6 0 -6 6 -11 14 -11
8 0 16 -10 18 -22 2 -14 9 -22 18 -20 8 2 12 0 8 -4 -4 -4 1 -19 12 -34 l19
-27 -34 11 c-18 6 -31 14 -29 18 3 4 12 4 21 1 15 -6 16 -5 3 9 -14 15 -17 15
-32 1 -12 -11 -18 -12 -18 -4 0 6 7 14 15 17 11 5 12 11 4 25 -5 11 -14 17
-20 14 -5 -4 -9 8 -9 24 0 17 5 31 10 31 6 0 10 5 10 11 0 5 -4 7 -10 4 -6 -3
-7 1 -4 9 7 19 16 20 32 4z m52 -28 c0 -5 12 -16 28 -24 18 -10 21 -15 10 -16
-28 0 -48 11 -48 29 0 14 -2 14 -10 1 -8 -13 -10 -12 -10 3 0 9 7 17 15 17 8
0 15 -4 15 -10z m126 -38 c-16 -17 -59 -25 -50 -10 4 5 13 7 21 4 9 -4 17 1
20 14 3 11 10 17 15 14 6 -4 4 -13 -6 -22z m-133 1 c8 -7 -11 -33 -24 -33 -5
0 -9 9 -9 20 0 19 20 27 33 13z m47 -67 c0 -5 -8 -2 -18 7 -10 10 -22 14 -27
10 -4 -5 -5 -2 -1 4 5 10 11 10 26 0 11 -6 20 -16 20 -21z m54 18 c3 -8 2 -12
-4 -9 -6 3 -10 10 -10 16 0 14 7 11 14 -7z m70 -19 c-4 -8 -8 -15 -10 -15 -2
0 -4 7 -4 15 0 8 4 15 10 15 5 0 7 -7 4 -15z m-93 -42 c-10 -17 -10 -17 -11 0
0 9 -6 17 -12 18 -7 0 -4 4 7 8 24 10 30 -1 16 -26z m113 9 c2 -4 -5 -9 -17
-9 -17 -2 -19 0 -7 7 18 12 18 12 24 2z m-225 -9 c0 -5 -4 -16 -8 -26 -6 -17
-8 -17 -26 5 -15 17 -16 19 -2 9 15 -12 21 -9 18 12 0 4 4 7 9 7 6 0 10 -3 9
-7z m158 -18 c0 -8 -4 -12 -9 -9 -4 3 -8 9 -8 15 0 5 4 9 8 9 5 0 9 -7 9 -15z
m-118 -18 c-2 -2 -12 -9 -21 -16 -15 -11 -18 -11 -18 1 0 7 10 14 21 15 12 1
20 1 18 0z m2 -30 c-1 -12 -15 -9 -19 4 -3 6 1 10 8 8 6 -3 11 -8 11 -12z
m196 -9 c-3 -8 -6 -5 -6 6 -1 11 2 17 5 13 3 -3 4 -12 1 -19z m-77 -8 c0 -5
-8 -10 -17 -10 -15 0 -16 2 -3 10 19 12 20 12 20 0z m55 0 c-3 -5 -11 -10 -16
-10 -6 0 -7 5 -4 10 3 6 11 10 16 10 6 0 7 -4 4 -10z m-118 -34 c-8 -8 -17
-12 -21 -9 -3 3 2 12 12 19 22 16 29 9 9 -10z m-97 -6 c-7 -5 -9 -13 -5 -20 5
-9 4 -11 -3 -6 -19 11 -15 47 4 39 11 -4 12 -8 4 -13z m154 9 c-2 -4 2 -9 8
-12 7 -2 1 -4 -13 -3 -27 1 -30 23 -4 23 8 0 12 -4 9 -8z m-68 -31 c11 -1 12
-54 1 -63 -4 -3 -5 -2 -2 2 3 3 0 12 -6 20 -9 10 -8 13 0 13 7 0 9 5 5 11 -3
6 -15 9 -25 6 -12 -3 -17 -1 -12 6 4 6 -2 8 -15 5 -14 -4 -20 -2 -16 4 4 5 18
7 33 4 14 -4 31 -7 37 -8z"/>
<path d="M6467 7259 c7 -7 15 -10 18 -7 3 3 -2 9 -12 12 -14 6 -15 5 -6 -5z"/>
<path d="M6997 7257 c-7 -20 17 -24 29 -5 4 6 3 8 -4 4 -5 -3 -12 -1 -14 6 -3
8 -7 6 -11 -5z"/>
<path d="M6965 7250 c-4 -6 -10 -8 -14 -5 -5 2 -6 -7 -3 -21 3 -18 8 -22 17
-14 6 5 16 6 20 2 5 -4 5 -1 1 6 -4 7 -12 10 -17 7 -13 -9 -11 9 3 23 7 7 9
12 6 12 -4 0 -10 -5 -13 -10z"/>
<path d="M7285 7249 c-11 -17 1 -21 15 -4 8 9 8 15 2 15 -6 0 -14 -5 -17 -11z"/>
<path d="M6910 7241 c0 -5 7 -12 16 -15 14 -5 15 -4 4 9 -14 17 -20 19 -20 6z"/>
<path d="M7035 7221 c6 -10 4 -13 -6 -9 -10 4 -15 -1 -16 -13 -2 -17 0 -18 14
-4 12 12 18 13 29 4 8 -7 17 -9 21 -5 3 3 1 6 -7 6 -10 0 -10 3 0 15 9 10 9
15 1 15 -6 0 -11 -5 -11 -11 0 -8 -6 -7 -17 2 -14 12 -16 12 -8 0z"/>
<path d="M6693 7198 c-12 -20 -12 -38 -1 -38 5 0 8 6 5 13 -2 6 3 17 12 24 10
8 11 12 4 13 -6 0 -15 -6 -20 -12z"/>
<path d="M6970 7177 c-12 -21 -12 -21 6 -7 10 8 20 15 22 16 2 1 -1 4 -5 7 -5
3 -15 -4 -23 -16z"/>
<path d="M7101 7191 c-9 -6 -5 -10 15 -15 16 -4 32 -13 36 -19 6 -9 8 -9 8 -1
0 6 -7 17 -15 24 -8 7 -15 9 -15 4 0 -5 -4 -4 -8 3 -4 7 -13 9 -21 4z"/>
<path d="M6728 7183 c7 -3 16 -2 19 1 4 3 -2 6 -13 5 -11 0 -14 -3 -6 -6z"/>
<path d="M6861 7167 c-8 -10 -7 -14 4 -14 8 0 16 6 19 14 3 7 2 13 -3 13 -5 0
-14 -6 -20 -13z"/>
<path d="M6748 7163 c7 -3 16 -2 19 1 4 3 -2 6 -13 5 -11 0 -14 -3 -6 -6z"/>
<path d="M6908 7153 c7 -3 16 -2 19 1 4 3 -2 6 -13 5 -11 0 -14 -3 -6 -6z"/>
<path d="M6500 7146 c0 -2 7 -7 16 -10 8 -3 12 -2 9 4 -6 10 -25 14 -25 6z"/>
<path d="M6595 7140 c3 -5 8 -10 11 -10 2 0 4 5 4 10 0 6 -5 10 -11 10 -5 0
-7 -4 -4 -10z"/>
<path d="M6768 7143 c7 -3 16 -2 19 1 4 3 -2 6 -13 5 -11 0 -14 -3 -6 -6z"/>
<path d="M6665 7130 c3 -5 -6 -21 -20 -34 -23 -21 -24 -24 -6 -19 11 3 23 14
26 24 4 11 11 16 18 12 7 -4 6 1 -2 10 -15 18 -26 23 -16 7z"/>
<path d="M6857 7111 c-3 -11 -1 -23 3 -26 14 -8 22 13 12 31 -8 14 -10 14 -15
-5z"/>
<path d="M6575 7110 c2 -4 14 -10 26 -13 16 -4 19 -3 11 5 -14 14 -45 20 -37
8z"/>
<path d="M6700 7105 c0 -8 2 -15 4 -15 2 0 6 7 10 15 3 8 1 15 -4 15 -6 0 -10
-7 -10 -15z"/>
<path d="M6765 7100 c-3 -5 1 -10 9 -10 9 0 16 5 16 10 0 6 -4 10 -9 10 -6 0
-13 -4 -16 -10z"/>
<path d="M6563 7075 c0 -8 4 -12 9 -9 5 3 6 10 3 15 -9 13 -12 11 -12 -6z"/>
<path d="M6735 7080 c3 -5 8 -10 11 -10 2 0 4 5 4 10 0 6 -5 10 -11 10 -5 0
-7 -4 -4 -10z"/>
<path d="M6906 7075 c-9 -26 -7 -32 5 -12 6 10 9 21 6 23 -2 3 -7 -2 -11 -11z"/>
<path d="M6954 7068 c1 -24 -23 -58 -36 -51 -5 2 -8 0 -8 -4 0 -5 -9 -9 -20
-9 -11 0 -20 3 -20 7 0 4 -10 5 -22 1 -21 -5 -21 -6 6 -15 21 -7 25 -12 15
-18 -10 -6 -8 -9 8 -9 12 0 24 -6 26 -12 4 -10 6 -10 6 -1 1 6 -3 15 -9 18
-17 11 -11 21 16 23 14 1 23 -2 19 -8 -3 -6 1 -7 9 -4 19 7 21 20 4 27 -8 4
-7 6 4 6 12 1 16 10 15 36 -1 19 -4 35 -8 35 -3 0 -6 -10 -5 -22z"/>
<path d="M6986 7073 c-6 -14 -5 -15 5 -6 7 7 10 15 7 18 -3 3 -9 -2 -12 -12z"/>
<path d="M6602 7058 c8 -12 21 -24 29 -27 9 -3 8 1 -4 13 -9 10 -17 22 -17 27
0 5 -5 9 -11 9 -7 0 -6 -8 3 -22z"/>
<path d="M6816 7067 c3 -10 9 -15 12 -12 3 3 0 11 -7 18 -10 9 -11 8 -5 -6z"/>
<path d="M6921 7047 c-13 -21 -12 -21 5 -5 10 10 16 20 13 22 -3 3 -11 -5 -18
-17z"/>
<path d="M6765 7049 c-4 -6 -4 -13 -1 -16 3 -4 6 0 6 8 0 11 2 11 10 -1 8 -13
10 -12 10 3 0 19 -15 23 -25 6z"/>
<path d="M6850 7040 c0 -5 5 -10 10 -10 6 0 10 5 10 10 0 6 -4 10 -10 10 -5 0
-10 -4 -10 -10z"/>
<path d="M6984 7035 c3 -8 0 -15 -7 -16 -7 0 -2 -4 11 -9 19 -8 21 -14 16 -37
-4 -16 -11 -29 -16 -31 -19 -8 -6 -19 17 -14 19 3 23 8 15 17 -7 9 -7 21 0 39
7 19 6 32 -3 46 -14 23 -42 27 -33 5z"/>
<path d="M6686 7032 c-3 -5 1 -9 9 -9 8 0 12 4 9 9 -3 4 -7 8 -9 8 -2 0 -6 -4
-9 -8z"/>
<path d="M6723 7015 c0 -8 4 -12 9 -9 5 3 6 10 3 15 -9 13 -12 11 -12 -6z"/>
<path d="M6767 7007 c-7 -19 1 -47 14 -47 5 0 9 6 9 14 0 8 3 23 6 33 4 13 3
15 -4 4 -8 -11 -10 -11 -14 0 -3 9 -6 8 -11 -4z"/>
<path d="M6641 6984 c0 -11 3 -14 6 -6 3 7 2 16 -1 19 -3 4 -6 -2 -5 -13z"/>
<path d="M6605 6970 c-3 -5 -1 -10 4 -10 6 0 11 5 11 10 0 6 -2 10 -4 10 -3 0
-8 -4 -11 -10z"/>
<path d="M6957 6966 c-2 -6 -1 -20 4 -31 7 -19 8 -19 8 3 1 12 6 22 11 22 6 0
10 4 10 8 0 13 -28 10 -33 -2z"/>
<path d="M6925 6951 c-6 -11 13 -26 22 -17 4 3 1 6 -6 6 -7 0 -9 5 -6 10 3 6
4 10 1 10 -3 0 -7 -4 -11 -9z"/>
<path d="M6786 6941 c-4 -7 -5 -15 -2 -18 9 -9 19 4 14 18 -4 11 -6 11 -12 0z"/>
<path d="M6865 6940 c-3 -5 -2 -10 4 -10 5 0 18 -3 28 -7 17 -6 17 -6 1 10
-19 20 -24 21 -33 7z"/>
<path d="M6703 6902 c-11 -15 -13 -15 -22 -2 -6 8 -11 10 -11 5 0 -13 21 -35
33 -35 4 0 5 5 2 10 -3 6 1 10 9 10 17 0 22 15 8 24 -4 2 -13 -3 -19 -12z"/>
<path d="M6931 6904 c0 -11 3 -14 6 -6 3 7 2 16 -1 19 -3 4 -6 -2 -5 -13z"/>
<path d="M6911 6894 c0 -11 3 -14 6 -6 3 7 2 16 -1 19 -3 4 -6 -2 -5 -13z"/>
<path d="M6879 6873 c-13 -16 -12 -17 4 -4 9 7 17 15 17 17 0 8 -8 3 -21 -13z"/>
<path d="M6925 6870 c-3 -5 -1 -10 4 -10 6 0 11 5 11 10 0 6 -2 10 -4 10 -3 0
-8 -4 -11 -10z"/>
<path d="M6823 6855 c-10 -11 -9 -13 6 -12 11 1 17 7 14 14 -6 16 -5 16 -20
-2z"/>
<path d="M7002 6857 c-6 -7 -9 -24 -6 -38 4 -18 3 -21 -5 -9 -7 11 -10 7 -9
-16 1 -17 -3 -37 -7 -44 -4 -7 -3 -15 3 -19 7 -4 4 -11 -9 -20 -17 -10 -20
-10 -13 0 4 7 9 27 10 44 2 24 -1 20 -16 -20 -10 -27 -19 -45 -20 -40 -2 14
-19 -26 -19 -45 0 -8 4 -5 9 8 11 25 28 29 36 7 7 -17 44 -21 44 -4 0 5 -3 8
-7 6 -5 -3 -14 1 -21 9 -11 12 -10 14 3 14 9 0 13 5 10 10 -9 15 12 12 28 -4
9 -9 19 -11 28 -5 12 7 12 9 -1 9 -25 1 -38 13 -46 44 -5 21 -4 27 5 22 7 -5
11 2 12 21 0 16 3 22 6 13 8 -20 33 -44 39 -37 3 2 -7 17 -21 33 -18 20 -24
35 -20 51 6 26 2 29 -13 10z"/>
<path d="M6903 6846 c3 -8 1 -17 -6 -20 -8 -3 -8 -5 -1 -5 6 -1 17 5 23 13 9
11 8 15 -5 20 -11 4 -15 2 -11 -8z"/>
<path d="M6720 6840 c0 -6 7 -10 15 -10 8 0 15 2 15 4 0 2 -7 6 -15 10 -8 3
-15 1 -15 -4z"/>
<path d="M6651 6824 c0 -11 3 -14 6 -6 3 7 2 16 -1 19 -3 4 -6 -2 -5 -13z"/>
<path d="M6695 6830 c3 -5 8 -10 11 -10 2 0 4 5 4 10 0 6 -5 10 -11 10 -5 0
-7 -4 -4 -10z"/>
<path d="M7335 6818 c-8 -13 -11 -24 -6 -26 6 -2 7 -10 4 -19 -4 -11 -3 -14 6
-9 7 4 9 16 5 28 -4 13 0 24 13 33 10 8 13 15 6 15 -6 0 -19 -10 -28 -22z"/>
<path d="M6813 6815 c8 -5 13 -18 11 -28 -1 -9 1 -15 6 -12 5 3 7 13 6 23 -2
9 1 20 7 24 6 3 -2 5 -17 5 -20 -2 -23 -4 -13 -12z"/>
<path d="M6948 6809 c-10 -5 -18 -17 -18 -24 0 -8 -8 -15 -17 -16 -11 0 -13
-3 -6 -6 9 -3 10 -10 3 -22 -5 -10 -6 -22 -2 -26 4 -4 -1 -5 -12 -3 -12 2 -20
-3 -21 -14 -3 -15 0 -15 28 3 24 14 32 27 33 49 1 17 10 40 19 50 20 22 18 24
-7 9z"/>
<path d="M6884 6799 c-3 -6 -11 -8 -18 -6 -6 3 -12 -3 -12 -12 0 -9 8 -17 17
-17 11 0 15 6 11 15 -3 8 -1 12 4 8 6 -3 16 -2 23 2 10 6 9 10 -3 14 -8 3 -18
2 -22 -4z"/>
<path d="M6765 6790 c-3 -6 1 -7 9 -4 18 7 21 14 7 14 -6 0 -13 -4 -16 -10z"/>
<path d="M6729 6771 c8 -5 10 -14 6 -22 -6 -11 -5 -11 5 -2 14 12 6 33 -13 33
-8 0 -7 -3 2 -9z"/>
<path d="M6780 6775 c0 -5 5 -17 10 -25 5 -8 10 -10 10 -5 0 6 -5 17 -10 25
-5 8 -10 11 -10 5z"/>
<path d="M6820 6745 c0 -8 2 -15 4 -15 2 0 6 7 10 15 3 8 1 15 -4 15 -6 0 -10
-7 -10 -15z"/>
<path d="M7015 6749 c-4 -6 -5 -12 -2 -15 2 -3 7 2 10 11 7 17 1 20 -8 4z"/>
<path d="M7116 6744 c-9 -22 3 -32 14 -14 12 19 12 30 1 30 -5 0 -12 -7 -15
-16z"/>
<path d="M6860 6739 c0 -5 5 -7 10 -4 6 3 10 8 10 11 0 2 -4 4 -10 4 -5 0 -10
-5 -10 -11z"/>
<path d="M7224 6689 c-1 -23 2 -29 13 -25 8 3 18 6 21 6 4 0 0 5 -8 10 -12 8
-12 10 -1 10 11 0 11 3 1 15 -19 22 -25 18 -26 -16z"/>
<path d="M7130 6692 c0 -10 -5 -23 -10 -28 -8 -8 -6 -15 5 -24 13 -11 14 -10
9 4 -3 9 -1 16 5 16 6 0 10 6 9 13 -2 6 3 11 11 9 12 -3 12 0 1 12 -17 21 -30
20 -30 -2z"/>
<path d="M7200 6695 c0 -8 4 -15 10 -15 5 0 7 7 4 15 -4 8 -8 15 -10 15 -2 0
-4 -7 -4 -15z"/>
<path d="M6820 6689 c0 -5 5 -7 10 -4 6 3 10 8 10 11 0 2 -4 4 -10 4 -5 0 -10
-5 -10 -11z"/>
<path d="M7290 6668 c0 -11 12 -10 30 2 12 7 10 9 -8 7 -12 0 -22 -5 -22 -9z"/>
<path d="M6886 6657 c3 -10 9 -15 12 -12 3 3 0 11 -7 18 -10 9 -11 8 -5 -6z"/>
<path d="M7043 6644 c-9 -9 -9 -14 2 -18 8 -3 19 3 24 13 12 21 -8 25 -26 5z"/>
<path d="M7248 6653 c7 -3 16 -2 19 1 4 3 -2 6 -13 5 -11 0 -14 -3 -6 -6z"/>
<path d="M3298 6633 c7 -3 16 -2 19 1 4 3 -2 6 -13 5 -11 0 -14 -3 -6 -6z"/>
<path d="M7002 6631 c2 -7 -3 -16 -11 -19 -8 -3 -11 0 -7 7 4 6 2 11 -4 11 -7
0 -10 -7 -6 -15 3 -8 0 -15 -6 -15 -6 0 -8 -3 -5 -6 4 -4 18 1 32 10 25 17 26
17 19 -9 -4 -16 -2 -25 5 -25 23 0 24 32 2 53 -13 13 -21 16 -19 8z"/>
<path d="M3168 6623 c-10 -2 -18 -9 -18 -14 0 -6 10 -5 23 2 37 20 36 23 -5
12z"/>
<path d="M6855 6620 c-3 -6 1 -7 9 -4 18 7 21 14 7 14 -6 0 -13 -4 -16 -10z"/>
<path d="M7310 6621 c-8 -6 -19 -7 -25 -3 -5 3 -4 -2 4 -11 7 -9 16 -17 19
-17 3 0 2 3 -1 7 -4 3 1 12 11 19 19 15 14 18 -8 5z"/>
<path d="M7249 6603 c-13 -16 -12 -17 4 -4 9 7 17 15 17 17 0 8 -8 3 -21 -13z"/>
<path d="M3263 6600 c-13 -5 -23 -12 -23 -15 0 -9 16 -5 36 10 22 16 19 18
-13 5z"/>
<path d="M3182 6581 c-10 -6 -8 -10 9 -14 28 -7 46 2 28 14 -17 11 -21 11 -37
0z"/>
<path d="M3094 6552 c3 -5 -9 -7 -25 -6 -17 1 -28 -1 -25 -4 9 -9 -54 -33 -67
-25 -5 3 -7 1 -3 -5 3 -6 -19 -26 -54 -47 -37 -23 -58 -41 -54 -48 4 -7 4 -9
-1 -5 -9 9 -49 -11 -41 -20 4 -3 -8 -12 -25 -19 -18 -7 -30 -15 -28 -18 9 -9
84 20 104 40 11 11 29 20 40 20 11 -1 27 2 35 6 43 20 96 43 105 45 6 1 19 5
30 9 14 5 16 4 6 -3 -20 -15 9 -22 34 -9 11 6 31 12 45 14 14 1 39 5 55 8 17
3 43 7 58 9 16 3 31 7 35 10 8 9 -53 0 -69 -9 -12 -8 -12 -6 0 8 12 15 11 17
-7 17 -12 0 -23 -4 -26 -9 -8 -12 -56 1 -55 14 0 6 9 9 20 8 10 -2 19 2 19 8
0 5 -4 7 -10 4 -5 -3 -10 -2 -10 3 0 5 -20 10 -45 10 -25 1 -44 -2 -41 -6z
m97 -65 c-7 -7 -18 -7 -33 0 -22 10 -21 11 10 10 22 0 30 -3 23 -10z"/>
<path d="M6921 6541 c-7 -5 -9 -11 -5 -14 5 -3 15 1 22 9 14 16 5 18 -17 5z"/>
<path d="M3040 6444 c-14 -8 -24 -18 -22 -24 1 -5 -7 -11 -18 -11 -11 -1 -28
-2 -37 -3 -18 -1 -43 -19 -43 -32 0 -3 6 -2 13 5 9 7 17 7 23 1 15 -15 77 18
70 36 -3 8 1 14 10 14 10 0 12 -5 8 -12 -5 -9 0 -8 15 2 41 27 25 48 -19 24z"/>
<path d="M3210 6443 c0 -5 -22 -9 -49 -10 -45 -3 -171 -55 -179 -75 -2 -4 -13
-8 -23 -8 -11 0 -17 -4 -14 -10 3 -5 -2 -10 -13 -10 -10 0 -22 -3 -25 -7 -4
-3 -18 -8 -32 -9 -14 -1 -32 -10 -41 -18 -8 -9 -21 -16 -27 -16 -6 0 -29 -17
-50 -37 -21 -21 -37 -33 -35 -27 3 11 -1 14 -20 14 -5 0 -18 -9 -29 -20 -18
-16 -22 -17 -27 -4 -3 9 -1 12 4 9 6 -3 10 -1 10 5 0 6 4 9 8 6 5 -3 19 5 33
17 13 13 33 21 44 19 18 -4 18 -3 5 14 -13 17 -13 18 0 8 12 -8 23 -6 49 13
19 12 30 23 26 23 -5 0 -1 6 9 13 17 13 16 14 -12 14 -17 0 -29 -4 -27 -8 7
-10 -44 -41 -58 -35 -7 2 -5 5 4 5 18 1 48 31 32 31 -16 0 -61 -39 -67 -58 -4
-9 -22 -27 -41 -40 -19 -12 -34 -26 -32 -32 1 -5 -16 -27 -38 -48 -50 -49 -86
-89 -100 -112 -5 -10 -26 -42 -45 -71 -49 -75 -160 -304 -160 -331 0 -7 -11
-37 -25 -66 -14 -30 -25 -66 -25 -80 0 -27 -18 -86 -33 -110 -5 -7 -5 -22 -2
-35 5 -16 4 -18 -3 -8 -21 30 -28 -213 -9 -289 13 -50 51 -146 67 -170 31 -45
52 -92 55 -124 7 -56 16 -91 30 -113 8 -11 19 -49 24 -82 6 -34 19 -90 30
-124 11 -34 36 -120 56 -192 20 -71 44 -145 52 -163 33 -70 127 -111 177 -78
14 9 28 16 31 16 3 0 5 -47 5 -104 0 -138 20 -229 79 -356 42 -90 50 -117 54
-185 l6 -79 -57 -70 c-31 -39 -130 -146 -220 -237 l-163 -167 -92 -32 c-189
-65 -335 -123 -428 -170 -53 -27 -139 -60 -190 -74 -52 -14 -139 -40 -194 -59
-55 -19 -154 -52 -220 -72 -66 -20 -149 -50 -184 -66 -35 -16 -79 -29 -98 -29
-20 0 -64 -14 -99 -31 -114 -54 -211 -197 -237 -350 -9 -53 -12 -209 -12 -554
1 -454 6 -559 36 -832 8 -65 10 -184 6 -332 l-7 -231 1735 0 c954 0 1735 1
1735 3 0 17 -282 826 -342 982 -136 352 -186 495 -175 495 6 0 1 10 -12 21
-13 13 -21 29 -18 40 3 10 -1 20 -9 23 -8 3 -14 12 -14 20 0 9 -11 39 -25 68
-13 29 -49 119 -79 199 -30 80 -73 183 -94 230 -22 46 -36 88 -32 93 11 11 1
38 -11 31 -5 -3 -11 7 -15 22 -4 15 -12 31 -18 35 -7 5 -6 8 3 8 10 0 10 6 -4
26 -9 14 -14 28 -11 31 3 3 0 11 -7 19 -32 36 -39 46 -33 51 3 3 0 15 -5 26
-6 11 -12 31 -14 45 -1 15 -8 28 -14 30 -6 2 -11 10 -11 18 0 8 -4 22 -9 32
-5 9 -15 44 -21 77 -7 33 -18 80 -26 105 -8 25 -16 55 -18 68 -3 23 -3 23 26
-5 l29 -28 -10 30 c-10 26 -9 28 3 13 16 -22 26 -23 26 -2 0 8 4 13 9 9 5 -3
12 -1 15 3 9 15 42 7 66 -16 13 -12 26 -19 29 -16 3 4 0 9 -6 11 -7 3 -13 11
-13 18 0 16 62 13 68 -4 2 -6 -3 -9 -12 -5 -23 9 -20 -8 4 -29 12 -10 18 -22
15 -27 -8 -13 34 -72 46 -64 5 3 7 10 4 15 -3 5 1 6 9 3 9 -3 16 -10 16 -16 0
-5 4 -7 9 -4 4 3 16 -1 27 -8 13 -10 17 -24 16 -55 -2 -24 2 -41 8 -41 8 0 8
-6 0 -20 -6 -11 -7 -20 -3 -20 15 0 29 45 28 93 0 26 3 47 8 47 4 0 3 10 -4
21 -6 12 -7 19 -1 15 5 -3 9 8 9 27 -1 36 5 72 22 133 12 45 46 75 90 79 14 1
31 3 36 5 19 5 54 -12 58 -29 3 -9 4 0 4 19 l-2 35 73 19 c39 10 72 22 72 25
0 4 -33 6 -72 5 -40 -1 -79 3 -85 9 -9 6 -13 6 -13 -1 0 -17 -122 0 -147 20
-9 7 -13 7 -13 0 0 -8 -9 -8 -30 -1 -16 6 -30 15 -30 20 0 5 -7 9 -15 9 -19 0
-55 31 -55 46 0 7 6 15 13 17 6 3 -1 6 -16 6 -16 1 -26 5 -22 10 3 5 -2 16
-10 24 -17 18 -20 31 -5 22 10 -6 15 9 10 30 -1 6 -3 19 -4 30 -1 12 -6 27
-11 34 -5 10 -4 12 3 7 15 -9 15 9 2 34 -8 15 -6 24 9 39 11 11 23 16 28 13 4
-4 0 2 -10 14 -9 11 -14 24 -11 27 4 4 1 14 -6 23 -11 13 -11 17 0 24 11 7 10
15 -2 47 -15 35 -10 83 8 83 3 0 4 -6 1 -14 -4 -10 0 -14 13 -13 10 1 18 6 17
12 -1 5 12 9 28 8 100 -5 212 -1 223 7 1 2 7 4 12 5 6 1 13 4 18 5 4 1 11 2
15 1 4 -1 10 5 13 13 3 9 12 12 21 9 11 -4 14 -2 9 5 -4 7 -19 12 -34 12 -20
0 -23 3 -12 9 8 6 17 8 21 5 4 -2 10 2 12 8 4 10 8 10 15 -1 5 -7 15 -10 21
-7 14 9 14 -7 0 -21 -9 -9 -7 -10 10 -6 11 3 21 1 21 -5 0 -22 107 14 113 38
3 11 18 25 33 30 23 9 26 13 14 21 -12 8 -10 9 7 7 12 -2 22 1 22 6 0 5 11 16
26 26 l26 17 -30 13 c-41 16 -309 20 -319 3 -5 -8 -20 -7 -57 6 -38 13 -74 17
-147 14 -80 -2 -98 0 -98 11 0 8 -8 17 -18 20 -10 3 -26 19 -35 36 -16 27 -15
34 5 32 3 -1 9 5 12 13 3 9 0 12 -9 9 -9 -4 -13 2 -11 20 2 14 -1 23 -6 20 -5
-3 -7 -12 -4 -19 5 -15 -17 -38 -27 -28 -4 3 -7 -1 -7 -11 0 -9 4 -15 9 -12
10 6 25 -24 16 -32 -3 -3 -17 1 -32 8 -41 20 -51 20 -46 0 3 -13 -3 -19 -22
-22 -19 -4 -25 -2 -21 8 3 9 -3 11 -20 8 -16 -3 -23 -1 -19 6 11 17 -11 11
-28 -8 -20 -22 -22 -46 -4 -39 6 2 11 12 9 22 -2 10 1 14 8 10 6 -4 8 -16 4
-27 -7 -23 26 -99 41 -94 15 4 44 -32 40 -52 -1 -9 3 -20 9 -24 8 -6 6 -11 -4
-18 -14 -9 -7 -14 13 -11 4 1 3 -7 -2 -18 -6 -10 -7 -22 -3 -27 4 -5 -1 -3
-10 4 -14 11 -16 10 -11 -7 3 -12 -1 -38 -10 -58 -8 -22 -11 -47 -7 -58 10
-28 1 -49 -15 -35 -10 9 -16 6 -24 -9 -6 -11 -11 -27 -11 -35 0 -9 -6 -16 -13
-16 -7 0 -22 -7 -33 -15 -18 -15 -18 -15 0 -8 13 4 17 3 12 -5 -4 -7 -14 -12
-22 -12 -8 0 -13 -3 -13 -7 7 -46 -16 -58 -26 -13 -4 17 -10 28 -13 26 -7 -4
-11 40 -13 137 0 36 -5 57 -12 57 -7 0 -6 4 3 9 8 6 17 8 21 5 4 -2 5 5 2 16
-3 11 -9 20 -12 20 -8 0 -10 9 -12 66 0 20 -9 55 -19 77 -10 23 -16 46 -12 51
3 6 5 22 4 37 -1 16 4 29 13 33 20 7 19 51 -2 72 -10 10 -19 25 -20 33 -2 16
-10 51 -13 61 -1 3 -3 12 -4 20 -5 36 -19 80 -26 80 -3 0 -7 15 -8 33 0 17 -3
50 -7 72 -4 22 -7 46 -7 53 -1 6 -6 12 -12 12 -6 0 -5 4 2 9 11 6 10 11 -3 25
-9 9 -18 22 -20 29 -1 6 -6 27 -10 45 -7 31 -25 45 -25 20 0 -10 -2 -10 -8 -1
-17 26 -2 122 25 166 4 6 0 8 -10 4 -28 -11 -19 1 13 18 17 9 30 11 30 5 0 -5
7 -10 15 -10 8 0 15 4 15 8 0 5 29 8 64 6 48 -2 66 1 70 12 3 8 12 11 22 7 11
-4 15 -2 11 4 -10 17 23 25 41 11 12 -10 14 -10 8 0 -4 6 -4 12 1 13 21 2 57
10 61 13 2 2 -20 9 -50 14 -32 6 -42 10 -25 11 15 0 41 8 58 16 16 9 34 13 39
10 5 -3 12 10 16 30 3 19 9 35 13 35 11 0 91 -63 91 -72 0 -4 18 -8 40 -8 51
0 62 -19 43 -74 -8 -22 -22 -49 -30 -58 -12 -13 -13 -21 -5 -31 6 -7 10 -22 8
-32 -2 -11 2 -23 8 -27 8 -6 6 -11 -4 -18 -8 -5 -10 -10 -5 -10 6 0 5 -4 -1
-8 -16 -9 -19 -46 -10 -102 9 -54 -5 -92 -63 -169 -28 -38 -41 -65 -41 -87 0
-34 41 -116 48 -96 5 16 23 15 20 0 -2 -6 5 -14 16 -16 13 -3 16 0 11 9 -5 8
-4 10 3 5 7 -4 12 -14 12 -23 0 -12 3 -13 13 -4 8 6 16 9 18 7 10 -10 79 -15
79 -6 0 6 11 10 25 10 26 0 132 36 153 53 20 16 14 30 -13 25 -18 -4 -33 2
-51 21 -67 67 -75 105 -45 221 19 72 22 192 8 260 -3 14 -11 48 -17 75 -6 28
-14 64 -17 80 -3 17 -9 35 -13 40 -4 6 -11 25 -15 43 -3 17 -12 32 -19 32 -6
0 -20 14 -29 30 -10 17 -26 30 -35 30 -10 0 -28 10 -42 23 -32 29 -78 49 -92
41 -7 -4 -8 -2 -4 4 5 8 -6 12 -36 13 -24 1 -50 2 -58 3 -8 1 -21 -3 -27 -7
-7 -5 -19 -7 -27 -4 -7 3 -23 -1 -33 -8 -11 -8 -32 -16 -46 -19 -21 -4 -25 -1
-20 12 5 14 3 15 -8 5 -7 -7 -22 -13 -33 -12 -20 0 -20 0 0 9 38 15 35 27 -6
25 -27 -2 -44 3 -56 16 -9 10 -21 16 -27 15 -7 -2 -9 -1 -4 1 4 3 7 11 7 19 0
8 4 14 9 14 5 0 12 7 15 16 4 9 2 13 -5 8 -8 -4 -8 0 0 14 6 12 16 24 21 27 6
4 8 11 5 16 -4 5 1 12 9 15 9 3 13 10 10 15 -3 5 -10 5 -17 -1 -7 -5 -28 -22
-47 -37 l-34 -28 24 35 c14 19 30 40 35 46 46 52 53 64 44 69 -5 4 -7 15 -4
26 4 13 2 19 -9 19 -12 0 -13 6 -5 32 12 42 12 43 -4 29 -18 -14 -30 -2 -16
16 9 10 8 13 -2 13 -8 0 -36 -32 -64 -69 -27 -38 -52 -68 -54 -66 -2 2 14 32
35 66 68 108 74 120 68 131 -5 7 -2 8 6 3 10 -6 12 -4 7 9 -5 13 -3 17 7 13 8
-3 20 2 28 11 12 15 11 16 -4 3 -11 -8 -18 -9 -18 -3 0 6 9 16 21 22 11 7 18
18 15 25 -2 7 2 21 9 32 8 10 15 21 15 25 0 12 -36 4 -56 -12 -16 -14 -16 -13
-3 8 8 12 16 22 19 23 3 1 16 2 30 3 40 4 64 17 48 27 -7 5 -22 2 -35 -7 -13
-8 -23 -11 -23 -6 0 8 52 42 65 42 3 0 3 -4 0 -10 -3 -5 -2 -10 4 -10 5 0 9 9
8 19 -1 19 -18 18 -43 -1 -7 -5 -16 -2 -24 7 -9 11 -9 15 -1 15 7 0 9 5 6 10
-3 6 -2 10 3 10 6 0 13 7 16 16 4 11 -3 9 -26 -7 -18 -13 -28 -17 -23 -8 4 7
-7 1 -25 -16 -18 -16 -29 -23 -25 -15 8 14 0 7 -75 -65 -17 -17 -28 -23 -25
-14 10 26 -12 33 -25 9 -8 -16 -15 -19 -24 -11 -7 6 -16 8 -19 4 -4 -3 -7 -1
-7 5 0 6 10 17 23 23 19 11 21 11 9 -3 -8 -10 -9 -19 -3 -22 9 -6 21 18 27 53
2 7 7 18 13 24 6 6 11 15 11 20 0 5 -10 -3 -22 -19 -24 -32 -59 -60 -69 -57
-4 1 -5 -6 -2 -16 3 -10 0 -22 -6 -25 -6 -4 -11 -12 -11 -17 0 -6 4 -8 8 -5 4
2 9 -5 9 -17 1 -12 -1 -17 -5 -12 -4 6 -15 17 -24 26 -16 15 -16 18 0 35 9 11
19 28 20 39 5 24 62 98 106 138 19 17 24 25 12 21 -16 -6 -17 -5 -7 15 7 12
17 18 23 15 7 -4 8 -2 4 5 -9 14 -15 10 -92 -68 -29 -30 -57 -52 -60 -48 -4 3
12 23 35 43 22 21 41 44 41 53 0 10 -14 1 -40 -24 -43 -42 -64 -45 -25 -3 13
14 21 29 17 34 -4 4 -2 4 4 1 6 -4 19 2 29 13 10 11 23 17 29 13 6 -4 5 1 -3
11 -8 9 -10 16 -5 14 15 -5 104 87 103 108 0 18 -1 18 -8 1 -4 -10 -10 -18
-14 -17 -5 1 -20 -6 -34 -15 -27 -18 -25 -7 5 28 19 21 9 22 -23 1 -46 -30
-26 4 24 40 27 20 61 52 76 72 15 20 51 46 81 61 30 14 57 29 60 34 7 12 -9
12 -22 0 -17 -16 -85 -41 -77 -28 4 6 8 20 8 29 1 14 -1 15 -13 6 -9 -8 -10
-14 -3 -16 12 -4 -35 -45 -55 -48 -10 -2 -10 2 -1 16 6 10 15 17 19 14 4 -3 6
1 3 8 -3 8 25 32 72 61 43 27 68 47 55 44 l-24 -6 24 23 c13 12 26 21 29 19 4
-1 10 4 13 12 4 12 0 14 -22 10 -15 -3 -21 -2 -14 1 19 9 64 55 59 61 -3 2
-11 -2 -19 -9 -14 -13 -38 -22 -38 -13 0 2 14 12 32 21 50 26 75 64 43 64 -8
0 -15 -3 -15 -7z m-23 -29 c-3 -3 -12 -4 -19 -1 -8 3 -5 6 6 6 11 1 17 -2 13
-5z m-77 -78 c0 -2 -7 -7 -16 -10 -8 -3 -12 -2 -9 4 6 10 25 14 25 6z m-25
-676 c3 -5 1 -10 -4 -10 -6 0 -11 5 -11 10 0 6 2 10 4 10 3 0 8 -4 11 -10z
m142 -746 c-2 -2 -13 -6 -23 -9 -34 -7 -125 -44 -140 -56 -8 -6 -14 -8 -14 -5
0 4 -7 0 -16 -8 -21 -22 -33 -20 -31 3 1 16 4 18 16 8 12 -10 14 -9 9 8 -8 32
28 52 95 53 32 0 60 2 62 4 2 2 14 4 26 5 12 1 19 0 16 -3z m137 -59 c25 -20
46 -33 46 -30 0 6 8 0 58 -44 18 -16 29 -32 25 -34 -13 -8 -93 44 -93 59 0 8
-5 14 -12 14 -7 0 -23 11 -37 24 -15 13 -39 28 -56 34 -30 10 -30 10 -4 11 15
1 45 -14 73 -34z m-98 -62 c-11 -11 -19 6 -11 24 8 17 8 17 12 0 3 -10 2 -21
-1 -24z m-696 -704 c0 -6 -4 -7 -10 -4 -5 3 -10 11 -10 16 0 6 5 7 10 4 6 -3
10 -11 10 -16z m1257 -365 c-3 -3 -12 -4 -19 -1 -8 3 -5 6 6 6 11 1 17 -2 13
-5z m68 -42 c-9 -9 -35 8 -35 23 0 13 3 12 20 -2 11 -9 17 -19 15 -21z m-614
-251 c5 -42 4 -57 -6 -68 -13 -12 -25 -8 -25 9 0 5 4 7 9 4 4 -3 8 8 7 24 -1
17 -6 28 -12 26 -6 -2 -11 2 -11 9 0 12 36 9 38 -4z m99 -77 c0 -8 5 -14 11
-14 5 0 7 -5 3 -12 -6 -9 -9 -9 -12 0 -2 7 -7 10 -12 7 -4 -3 -10 6 -12 19 -4
17 -1 23 9 19 7 -3 13 -11 13 -19z m34 -50 c3 -8 2 -12 -4 -9 -6 3 -10 10 -10
16 0 14 7 11 14 -7z m-322 -503 c26 3 39 -1 33 -11 -3 -5 -2 -10 3 -10 20 0
40 -69 47 -160 4 -52 5 -93 2 -90 -16 19 -66 123 -62 130 3 5 1 11 -5 15 -11
7 -52 92 -69 145 l-11 35 24 -28 c13 -16 30 -27 38 -26z m442 16 c-1 -9 2 -17
7 -17 5 0 9 -4 9 -10 0 -5 -8 -6 -17 -3 -16 6 -16 5 0 -17 20 -28 21 -40 6
-40 -5 0 -7 5 -4 10 3 6 2 10 -3 10 -19 0 -21 -14 -5 -32 16 -18 16 -18 -2
-12 -13 5 -16 4 -10 -5 6 -10 3 -11 -13 -2 -12 6 -24 17 -28 24 -5 8 -2 7 9
-2 21 -17 22 -7 1 25 -15 22 -15 24 0 18 12 -4 16 0 16 16 0 11 -4 18 -10 15
-11 -7 -13 6 -4 30 9 22 49 16 48 -8z"/>
<path d="M2890 6359 c0 -5 -4 -8 -9 -4 -6 3 -15 -3 -20 -14 -10 -18 -9 -18 19
-8 28 11 42 37 20 37 -5 0 -10 -5 -10 -11z"/>
<path d="M3140 6215 c-14 -8 -19 -14 -10 -14 8 0 24 6 34 14 25 19 9 19 -24 0z"/>
<path d="M3044 6023 c3 -6 -6 -20 -21 -31 -16 -11 -26 -23 -23 -26 3 -3 19 6
35 19 26 20 28 26 16 37 -8 7 -11 8 -7 1z"/>
<path d="M3055 5790 c-3 -6 1 -7 9 -4 18 7 21 14 7 14 -6 0 -13 -4 -16 -10z"/>
<path d="M2995 5720 c6 -10 4 -12 -7 -7 -19 7 -63 -36 -53 -52 3 -6 -1 -11 -9
-11 -17 0 -22 -15 -7 -24 7 -5 20 7 78 76 11 12 12 18 2 24 -8 5 -10 3 -4 -6z"/>
<path d="M3089 5553 c-13 -16 -12 -17 4 -4 16 13 21 21 13 21 -2 0 -10 -8 -17
-17z"/>
<path d="M4611 5084 c0 -11 3 -14 6 -6 3 7 2 16 -1 19 -3 4 -6 -2 -5 -13z"/>
<path d="M4068 4959 c-31 -9 -59 -14 -62 -11 -5 5 -46 -36 -46 -46 0 -2 27 -2
60 1 33 3 60 2 60 -2 0 -4 -16 -23 -36 -42 -38 -37 -66 -78 -43 -64 9 6 11 3
6 -8 -3 -9 -2 -19 4 -23 6 -3 8 -12 5 -20 -3 -8 -1 -14 4 -14 6 0 10 7 10 15
0 8 5 15 11 15 5 0 8 4 5 9 -5 8 15 21 30 21 3 0 10 -13 15 -30 7 -20 18 -30
32 -31 135 -9 138 -8 156 22 19 34 41 38 48 9 3 -11 12 -20 19 -20 8 0 14 -4
14 -8 0 -9 -59 -32 -83 -32 -9 0 -17 -4 -17 -10 0 -5 8 -8 18 -7 35 7 107 31
117 39 5 4 17 8 26 8 13 0 16 6 11 22 -4 18 -2 20 14 15 45 -16 -87 89 -151
120 -38 18 -66 33 -61 33 5 0 -3 11 -18 25 -20 19 -34 23 -53 19 -14 -4 -28
-2 -32 3 -4 6 -28 3 -63 -8z m238 -99 c42 -16 23 -21 -21 -5 -22 8 -32 14 -23
15 9 0 29 -5 44 -10z m-81 -70 c-5 -8 -11 -8 -17 -2 -6 6 -7 16 -3 22 5 8 11
8 17 2 6 -6 7 -16 3 -22z"/>
<path d="M4870 4930 c0 -5 5 -10 11 -10 5 0 7 5 4 10 -3 6 -8 10 -11 10 -2 0
-4 -4 -4 -10z"/>
<path d="M5012 4890 c0 -14 2 -19 5 -12 2 6 2 18 0 25 -3 6 -5 1 -5 -13z"/>
<path d="M4973 4866 c4 -9 2 -15 -5 -13 -22 5 -15 -41 9 -52 20 -9 24 -7 29
15 4 16 2 29 -6 34 -6 4 -11 11 -10 16 1 5 -4 10 -11 13 -8 2 -10 -2 -6 -13z"/>
<path d="M4695 4820 c-3 -4 2 -10 10 -14 8 -3 15 0 15 6 0 7 6 6 18 -3 14 -11
15 -11 5 1 -15 16 -41 22 -48 10z"/>
<path d="M4695 4790 c-9 -14 14 -22 32 -11 10 6 16 11 13 11 -31 7 -41 7 -45
0z"/>
<path d="M4762 4789 c-13 -5 -21 -13 -17 -19 3 -5 0 -7 -8 -4 -8 3 -18 1 -22
-5 -3 -6 -1 -11 5 -11 6 0 20 -16 31 -35 12 -19 25 -32 30 -29 5 3 9 -2 9 -10
0 -9 5 -16 10 -16 21 0 10 57 -15 76 -14 10 -25 25 -25 33 0 10 3 11 13 2 10
-8 19 -7 33 5 18 14 18 15 -5 8 -16 -4 -21 -3 -17 5 8 13 8 13 -22 0z"/>
<path d="M3290 4710 c0 -13 11 -13 30 0 12 8 11 10 -7 10 -13 0 -23 -4 -23
-10z"/>
<path d="M4053 4708 c2 -7 8 -13 13 -14 5 0 23 -3 39 -7 54 -13 95 -16 95 -6
0 5 -10 10 -22 10 -32 2 -39 4 -71 17 -37 16 -60 15 -54 0z"/>
<path d="M4720 4688 c0 -25 12 -58 19 -53 4 2 5 -9 3 -26 -3 -17 0 -29 7 -29
6 0 11 7 11 15 0 8 5 15 10 15 12 0 12 -27 0 -55 -8 -19 -9 -19 -9 -1 -1 11
-4 17 -7 13 -9 -9 5 -57 16 -57 6 0 10 7 10 16 0 8 5 12 10 9 6 -4 10 7 10 27
0 25 3 29 10 18 8 -12 10 -11 10 5 0 26 -34 57 -48 43 -6 -6 -12 0 -16 16 -3
14 -11 26 -17 26 -6 0 -8 4 -4 9 3 5 1 12 -5 16 -5 3 -10 0 -10 -7z"/>
<path d="M4210 4686 c0 -2 9 -6 20 -9 11 -3 20 -1 20 4 0 5 -9 9 -20 9 -11 0
-20 -2 -20 -4z"/>
<path d="M4926 4675 c-4 -11 -12 -30 -17 -42 -5 -13 -5 -23 0 -23 13 0 33 46
29 66 -5 18 -5 18 -12 -1z"/>
<path d="M4040 4194 c0 -5 18 -36 40 -69 40 -60 53 -60 24 0 -15 33 -64 86
-64 69z"/>
<path d="M3895 4150 c-4 -6 5 -10 19 -10 14 0 26 5 26 10 0 6 -9 10 -19 10
-11 0 -23 -4 -26 -10z"/>
<path d="M3115 3510 c3 -5 8 -10 11 -10 2 0 4 5 4 10 0 6 -5 10 -11 10 -5 0
-7 -4 -4 -10z"/>
<path d="M3120 3470 c0 -11 5 -20 10 -20 6 0 10 9 10 20 0 11 -4 20 -10 20 -5
0 -10 -9 -10 -20z"/>
<path d="M3464 3469 c0 -10 4 -19 8 -19 4 0 8 6 8 14 0 8 -4 17 -8 20 -4 2 -8
-4 -8 -15z"/>
<path d="M3130 3391 c0 -6 4 -13 10 -16 6 -3 7 1 4 9 -7 18 -14 21 -14 7z"/>
<path d="M3440 3361 c0 -5 5 -13 10 -16 6 -3 10 -2 10 4 0 5 -4 13 -10 16 -5
3 -10 2 -10 -4z"/>
<path d="M4226 3212 c-4 -7 -13 -11 -20 -9 -6 3 -20 -1 -31 -9 -17 -13 -17
-14 -1 -14 15 0 16 -7 11 -57 -6 -49 -2 -71 22 -138 26 -74 28 -91 29 -236 0
-86 -3 -188 -7 -226 -27 -249 -27 -279 -4 -324 9 -16 14 -37 13 -46 -2 -9 2
-18 8 -20 6 -2 9 10 8 29 -3 41 6 88 16 88 10 0 24 -47 25 -90 1 -19 5 -43 10
-53 4 -11 3 -23 -3 -29 -8 -8 -8 -17 -1 -30 5 -10 8 -22 5 -27 -3 -4 -6 -77
-7 -162 -1 -85 -5 -181 -10 -214 -5 -33 -11 -127 -14 -210 -4 -136 -7 -195
-20 -350 -3 -27 -7 -145 -10 -262 -3 -116 -8 -218 -11 -227 -4 -10 -1 -16 9
-16 13 0 13 -6 2 -45 -8 -25 -17 -93 -21 -152 -4 -60 -12 -170 -18 -246 l-11
-137 1317 0 1317 0 -15 42 c-8 24 -36 81 -61 128 -103 188 -108 203 -131 376
-23 168 -104 510 -142 598 -15 35 -24 86 -31 179 -11 144 -43 302 -91 447 -45
138 -135 341 -165 372 -29 30 -98 63 -158 74 -22 4 -60 20 -85 35 -59 36 -264
115 -363 140 -42 11 -113 33 -157 49 -44 16 -108 36 -142 45 -35 9 -134 41
-222 72 -87 31 -202 68 -255 82 l-97 26 -74 84 c-40 46 -119 131 -175 190
-139 144 -219 238 -225 264 -4 16 -8 18 -14 9z"/>
<path d="M4152 2860 c0 -14 2 -19 5 -12 2 6 2 18 0 25 -3 6 -5 1 -5 -13z"/>
<path d="M3400 2663 c0 -5 11 -21 25 -38 l25 -30 -17 37 c-16 34 -33 50 -33
31z"/>
<path d="M3811 2567 c2 -1 13 -9 24 -17 19 -14 19 -14 6 3 -7 9 -18 17 -24 17
-6 0 -8 -1 -6 -3z"/>
<path d="M4100 2560 c0 -5 5 -10 11 -10 5 0 7 5 4 10 -3 6 -8 10 -11 10 -2 0
-4 -4 -4 -10z"/>
<path d="M3880 2344 c0 -13 18 -39 24 -34 2 3 -2 14 -10 24 -8 11 -14 16 -14
10z"/>
<path d="M3375 2160 c3 -5 8 -10 11 -10 2 0 4 5 4 10 0 6 -5 10 -11 10 -5 0
-7 -4 -4 -10z"/>
<path d="M4210 1884 c0 -13 18 -39 24 -34 2 3 -2 14 -10 24 -8 11 -14 16 -14
10z"/>
<path d="M4190 1811 c0 -11 4 -22 9 -25 4 -3 6 6 3 19 -5 30 -12 33 -12 6z"/>
<path d="M4120 1665 c0 -5 5 -17 10 -25 5 -8 10 -10 10 -5 0 6 -5 17 -10 25
-5 8 -10 11 -10 5z"/>
<path d="M4082 1580 c0 -14 2 -19 5 -12 2 6 2 18 0 25 -3 6 -5 1 -5 -13z"/>
<path d="M3680 1467 c0 -23 35 -65 45 -55 3 3 -1 11 -10 18 -8 7 -15 23 -15
36 0 13 -4 24 -10 24 -5 0 -10 -11 -10 -23z"/>
<path d="M3777 1423 c-10 -17 8 -50 36 -64 l22 -12 -22 24 c-11 13 -23 33 -25
44 -2 14 -6 16 -11 8z"/>
<path d="M15 580 c-12 -19 -14 -70 -3 -70 6 0 8 11 6 25 -3 14 -1 22 4 19 6
-4 8 -21 6 -38 -3 -30 -2 -32 26 -28 23 4 26 6 12 14 -9 5 -16 14 -16 21 0 8
4 6 11 -3 8 -12 12 -12 16 -2 3 7 16 18 30 23 14 5 23 12 20 15 -3 3 -15 0
-27 -6 -25 -13 -38 -6 -22 12 8 10 4 13 -14 14 -13 1 -24 -2 -24 -8 0 -5 4 -6
10 -3 6 3 10 1 10 -4 0 -6 -4 -11 -9 -11 -13 0 -32 26 -24 33 3 4 4 7 0 7 -3
0 -9 -5 -12 -10z"/>
<path d="M2 480 c0 -14 2 -19 5 -12 2 6 2 18 0 25 -3 6 -5 1 -5 -13z"/>
</g>
</svg>
