<?xml version="1.0" standalone="no"?>
<!DOCTYPE svg PUBLIC "-//W3C//DTD SVG 20010904//EN"
 "http://www.w3.org/TR/2001/REC-SVG-20010904/DTD/svg10.dtd">
<svg version="1.0" xmlns="http://www.w3.org/2000/svg"
 width="784.000000pt" height="784.000000pt" viewBox="0 0 784.000000 784.000000"
 preserveAspectRatio="xMidYMid meet">

<g transform="translate(0.000000,784.000000) scale(0.100000,-0.100000)"
fill="#000000" stroke="none">
<path d="M0 6068 c1 -1572 2 -1771 16 -1753 8 11 22 29 32 40 9 11 41 52 71
90 29 39 58 75 65 80 6 6 33 36 60 69 59 69 101 90 170 83 41 -4 54 -10 81
-42 81 -94 339 -458 455 -643 30 -49 71 -110 91 -138 20 -27 44 -63 52 -81 9
-17 22 -37 30 -45 12 -12 75 -110 104 -160 6 -11 23 -37 38 -57 14 -20 56 -81
92 -136 36 -55 70 -101 74 -103 5 -2 9 -8 9 -13 0 -4 21 -42 48 -82 115 -180
252 -417 252 -437 0 -10 5 -22 10 -25 5 -3 10 -19 10 -35 0 -15 5 -30 12 -32
18 -6 0 -27 -38 -43 -36 -15 -612 -195 -623 -195 -3 0 -24 37 -46 83 -22 45
-43 84 -46 87 -3 3 -26 39 -50 80 -24 41 -49 84 -56 95 -7 11 -18 30 -24 43
-7 12 -16 22 -20 22 -4 0 -14 12 -21 28 -21 41 -42 76 -49 82 -3 3 -40 57 -82
120 -42 63 -81 120 -87 127 -5 7 -10 14 -10 16 0 2 -28 47 -63 98 -35 52 -101
150 -147 219 -46 69 -87 127 -90 130 -4 3 -18 21 -31 41 -13 20 -84 126 -157
234 l-132 198 0 -508 c0 -506 0 -507 22 -538 12 -18 25 -34 28 -37 3 -3 30
-41 60 -85 29 -44 57 -81 62 -83 4 -2 8 -8 8 -13 0 -9 56 -92 80 -119 36 -39
181 -258 228 -343 16 -29 46 -80 66 -114 20 -34 36 -63 36 -66 0 -8 -155 -94
-181 -100 -65 -16 -110 -115 -172 -378 -26 -111 -59 -199 -75 -199 -5 0 -28
30 -51 67 -23 38 -57 93 -76 123 l-35 55 0 -887 0 -888 1543 0 1543 0 -18 133
c-26 202 -47 414 -58 607 -19 321 -41 813 -46 1010 -2 107 -10 299 -16 425
-23 490 -22 556 8 700 14 72 31 155 36 185 6 30 15 60 20 67 12 16 -1 100 -18
118 -9 9 -26 12 -48 8 -41 -6 -97 11 -122 38 -27 30 -45 86 -55 169 -8 77 -27
155 -53 225 -8 22 -15 48 -16 58 0 19 -47 118 -60 127 -4 3 -13 23 -20 45 -14
45 -76 145 -90 145 -14 0 -42 59 -34 72 5 7 3 8 -6 3 -9 -5 -10 -2 -6 13 4 13
2 24 -7 29 -8 4 -33 36 -56 70 -23 34 -70 85 -105 115 -80 68 -96 91 -145 214
-37 93 -113 223 -136 233 -14 6 -55 52 -85 94 -14 19 -28 33 -32 30 -5 -2 -8
0 -8 5 0 13 -209 182 -225 182 -7 0 -42 16 -77 35 -35 20 -109 58 -165 86 -57
27 -103 53 -103 57 0 4 -13 13 -28 20 -56 24 -64 95 -16 157 14 19 29 35 33
36 76 9 163 7 205 -5 28 -8 74 -17 102 -20 28 -2 66 -13 85 -24 19 -10 45 -22
59 -25 14 -4 37 -17 52 -30 32 -28 111 -64 158 -71 19 -3 51 -20 70 -37 64
-56 135 -106 160 -112 14 -3 38 -23 54 -44 35 -46 93 -93 116 -93 10 0 22 16
31 43 9 24 26 47 39 54 26 13 57 73 38 73 -9 0 -9 3 0 12 7 7 12 23 11 37 0
26 0 26 -9 4 -5 -13 -12 -23 -16 -23 -3 0 -3 7 0 16 4 9 1 24 -6 32 -10 12
-10 14 0 8 6 -4 12 -2 12 3 0 6 -5 11 -12 11 -9 0 -9 3 0 12 17 17 15 29 -5
26 -11 -2 -19 7 -26 32 -5 19 -13 41 -19 47 -6 7 -8 20 -4 28 3 8 1 15 -5 15
-6 0 -9 6 -6 14 3 8 -1 20 -9 26 -8 7 -14 23 -14 36 0 22 -17 62 -31 74 -3 3
-9 22 -13 43 -4 20 -11 37 -16 37 -5 0 -7 7 -4 15 3 8 -3 31 -15 50 -12 20
-21 44 -21 53 0 10 -9 36 -20 57 -11 22 -23 53 -26 70 -3 16 -9 32 -13 35 -5
3 -12 20 -16 38 -4 18 -13 36 -20 39 -20 7 -67 136 -60 165 7 29 -3 56 -36 95
-20 24 -32 30 -53 26 -25 -5 -32 -16 -39 -70 -2 -12 -6 -25 -9 -28 -12 -12
-119 -34 -150 -30 -39 5 -75 44 -84 93 -4 21 -9 29 -14 22 -5 -9 -9 -9 -14 -1
-4 6 -2 11 3 11 6 0 17 16 25 35 10 23 26 39 49 49 19 7 38 19 41 25 4 6 36
11 74 11 60 0 69 -3 86 -25 10 -14 22 -25 25 -25 18 0 0 75 -37 160 -23 52
-42 102 -42 110 0 8 -7 24 -15 34 -8 11 -15 33 -15 49 0 16 -4 26 -10 22 -5
-3 -10 1 -10 10 0 22 -50 167 -61 180 -18 18 -10 84 11 97 25 16 25 24 0 31
-11 3 -18 2 -15 -3 3 -4 -2 -13 -10 -20 -20 -17 -20 1 0 40 15 29 15 30 -7 30
-21 0 -21 0 -2 14 12 9 23 11 28 5 13 -12 36 -12 36 1 0 6 -7 10 -15 10 -8 0
-15 6 -15 14 0 8 -6 17 -13 20 -6 3 -2 3 10 0 13 -3 31 -1 40 5 16 9 14 10 -9
11 -16 0 -28 5 -28 10 0 6 14 10 30 10 17 0 30 5 30 10 0 10 -13 14 -37 11 -6
-1 -14 3 -18 9 -5 9 31 16 58 11 5 -1 6 3 2 8 -3 6 3 19 15 31 11 11 20 29 20
40 0 11 3 20 8 20 4 0 13 4 21 9 12 8 11 12 -4 27 -17 17 -17 18 1 25 18 6 18
7 -1 11 -17 3 -16 6 12 21 18 9 45 18 60 18 21 2 19 3 -12 8 -23 3 -43 2 -47
-4 -5 -6 -8 -6 -8 1 0 17 26 36 47 34 34 -4 43 0 43 20 0 11 5 20 10 20 6 0
10 -10 10 -22 0 -17 3 -19 9 -9 5 8 3 24 -8 42 -12 23 -24 29 -51 30 l-35 2
35 6 c19 3 37 3 38 -1 9 -19 22 -5 22 22 0 17 5 30 10 30 6 0 10 -9 10 -20 0
-11 5 -20 10 -20 6 0 10 14 10 30 0 33 14 39 28 13 9 -14 10 -14 16 5 4 12 5
26 2 31 -9 14 15 61 30 61 11 0 11 -5 2 -25 -14 -30 -6 -41 19 -26 10 6 12 11
6 11 -19 0 -16 20 3 20 8 0 13 4 9 10 -3 5 9 14 27 20 29 8 25 9 -29 6 -73 -5
-92 8 -30 20 25 6 -365 10 -983 12 -903 2 -1025 0 -1033 -13 -10 -19 -33 -19
-41 0 -4 12 -24 15 -91 15 l-85 0 0 -1772z m2144 1702 c-6 -5 -24 21 -24 34 0
6 6 1 14 -10 8 -10 12 -21 10 -24z m36 16 c0 -3 -4 -8 -10 -11 -5 -3 -10 -1
-10 4 0 6 5 11 10 11 6 0 10 -2 10 -4z m0 -50 c0 -3 -4 -8 -10 -11 -5 -3 -10
-1 -10 4 0 6 5 11 10 11 6 0 10 -2 10 -4z m-1838 -339 c38 -36 47 -51 53 -92
8 -49 2 -78 -33 -158 l-16 -39 -80 4 c-53 2 -81 8 -84 16 -2 7 -15 25 -28 39
-25 27 -37 84 -32 147 3 37 7 42 60 71 32 17 63 36 70 43 21 21 43 13 90 -31z
m1558 -77 c0 -5 -7 -10 -15 -10 -8 0 -15 5 -15 10 0 6 7 10 15 10 8 0 15 -4
15 -10z m-1522 -587 c38 -39 61 -72 69 -100 13 -41 12 -45 -30 -120 l-43 -78
-64 -6 c-85 -7 -91 -5 -134 47 -33 39 -38 52 -43 112 -4 49 -1 75 10 96 16 30
130 105 160 106 10 0 44 -26 75 -57z m624 -72 c14 -2 58 -81 58 -103 -1 -37
-40 -76 -92 -89 l-48 -13 -41 43 -41 42 19 51 c16 42 26 53 54 63 29 10 55 12
91 6z m-322 -57 c0 -13 -4 -24 -10 -24 -5 0 -13 -1 -17 -2 -11 -5 -12 36 -1
49 14 18 28 7 28 -23z m636 -14 c10 0 33 -32 51 -72 11 -25 10 -28 -6 -28 -10
0 -24 -6 -30 -14 -22 -26 -64 -26 -97 -1 -26 20 -31 29 -25 52 13 57 66 105
87 78 6 -8 15 -15 20 -15z m312 -62 c6 -8 20 -35 31 -62 l21 -48 -32 -30 c-54
-51 -73 -60 -110 -53 -24 5 -37 15 -49 38 -8 17 -23 34 -32 39 -9 4 -25 12
-34 17 -10 4 -18 19 -18 32 0 19 5 23 22 22 14 -2 30 9 47 32 43 56 113 62
154 13z m-1287 -409 c13 -11 36 -28 51 -37 52 -31 71 -130 38 -207 -45 -105
-40 -100 -115 -111 -55 -7 -108 9 -140 44 -29 31 -55 102 -55 148 0 34 28 104
41 104 4 0 14 6 21 13 22 22 102 67 119 67 9 0 27 -9 40 -21z m484 -64 c32
-51 35 -61 35 -133 l0 -78 -35 -17 c-44 -21 -59 -21 -74 -3 -7 8 -26 18 -42
21 -29 7 -74 57 -61 69 3 4 1 11 -6 15 -12 7 -21 117 -11 124 2 2 19 15 37 30
25 20 45 27 77 27 43 0 46 -2 80 -55z m-490 -607 c69 -58 84 -79 95 -131 12
-59 -1 -111 -42 -170 -31 -45 -35 -47 -109 -47 -72 0 -113 19 -151 71 -25 33
-36 139 -18 177 7 15 15 34 19 42 9 19 141 87 163 84 9 -1 28 -13 43 -26z
m660 -70 c19 -9 29 -25 41 -67 8 -31 18 -63 21 -71 16 -45 50 -180 46 -180 -3
0 -1 -6 4 -12 6 -7 13 -26 17 -41 11 -46 -44 -120 -75 -101 -5 3 -9 0 -9 -5 0
-7 -7 -7 -21 1 -22 14 -149 182 -149 198 0 6 -4 10 -9 10 -29 0 -42 140 -21
206 20 61 94 90 155 62z m344 -760 c46 -16 146 -76 189 -114 75 -65 142 -136
155 -164 8 -17 70 -107 89 -130 16 -18 27 -37 75 -131 21 -42 47 -82 57 -89
31 -19 77 -18 126 3 143 62 133 61 168 21 28 -31 29 -37 21 -75 -5 -22 -15
-47 -22 -53 -18 -19 -14 -112 6 -134 10 -10 17 -25 17 -33 1 -27 45 -64 92
-76 50 -13 82 -40 117 -97 45 -72 6 -225 -75 -299 -28 -25 -48 -56 -63 -97
-12 -33 -27 -60 -34 -60 -7 0 -21 -13 -31 -29 -40 -59 -141 -76 -191 -33 -24
21 -56 37 -110 55 -36 13 -86 65 -112 117 -5 8 -31 49 -60 91 -35 52 -54 92
-61 126 -9 49 -63 132 -87 133 -9 0 -48 76 -75 147 -7 18 -10 50 -8 72 2 22 0
37 -4 35 -5 -3 -8 4 -8 15 0 12 7 21 15 21 8 0 15 -4 15 -10 0 -5 4 -10 9 -10
6 0 9 9 8 20 -1 11 -7 20 -15 20 -7 0 -11 4 -8 9 3 4 -6 31 -19 60 -14 28 -25
54 -25 58 0 4 -16 21 -36 39 -20 18 -33 38 -29 44 3 5 -4 15 -17 20 -16 8 -24
21 -25 43 -2 18 -9 36 -16 42 -8 5 -12 15 -10 22 2 6 -3 23 -12 36 -9 14 -17
52 -19 88 -4 60 -28 132 -52 154 -6 6 -20 24 -32 41 -20 29 -20 32 -4 55 24
36 46 58 56 59 5 0 26 -6 45 -12z"/>
<path d="M2248 7713 c6 -2 18 -2 25 0 6 3 1 5 -13 5 -14 0 -19 -2 -12 -5z"/>
<path d="M2128 7623 c7 -3 16 -2 19 1 4 3 -2 6 -13 5 -11 0 -14 -3 -6 -6z"/>
<path d="M2145 7580 c-3 -5 -1 -10 4 -10 6 0 11 5 11 10 0 6 -2 10 -4 10 -3 0
-8 -4 -11 -10z"/>
<path d="M2858 6283 c7 -3 16 -2 19 1 4 3 -2 6 -13 5 -11 0 -14 -3 -6 -6z"/>
<path d="M2565 6110 c3 -5 1 -10 -4 -10 -15 0 -14 -17 2 -23 7 -3 13 5 13 19
1 13 -2 24 -8 24 -5 0 -6 -4 -3 -10z"/>
<path d="M2525 6050 c-3 -5 -1 -10 4 -10 6 0 11 5 11 10 0 6 -2 10 -4 10 -3 0
-8 -4 -11 -10z"/>
<path d="M2522 5830 c-7 -11 -8 -20 -3 -20 9 0 24 30 18 36 -1 2 -8 -6 -15
-16z"/>
<path d="M2511 5786 c-12 -14 -5 -72 10 -92 12 -14 1 -24 -19 -18 -14 5 -14 4
1 -6 9 -6 22 -8 28 -4 11 6 8 -10 -9 -55 -3 -9 0 -12 9 -9 11 4 53 128 43 128
-2 0 -10 -12 -17 -26 -13 -26 -14 -26 -20 -5 -3 11 -1 21 5 21 5 0 6 4 3 10
-3 5 3 20 14 32 38 40 22 47 -22 10 -21 -19 -35 -8 -17 13 7 8 10 15 7 15 -2
0 -10 -6 -16 -14z"/>
<path d="M2520 5503 c0 -43 5 -41 13 5 4 18 2 32 -3 32 -6 0 -10 -16 -10 -37z"/>
<path d="M2642 5493 c-17 -31 -27 -97 -13 -89 6 4 11 18 11 32 0 14 5 34 11
46 6 11 8 22 6 25 -3 2 -10 -4 -15 -14z"/>
<path d="M2556 5453 c-6 -14 -5 -15 5 -6 7 7 10 15 7 18 -3 3 -9 -2 -12 -12z"/>
<path d="M2510 5440 c0 -5 5 -10 10 -10 6 0 10 5 10 10 0 6 -4 10 -10 10 -5 0
-10 -4 -10 -10z"/>
<path d="M2538 5417 c-19 -15 -31 -58 -14 -51 11 4 39 55 33 61 -2 1 -10 -3
-19 -10z"/>
<path d="M2526 5324 c-8 -21 -8 -24 3 -24 5 0 11 9 14 20 6 24 -8 27 -17 4z"/>
<path d="M2795 5330 c3 -5 8 -10 11 -10 2 0 4 5 4 10 0 6 -5 10 -11 10 -5 0
-7 -4 -4 -10z"/>
<path d="M2779 5233 c-13 -16 -12 -17 4 -4 9 7 17 15 17 17 0 8 -8 3 -21 -13z"/>
<path d="M2547 5223 c-4 -3 -7 -11 -7 -17 0 -6 5 -5 12 2 6 6 9 14 7 17 -3 3
-9 2 -12 -2z"/>
<path d="M3463 5073 c9 -2 23 -2 30 0 6 3 -1 5 -18 5 -16 0 -22 -2 -12 -5z"/>
<path d="M2433 5038 c14 -56 26 -95 37 -123 11 -26 14 -27 17 -10 2 11 11 37
19 59 17 43 10 57 -37 82 -38 19 -42 18 -36 -8z"/>
<path d="M3586 5026 c5 -12 0 -14 -25 -6 -17 5 -31 5 -31 1 0 -4 -18 -16 -40
-26 -44 -20 -66 -40 -28 -26 13 4 29 6 37 3 8 -2 11 0 8 5 -4 6 5 15 18 21 15
7 25 8 25 2 0 -6 10 -10 23 -10 18 0 19 -2 7 -11 -11 -8 -9 -9 10 -3 26 7 49
11 88 13 19 1 21 3 10 15 -7 7 -18 12 -24 9 -7 -2 -15 1 -19 6 -3 6 -10 9 -15
6 -5 -3 -19 -1 -30 5 -16 8 -18 8 -14 -4z"/>
<path d="M3395 5020 c-8 -13 15 -13 35 0 12 8 11 10 -7 10 -12 0 -25 -4 -28
-10z"/>
<path d="M3480 5019 c-15 -9 -79 -29 -114 -36 -23 -4 -32 -11 -24 -18 5 -6
146 40 156 50 10 10 -4 14 -18 4z"/>
<path d="M4325 5012 c-6 -15 10 -31 30 -32 80 -5 114 -8 135 -15 24 -7 24 -7
5 9 -13 10 -41 15 -81 16 -65 0 -80 6 -64 25 7 8 5 12 -5 12 -8 0 -17 -7 -20
-15z"/>
<path d="M4378 5013 c6 -2 18 -2 25 0 6 3 1 5 -13 5 -14 0 -19 -2 -12 -5z"/>
<path d="M4190 4984 c0 -26 1 -27 46 -20 26 3 59 6 73 6 21 1 23 2 10 10 -9 5
-29 12 -45 15 -16 2 -41 7 -56 10 -25 5 -28 2 -28 -21z"/>
<path d="M2540 4980 c0 -5 6 -10 14 -10 8 0 17 -8 19 -17 4 -17 5 -17 6 -1 0
10 -8 22 -19 28 -14 7 -20 7 -20 0z"/>
<path d="M3525 4980 c-3 -5 -1 -10 4 -10 6 0 11 5 11 10 0 6 -2 10 -4 10 -3 0
-8 -4 -11 -10z"/>
<path d="M4710 4986 c0 -2 11 -6 25 -8 13 -3 22 -1 19 3 -5 9 -44 13 -44 5z"/>
<path d="M3308 4973 c7 -3 16 -2 19 1 4 3 -2 6 -13 5 -11 0 -14 -3 -6 -6z"/>
<path d="M5339 4928 c-13 -24 -7 -134 9 -150 6 -6 11 11 15 44 4 29 9 70 13
91 5 30 4 37 -9 37 -9 0 -22 -10 -28 -22z"/>
<path d="M4365 4910 c-46 -12 -121 -48 -135 -65 -7 -8 -19 -15 -26 -15 -8 0
-14 -3 -14 -8 0 -11 122 -14 139 -3 9 6 10 10 2 16 -8 5 -5 13 10 26 24 21 30
23 27 12 -5 -21 16 -54 39 -59 14 -4 72 -4 129 0 98 6 104 6 125 -16 12 -13
18 -16 14 -8 -8 13 -7 13 8 1 10 -8 15 -16 12 -19 -7 -7 15 -32 27 -32 6 0 4
8 -3 17 -10 11 -10 14 -1 9 23 -14 12 19 -19 52 -37 41 -103 70 -199 88 -84
15 -92 15 -135 4z m65 -45 c0 -8 -7 -15 -15 -15 -8 0 -15 7 -15 15 0 8 7 15
15 15 8 0 15 -7 15 -15z m80 -1 c0 -8 -4 -12 -10 -9 -5 3 -10 10 -10 16 0 5 5
9 10 9 6 0 10 -7 10 -16z"/>
<path d="M3299 4900 c-26 -4 -56 -13 -66 -19 -11 -6 -24 -7 -28 -3 -5 4 -5 1
-1 -5 4 -8 2 -13 -5 -13 -7 0 -9 -3 -6 -7 4 -3 -4 -20 -17 -37 l-23 -31 24 -1
c16 -1 23 2 19 11 -7 19 14 35 47 35 19 0 26 4 21 12 -5 8 -2 9 9 5 9 -3 19
-2 23 4 3 6 13 7 23 4 9 -4 75 -11 146 -15 72 -5 154 -14 183 -20 40 -10 56
-10 65 -1 8 8 4 11 -15 11 -15 0 -47 16 -75 37 l-48 36 -115 3 c-63 1 -136 -2
-161 -6z m109 -31 c-2 -6 -8 -10 -13 -10 -5 0 -11 4 -13 10 -2 6 4 11 13 11 9
0 15 -5 13 -11z m102 1 c0 -5 -9 -10 -19 -10 -11 0 -23 5 -26 10 -4 6 5 10 19
10 14 0 26 -4 26 -10z"/>
<path d="M2619 4748 c-1 -7 -1 -17 0 -22 3 -15 -20 -35 -34 -30 -14 6 -15 -23
-3 -56 4 -8 9 -35 13 -60 3 -25 7 -52 9 -62 4 -27 38 -98 48 -98 5 0 5 7 0 18
-22 43 -8 173 17 157 5 -3 12 7 15 22 5 17 10 23 17 16 13 -13 15 -41 4 -73
-4 -14 -4 -22 0 -18 5 4 14 3 22 -4 7 -6 17 -8 21 -4 4 4 0 12 -9 17 -11 6
-17 23 -17 54 -1 26 3 43 8 40 5 -3 7 -12 3 -20 -7 -19 11 -19 26 -1 10 12 7
17 -16 29 -15 8 -32 13 -38 11 -5 -2 -23 19 -40 46 -29 50 -44 62 -46 38z"/>
<path d="M5347 4730 c3 -11 7 -20 9 -20 2 0 4 9 4 20 0 11 -4 20 -9 20 -5 0
-7 -9 -4 -20z"/>
<path d="M5178 4623 c-22 -26 -24 -139 -2 -182 18 -36 15 -140 -5 -164 -5 -7
-15 -26 -21 -42 -11 -29 -11 -29 9 -10 12 10 21 26 21 36 0 10 13 32 30 49 19
19 32 46 36 70 4 22 11 43 15 46 5 3 7 9 5 13 -3 4 -6 26 -7 49 -2 23 -7 42
-11 42 -4 0 -8 14 -8 30 0 17 -4 30 -9 30 -5 0 -11 10 -13 22 -4 28 -21 33
-40 11z"/>
<path d="M2765 4570 c4 -6 11 -8 16 -5 14 9 11 15 -7 15 -8 0 -12 -5 -9 -10z"/>
<path d="M2710 4503 c0 -10 4 -14 8 -8 4 6 11 13 16 18 5 4 2 7 -7 7 -10 0
-17 -8 -17 -17z"/>
<path d="M2760 4470 c0 -5 5 -10 10 -10 6 0 10 5 10 10 0 6 -4 10 -10 10 -5 0
-10 -4 -10 -10z"/>
<path d="M2735 4440 c-7 -12 12 -12 40 0 18 8 17 9 -7 9 -15 1 -30 -3 -33 -9z"/>
<path d="M2770 4426 c0 -2 7 -7 16 -10 8 -3 12 -2 9 4 -6 10 -25 14 -25 6z"/>
<path d="M4201 4411 c-18 -12 -24 -41 -7 -35 7 3 25 0 39 -5 17 -7 27 -7 27
-1 0 6 -9 10 -19 10 -11 0 -23 4 -26 10 -3 6 1 7 10 4 11 -5 14 -2 9 10 -7 18
-13 19 -33 7z"/>
<path d="M2743 4396 c4 -11 1 -13 -10 -9 -13 5 -15 1 -9 -30 6 -31 4 -36 -9
-31 -9 4 -15 1 -15 -7 1 -19 25 -49 38 -49 7 0 14 -10 17 -22 11 -55 34 -176
39 -215 3 -22 8 -53 12 -68 6 -26 6 -26 -32 -19 -75 13 -100 34 -148 117 -30
52 -42 62 -24 20 40 -92 88 -135 166 -148 24 -4 45 -12 46 -18 12 -51 48 -143
101 -262 56 -126 63 -149 70 -230 4 -49 7 -103 7 -120 l-1 -30 11 25 11 25 7
-35 c13 -62 36 -115 44 -101 4 6 2 19 -5 27 -6 8 -9 17 -6 21 4 3 9 -2 13 -11
3 -9 10 -16 15 -16 14 0 10 22 -8 42 -15 17 -15 19 3 33 22 16 36 15 42 -5 3
-7 0 -10 -7 -6 -6 4 -11 4 -11 -1 1 -14 27 -43 38 -43 7 0 9 -7 5 -17 -5 -11
-3 -14 6 -8 19 11 60 -44 61 -81 0 -19 6 -34 15 -38 8 -3 15 -12 15 -21 0 -8
5 -15 10 -15 6 0 10 -5 10 -11 0 -6 7 -18 16 -27 15 -15 16 -14 9 7 -6 20 -5
21 14 10 11 -7 22 -23 26 -36 5 -23 35 -33 35 -13 0 6 6 5 14 -2 10 -9 11 -17
4 -25 -7 -9 -7 -13 0 -13 5 0 15 7 22 15 10 13 10 19 -5 35 -11 12 -13 20 -6
20 6 0 14 -7 17 -15 4 -8 10 -15 16 -15 5 0 6 5 3 10 -10 16 1 11 16 -7 12
-14 12 -16 0 -9 -9 6 -12 5 -9 -5 3 -8 11 -13 17 -12 6 2 11 -2 11 -8 0 -6 -9
-8 -20 -4 -23 7 -28 -13 -5 -21 12 -5 13 -9 4 -20 -10 -12 -9 -13 5 -8 9 3 16
12 16 20 0 8 5 14 11 14 5 0 8 -4 4 -9 -9 -16 9 -20 23 -5 7 8 9 14 5 14 -5 0
-14 9 -21 20 -12 20 -12 21 12 5 30 -20 59 -62 51 -75 -3 -6 1 -7 9 -4 19 7
21 21 4 26 -6 2 -13 15 -14 29 -4 23 -3 23 8 4 18 -32 41 -50 77 -63 42 -15
51 -15 51 -1 0 5 -4 8 -9 4 -6 -3 -25 4 -43 15 -18 11 -29 20 -24 20 12 0 -42
41 -57 44 -20 3 -38 17 -32 26 2 4 -11 18 -30 31 -19 13 -38 32 -41 42 -3 9
-9 17 -14 17 -4 0 -18 26 -30 58 -42 110 -41 107 -50 92 -6 -9 -5 -17 3 -22 6
-4 9 -10 5 -13 -3 -3 -20 8 -39 24 -18 17 -36 28 -41 25 -5 -3 -8 -2 -7 3 4
21 -2 43 -12 43 -6 0 -8 -9 -4 -20 3 -11 3 -20 -1 -20 -10 0 -84 82 -84 93 0
5 -7 6 -16 3 -12 -4 -15 -2 -10 9 3 8 2 15 -2 15 -6 0 -42 54 -47 70 -9 28
-19 40 -25 30 -4 -7 -12 0 -20 19 -7 17 -16 31 -21 31 -5 0 -9 11 -9 25 0 14
-5 25 -11 25 -5 0 -7 -4 -4 -10 3 -6 -1 -7 -9 -4 -18 7 -21 20 -6 29 14 9 12
27 -2 23 -7 -3 -23 8 -35 23 -24 28 -30 45 -13 34 6 -3 10 -1 10 4 0 6 -4 11
-8 11 -11 0 -68 112 -64 124 1 4 -2 14 -9 22 -6 8 -9 21 -5 29 7 19 -7 58 -19
53 -11 -3 -32 88 -39 173 -3 31 -10 69 -16 84 -5 14 -8 31 -4 36 3 5 -2 23
-10 41 -16 32 -13 54 4 28 8 -13 10 -12 10 3 0 9 -4 17 -9 17 -12 0 -22 73
-11 80 14 9 0 50 -17 50 -9 0 -13 -6 -10 -14z m357 -1075 c0 -5 -9 -7 -20 -4
-11 3 -20 7 -20 9 0 2 9 4 20 4 11 0 20 -4 20 -9z m210 -141 c0 -15 -5 -12
-26 11 -19 22 -19 22 4 10 12 -6 22 -16 22 -21z"/>
<path d="M4276 4338 c5 -7 19 -21 32 -32 15 -12 22 -26 19 -37 -3 -11 -1 -17
3 -14 11 7 41 -35 34 -47 -3 -4 3 -8 12 -8 10 0 14 -3 11 -6 -3 -4 4 -15 17
-25 29 -23 43 -25 26 -4 -11 13 -10 14 3 10 22 -9 31 14 13 34 -9 10 -16 25
-16 34 0 9 -7 17 -15 17 -18 0 -20 -16 -2 -23 9 -4 9 -6 -1 -6 -7 -1 -15 6
-18 14 -4 8 -11 12 -17 8 -6 -3 -7 -1 -3 6 4 6 11 9 16 6 4 -3 10 2 13 10 4 9
1 12 -8 8 -8 -3 -29 7 -47 21 -57 46 -88 60 -72 34z"/>
<path d="M2786 4311 c-4 -7 -5 -15 -2 -18 9 -9 19 4 14 18 -4 11 -6 11 -12 0z"/>
<path d="M3538 4314 c-4 -3 -4 -13 -1 -22 3 -13 2 -14 -4 -4 -11 15 -46 5 -36
-11 3 -6 1 -7 -5 -3 -7 4 -21 -2 -33 -12 -23 -22 -12 -36 28 -37 18 -1 20 2
10 14 -10 12 -9 13 10 2 19 -10 22 -9 17 4 -4 8 -1 15 5 15 15 0 31 34 22 48
-4 7 -10 10 -13 6z"/>
<path d="M2810 4287 c0 -13 -5 -28 -12 -35 -9 -9 -7 -17 9 -34 12 -13 25 -40
28 -61 7 -34 20 -55 30 -45 2 2 -3 30 -11 61 -8 32 -14 63 -13 70 3 14 -18 67
-26 67 -3 0 -5 -10 -5 -23z m20 -47 c0 -5 -2 -10 -4 -10 -3 0 -8 5 -11 10 -3
6 -1 10 4 10 6 0 11 -4 11 -10z"/>
<path d="M4292 4232 c-2 -26 -29 -82 -40 -83 -59 -4 -87 -10 -90 -19 -5 -15
-61 -42 -73 -35 -5 4 -7 16 -4 27 7 19 6 19 -25 3 -18 -9 -29 -12 -26 -6 4 6
1 11 -7 11 -8 0 -17 -6 -20 -14 -7 -17 -93 -14 -127 4 -27 15 -29 14 -48 -9
-10 -12 -12 -13 -10 -2 2 8 -6 17 -17 19 -11 2 -33 10 -50 17 -40 17 -129 45
-133 41 -7 -8 12 -36 25 -36 8 0 11 -5 7 -12 -5 -7 -2 -9 9 -5 9 3 18 0 21 -8
3 -9 12 -12 22 -8 12 4 15 3 10 -5 -4 -8 0 -12 11 -12 15 0 16 -2 3 -11 -12
-8 -10 -9 8 -4 13 4 22 2 22 -4 0 -6 9 -11 20 -11 11 0 20 -4 20 -9 0 -5 9
-11 21 -14 12 -3 18 -10 14 -16 -3 -7 0 -8 9 -5 10 4 16 1 16 -8 0 -7 9 -14
20 -14 11 0 20 4 20 8 0 4 5 8 10 8 6 0 10 -7 10 -15 0 -8 -5 -15 -12 -15 -15
0 -2 -13 16 -16 8 -1 14 8 14 22 0 33 6 38 34 23 21 -11 22 -11 9 4 -7 10 -11
18 -7 18 3 1 9 2 14 3 4 1 13 5 19 9 7 5 21 3 30 -2 10 -6 14 -11 8 -11 -12 0
16 -20 30 -20 5 0 4 5 -3 12 -17 17 -15 31 3 24 9 -3 15 0 15 9 0 8 3 14 8 13
4 -1 24 6 46 15 47 21 44 21 49 0 4 -17 5 -17 6 0 0 10 5 16 10 12 5 -3 12 -1
16 4 8 14 35 2 35 -15 0 -12 4 -12 25 2 14 9 25 23 25 30 0 8 4 14 8 14 4 0 8
9 8 19 0 15 -4 17 -13 10 -9 -8 -13 1 -16 38 -2 26 -4 38 -5 25z m-327 -162
c3 -5 1 -10 -4 -10 -6 0 -11 5 -11 10 0 6 2 10 4 10 3 0 8 -4 11 -10z m63 3
c-10 -2 -26 -2 -35 0 -10 3 -2 5 17 5 19 0 27 -2 18 -5z"/>
<path d="M3415 4218 c-21 -12 -62 -51 -57 -55 1 -2 2 -6 2 -10 0 -5 -5 -1 -10
7 -6 9 -10 10 -10 3 0 -24 23 -25 42 -2 11 13 17 18 13 12 -4 -9 -1 -11 9 -7
9 3 14 10 11 14 -3 4 2 11 11 14 10 4 13 2 8 -7 -4 -6 1 -5 11 5 9 9 14 21 11
27 -9 14 -16 13 -41 -1z"/>
<path d="M5180 4220 c0 -5 5 -10 11 -10 5 0 7 5 4 10 -3 6 -8 10 -11 10 -2 0
-4 -4 -4 -10z"/>
<path d="M4457 4153 c8 -23 33 -43 52 -43 9 1 3 7 -14 14 -21 9 -26 14 -16 20
11 7 11 10 0 17 -22 13 -29 11 -22 -8z"/>
<path d="M3310 4110 c0 -5 4 -10 9 -10 6 0 13 5 16 10 3 6 -1 10 -9 10 -9 0
-16 -4 -16 -10z"/>
<path d="M3285 4100 c4 -6 -3 -9 -17 -7 -12 2 -28 -1 -34 -7 -6 -6 -22 -19
-35 -29 -13 -9 -33 -24 -44 -32 l-20 -15 20 7 c18 6 19 5 5 -13 -8 -10 -17
-21 -20 -24 -3 -3 -10 -20 -17 -38 -15 -41 2 -39 25 3 9 17 25 37 35 47 13 12
14 17 5 20 -7 3 3 12 23 22 20 9 42 27 48 39 6 12 9 14 7 5 -5 -15 -3 -16 14
-5 21 13 27 37 9 37 -5 0 -7 -5 -4 -10z"/>
<path d="M4125 4060 c-19 -8 -19 -9 3 -9 12 -1 22 4 22 9 0 6 -1 10 -2 9 -2 0
-12 -4 -23 -9z"/>
<path d="M2820 4017 c0 -8 7 -20 15 -27 11 -9 15 -10 15 -1 0 7 -7 19 -15 27
-13 13 -15 13 -15 1z"/>
<path d="M4527 3969 c7 -7 15 -10 18 -7 3 3 -2 9 -12 12 -14 6 -15 5 -6 -5z"/>
<path d="M2831 3954 c0 -11 3 -14 6 -6 3 7 2 16 -1 19 -3 4 -6 -2 -5 -13z"/>
<path d="M5068 3896 c-6 -28 14 -41 40 -27 16 9 16 10 0 16 -10 4 -18 13 -18
21 0 24 -17 15 -22 -10z"/>
<path d="M3195 3873 c-20 -15 -20 -15 2 -10 13 3 24 -1 27 -8 3 -8 16 -12 31
-10 14 1 32 -3 39 -10 7 -7 21 -15 32 -17 10 -2 18 -10 16 -17 -1 -7 1 -10 5
-8 5 3 35 -15 68 -39 32 -25 65 -42 73 -39 7 2 10 0 7 -5 -3 -6 2 -13 12 -16
10 -3 38 -16 63 -29 66 -33 91 -40 84 -21 -3 8 -11 13 -18 10 -18 -7 -83 37
-90 61 -3 11 -6 35 -6 54 0 33 0 33 38 26 20 -3 43 -14 50 -23 11 -14 12 -14
12 1 0 24 57 19 75 -6 11 -15 13 -16 18 -2 10 24 63 19 81 -7 14 -20 16 -20
16 -4 0 13 5 16 18 11 9 -4 37 -10 62 -12 25 -3 50 -10 57 -15 7 -5 12 -5 15
1 2 7 67 12 165 15 90 3 168 8 175 12 8 5 9 2 5 -10 -4 -10 -7 -24 -7 -32 0
-8 -10 -14 -24 -14 -17 0 -26 -7 -30 -26 -5 -20 -12 -25 -34 -22 -16 2 -34 -4
-45 -15 -13 -13 -29 -18 -48 -15 -16 3 -30 0 -31 -4 -2 -5 -22 -12 -46 -15
-41 -5 -62 -32 -24 -31 9 0 36 -2 59 -5 33 -4 41 -3 36 9 -3 9 -14 12 -32 8
-18 -4 -22 -3 -11 4 23 14 80 23 80 12 0 -6 -4 -10 -10 -10 -15 0 -12 -17 4
-23 9 -4 13 -1 10 7 -6 16 87 59 110 50 11 -4 16 -1 16 10 0 9 3 16 8 17 26 2
44 10 80 33 23 14 44 26 47 26 14 0 105 45 105 52 0 4 9 8 20 8 29 0 25 15 -5
16 -13 1 -32 9 -41 18 -11 11 -23 14 -38 10 -11 -4 -30 -8 -41 -10 -11 -1 -22
-3 -25 -4 -3 -1 -9 -2 -14 -1 -4 1 -20 -6 -33 -15 -14 -9 -28 -12 -32 -8 -3 5
-17 10 -31 11 -14 1 -44 6 -68 12 -24 6 -48 9 -53 5 -23 -14 -69 -15 -69 -2 0
9 -3 9 -10 -2 -7 -11 -10 -11 -10 -2 0 8 -5 10 -12 6 -10 -7 -60 -12 -148 -15
-34 -1 -86 4 -95 10 -17 10 -108 14 -240 11 -27 -1 -69 3 -92 8 -30 7 -43 6
-47 -2 -2 -6 -5 -4 -5 5 -1 25 -26 31 -130 35 -52 2 -97 8 -100 13 -4 5 -15 3
-26 -6z"/>
<path d="M2900 3750 c0 -5 5 -10 11 -10 5 0 7 5 4 10 -3 6 -8 10 -11 10 -2 0
-4 -4 -4 -10z"/>
<path d="M3714 3625 c-19 -14 -19 -14 3 -15 28 0 54 -10 49 -19 -2 -3 10 -7
26 -7 31 -1 31 -1 7 11 l-24 13 29 4 c16 1 31 9 32 16 1 7 0 8 -3 2 -6 -13
-70 -13 -78 0 -8 14 -18 13 -41 -5z"/>
<path d="M3836 3591 c-3 -5 1 -11 9 -14 9 -4 12 -1 8 9 -6 16 -10 17 -17 5z"/>
<path d="M3194 3349 c-9 -15 16 -59 33 -59 11 0 11 4 1 20 -7 11 -16 20 -20
20 -4 0 -5 7 -2 15 7 17 -2 20 -12 4z"/>
<path d="M3286 3272 c-2 -4 4 -13 15 -20 22 -14 25 -7 5 14 -8 8 -17 11 -20 6z"/>
<path d="M3150 3185 c1 -17 29 -49 37 -41 4 3 -3 16 -15 29 -12 12 -22 17 -22
12z"/>
<path d="M4636 3158 c3 -4 11 -5 19 -1 21 7 19 12 -4 10 -11 0 -18 -5 -15 -9z"/>
<path d="M3060 3150 c0 -5 5 -10 10 -10 6 0 10 5 10 10 0 6 -4 10 -10 10 -5 0
-10 -4 -10 -10z"/>
<path d="M4900 3123 c1 -30 5 -52 44 -218 18 -78 29 -166 37 -305 15 -243 14
-294 -5 -450 -8 -69 -20 -204 -26 -300 -7 -96 -20 -249 -31 -340 -10 -91 -30
-264 -44 -385 -26 -227 -75 -604 -101 -780 -30 -201 -45 -301 -50 -323 l-4
-22 1560 0 1560 0 0 369 c0 323 -3 384 -20 485 -25 144 -134 602 -161 676 -34
93 -92 150 -150 150 -13 0 -48 25 -87 61 -36 34 -90 77 -120 96 -87 56 -276
149 -422 207 -74 29 -216 91 -315 136 -99 45 -220 98 -270 117 -49 19 -150 61
-225 93 -74 31 -182 74 -240 95 -136 48 -432 179 -490 216 -25 15 -110 99
-190 185 -80 87 -169 182 -197 212 -52 53 -53 53 -53 25z m637 -1830 c-3 -10
-5 -4 -5 12 0 17 2 24 5 18 2 -7 2 -21 0 -30z m279 16 c3 -6 9 -38 12 -72 l5
-60 -48 6 c-26 4 -94 7 -151 7 l-104 0 0 40 0 40 60 -7 60 -6 -6 32 -6 31 85
0 c52 0 89 -4 93 -11z m-213 -14 c1 -6 -11 -11 -28 -12 -16 -1 -22 1 -12 3 9
3 17 10 17 16 0 12 21 6 23 -7z"/>
<path d="M4617 3133 c-10 -9 -9 -23 2 -23 5 0 11 7 15 15 5 15 -5 20 -17 8z"/>
<path d="M3076 3100 c7 -28 12 -35 18 -29 2 2 -2 15 -10 29 l-15 25 7 -25z"/>
<path d="M4582 3092 c-11 -25 -11 -25 4 -10 9 9 15 21 13 27 -2 6 -10 -2 -17
-17z"/>
<path d="M3060 3036 c0 -8 4 -17 9 -20 5 -4 7 3 4 14 -6 23 -13 26 -13 6z"/>
<path d="M4425 2970 c3 -5 8 -10 11 -10 2 0 4 5 4 10 0 6 -5 10 -11 10 -5 0
-7 -4 -4 -10z"/>
<path d="M3105 2943 c19 -32 35 -43 35 -23 0 6 -5 10 -11 10 -6 0 -8 7 -5 17
4 10 4 14 0 10 -4 -4 -14 -1 -22 6 -12 9 -10 3 3 -20z"/>
<path d="M4360 2945 c-7 -8 -17 -12 -23 -8 -5 3 -7 1 -4 -4 4 -6 0 -16 -8 -23
-11 -9 -15 -9 -15 -1 0 13 -34 -2 -58 -25 -7 -7 -20 -10 -28 -7 -9 3 -20 0
-24 -7 -7 -11 -12 -11 -23 -2 -8 7 -22 9 -31 6 -13 -5 -17 -2 -14 11 2 10 -3
19 -10 21 -7 1 -8 0 -2 -3 15 -7 -21 -32 -37 -26 -7 3 -10 10 -6 16 4 6 -3 8
-21 3 -14 -3 -35 -2 -46 4 -14 7 -22 7 -31 -3 -7 -7 -26 -11 -46 -9 -20 3 -33
0 -33 -7 0 -8 -5 -9 -19 -1 -27 14 -31 13 -31 -9 0 -11 -9 -21 -22 -24 -21 -5
-21 -5 -5 7 9 7 17 16 17 20 0 14 -31 5 -52 -16 l-22 -22 -7 24 c-4 14 -7 19
-8 13 -1 -7 -10 -13 -21 -13 -25 0 -25 -8 -2 -27 16 -13 15 -14 -5 -8 -13 4
-23 2 -23 -3 0 -5 10 -13 23 -17 21 -7 21 -7 2 -12 -34 -7 -48 -13 -43 -18 2
-3 20 0 38 5 29 8 37 7 52 -10 11 -11 25 -17 31 -14 7 4 9 3 4 -1 -11 -13 23
-45 49 -45 16 0 24 -7 26 -22 2 -12 9 -23 17 -26 8 -3 11 0 7 6 -3 6 -1 21 5
35 8 17 18 23 35 21 16 -1 28 5 35 17 5 11 14 17 19 14 9 -6 42 9 73 34 23 19
22 3 -3 -34 -22 -33 -26 -50 -10 -40 6 3 10 -3 10 -14 0 -12 6 -21 13 -21 14
0 16 27 5 46 -9 13 9 41 19 30 4 -4 8 -13 8 -19 0 -7 8 -13 19 -15 26 -5 66
18 59 34 -3 8 1 14 11 14 9 0 16 5 16 10 0 6 -7 10 -15 10 -17 0 -20 16 -5 25
6 4 7 11 4 17 -4 7 0 7 12 0 20 -10 64 1 64 17 0 5 12 12 26 15 35 9 73 35 86
59 10 19 8 18 -23 -3 l-34 -23 29 31 c17 18 25 32 19 32 -6 0 -16 -7 -23 -15z"/>
<path d="M4260 2920 c0 -5 5 -10 11 -10 5 0 7 5 4 10 -3 6 -8 10 -11 10 -2 0
-4 -4 -4 -10z"/>
<path d="M3860 2916 c0 -2 7 -7 16 -10 8 -3 12 -2 9 4 -6 10 -25 14 -25 6z"/>
<path d="M3706 2885 c4 -8 11 -15 16 -15 6 0 5 6 -2 15 -7 8 -14 15 -16 15 -2
0 -1 -7 2 -15z"/>
<path d="M3770 2880 c0 -5 5 -10 10 -10 6 0 10 5 10 10 0 6 -4 10 -10 10 -5 0
-10 -4 -10 -10z"/>
<path d="M3603 2845 c0 -8 6 -15 12 -15 7 0 24 -9 38 -20 22 -17 26 -18 31 -4
10 27 7 36 -12 30 -10 -4 -27 1 -38 9 -24 18 -31 19 -31 0z"/>
<path d="M3606 2804 c-3 -9 -2 -12 5 -9 5 4 18 -2 28 -14 10 -11 20 -18 23
-15 5 5 -37 54 -46 54 -2 0 -7 -7 -10 -16z"/>
<path d="M4235 2770 c3 -5 8 -10 11 -10 2 0 4 5 4 10 0 6 -5 10 -11 10 -5 0
-7 -4 -4 -10z"/>
<path d="M3670 2739 c0 -5 5 -7 10 -4 6 3 10 8 10 11 0 2 -4 4 -10 4 -5 0 -10
-5 -10 -11z"/>
<path d="M3920 2694 c0 -8 5 -12 10 -9 6 3 10 10 10 16 0 5 -4 9 -10 9 -5 0
-10 -7 -10 -16z"/>
<path d="M4129 2697 c6 -8 8 -17 4 -20 -3 -4 -2 -7 4 -7 6 0 16 6 22 14 9 11
8 15 -5 20 -27 10 -38 7 -25 -7z"/>
<path d="M4021 2644 c0 -11 3 -14 6 -6 3 7 2 16 -1 19 -3 4 -6 -2 -5 -13z"/>
<path d="M3860 2640 c0 -5 5 -10 10 -10 6 0 10 5 10 10 0 6 -4 10 -10 10 -5 0
-10 -4 -10 -10z"/>
<path d="M4390 2509 c-36 -33 -56 -56 -45 -51 19 10 125 113 115 112 -3 -1
-34 -28 -70 -61z"/>
<path d="M4280 2413 c-19 -16 -52 -46 -74 -67 -55 -52 0 -14 69 48 55 50 58
62 5 19z"/>
<path d="M3560 2375 c19 -19 36 -35 39 -35 3 0 -10 16 -29 35 -19 19 -36 35
-39 35 -3 0 10 -16 29 -35z"/>
<path d="M4000 2309 c-17 -23 -30 -25 -30 -4 0 8 -7 15 -16 15 -10 0 -14 -6
-10 -15 3 -8 1 -15 -3 -15 -5 0 -11 6 -13 12 -4 10 -14 8 -41 -7 -20 -10 -39
-16 -43 -13 -6 7 -34 -15 -34 -27 0 -3 10 -5 23 -3 16 2 21 -1 19 -14 -2 -12
3 -17 15 -16 38 3 55 -2 50 -15 -4 -10 2 -13 19 -9 13 2 21 8 18 13 -3 5 6 9
20 9 14 0 27 4 30 9 3 5 -10 9 -30 9 -38 0 -55 9 -33 16 58 21 69 27 78 45 15
26 -2 35 -19 10z"/>
<path d="M3650 2285 c13 -14 26 -25 28 -25 3 0 -5 11 -18 25 -13 14 -26 25
-28 25 -3 0 5 -11 18 -25z"/>
<path d="M3805 2300 c3 -5 8 -10 11 -10 2 0 4 5 4 10 0 6 -5 10 -11 10 -5 0
-7 -4 -4 -10z"/>
<path d="M4115 2260 c-10 -11 -13 -20 -8 -20 13 0 38 29 31 35 -3 3 -13 -4
-23 -15z"/>
<path d="M4064 2215 c-10 -8 -14 -15 -8 -15 6 0 17 7 24 15 16 19 9 19 -16 0z"/>
<path d="M4000 2188 c-14 -13 -37 -22 -59 -23 -20 -1 -44 -5 -53 -9 -11 -5
-23 -2 -33 7 -8 9 -27 14 -43 12 -15 -2 -33 -4 -41 -4 -11 -1 -11 -5 2 -19 22
-24 21 -32 -3 -32 -12 0 -42 -19 -68 -43 -26 -23 -69 -60 -97 -82 -64 -50 -75
-60 -48 -46 22 11 39 10 94 -4 24 -6 28 -15 47 -103 27 -118 31 -246 10 -284
-8 -14 -33 -50 -55 -80 -53 -69 -83 -131 -121 -248 -76 -233 -129 -503 -182
-910 -16 -129 -32 -254 -36 -278 l-5 -43 60 3 c33 1 58 5 55 9 -2 4 0 10 6 14
5 3 10 0 10 -8 0 -13 59 -15 411 -16 l410 -2 -5 78 c-4 43 -11 141 -16 218
-27 367 -92 854 -135 1013 -28 104 -65 190 -94 216 -18 17 -18 18 1 69 11 29
24 69 30 90 6 20 21 47 35 60 13 12 40 46 59 75 43 67 73 82 110 56 47 -33
108 -72 149 -94 22 -12 53 -34 70 -48 61 -56 -35 51 -134 147 -117 113 -239
206 -303 229 -27 9 -48 20 -48 24 0 4 14 16 30 28 17 12 30 28 30 36 0 20 -12
17 -40 -8z m-270 -148 c0 -5 -8 -10 -17 -10 -15 0 -16 2 -3 10 19 12 20 12 20
0z m131 -237 c13 -16 12 -17 -3 -4 -17 13 -22 21 -14 21 2 0 10 -8 17 -17z m4
-43 c-3 -4 2 -13 10 -20 8 -7 15 -17 15 -23 0 -14 -34 33 -36 50 -1 7 2 11 7
7 5 -3 7 -9 4 -14z m-140 -760 c-3 -5 -12 -10 -18 -10 -7 0 -6 4 3 10 19 12
23 12 15 0z m8 -205 c-3 -9 -8 -14 -10 -11 -3 3 -2 9 2 15 9 16 15 13 8 -4z
m-60 -101 c-3 -8 -7 -14 -10 -14 -3 0 -3 6 0 14 3 7 0 20 -6 27 -10 11 -9 11
5 0 9 -7 14 -19 11 -27z m12 -24 c-3 -5 -12 -10 -18 -10 -7 0 -6 4 3 10 19 12
23 12 15 0z m-27 -73 c-1 -2 3 -11 10 -20 9 -10 10 -17 2 -22 -6 -4 -10 -3 -9
2 1 4 0 10 -1 13 -5 14 -8 41 -3 37 2 -3 3 -7 1 -10z m-3 -57 c3 -5 0 -7 -9
-4 -16 6 -16 -11 -1 -36 7 -13 6 -13 -7 -2 -13 10 -16 26 -9 50 2 6 21 1 26
-8z m-90 -40 c-3 -5 -12 -10 -18 -10 -7 0 -6 4 3 10 19 12 23 12 15 0z m36
-17 c13 -16 12 -17 -3 -4 -17 13 -22 21 -14 21 2 0 10 -8 17 -17z m59 -17 c0
-1 -9 -2 -20 -2 -10 0 -17 2 -15 5 3 2 -1 11 -8 19 -9 11 -4 11 16 -2 15 -10
27 -19 27 -20z m-60 -26 c0 -5 -2 -10 -4 -10 -3 0 -8 5 -11 10 -3 6 -1 10 4
10 6 0 11 -4 11 -10z m-33 -7 c-4 -3 -1 -13 6 -21 10 -13 9 -14 -12 -3 -19 10
-21 15 -10 22 17 10 25 12 16 2z m-60 -38 c0 -17 -13 -20 -21 -6 -4 5 0 12 6
14 7 3 13 6 14 6 0 1 1 -6 1 -14z m118 -5 c-3 -5 -12 -10 -18 -10 -7 0 -6 4 3
10 19 12 23 12 15 0z m90 -8 c-3 -3 -11 0 -18 7 -9 10 -8 11 6 5 10 -3 15 -9
12 -12z m-124 -9 c13 -16 12 -17 -3 -4 -17 13 -22 21 -14 21 2 0 10 -8 17 -17z
m-136 -2 c3 -5 2 -12 -3 -15 -5 -3 -9 1 -9 9 0 17 3 19 12 6z m66 -18 c13 -16
12 -17 -3 -4 -17 13 -22 21 -14 21 2 0 10 -8 17 -17z m44 7 c-3 -5 -12 -10
-18 -10 -7 0 -6 4 3 10 19 12 23 12 15 0z m-75 -4 c0 -2 -7 -7 -16 -10 -8 -3
-12 -2 -9 4 6 10 25 14 25 6z m-44 -28 c4 -7 3 -8 -4 -4 -7 4 -12 2 -12 -5 0
-7 -3 -10 -6 -6 -6 5 3 27 11 27 2 0 7 -5 11 -12z m118 -7 c-10 -10 -21 -16
-24 -14 -3 3 4 11 14 19 28 20 33 17 10 -5z m-49 -24 c-11 -6 -21 -5 -28 3 -9
8 -7 9 7 4 13 -5 17 -4 12 4 -5 8 -2 10 10 5 15 -6 15 -7 -1 -16z m160 13 c-3
-5 -12 -10 -18 -10 -7 0 -6 4 3 10 19 12 23 12 15 0z m-225 -10 c-8 -5 -19
-10 -25 -10 -5 0 -3 5 5 10 8 5 20 10 25 10 6 0 3 -5 -5 -10z m97 -17 c-8 -7
11 -33 25 -33 5 0 6 6 2 13 -4 6 -3 8 1 4 16 -14 14 -36 -3 -30 -10 4 -13 2
-8 -5 5 -8 2 -10 -9 -5 -11 4 -13 8 -5 13 8 5 6 11 -4 20 -14 11 -13 30 1 30
4 0 3 -3 0 -7z m113 -49 c0 -2 -9 0 -20 6 -11 6 -20 13 -20 16 0 2 9 0 20 -6
11 -6 20 -13 20 -16z m-204 1 c-11 -8 -15 -19 -10 -27 6 -9 3 -9 -10 1 -16 14
-16 15 6 27 30 17 38 17 14 -1z m73 1 c-10 -9 -69 -36 -69 -32 0 7 52 35 64
36 5 0 7 -2 5 -4z m57 -48 c4 -6 -3 -4 -15 5 -13 8 -31 13 -40 10 -13 -4 -14
-3 -2 5 16 11 44 1 57 -20z m55 15 c13 -16 12 -17 -3 -4 -17 13 -22 21 -14 21
2 0 10 -8 17 -17z m-134 -17 c0 -8 -6 -12 -15 -9 -11 5 -11 7 0 14 7 5 13 9
14 9 0 0 1 -6 1 -14z m48 -6 c-3 -5 -12 -10 -18 -10 -7 0 -6 4 3 10 19 12 23
12 15 0z m53 -23 c8 -9 8 -17 0 -27 -8 -12 -9 -12 -4 2 3 10 -2 22 -12 27 -9
6 -12 11 -6 11 6 0 16 -6 22 -13z m-131 -14 c-4 -3 0 -15 10 -25 13 -14 13
-18 2 -18 -11 0 -11 -2 1 -10 8 -5 10 -10 4 -10 -6 0 -18 8 -25 17 -10 11 -10
14 -1 9 6 -4 12 -2 12 4 0 6 -7 13 -16 17 -13 5 -13 7 -2 14 16 10 24 12 15 2z
m77 -38 c-4 -8 -11 -12 -16 -9 -6 4 -5 10 3 15 19 12 19 11 13 -6z m71 -5 c3
-6 -1 -7 -9 -4 -18 7 -21 14 -7 14 6 0 13 -4 16 -10z m-15 -15 c0 -2 -6 -5
-13 -8 -8 -3 -14 1 -14 8 0 7 6 11 14 8 7 -3 13 -6 13 -8z m-151 -19 c-2 -2
-15 -9 -29 -15 -24 -11 -24 -11 -6 3 16 13 49 24 35 12z m140 -20 c18 -21 -21
-41 -49 -26 -24 13 -27 22 -3 13 12 -5 14 -3 8 7 -5 9 -4 11 4 6 6 -4 9 -12 6
-17 -8 -11 6 -12 24 0 11 7 10 11 -5 20 -11 6 -14 11 -8 11 6 0 17 -6 23 -14z
m-118 -5 c-18 -11 1 -23 26 -15 17 5 17 5 0 -6 -13 -8 -22 -8 -38 3 -15 11
-17 16 -7 20 21 9 34 7 19 -2z"/>
<path d="M3416 1855 c-11 -8 -15 -15 -9 -15 6 0 16 7 23 15 16 19 11 19 -14 0z"/>
</g>
</svg>
