<?xml version="1.0" standalone="no"?>
<!DOCTYPE svg PUBLIC "-//W3C//DTD SVG 20010904//EN"
 "http://www.w3.org/TR/2001/REC-SVG-20010904/DTD/svg10.dtd">
<svg version="1.0" xmlns="http://www.w3.org/2000/svg"
 width="570.000000pt" height="855.000000pt" viewBox="0 0 570.000000 855.000000"
 preserveAspectRatio="xMidYMid meet">

<g transform="translate(0.000000,855.000000) scale(0.100000,-0.100000)"
fill="#000000" stroke="none">
<path d="M2170 7871 c0 -7 -9 -9 -24 -5 -20 5 -24 1 -29 -23 -3 -17 -16 -35
-31 -42 -14 -8 -23 -18 -20 -23 3 -4 10 -6 15 -3 5 4 9 2 9 -4 0 -5 -4 -12
-10 -16 -5 -3 -6 -13 -3 -21 5 -12 7 -13 14 -3 6 11 9 10 15 -4 8 -21 33 -22
40 -2 4 8 17 15 30 15 17 0 22 -4 18 -15 -5 -11 1 -15 17 -15 32 0 53 15 44
29 -4 7 5 23 22 38 15 14 23 22 16 19 -16 -9 -28 13 -14 27 16 16 14 27 -4 21
-9 -4 -18 2 -24 17 -5 13 -10 18 -10 10 -1 -13 -15 -12 -53 4 -11 4 -18 3 -18
-4z m20 -111 c0 -5 -4 -10 -9 -10 -6 0 -13 5 -16 10 -3 6 1 10 9 10 9 0 16 -4
16 -10z"/>
<path d="M2267 7873 c-4 -3 -7 -11 -7 -17 0 -6 5 -5 12 2 6 6 9 14 7 17 -3 3
-9 2 -12 -2z"/>
<path d="M2002 7698 c2 -11 -3 -23 -9 -25 -7 -3 -13 2 -13 11 0 9 -7 16 -15
16 -8 0 -15 -6 -15 -14 0 -21 -24 -38 -37 -25 -6 6 -10 0 -10 -20 0 -20 4 -28
14 -24 10 4 11 -3 7 -28 -5 -24 -3 -31 4 -24 6 6 12 21 14 35 3 25 24 27 22 2
-1 -7 3 -11 10 -9 6 2 10 11 10 20 -1 9 7 19 17 22 11 4 17 10 14 15 -8 12 13
23 32 16 13 -5 13 -9 2 -24 -13 -15 -12 -16 3 -4 9 8 22 11 28 7 5 -3 16 -3
22 1 7 5 20 9 30 9 13 1 16 -4 12 -20 -4 -16 0 -21 15 -22 23 -2 35 12 25 28
-4 8 -9 7 -15 -2 -7 -11 -9 -11 -9 2 0 21 47 34 65 19 10 -8 15 -8 20 0 5 8
14 6 28 -7 11 -10 17 -12 12 -4 -4 7 -3 16 4 20 19 12 1 41 -26 41 -13 0 -21
-4 -18 -10 4 -6 -7 -10 -24 -10 -17 0 -31 4 -31 9 0 19 -35 22 -47 4 -11 -15
-17 -15 -33 -5 -27 16 -59 15 -66 -3 -9 -22 -24 -18 -24 5 0 11 -5 20 -11 20
-5 0 -9 -10 -7 -22z"/>
<path d="M2314 7695 c-1 -14 2 -25 7 -25 5 0 9 -16 9 -35 0 -19 5 -35 10 -35
6 0 10 7 8 16 -2 12 5 18 20 19 18 1 24 -4 29 -26 6 -30 35 -50 30 -21 -1 9
-6 23 -10 30 -5 7 -4 12 2 12 6 0 11 -4 11 -10 0 -16 14 -12 27 9 10 15 9 18
-5 17 -10 0 -16 5 -14 15 2 12 -5 15 -30 11 -26 -4 -30 -2 -25 12 7 19 -13 22
-31 4 -9 -9 -12 -9 -13 3 -1 7 -1 17 0 22 0 4 -5 7 -11 7 -7 0 -14 -11 -14
-25z"/>
<path d="M2247 7635 c-8 -20 -4 -29 11 -24 5 2 6 13 2 23 -6 19 -7 19 -13 1z"/>
<path d="M2060 7550 c-36 -4 -84 -13 -107 -19 -58 -16 -90 -49 -63 -66 6 -3
10 1 10 9 0 9 7 16 15 16 8 0 15 5 15 11 0 6 6 9 14 6 8 -3 17 -3 20 1 4 3 14
7 24 8 9 1 37 6 62 10 66 12 288 8 338 -5 23 -7 48 -21 55 -31 14 -24 27 -26
27 -4 0 23 -75 52 -170 63 -93 12 -143 12 -240 1z"/>
<path d="M2052 7508 c-126 -17 -178 -64 -106 -94 26 -11 39 -13 42 -5 5 14 25
14 39 0 8 -8 5 -23 -14 -57 -24 -43 -25 -46 -10 -78 16 -33 16 -33 47 -17 27
13 31 19 25 42 -3 14 -13 31 -21 38 -14 10 -14 14 1 36 18 28 51 37 140 37 74
0 95 -6 95 -29 0 -10 3 -12 8 -5 4 6 23 15 42 19 93 19 131 64 73 86 -72 28
-257 41 -361 27z m-32 -221 c0 -5 -4 -5 -10 -2 -5 3 -10 14 -10 23 0 15 2 15
10 2 5 -8 10 -19 10 -23z"/>
<path d="M2225 7349 c-33 -3 -48 -6 -32 -7 17 -1 27 -8 27 -17 0 -10 10 -15
26 -15 26 0 26 -2 21 -46 -4 -39 -1 -49 21 -71 15 -15 22 -19 19 -8 -4 9 -3
14 3 10 6 -3 10 -25 10 -48 l0 -42 -18 30 c-11 17 -26 36 -35 44 -9 7 -15 17
-12 21 3 5 1 11 -5 15 -5 3 -10 16 -10 28 0 20 -3 19 -26 -10 -26 -34 -63 -43
-93 -24 -9 6 -31 4 -57 -4 -41 -12 -43 -12 -47 9 -4 20 -4 20 -6 -2 0 -13 4
-33 10 -44 9 -17 13 -18 20 -7 6 10 30 14 78 15 39 1 77 6 85 13 11 9 18 3 39
-31 25 -43 26 -68 1 -68 -7 0 -19 8 -26 19 -16 23 -88 36 -88 16 0 -9 -14 -13
-47 -12 -41 2 -48 -1 -51 -18 -3 -19 2 -20 68 -17 39 2 85 -1 102 -7 23 -8 35
-8 45 0 7 7 16 9 19 6 9 -8 -6 -67 -17 -67 -5 0 -9 -19 -9 -42 l-1 -43 -14 30
c-13 30 -13 30 -14 -25 0 -50 1 -53 14 -36 15 19 15 19 15 -2 0 -12 -4 -22
-10 -22 -21 0 -9 -16 23 -30 l32 -15 -80 -6 c-70 -5 -73 -6 -24 -7 30 -1 64
-9 75 -17 19 -14 19 -14 -1 -16 -11 0 -33 0 -48 1 -16 1 -50 -3 -76 -10 l-48
-11 -13 -220 c-7 -120 -10 -222 -7 -226 4 -3 7 16 7 44 0 95 13 232 21 227 5
-3 9 -30 9 -60 0 -43 4 -56 18 -61 33 -13 41 -29 21 -41 -25 -16 -24 -32 1
-32 15 0 20 -7 21 -27 0 -27 5 -120 14 -265 3 -50 1 -69 -10 -78 -12 -10 -15
-10 -15 1 -1 10 -5 8 -15 -5 -11 -14 -12 -23 -4 -33 8 -8 8 -13 1 -13 -12 0
-51 77 -63 124 -6 22 -7 13 -4 -29 7 -81 26 -165 37 -159 4 3 8 -4 8 -15 0
-11 -4 -23 -10 -26 -5 -3 -10 -15 -10 -26 0 -14 7 -19 25 -19 14 0 35 -12 50
-27 21 -23 27 -25 35 -14 7 12 10 9 16 -13 4 -19 2 -31 -6 -36 -17 -11 -31
-101 -18 -117 6 -7 16 -13 22 -13 13 0 36 -46 36 -72 0 -10 -5 -18 -10 -18 -6
0 -10 8 -8 17 2 10 -4 19 -15 21 -15 3 -16 0 -7 -24 13 -33 6 -56 -15 -48 -8
4 -17 -1 -21 -10 -3 -9 -10 -14 -15 -11 -4 3 -2 -7 6 -22 8 -15 15 -45 15 -67
0 -33 2 -37 15 -26 9 8 15 29 15 56 l0 43 36 -5 c31 -4 35 -2 29 13 -3 10 -11
65 -16 123 -6 58 -13 131 -16 163 -5 57 8 80 21 35 7 -22 8 -22 15 -4 7 19 8
18 14 -5 11 -40 8 -67 -9 -84 -12 -12 -14 -25 -9 -53 11 -61 28 -112 37 -112
5 0 6 -5 2 -12 -4 -7 -3 -8 4 -4 7 4 12 18 12 31 0 13 11 36 25 51 13 14 34
46 46 71 21 44 21 45 5 130 -10 47 -15 87 -13 89 2 3 44 -4 93 -13 69 -14 88
-22 85 -33 -2 -8 -5 -25 -6 -37 -2 -25 -15 -45 -15 -23 0 9 -11 11 -41 7 -22
-3 -43 -7 -45 -10 -10 -10 17 -57 33 -57 13 0 23 -16 36 -60 9 -32 17 -67 17
-78 0 -10 4 -22 10 -28 7 -7 3 -23 -10 -49 -11 -22 -20 -47 -20 -57 0 -29 37
-82 79 -113 38 -29 71 -88 71 -127 0 -9 4 -20 10 -23 5 -3 14 -24 20 -46 6
-22 15 -37 20 -34 5 3 17 -19 26 -50 10 -30 21 -55 26 -55 11 0 -28 98 -48
121 -23 26 -13 33 17 12 13 -10 41 -27 61 -37 21 -11 35 -24 31 -30 -3 -6 -2
-8 2 -3 12 10 55 -33 55 -55 0 -10 5 -18 10 -18 6 0 10 21 11 48 0 48 10 40
23 -20 5 -20 10 -25 26 -21 15 4 20 0 20 -14 0 -23 34 -58 49 -49 5 3 11 2 13
-2 1 -5 18 -12 37 -15 l34 -7 -19 22 -19 22 30 -21 c17 -11 40 -24 53 -27 35
-11 28 -51 -8 -48 -3 0 -10 -15 -16 -34 l-11 -34 34 40 c19 22 38 40 41 40 4
0 36 -27 72 -60 36 -33 70 -60 75 -60 6 0 37 -27 70 -60 33 -33 63 -60 67 -60
20 0 4 27 -28 50 -60 42 -90 69 -76 70 7 0 33 -19 57 -41 50 -46 54 -45 26 9
-12 23 -33 44 -55 55 -43 20 -50 21 -40 5 4 -7 3 -8 -4 -4 -7 4 -12 13 -12 21
0 7 -13 23 -30 35 -22 16 -28 17 -24 6 10 -26 -25 -19 -37 7 -6 13 -18 27 -28
32 -40 22 -146 97 -153 108 -4 7 -8 24 -8 40 0 20 5 27 19 27 20 0 24 -8 36
-67 4 -22 15 -35 37 -44 17 -7 53 -28 79 -46 27 -18 51 -33 54 -33 10 0 -15
50 -35 70 -11 11 -20 32 -20 48 0 15 -9 69 -20 121 -19 92 -19 94 -1 120 19
26 19 28 -4 112 -34 128 -40 173 -24 167 8 -3 24 -2 36 3 19 7 21 12 12 41 -5
18 -9 46 -9 62 0 25 -2 27 -16 15 -15 -12 -16 -11 -9 11 4 14 10 31 12 37 3 7
-2 16 -11 19 -9 3 -16 12 -16 19 0 7 -13 16 -29 20 -16 3 -35 13 -42 21 -6 8
-18 14 -25 14 -8 0 -14 5 -14 11 0 5 -4 8 -9 5 -5 -3 -12 1 -15 10 -3 8 -10
13 -14 10 -5 -3 -14 6 -21 20 l-11 26 -20 -24 c-16 -19 -21 -20 -29 -9 -7 11
-12 10 -22 -8 -8 -12 -32 -30 -54 -40 -54 -25 -174 -69 -207 -77 -29 -6 -38
-29 -15 -37 7 -3 5 -8 -8 -13 -20 -8 -38 -25 -65 -63 -8 -12 -18 -21 -22 -21
-25 0 16 112 46 123 8 3 17 19 21 36 3 16 13 35 21 42 8 6 14 18 14 25 0 8 5
14 10 14 6 0 27 11 48 24 20 13 60 31 89 40 51 17 51 17 42 49 -5 18 -9 45 -9
62 1 42 16 13 24 -46 6 -43 9 -46 32 -41 24 4 25 7 19 58 -4 29 -3 58 1 66 6
8 11 -12 14 -56 l5 -68 55 -2 55 -2 2 44 c1 25 6 49 11 54 6 6 8 -6 6 -31 -1
-23 1 -43 6 -46 5 -3 7 -12 3 -20 -3 -9 1 -15 11 -15 21 0 83 -56 102 -91 7
-15 14 -39 14 -54 l0 -25 118 1 c64 1 155 4 202 7 l85 7 -80 12 c-44 7 -128
18 -187 25 l-108 12 0 41 0 41 195 63 c108 35 194 65 193 67 -5 4 -270 -43
-336 -60 l-55 -14 -41 39 c-83 80 -178 105 -315 83 -100 -16 -196 -59 -240
-109 -34 -39 -46 -44 -38 -16 6 23 -30 31 -140 31 -39 0 -74 4 -77 8 -3 5 -10
78 -16 163 -6 85 -24 235 -40 335 -17 99 -30 212 -30 250 0 68 19 196 40 264
25 85 0 252 -46 301 -27 29 -32 80 -9 99 18 15 20 37 3 36 -7 -1 -40 -4 -73
-7z m75 -140 c0 -6 -4 -7 -10 -4 -5 3 -10 11 -10 16 0 6 5 7 10 4 6 -3 10 -11
10 -16z m-90 -103 c0 -3 -4 -8 -10 -11 -5 -3 -10 -1 -10 4 0 6 5 11 10 11 6 0
10 -2 10 -4z m125 -60 c7 -54 1 -81 -15 -71 -5 3 -11 1 -15 -5 -12 -19 -25 1
-25 36 0 30 3 34 19 29 18 -5 19 -2 14 29 -3 22 -2 36 5 36 6 0 14 -24 17 -54z
m-78 -158 c-3 -7 -5 -2 -5 12 0 14 2 19 5 13 2 -7 2 -19 0 -25z m1 -194 c1
-25 -3 -42 -8 -39 -5 3 -7 12 -3 20 3 8 0 15 -6 15 -6 0 -11 -4 -11 -10 0 -5
-7 -10 -16 -10 -9 0 -12 5 -8 12 4 6 3 9 -2 6 -5 -2 -26 -12 -46 -21 -20 -10
-39 -23 -42 -30 -3 -6 -3 -1 0 13 4 14 11 30 17 35 7 7 7 5 2 -4 -6 -11 -4
-13 9 -8 10 4 20 7 23 7 3 0 0 7 -7 15 -7 8 -9 15 -4 16 5 0 0 5 -11 10 -19 9
-18 9 2 5 13 -2 25 -1 27 2 2 4 22 8 44 8 l40 2 0 -44z m-28 -64 c0 -5 -16
-10 -36 -10 -21 0 -33 4 -29 10 3 6 19 10 36 10 16 0 29 -4 29 -10z m-86 -89
c-4 -20 -9 -40 -12 -46 -9 -14 -20 50 -14 80 3 20 7 23 18 14 10 -8 12 -23 8
-48z m106 -288 c0 -42 -2 -74 -4 -72 -10 11 -16 149 -7 149 7 0 11 -29 11 -77z
m0 -110 c0 -5 -5 -15 -10 -23 -8 -12 -10 -11 -10 8 0 12 5 22 10 22 6 0 10 -3
10 -7z m-42 -191 c-10 -2 -14 -11 -10 -29 4 -19 1 -24 -9 -21 -8 3 -15 14 -17
25 -2 16 -9 19 -30 15 -15 -3 -30 -10 -34 -16 -5 -6 -8 -1 -8 12 0 19 5 22 35
22 19 0 34 3 34 8 -3 20 3 21 28 5 20 -13 23 -19 11 -21z m813 -87 c-10 -21
-23 48 -15 83 l8 37 6 -55 c3 -30 3 -59 1 -65z m-760 55 c5 0 9 -12 9 -26 0
-14 -4 -23 -10 -19 -5 3 -10 -1 -10 -9 0 -9 -4 -16 -9 -16 -14 0 -26 83 -12
88 6 2 12 11 12 20 1 10 4 5 6 -10 2 -16 9 -28 14 -28z m555 -41 c4 -30 3 -41
-4 -34 -5 6 -13 33 -16 60 -8 63 10 39 20 -26z m315 0 c-8 -38 -9 -40 -10 -12
-1 17 2 39 5 48 11 29 14 10 5 -36z m-386 11 c8 -16 15 -39 15 -52 -1 -18 -4
-16 -14 12 -7 19 -17 43 -21 53 -12 29 3 19 20 -13z m-448 -27 c-3 -10 -5 -4
-5 12 0 17 2 24 5 18 2 -7 2 -21 0 -30z m879 -8 c-6 -19 -14 -35 -18 -35 -10
0 -10 1 3 39 15 43 29 40 15 -4z m-471 -11 c23 -49 15 -52 -12 -3 -12 21 -18
39 -13 39 4 0 15 -16 25 -36z m498 -19 c-3 -9 -8 -14 -10 -11 -3 3 -2 9 2 15
9 16 15 13 8 -4z m-133 -118 c58 -41 76 -58 78 -80 2 -15 -1 -27 -7 -27 -6 0
-11 7 -11 15 0 24 -48 38 -82 24 -27 -11 -28 -14 -28 -80 0 -38 4 -69 8 -69 5
0 7 14 4 30 -4 30 5 36 47 30 8 -1 12 4 8 14 -4 10 -1 13 9 9 8 -3 13 -12 10
-19 -6 -16 10 -19 19 -4 3 6 13 10 21 10 11 0 12 -9 8 -37 -7 -46 -12 -55 -26
-47 -7 5 -9 -9 -6 -45 3 -28 1 -51 -3 -51 -5 0 -9 -7 -9 -15 0 -8 -5 -15 -12
-15 -6 0 -8 -3 -5 -7 9 -8 -22 -43 -39 -43 -7 0 -14 -5 -16 -11 -3 -9 -14 -7
-38 4 -19 8 -54 19 -78 22 -46 7 -64 28 -52 60 10 28 -6 76 -33 101 -25 22
-61 84 -48 84 4 0 22 -7 39 -16 35 -17 54 -12 45 11 -3 9 1 15 11 15 9 0 16
-4 16 -9 0 -4 11 -6 25 -3 21 4 25 1 25 -21 0 -14 -4 -29 -10 -32 -17 -10 -11
-21 11 -21 20 0 21 4 14 59 -3 32 -8 64 -11 72 -7 17 -37 25 -93 25 -42 0 -43
1 -27 18 9 10 41 32 72 48 31 16 60 35 66 42 15 17 15 17 98 -41z m-271 -218
c6 -18 11 -41 11 -53 -1 -17 -3 -15 -14 10 -22 51 -28 74 -18 74 6 0 15 -14
21 -31z m381 -104 c0 -8 -7 -15 -15 -15 -8 0 -15 7 -15 15 0 8 7 15 15 15 8 0
15 -7 15 -15z m-563 -27 c-3 -7 -5 -2 -5 12 0 14 2 19 5 13 2 -7 2 -19 0 -25z
m598 -58 c7 -39 6 -43 -8 -32 -16 14 -28 68 -19 91 7 19 18 -3 27 -59z m-32
-72 c-7 -65 -16 -67 -26 -6 -4 26 -2 37 6 35 7 -1 11 4 9 11 -1 8 1 11 6 8 5
-3 7 -25 5 -48z m72 -328 c3 -6 -1 -7 -9 -4 -18 7 -21 14 -7 14 6 0 13 -4 16
-10z"/>
<path d="M3021 5463 c-7 -8 -20 -11 -30 -8 -9 4 -28 9 -43 11 -22 3 -28 0 -28
-16 0 -11 10 -25 22 -31 22 -12 21 -12 -6 -26 -18 -9 -26 -20 -22 -30 3 -8 6
-17 6 -19 0 -2 29 -4 64 -4 48 0 65 4 70 16 3 9 2 12 -4 9 -18 -11 -69 -14
-75 -5 -3 5 -13 6 -22 3 -11 -4 -14 -3 -9 5 4 7 30 12 57 12 46 0 49 1 35 16
-19 18 -20 31 -5 36 6 2 9 13 7 25 -3 18 -5 19 -17 6z"/>
<path d="M2136 7042 c-4 -3 -25 -8 -49 -11 -35 -5 -43 -10 -46 -31 -3 -23 -4
-24 -12 -5 -7 17 -8 18 -8 2 -1 -10 6 -20 14 -23 8 -4 15 -10 15 -16 0 -5 -4
-6 -10 -3 -13 8 -12 5 1 -33 6 -18 16 -29 22 -25 6 3 7 1 3 -5 -4 -6 1 -26 10
-44 12 -23 19 -29 22 -18 7 21 35 40 50 35 9 -3 12 12 12 57 0 68 -10 70 -21
5 -6 -38 -7 -37 -6 18 2 53 4 60 22 60 18 0 20 -7 21 -62 0 -35 3 -66 7 -69 4
-4 7 22 7 58 0 59 3 67 25 82 14 9 25 21 25 26 0 10 -95 12 -104 2z"/>
<path d="M2994 6217 l-61 -182 41 -1 42 -1 21 181 c12 99 21 181 20 182 -1 1
-29 -79 -63 -179z"/>
<path d="M2101 6364 c0 -11 3 -14 6 -6 3 7 2 16 -1 19 -3 4 -6 -2 -5 -13z"/>
<path d="M2062 6241 c-12 -33 -3 -91 14 -84 10 4 12 17 7 51 -7 57 -10 61 -21
33z"/>
<path d="M2576 6215 c16 -27 54 -94 85 -147 l57 -97 -31 -26 c-18 -14 -2 -6
34 17 l67 43 -19 25 c-10 14 -64 72 -120 130 -93 97 -99 101 -73 55z"/>
<path d="M3400 6169 c-163 -102 -271 -171 -268 -173 2 0 21 -17 43 -36 21 -19
34 -28 27 -19 -12 16 38 64 283 271 34 29 14 19 -85 -43z"/>
<path d="M2423 5771 c4 -29 17 -39 17 -13 0 11 -5 24 -10 27 -6 4 -9 -2 -7
-14z"/>
<path d="M2053 5668 c-30 -46 -55 -99 -50 -104 1 -2 18 16 37 40 19 24 38 42
43 39 4 -2 7 12 7 31 0 20 -2 36 -5 36 -3 0 -17 -19 -32 -42z"/>
<path d="M2466 5679 c-10 -31 -16 -69 -12 -69 7 0 26 73 21 78 -3 3 -7 -1 -9
-9z"/>
<path d="M2071 5599 c-25 -56 -91 -120 -74 -71 4 13 2 13 -9 -3 -21 -28 -74
-154 -81 -192 l-6 -31 22 19 c12 10 37 32 55 49 19 16 35 30 38 30 8 0 4 -39
-10 -97 -14 -56 -31 -261 -20 -236 4 9 11 10 23 4 31 -17 189 24 264 69 20 12
37 20 37 17 0 -7 -129 -83 -165 -98 -16 -7 -36 -11 -42 -10 -7 1 -13 -3 -13
-8 0 -13 -91 -12 -107 1 -9 7 -11 0 -6 -29 6 -37 20 -56 34 -47 16 10 59 -16
59 -36 0 -24 -9 -26 -25 -4 -10 14 -17 10 -53 -36 -46 -58 -49 -65 -27 -74 8
-3 15 -11 15 -17 0 -6 27 -37 59 -68 l59 -57 92 182 c86 172 120 226 120 193
0 -8 -9 -27 -20 -44 -24 -36 -28 -69 -5 -39 14 18 15 17 4 -8 -7 -15 -16 -25
-20 -22 -11 7 -26 -24 -34 -71 -6 -36 -48 -122 -65 -135 -3 -3 -26 -32 -50
-65 -24 -33 -50 -66 -57 -73 -17 -18 -17 -47 1 -61 11 -9 21 -5 47 19 25 23
31 33 21 39 -9 5 -1 15 28 35 22 14 40 31 40 37 0 6 7 9 15 5 9 -3 15 0 15 9
0 8 6 12 13 9 10 -3 14 6 15 32 1 21 6 40 10 43 5 3 12 28 16 54 6 40 10 46
22 36 8 -6 14 -20 14 -30 0 -27 19 -23 26 6 3 13 13 30 22 37 13 11 14 11 7
-2 -4 -8 -4 -12 0 -7 5 4 10 15 11 23 5 32 14 44 29 38 14 -6 14 -9 -1 -33 -9
-14 3 -6 26 19 41 45 82 108 61 96 -6 -4 -11 -2 -11 4 0 7 -16 -2 -35 -19 -57
-49 -67 -43 -62 37 2 37 12 85 21 107 l17 40 -6 -58 c-5 -56 -4 -57 15 -47 11
6 20 7 20 3 0 -3 14 6 30 22 34 33 41 70 12 61 -14 -5 -22 3 -35 29 -9 20 -17
46 -17 58 0 23 23 100 45 152 21 49 25 65 15 65 -12 0 -49 -53 -62 -91 -13
-36 -25 -53 -88 -116 -40 -40 -100 -81 -100 -69 0 3 14 20 31 38 17 18 37 47
46 63 l16 30 -22 -19 c-25 -23 -28 -11 -4 18 9 12 -17 -12 -58 -52 -64 -64
-123 -104 -147 -101 -4 1 -23 1 -42 -1 -29 -1 -32 -3 -15 -10 11 -5 16 -9 10
-10 -5 -1 3 -7 19 -15 l30 -13 -52 -7 c-28 -4 -56 -4 -61 -1 -15 10 -2 36 15
29 20 -7 17 14 -6 47 l-21 29 37 -6 c28 -5 39 -2 46 10 5 10 15 17 22 17 7 0
20 8 29 18 16 17 15 20 -14 48 -17 16 -37 41 -45 56 -16 31 -19 94 -4 103 6 4
10 -9 10 -32 0 -25 3 -33 9 -24 7 11 9 11 14 0 2 -8 2 40 0 106 -3 66 -8 123
-12 127 -3 4 -12 -6 -20 -23z m-16 -106 c-47 -75 -99 -107 -92 -58 2 17 19 37
52 60 27 19 51 33 53 30 3 -2 -3 -17 -13 -32z m3 -204 c9 -1 21 -1 26 0 11 2
46 -29 46 -41 0 -4 -3 -7 -7 -6 -5 0 -25 -6 -45 -15 -21 -10 -42 -17 -47 -17
-17 0 -34 40 -23 53 5 7 13 26 17 42 8 27 9 28 12 8 3 -13 12 -24 21 -24z
m391 -10 c-28 -87 -56 -119 -172 -195 -28 -19 -45 -34 -37 -34 11 -1 10 -4 -4
-15 -11 -8 -27 -15 -35 -15 -11 1 -9 5 7 13 12 7 20 15 17 18 -3 3 31 34 76
68 56 44 87 76 100 105 47 98 71 126 48 55z m-199 -113 c0 -3 -4 -8 -10 -11
-5 -3 -10 -1 -10 4 0 6 5 11 10 11 6 0 10 -2 10 -4z m240 -186 c0 -5 -5 -10
-11 -10 -5 0 -7 5 -4 10 3 6 8 10 11 10 2 0 4 -4 4 -10z m-416 -245 c3 -8 1
-15 -3 -15 -5 0 -11 7 -15 15 -3 8 -1 15 3 15 5 0 11 -7 15 -15z m31 -155 c3
-5 2 -10 -4 -10 -5 0 -13 5 -16 10 -3 6 -2 10 4 10 5 0 13 -4 16 -10z"/>
<path d="M2436 5583 c-6 -14 -5 -15 5 -6 7 7 10 15 7 18 -3 3 -9 -2 -12 -12z"/>
<path d="M2486 5545 c-9 -26 -7 -32 5 -12 6 10 9 21 6 23 -2 3 -7 -2 -11 -11z"/>
<path d="M2339 5493 c-13 -16 -12 -17 4 -4 9 7 17 15 17 17 0 8 -8 3 -21 -13z"/>
<path d="M2390 5408 c-12 -22 -12 -22 6 -6 10 10 15 20 12 24 -4 3 -12 -5 -18
-18z"/>
<path d="M2277 5413 c-4 -3 -7 -11 -7 -17 0 -6 5 -5 12 2 6 6 9 14 7 17 -3 3
-9 2 -12 -2z"/>
<path d="M2514 5372 c-6 -4 -15 -34 -19 -67 l-7 -60 22 27 c15 20 20 38 18 68
-2 26 -7 37 -14 32z"/>
<path d="M2146 5325 c-8 -23 -8 -35 3 -35 13 0 20 25 11 39 -5 10 -9 8 -14 -4z"/>
<path d="M2140 5220 c-9 -6 -10 -10 -3 -10 6 0 15 5 18 10 8 12 4 12 -15 0z"/>
<path d="M2552 5190 c0 -19 2 -27 5 -17 2 9 2 25 0 35 -3 9 -5 1 -5 -18z"/>
<path d="M2110 5185 c-32 -12 -33 -14 -9 -14 14 -1 34 6 45 14 23 18 10 18
-36 0z"/>
<path d="M2540 5122 c0 -5 -18 -28 -40 -52 -42 -46 -55 -75 -18 -40 20 19 23
19 28 4 5 -14 9 -11 18 12 16 41 25 84 18 84 -3 0 -6 -4 -6 -8z"/>
<path d="M2635 5067 c-4 -31 -5 -62 -3 -69 3 -7 8 15 13 50 4 35 5 66 2 68 -3
3 -8 -19 -12 -49z"/>
<path d="M2682 5060 c-7 -23 -9 -46 -5 -53 4 -6 6 -52 6 -102 l-1 -90 9 85 c5
47 8 111 7 143 l-3 58 -13 -41z"/>
<path d="M2550 5036 c-7 -26 -24 -63 -36 -82 -19 -27 -61 -109 -103 -199 -2
-5 4 -3 15 5 18 14 18 14 5 -3 -8 -9 -16 -15 -19 -12 -9 8 -32 -17 -32 -35 0
-9 -28 -47 -63 -84 -58 -62 -64 -70 -44 -67 4 0 7 -4 7 -10 0 -6 -9 -9 -19 -6
-12 3 -28 -4 -42 -19 -12 -13 -32 -24 -43 -24 -12 0 -28 -5 -36 -11 -12 -8
-10 -9 7 -4 12 3 24 1 27 -4 4 -5 -4 -13 -16 -16 -35 -11 -148 -86 -148 -99 1
-6 14 -26 30 -45 21 -25 33 -32 47 -26 15 6 13 9 -14 21 -18 8 -33 16 -33 19
0 3 19 5 43 5 30 0 38 -3 27 -10 -8 -5 -11 -12 -8 -16 12 -11 -12 -46 -28 -40
-8 3 -14 2 -14 -2 1 -9 48 -62 79 -87 l23 -20 -3 47 c-2 25 0 46 5 45 4 -1 16
22 26 51 10 30 23 59 30 65 7 7 5 -4 -4 -28 -20 -52 -47 -159 -53 -211 -3 -29
4 -62 27 -123 22 -55 30 -90 25 -108 -6 -26 -6 -26 19 5 18 21 26 42 26 68 0
22 9 95 21 163 11 68 18 125 17 127 -2 2 -11 -17 -21 -42 -9 -25 -12 -42 -7
-39 6 3 10 3 10 -2 -1 -9 -36 -53 -43 -53 -11 0 39 159 62 197 8 14 10 11 6
-17 -6 -42 -4 -36 42 105 20 61 46 128 58 150 13 22 42 87 64 145 39 100 61
145 61 127 1 -43 -82 -266 -130 -352 -30 -53 -51 -121 -81 -250 -19 -86 -19
-105 1 -53 7 18 21 51 31 73 17 37 40 98 107 285 15 41 33 83 41 92 8 9 16 23
17 30 7 40 16 88 24 123 10 43 22 161 13 133 -5 -19 -23 -25 -23 -8 0 6 7 22
16 35 9 14 12 25 6 25 -6 0 -5 18 4 47 8 26 13 52 11 57 -2 5 -9 -12 -17 -38z
m-287 -701 c-3 -9 -8 -14 -10 -11 -3 3 -2 9 2 15 9 16 15 13 8 -4z m-128 -105
c-3 -5 -12 -10 -18 -10 -7 0 -6 4 3 10 19 12 23 12 15 0z"/>
<path d="M2721 5054 c0 -11 3 -14 6 -6 3 7 2 16 -1 19 -3 4 -6 -2 -5 -13z"/>
<path d="M2861 4966 c37 -37 55 -82 36 -89 -12 -4 60 -87 76 -87 6 0 -3 15
-20 33 -17 17 -33 43 -35 57 l-4 25 45 -22 c25 -13 48 -29 53 -36 6 -9 10 -9
20 1 10 10 10 15 -2 22 -8 5 -24 10 -35 10 -21 0 -104 61 -118 86 -4 7 -18 19
-30 25 -15 8 -10 -1 14 -25z"/>
<path d="M1966 4935 c-9 -26 -7 -32 5 -12 6 10 9 21 6 23 -2 3 -7 -2 -11 -11z"/>
<path d="M2800 4941 c0 -6 4 -13 10 -16 6 -3 7 1 4 9 -7 18 -14 21 -14 7z"/>
<path d="M2840 4917 c0 -18 30 -77 39 -77 6 0 8 -6 5 -13 -3 -8 4 -24 14 -37
16 -20 20 -21 25 -7 4 10 -3 28 -16 44 -13 16 -33 44 -45 63 -12 19 -22 31
-22 27z m64 -103 c3 -8 2 -12 -4 -9 -6 3 -10 10 -10 16 0 14 7 11 14 -7z"/>
<path d="M2831 4865 c0 -20 25 -62 33 -54 2 2 -4 20 -14 39 -14 26 -19 30 -19
15z"/>
<path d="M2935 4860 c3 -5 16 -15 28 -21 22 -12 22 -12 3 10 -19 21 -43 30
-31 11z"/>
<path d="M3143 4863 c9 -2 23 -2 30 0 6 3 -1 5 -18 5 -16 0 -22 -2 -12 -5z"/>
<path d="M2303 4795 c0 -22 2 -30 4 -17 2 12 2 30 0 40 -3 9 -5 -1 -4 -23z"/>
<path d="M2347 4802 c-32 -33 -36 -54 -6 -26 20 18 44 54 36 54 -2 0 -15 -13
-30 -28z"/>
<path d="M3099 4790 c-3 -14 -10 -24 -18 -22 -8 2 -11 -3 -8 -13 4 -8 2 -15
-3 -15 -5 0 -16 -15 -23 -32 -8 -18 -21 -39 -30 -47 -10 -7 -17 -18 -17 -24 0
-16 -51 -67 -67 -67 -16 0 -17 -17 -1 -22 18 -6 -4 -53 -77 -164 -35 -53 -58
-97 -53 -100 6 -4 13 -2 17 3 61 88 112 167 130 205 12 25 29 52 38 59 8 8 -1
-19 -21 -58 -47 -93 -46 -118 0 -33 82 147 149 307 141 338 -3 12 -5 10 -8 -8z"/>
<path d="M2850 4785 c0 -8 4 -15 10 -15 5 0 7 7 4 15 -4 8 -8 15 -10 15 -2 0
-4 -7 -4 -15z"/>
<path d="M3201 4793 c-1 -6 -4 -20 -7 -30 -5 -17 -5 -17 6 0 6 10 9 23 6 30
-3 9 -5 9 -5 0z"/>
<path d="M3380 4796 c0 -2 8 -10 18 -17 15 -13 16 -12 3 4 -13 16 -21 21 -21
13z"/>
<path d="M2339 4724 c-2 -5 -30 -28 -61 -52 -32 -23 -65 -50 -75 -60 -10 -10
-35 -31 -55 -46 -21 -16 -35 -33 -31 -39 3 -5 1 -7 -4 -4 -6 4 -16 0 -23 -8
-7 -8 -15 -13 -19 -11 -4 3 -7 -4 -7 -15 0 -17 2 -17 21 -4 11 8 36 24 55 34
32 17 61 42 187 156 23 21 30 34 24 44 -5 7 -10 9 -12 5z"/>
<path d="M2837 4708 c-4 -13 19 -68 28 -68 3 0 5 15 5 33 0 25 -3 29 -11 17
-9 -12 -10 -11 -6 8 5 23 -8 31 -16 10z"/>
<path d="M3230 4688 c-6 -18 -18 -45 -26 -60 -8 -14 -14 -34 -14 -43 0 -9 -9
-28 -20 -42 -11 -14 -20 -31 -20 -38 0 -7 -15 -40 -34 -74 -19 -33 -37 -69
-41 -81 -3 -11 -10 -18 -15 -15 -4 3 -15 -10 -23 -28 -15 -30 -216 -229 -268
-264 -95 -65 -249 -201 -249 -220 0 -7 -4 -13 -8 -13 -5 0 -15 -11 -22 -25 -7
-14 -15 -23 -17 -21 -7 6 53 120 79 152 35 42 120 164 115 164 -11 0 -178
-232 -215 -298 -95 -168 -95 -147 2 46 87 176 108 213 150 272 39 55 48 70 43
70 -6 0 -78 -98 -117 -160 -19 -30 -37 -57 -40 -60 -3 -3 -20 -35 -39 -72 -19
-38 -38 -68 -42 -68 -5 0 -6 -7 -2 -16 4 -12 2 -15 -8 -12 -21 7 -23 54 -4
121 18 64 15 87 -5 35 -6 -18 -23 -58 -36 -89 -13 -31 -24 -60 -24 -65 0 -5
-27 -36 -60 -68 -33 -32 -60 -63 -60 -67 0 -5 -6 -9 -14 -9 -13 0 -33 -21 -90
-90 -15 -18 -20 -20 -27 -9 -7 11 -9 10 -9 -5 0 -11 -12 -43 -26 -73 -22 -48
-24 -58 -14 -89 8 -22 21 -39 37 -45 32 -12 115 -12 147 1 28 10 29 10 28 -95
l-1 -40 10 40 c30 125 71 212 160 342 16 23 29 48 29 55 0 27 241 295 323 360
35 28 39 29 50 14 11 -15 18 -9 59 46 45 61 118 139 118 126 0 -4 -10 -23 -21
-43 -12 -20 -19 -38 -16 -41 3 -3 18 17 32 46 15 29 22 49 16 45 -19 -11 -12
7 12 30 12 12 29 30 37 41 19 25 106 209 118 248 4 17 14 32 22 34 9 3 11 -1
7 -12 -4 -9 -2 -16 3 -16 5 0 12 17 15 38 3 20 12 66 20 102 15 73 14 86 -5
38z m-663 -855 c-9 -9 -20 -13 -24 -9 -4 4 -1 11 7 16 25 16 35 11 17 -7z
m-246 -371 c-21 -32 -45 -78 -52 -103 -7 -24 -14 -37 -16 -28 -5 22 32 105 68
150 45 57 45 47 0 -19z m-136 18 c3 -5 1 -10 -4 -10 -6 0 -11 5 -11 10 0 6 2
10 4 10 3 0 8 -4 11 -10z"/>
<path d="M3164 4695 c-4 -8 -10 -12 -15 -9 -5 3 -9 -3 -9 -13 0 -11 -5 -24
-12 -31 -9 -9 -9 -12 0 -12 6 0 21 18 32 40 11 22 18 40 15 40 -3 0 -8 -7 -11
-15z"/>
<path d="M2817 4661 c3 -12 10 -21 15 -21 13 0 6 32 -9 37 -7 3 -9 -3 -6 -16z"/>
<path d="M3415 4610 c22 -45 29 -52 20 -20 -4 14 -14 32 -22 40 -12 12 -11 7
2 -20z"/>
<path d="M3072 4597 c-18 -47 3 -61 34 -22 25 31 32 51 14 40 -6 -4 -17 -2
-23 4 -10 7 -16 2 -25 -22z"/>
<path d="M2772 4607 c-28 -13 -82 -115 -82 -154 1 -24 4 -20 20 21 24 60 31
68 26 28 l-3 -32 37 39 c33 34 37 42 31 73 -6 33 -8 34 -29 25z"/>
<path d="M3460 4618 c0 -2 18 -37 41 -78 22 -41 38 -67 35 -57 -3 10 -9 36
-12 57 -4 26 -15 45 -35 59 -16 12 -29 20 -29 19z"/>
<path d="M2542 4575 c-1 -17 -6 -45 -12 -64 -5 -19 -10 -61 -11 -95 -1 -35 -8
-66 -16 -74 -14 -14 -8 -36 8 -27 9 6 13 -8 10 -34 -2 -7 2 -10 9 -6 7 4 9 18
6 30 -3 13 -1 46 4 72 6 27 9 89 7 139 -1 49 -4 75 -5 59z"/>
<path d="M3424 4502 c-4 -12 -10 -19 -15 -16 -11 6 -10 -31 1 -101 l7 -50 2
43 c1 42 16 57 24 25 5 -19 11 48 7 82 -3 32 -20 43 -26 17z"/>
<path d="M2977 4433 c-11 -10 -8 -53 3 -53 6 0 10 14 10 30 0 31 -2 35 -13 23z"/>
<path d="M2432 4378 c-1 -14 -5 -35 -8 -45 -5 -14 -4 -15 5 -7 7 7 11 26 8 45
-3 28 -4 29 -5 7z"/>
<path d="M3530 4367 c0 -10 12 -53 26 -94 16 -46 24 -86 21 -103 -5 -21 0 -33
20 -51 l25 -24 -7 25 c-30 108 -85 265 -85 247z"/>
<path d="M2373 4257 c-18 -56 -46 -145 -62 -197 -16 -52 -28 -96 -27 -98 2 -1
16 18 31 43 26 45 65 182 65 228 0 13 7 33 16 45 8 12 14 35 12 52 -2 22 -11
5 -35 -73z"/>
<path d="M3416 4315 c-3 -9 -6 -26 -5 -38 1 -14 4 -9 9 13 9 37 7 52 -4 25z"/>
<path d="M2432 4290 c0 -14 2 -19 5 -12 2 6 2 18 0 25 -3 6 -5 1 -5 -13z"/>
<path d="M3957 4278 c-6 -44 1 -49 15 -10 10 25 17 31 33 26 16 -4 17 -3 5 5
-29 20 -48 13 -53 -21z"/>
<path d="M3532 4255 c0 -16 2 -22 5 -12 2 9 2 23 0 30 -3 6 -5 -1 -5 -18z"/>
<path d="M4050 4275 c0 -8 73 -36 78 -30 3 3 3 5 0 5 -3 0 -22 7 -42 15 -20 8
-36 13 -36 10z"/>
<path d="M2432 4240 c0 -14 2 -19 5 -12 2 6 2 18 0 25 -3 6 -5 1 -5 -13z"/>
<path d="M2699 4243 c-13 -16 -12 -17 4 -4 16 13 21 21 13 21 -2 0 -10 -8 -17
-17z"/>
<path d="M3863 4181 c-24 -38 -43 -71 -43 -75 0 -18 23 -1 43 32 64 104 69
112 55 112 -7 -1 -32 -32 -55 -69z"/>
<path d="M4102 4169 c-23 -38 -42 -74 -42 -79 0 -5 -11 -17 -24 -25 -13 -9
-29 -29 -36 -45 -8 -20 -20 -30 -34 -30 -19 -1 -19 -2 -3 -11 9 -5 21 -8 26
-5 4 3 14 -6 21 -19 10 -19 11 -30 2 -50 -7 -14 -12 -36 -12 -48 0 -12 -9 -28
-21 -35 -12 -7 -18 -16 -15 -20 7 -7 76 57 76 71 0 5 -7 4 -15 -3 -8 -7 -15
-8 -15 -2 0 5 7 15 15 22 8 7 15 21 15 31 0 15 5 18 23 14 26 -7 64 30 77 74
7 23 8 24 15 8 5 -12 0 -29 -15 -50 l-23 -32 27 25 c21 19 29 22 35 11 7 -10
10 -10 16 -1 4 6 3 16 -3 22 -14 14 13 42 31 35 8 -3 19 4 26 15 11 17 10 22
-1 30 -10 8 -9 8 5 4 12 -4 24 6 42 34 14 22 31 40 38 41 6 0 -8 9 -31 20 -24
10 -49 16 -55 12 -7 -3 -9 -3 -5 2 6 6 -80 55 -96 55 0 0 -20 -32 -44 -71z
m19 -56 c-9 -16 -10 -16 -11 4 0 12 3 30 7 40 7 16 8 16 11 -4 2 -12 -1 -30
-7 -40z m36 -20 c-3 -10 -5 -2 -5 17 0 19 2 27 5 18 2 -10 2 -26 0 -35z m-87
-27 c0 -3 -4 -8 -10 -11 -5 -3 -10 -1 -10 4 0 6 5 11 10 11 6 0 10 -2 10 -4z
m15 -66 c-21 -40 -19 -46 7 -24 14 12 18 13 10 3 -6 -9 -9 -19 -5 -22 3 -4 -6
-7 -20 -7 -32 0 -33 3 -6 46 25 42 35 45 14 4z m-64 7 c-14 -18 -2 -30 16 -15
11 8 12 7 7 -6 -7 -18 -29 -21 -39 -6 -9 15 1 40 16 40 8 0 9 -4 0 -13z"/>
<path d="M3263 4195 c0 -22 2 -30 4 -17 2 12 2 30 0 40 -3 9 -5 -1 -4 -23z"/>
<path d="M3361 4214 c0 -11 3 -14 6 -6 3 7 2 16 -1 19 -3 4 -6 -2 -5 -13z"/>
<path d="M3410 4215 c0 -8 5 -15 10 -15 6 0 10 7 10 15 0 8 -4 15 -10 15 -5 0
-10 -7 -10 -15z"/>
<path d="M2450 4210 c-9 -6 -10 -10 -3 -10 6 0 15 5 18 10 8 12 4 12 -15 0z"/>
<path d="M3463 4175 c0 -22 2 -30 4 -17 2 12 2 30 0 40 -3 9 -5 -1 -4 -23z"/>
<path d="M3482 4185 c0 -16 2 -22 5 -12 2 9 2 23 0 30 -3 6 -5 -1 -5 -18z"/>
<path d="M3522 4185 c0 -16 2 -22 5 -12 2 9 2 23 0 30 -3 6 -5 -1 -5 -18z"/>
<path d="M2390 4180 c0 -11 2 -20 4 -20 2 0 6 9 9 20 3 11 1 20 -4 20 -5 0 -9
-9 -9 -20z"/>
<path d="M3630 4150 c0 -6 7 -13 15 -16 8 -4 15 -16 15 -27 0 -21 0 -21 -16
-1 -14 18 -15 18 -10 1 3 -11 9 -29 12 -42 5 -20 9 -22 24 -12 19 11 34 47 20
47 -4 0 -13 14 -19 30 -9 28 -41 43 -41 20z"/>
<path d="M3544 4131 c4 -6 16 -16 28 -22 15 -8 18 -8 14 0 -4 6 -16 16 -28 22
-15 8 -18 8 -14 0z"/>
<path d="M3352 4100 c0 -14 2 -19 5 -12 2 6 2 18 0 25 -3 6 -5 1 -5 -13z"/>
<path d="M3465 4101 c3 -11 -1 -34 -9 -50 -21 -41 -20 -54 11 -130 15 -36 37
-104 49 -151 20 -75 23 -80 23 -44 1 23 -6 61 -14 84 -8 24 -13 45 -10 48 10
10 32 -19 43 -57 12 -39 3 -121 -17 -160 -8 -14 -5 -23 13 -40 l24 -22 -3 131
c-4 144 -3 143 -79 226 -45 51 -65 92 -29 63 9 -8 24 -13 34 -11 22 4 62 -54
55 -80 -2 -10 -1 -18 3 -18 7 0 37 -102 66 -225 9 -38 27 -86 40 -105 13 -19
38 -68 56 -109 25 -56 34 -69 40 -55 6 19 -13 87 -31 109 -12 14 -61 335 -54
347 3 5 1 15 -6 23 -6 7 -15 26 -19 42 -5 15 -13 27 -20 26 -6 -2 -11 4 -11
12 0 8 -4 15 -9 15 -5 0 -12 16 -15 35 -4 19 -14 38 -23 43 -18 11 -53 4 -53
-9 0 -5 -5 -9 -11 -9 -8 0 -8 4 -1 13 16 19 4 53 -25 66 -22 10 -24 9 -18 -8z"/>
<path d="M4400 4101 c0 -6 5 -11 12 -11 6 0 3 -9 -7 -20 -18 -20 -18 -21 0
-34 12 -8 15 -18 10 -26 -7 -11 -10 -9 -15 5 -6 18 -7 17 -12 -3 -4 -12 -2
-22 3 -22 17 0 9 -40 -12 -61 -20 -20 -20 -22 -3 -40 13 -15 20 -16 31 -7 8 6
12 17 9 25 -3 8 -2 12 3 8 5 -3 19 10 31 30 18 28 19 38 9 56 -10 19 -9 25 10
40 27 22 27 34 -1 53 -16 12 -24 13 -29 4 -6 -9 -11 -8 -23 1 -11 9 -16 10
-16 2z"/>
<path d="M3541 4098 c2 -2 17 -14 32 -28 21 -18 26 -20 21 -7 -6 17 -34 37
-50 37 -4 0 -5 -1 -3 -2z"/>
<path d="M3706 4084 c-5 -12 -2 -15 10 -10 8 3 21 6 27 6 7 0 6 4 -3 10 -21
14 -27 12 -34 -6z"/>
<path d="M3711 4057 c-14 -6 -26 -18 -29 -25 -3 -10 3 -10 27 2 17 9 31 21 31
26 0 12 0 12 -29 -3z"/>
<path d="M3740 4041 c-6 -16 -25 -41 -41 -57 -16 -15 -29 -35 -29 -43 0 -17
12 -5 71 73 30 40 36 56 20 56 -5 0 -14 -13 -21 -29z"/>
<path d="M3611 4045 c0 -11 4 -29 9 -40 l9 -20 0 20 c0 11 -4 29 -9 40 l-9 20
0 -20z"/>
<path d="M3965 4010 c3 -5 8 -10 11 -10 2 0 4 5 4 10 0 6 -5 10 -11 10 -5 0
-7 -4 -4 -10z"/>
<path d="M2775 3990 c-11 -17 5 -32 21 -19 8 6 14 15 14 20 0 12 -27 11 -35
-1z"/>
<path d="M3343 3853 c-1 -84 3 -153 8 -153 10 0 10 130 0 235 -6 56 -8 38 -8
-82z"/>
<path d="M4187 3926 c-20 -31 -37 -58 -37 -60 0 -6 -63 -110 -71 -116 -19 -16
-29 -51 -19 -69 7 -13 7 -22 0 -26 -5 -3 -10 -11 -10 -16 0 -5 12 -2 28 8 26
17 26 17 13 -1 -8 -9 -16 -25 -17 -34 -1 -10 -6 -27 -9 -39 -5 -14 -3 -23 3
-23 6 0 14 9 17 21 4 11 9 18 12 16 2 -3 -1 -16 -8 -29 -7 -12 -14 -48 -15
-78 -2 -46 -14 -78 -74 -193 -39 -76 -68 -143 -64 -149 5 -7 3 -8 -6 -3 -10 6
-12 4 -6 -10 6 -17 5 -18 -11 -3 -10 8 -31 18 -47 22 -15 4 -26 10 -22 13 3 3
-3 12 -14 20 -11 8 -20 21 -20 30 0 9 -2 14 -5 11 -6 -6 9 -142 27 -248 l11
-65 18 41 c9 23 22 67 29 98 8 41 16 56 25 52 13 -5 72 88 155 241 26 48 43
66 73 79 37 17 151 130 206 204 14 19 42 54 63 77 21 24 38 49 38 57 0 22 -43
96 -54 94 -19 -2 -46 14 -46 27 0 7 -7 18 -15 25 -21 18 -19 33 5 27 11 -3 27
1 35 10 30 30 17 38 -68 41 l-84 3 -36 -55z m37 0 c-3 -9 -10 -16 -15 -16 -5
0 -4 9 3 20 14 22 21 20 12 -4z m-4 -30 c0 -3 -4 -8 -10 -11 -5 -3 -10 -1 -10
4 0 6 5 11 10 11 6 0 10 -2 10 -4z m41 -77 c19 -7 42 -18 51 -27 10 -8 25 -12
34 -8 13 5 15 2 11 -13 -3 -11 1 -25 9 -32 8 -6 14 -16 14 -22 0 -7 -4 -7 -12
1 -7 7 -17 12 -24 12 -7 0 -28 16 -48 36 -19 19 -40 33 -46 29 -5 -3 -20 3
-32 14 -26 25 -11 28 43 10z m-105 -34 c-9 -7 -26 -23 -38 -36 l-20 -24 7 25
c8 29 27 47 51 47 16 0 16 -1 0 -12z m121 -41 c37 -28 57 -59 48 -74 -11 -18
-27 -10 -74 38 -25 26 -55 53 -66 60 -18 11 -15 12 20 6 22 -3 55 -17 72 -30z
m-81 -48 c10 -8 16 -17 13 -20 -3 -4 -17 2 -30 13 -27 23 -13 28 17 7z m-89
-18 c-3 -8 -6 -5 -6 6 -1 11 2 17 5 13 3 -3 4 -12 1 -19z m137 -49 c10 -17 15
-33 12 -36 -3 -4 -6 -2 -6 4 0 6 -9 13 -20 16 -12 3 -20 14 -20 26 0 30 13 26
34 -10z m-81 -26 c-7 -3 -9 -12 -6 -21 4 -13 3 -14 -5 -3 -8 11 -12 10 -21 -7
-6 -11 -11 -30 -11 -42 0 -19 -26 -80 -34 -80 -7 0 11 87 23 110 21 39 43 60
54 53 8 -5 7 -8 0 -10z m-296 -570 c-3 -10 -5 -4 -5 12 0 17 2 24 5 18 2 -7 2
-21 0 -30z"/>
<path d="M2671 3878 c-36 -38 -91 -149 -91 -185 0 -6 -7 -13 -15 -17 -8 -3
-15 -13 -15 -23 0 -15 2 -15 15 3 14 19 14 19 15 -1 1 -14 3 -16 7 -5 3 8 16
26 28 40 22 24 67 105 81 145 4 11 6 31 5 44 -2 14 1 21 8 17 6 -4 11 0 11 8
0 23 -4 21 -49 -26z m-8 -53 c-3 -9 -8 -14 -10 -11 -3 3 -2 9 2 15 9 16 15 13
8 -4z"/>
<path d="M3957 3869 c-15 -22 -27 -46 -27 -52 0 -7 14 10 31 36 18 26 30 50
27 52 -2 3 -17 -14 -31 -36z"/>
<path d="M3722 3833 c-1 -13 -8 -23 -16 -23 -10 0 -12 -9 -5 -42 10 -54 19
-79 28 -74 3 2 6 -15 7 -37 1 -47 13 -134 21 -157 7 -18 22 48 22 101 1 19 8
44 17 55 14 18 15 18 9 -6 -6 -24 -5 -24 9 -6 9 11 19 15 28 10 7 -5 18 -9 23
-9 6 0 11 -15 13 -32 4 -37 17 -43 27 -13 3 11 13 20 21 20 20 0 87 -29 94
-40 3 -5 12 -5 20 1 11 8 12 12 3 15 -7 3 -9 12 -6 20 6 17 -9 18 -26 2 -10
-11 -15 -10 -24 2 -7 8 -23 17 -37 18 -35 5 -36 9 -9 31 13 11 19 20 12 21 -6
0 -13 -4 -15 -8 -1 -5 -15 -12 -29 -15 -30 -8 -55 13 -45 38 9 25 26 17 26
-12 l0 -27 15 21 c9 13 22 20 30 17 16 -7 19 4 7 22 -4 6 -27 21 -52 32 l-45
21 -32 -37 c-18 -20 -33 -41 -33 -47 0 -22 -22 -86 -27 -81 -10 10 20 100 44
132 29 39 29 48 -2 62 -22 10 -25 9 -25 -8 0 -10 -5 -22 -12 -26 -7 -4 -8 -3
-4 4 4 7 1 12 -8 12 -9 0 -16 12 -19 33 -2 19 -4 23 -5 10z m116 -105 c-8 -12
-20 -24 -27 -26 -7 -2 -3 7 10 22 28 32 37 34 17 4z m4 -40 c-7 -7 -12 -8 -12
-2 0 6 3 14 7 17 3 4 9 5 12 2 2 -3 -1 -11 -7 -17z"/>
<path d="M3680 3829 c0 -5 5 -7 10 -4 6 3 10 8 10 11 0 2 -4 4 -10 4 -5 0 -10
-5 -10 -11z"/>
<path d="M2134 3718 c-25 -40 -59 -92 -75 -116 -16 -24 -26 -48 -23 -54 4 -7
16 8 29 33 12 24 45 81 73 127 29 45 50 82 47 82 -3 0 -26 -33 -51 -72z"/>
<path d="M3441 3710 c1 -55 1 -55 11 -18 7 25 6 43 -1 55 -8 14 -10 6 -10 -37z"/>
<path d="M3956 3715 c4 -8 10 -13 14 -10 5 3 10 0 12 -7 3 -7 7 -5 11 6 4 9 3
15 -2 11 -5 -3 -12 -1 -16 5 -10 16 -25 12 -19 -5z"/>
<path d="M4016 3714 c-4 -10 -1 -14 6 -12 15 5 23 28 10 28 -5 0 -13 -7 -16
-16z"/>
<path d="M3340 3675 c0 -8 4 -15 10 -15 5 0 7 7 4 15 -4 8 -8 15 -10 15 -2 0
-4 -7 -4 -15z"/>
<path d="M4016 3674 c-24 -24 -19 -30 7 -8 12 10 24 20 26 21 2 2 -1 3 -7 3
-6 0 -18 -7 -26 -16z"/>
<path d="M2110 3610 c-14 -27 -16 -38 -7 -34 12 4 41 74 31 74 -2 0 -13 -18
-24 -40z"/>
<path d="M2735 3554 c-22 -47 -45 -96 -52 -108 -34 -63 -133 -268 -133 -275 0
-5 -6 -16 -12 -23 -7 -7 -23 -34 -36 -60 -28 -57 -37 -64 -51 -41 -9 16 -10
16 -11 1 0 -9 6 -18 13 -21 9 -3 9 -10 -2 -30 -18 -35 -28 -34 -36 2 -8 37 23
114 120 293 41 77 75 150 75 161 0 18 -2 19 -10 7 -5 -8 -10 -23 -10 -32 0 -9
-12 -34 -26 -55 -15 -21 -24 -31 -21 -23 3 8 20 51 37 95 50 124 70 186 60
180 -6 -4 -10 -12 -10 -18 0 -21 -124 -261 -147 -287 -17 -18 -20 -27 -12 -37
8 -9 8 -13 0 -13 -6 0 -16 -20 -22 -45 -6 -25 -15 -48 -20 -51 -5 -3 -9 -14
-9 -24 0 -10 -11 -31 -25 -46 -18 -19 -25 -22 -25 -11 0 8 6 17 13 20 6 2 9 8
5 12 -9 10 -48 -55 -48 -81 0 -26 -27 -121 -43 -149 -6 -11 -18 -33 -26 -49
-9 -16 -22 -36 -28 -45 -7 -9 -19 -24 -26 -35 -11 -15 -17 -17 -35 -7 -20 11
-52 6 -52 -8 0 -4 11 -18 25 -31 23 -22 25 -22 25 -4 1 17 2 17 10 2 7 -11 7
-31 -1 -60 -19 -73 -22 -139 -9 -230 13 -87 30 -119 30 -54 0 18 14 79 30 136
17 56 30 112 28 124 -2 13 2 20 10 19 8 -2 12 14 14 55 1 35 3 44 5 25 2 -18
7 -33 11 -33 4 0 17 34 30 75 13 41 27 77 32 80 5 3 6 21 3 41 -4 25 -2 39 8
44 18 12 29 3 29 -23 0 -18 -2 -19 -10 -7 -7 11 -9 4 -6 -25 3 -22 2 -42 -2
-45 -9 -6 -107 -251 -132 -328 -10 -31 -21 -77 -25 -102 -11 -80 -16 -100 -25
-95 -4 2 -6 -30 -4 -73 8 -176 16 -262 24 -257 5 3 6 28 3 55 -5 42 -3 50 11
50 14 0 15 -4 6 -20 -6 -12 -8 -30 -5 -40 6 -18 10 -16 47 21 41 41 52 73 35
96 -14 20 -21 129 -8 137 12 8 15 68 4 79 -3 4 -12 2 -19 -4 -17 -14 -6 111
12 132 8 8 14 29 15 45 1 27 1 28 8 5 l7 -24 15 24 c9 13 25 51 37 84 11 33
26 59 31 58 7 -2 11 22 11 62 0 37 4 65 10 65 6 0 10 -17 10 -37 1 -21 2 -96
5 -168 2 -71 0 -116 -4 -100 -4 18 -13 29 -21 27 -7 -2 -17 3 -22 10 -6 9 -7
6 -3 -9 4 -15 0 -26 -15 -36 -17 -12 -21 -23 -18 -53 2 -30 -2 -44 -19 -61
-19 -18 -21 -26 -13 -55 6 -18 11 -55 11 -83 1 -27 5 -63 9 -80 7 -26 8 -24 9
20 1 35 4 46 10 35 6 -8 7 -18 4 -23 -3 -5 0 -8 8 -5 8 2 18 14 24 26 15 33
23 27 31 -23 6 -44 2 -59 -17 -61 -5 -1 -13 -2 -19 -3 -5 0 -10 -9 -10 -18 0
-15 -2 -16 -10 -3 -8 13 -10 12 -10 -3 0 -10 -6 -25 -14 -32 -11 -11 -11 -22
-2 -56 6 -23 12 -35 14 -25 2 9 15 28 28 41 21 21 29 23 45 14 12 -6 18 -17
15 -25 -3 -8 -1 -14 5 -14 6 0 8 28 4 78 -3 42 -7 103 -8 134 -1 32 -5 58 -9
58 -5 0 -8 -8 -8 -17 0 -15 -2 -15 -20 3 -33 33 -45 41 -58 36 -6 -2 -13 1
-13 7 -1 6 -2 17 -3 24 -1 14 43 26 124 33 39 3 49 2 34 -5 -12 -5 -24 -16
-27 -25 -8 -20 2 -336 11 -371 l8 -27 29 38 c16 22 37 48 47 58 10 11 18 23
18 28 0 4 14 22 30 40 17 18 41 44 54 58 29 32 59 80 53 86 -2 3 -10 -2 -17
-11 -7 -8 -19 -15 -26 -15 -8 0 -16 -11 -20 -25 -7 -27 -31 -51 -41 -41 -4 4
-2 15 3 24 6 10 9 32 6 50 -4 31 -4 32 27 26 39 -8 60 15 61 63 0 37 9 63 21
63 5 0 4 -11 -1 -25 -8 -20 -6 -25 6 -25 12 0 14 -4 7 -12 -12 -16 -24 -48
-18 -48 12 0 43 64 37 78 -3 9 -1 13 5 9 27 -17 161 340 218 581 30 129 34
146 30 150 -7 7 -34 -68 -39 -109 -3 -23 -10 -47 -16 -54 -6 -7 -15 -40 -21
-74 -6 -33 -15 -58 -20 -55 -5 3 -9 -11 -9 -30 0 -20 -5 -36 -11 -36 -5 0 -8
-4 -4 -9 3 -6 -1 -13 -9 -18 -8 -4 -14 -15 -14 -23 1 -8 0 -26 0 -39 l-2 -24
-19 22 -19 21 -7 -37 c-5 -21 -7 -45 -6 -55 1 -9 -3 -19 -9 -23 -22 -14 -1
203 23 233 5 7 12 55 15 107 2 52 7 94 11 93 3 0 11 0 18 1 15 1 4 41 -13 48
-8 3 -14 11 -14 19 0 18 -5 18 -35 -2 -15 -10 -25 -26 -25 -40 0 -14 -7 -27
-15 -30 -8 -4 -15 -15 -15 -25 0 -27 -20 -24 -21 4 -1 21 -1 21 -9 -3 -7 -23
-10 -20 -14 11 -1 12 -76 21 -76 9 0 -10 30 -21 40 -15 4 3 10 -7 13 -20 5
-27 -7 -43 -18 -25 -5 8 -11 7 -21 -1 -11 -9 -11 -15 -3 -25 8 -9 8 -18 2 -26
-6 -7 -15 -26 -21 -43 l-10 -30 -1 28 c-1 15 -5 27 -11 27 -6 0 -8 -49 -5
-131 4 -119 3 -130 -13 -125 -9 3 -23 2 -31 -3 -10 -7 -5 -11 18 -16 17 -3 31
-11 31 -16 0 -13 -48 -11 -52 2 -2 6 -14 8 -32 3 -20 -5 -26 -11 -23 -24 3
-13 -1 -17 -19 -16 -17 1 -24 8 -28 31 -9 48 -10 161 -2 173 4 7 3 12 -2 12
-20 0 10 101 47 155 12 17 21 37 21 46 0 25 32 48 55 39 39 -14 45 -2 45 92 0
81 2 92 23 109 12 10 16 18 10 19 -22 0 -14 30 11 41 25 12 41 45 26 54 -15 9
2 45 20 45 11 0 22 10 26 23 7 23 8 29 19 132 7 63 22 116 38 126 15 11 -2 29
-26 29 -18 0 -30 -17 -62 -86z m22 -198 c-4 -9 -11 -16 -17 -16 -11 0 -14 33
-3 44 11 10 26 -11 20 -28z m103 -411 c0 -8 -4 -17 -10 -20 -6 -3 -9 4 -8 19
2 25 18 26 18 1z m-400 11 c0 -2 -7 -6 -15 -10 -8 -3 -15 -1 -15 4 0 6 7 10
15 10 8 0 15 -2 15 -4z m230 -146 c0 -5 -2 -10 -4 -10 -3 0 -8 5 -11 10 -3 6
-1 10 4 10 6 0 11 -4 11 -10z m-21 -73 c1 -5 -3 -5 -9 -2 -5 3 -10 16 -9 28 0
21 1 21 9 2 5 -11 9 -24 9 -28z m10 -26 c9 -6 10 -11 2 -15 -6 -4 -11 -20 -11
-36 0 -50 -15 -40 -17 11 -2 50 1 55 26 40z m-452 -183 c-3 -7 -5 -2 -5 12 0
14 2 19 5 13 2 -7 2 -19 0 -25z m605 -20 c-7 -7 -12 -8 -12 -2 0 14 12 26 19
19 2 -3 -1 -11 -7 -17z m-25 -134 c-3 -3 -12 -4 -19 -1 -8 3 -5 6 6 6 11 1 17
-2 13 -5z m-546 -45 c-9 -22 -10 -22 -10 -3 -1 11 2 24 6 27 12 12 14 0 4 -24z
m52 -16 c-7 -3 -14 -14 -14 -26 -1 -18 -2 -19 -6 -4 -5 19 16 52 26 41 3 -4 0
-9 -6 -11z m-35 -68 c10 19 11 19 18 2 4 -11 0 -25 -10 -36 -9 -10 -16 -27
-16 -38 0 -13 -8 -23 -21 -26 -19 -5 -20 -2 -14 36 4 23 9 51 12 62 6 20 6 20
13 0 7 -19 7 -19 18 0z m302 -124 c0 -4 -11 -8 -25 -9 -14 -1 -25 2 -25 7 0 5
11 9 25 9 14 0 25 -3 25 -7z m-110 -32 c0 -6 -4 -7 -10 -4 -5 3 -10 11 -10 16
0 6 5 7 10 4 6 -3 10 -11 10 -16z"/>
<path d="M3330 3482 c0 -92 3 -123 16 -141 17 -24 20 -151 9 -391 -5 -96 -8
-109 -41 -170 -20 -36 -43 -74 -53 -85 -38 -45 -98 -145 -88 -145 3 0 16 18
31 40 14 22 33 40 40 40 8 0 16 10 18 22 2 12 9 24 17 26 10 3 12 0 8 -11 -3
-9 -7 -64 -8 -122 -1 -58 -5 -105 -10 -105 -5 0 -6 -7 -2 -16 3 -9 0 -20 -8
-25 -12 -7 -11 -9 1 -9 14 0 14 -13 4 -112 -6 -62 -9 -118 -7 -125 3 -7 2 -17
-2 -23 -4 -6 -9 -32 -11 -58 -2 -26 -5 -65 -8 -87 -21 -170 -25 -202 -31 -217
-4 -11 -3 -18 4 -18 15 0 14 -47 -1 -53 -10 -4 -10 -8 1 -15 15 -11 10 -90 -7
-101 -11 -7 -21 -95 -31 -266 -6 -112 -4 -147 6 -117 3 6 9 9 14 6 13 -7 41
15 33 27 -3 5 0 9 5 9 6 0 11 9 11 20 0 13 7 20 20 20 11 0 20 5 20 10 0 6 -9
10 -21 10 -15 0 -19 4 -15 16 3 9 6 20 6 25 0 5 7 9 15 9 8 0 15 6 15 13 0 8
3 7 10 -3 5 -8 6 -34 3 -57 -5 -40 -5 -42 18 -37 l24 6 -25 -21 c-28 -23 -99
-62 -245 -133 -55 -27 -138 -68 -185 -91 -56 -28 -103 -61 -140 -97 -30 -30
-59 -55 -65 -56 -49 -3 -163 -101 -149 -127 5 -8 3 -8 -6 0 -11 10 -16 8 -25
-10 -6 -12 -18 -22 -27 -22 -40 0 -129 -122 -127 -172 0 -15 2 -14 11 5 17 34
40 29 27 -5 -20 -52 -54 -113 -61 -113 -5 0 -8 -7 -8 -15 0 -8 -9 -29 -20 -47
-11 -18 -20 -36 -20 -40 0 -3 21 -6 48 -5 45 2 48 1 66 -36 14 -30 21 -36 32
-26 8 6 19 30 24 53 6 22 14 48 17 56 3 8 7 32 8 52 2 21 13 67 24 103 12 36
19 75 16 88 -2 12 2 36 10 52 9 17 13 22 10 12 -16 -59 -11 -65 12 -15 15 32
31 58 35 58 8 0 -6 -46 -28 -96 -7 -16 -11 -39 -8 -50 3 -11 -6 -53 -20 -93
-14 -40 -25 -76 -24 -79 1 -4 -4 -20 -10 -35 -7 -16 -12 -34 -12 -41 0 -7 -7
-21 -15 -32 -29 -38 -11 -44 53 -19 31 13 44 27 66 73 16 31 32 68 36 82 29
91 59 201 66 235 5 29 9 35 13 21 5 -11 19 27 40 106 37 135 50 163 80 171 28
7 34 -19 17 -76 -8 -26 -10 -44 -5 -41 11 7 12 8 -6 -50 -8 -27 -15 -56 -15
-65 1 -25 27 42 51 129 21 80 48 125 34 59 -6 -29 -58 -215 -85 -301 -5 -16
-4 -28 2 -30 5 -2 5 -15 -3 -33 -7 -19 -13 -25 -16 -17 -3 8 -24 -24 -48 -70
-23 -45 -40 -85 -39 -87 6 -7 59 62 91 117 29 50 33 54 33 30 0 -16 -4 -28 -9
-28 -12 0 -28 -50 -36 -110 -6 -43 -5 -44 9 -20 l15 25 2 -40 1 -40 13 40 c8
22 14 33 15 25 0 -8 7 -1 15 15 l14 30 -5 -30 c-3 -16 -10 -45 -15 -64 -5 -19
-7 -37 -4 -39 5 -6 45 60 45 75 0 7 9 17 19 23 26 14 31 13 25 -5 -13 -34 8
-12 27 28 18 36 20 38 15 12 -2 -16 -8 -39 -11 -50 l-7 -20 17 20 c46 55 65
104 75 186 5 46 10 91 12 99 4 26 -14 120 -23 120 -12 0 -16 -12 -24 -72 -4
-33 -11 -48 -21 -48 -12 0 -13 -4 -4 -21 15 -28 5 -66 -20 -74 -40 -13 -43 13
-10 90 18 41 60 187 60 208 0 15 3 18 8 9 5 -7 9 11 9 46 0 32 5 67 11 77 10
18 12 15 13 -20 1 -34 3 -31 11 23 6 38 16 66 24 69 8 3 14 11 14 19 0 8 5 14
11 14 8 0 10 -18 5 -57 -3 -32 -10 -128 -16 -213 -14 -193 -27 -278 -45 -297
-8 -8 -15 -29 -15 -47 0 -21 -12 -49 -31 -77 -17 -24 -26 -38 -18 -32 18 18
30 16 22 -4 -4 -11 -3 -14 5 -9 7 4 12 17 12 29 1 12 7 33 15 47 14 25 14 24
8 -10 -8 -42 -8 -95 -1 -130 3 -14 3 -19 1 -11 -4 12 -6 12 -13 0 -5 -7 -12
-10 -16 -6 -4 4 -2 13 4 19 14 14 16 28 5 28 -8 0 -33 -48 -33 -63 0 -5 9 -7
19 -4 13 3 21 -1 24 -14 3 -11 0 -19 -6 -19 -7 0 -8 -3 -1 -10 12 -12 134 -1
134 11 0 5 -5 9 -12 9 -6 0 -3 7 8 15 10 8 14 15 9 15 -9 0 -45 50 -45 62 0 3
14 4 30 3 17 -1 30 2 30 7 0 4 8 8 18 9 9 0 1 5 -18 11 -44 12 -58 24 -43 39
13 13 144 -24 163 -46 7 -8 24 -15 39 -15 37 -1 91 -53 98 -95 5 -31 8 -34 52
-38 25 -3 64 -6 86 -6 35 -1 37 1 20 11 -19 11 -19 11 0 19 17 6 16 8 -7 8
-16 1 -28 -3 -28 -8 0 -13 -73 -9 -87 5 -17 17 14 29 34 13 11 -9 17 -9 26 0
9 10 7 16 -10 28 -23 15 -33 41 -11 27 6 -4 17 1 24 10 8 11 14 13 19 7 16
-27 35 -9 41 39 7 57 18 70 33 41 14 -25 14 -34 1 -26 -19 12 -10 -40 15 -84
18 -31 21 -42 10 -37 -15 6 -21 -9 -7 -18 18 -11 34 11 26 35 -11 32 -12 50
-13 204 0 111 4 237 10 255 0 3 1 43 1 90 l0 85 10 -55 c5 -30 13 -62 17 -70
4 -8 3 -62 -2 -120 -6 -71 -5 -127 2 -172 6 -37 10 -91 10 -120 -2 -49 -2 -50
-9 -18 l-7 35 -2 -38 c-1 -43 20 -91 44 -101 30 -11 48 -7 41 10 -4 9 -2 53 4
98 12 94 20 243 25 481 3 94 7 213 9 265 3 64 1 97 -7 102 -16 9 -24 368 -8
368 6 0 11 -9 11 -20 0 -11 5 -20 10 -20 6 0 10 -14 10 -32 0 -64 19 -6 40
121 9 55 9 66 -6 82 -9 11 -22 19 -28 19 -6 0 -18 5 -26 10 -13 9 -13 11 -1
19 8 5 16 15 17 23 11 49 45 121 65 139 l24 21 -30 -8 c-17 -4 -33 -13 -38
-20 -4 -7 -14 -11 -22 -8 -10 4 -15 0 -15 -13 0 -13 -14 -27 -37 -39 -21 -10
-40 -22 -43 -25 -19 -22 -271 -179 -287 -179 -5 0 -9 15 -9 33 -2 62 -3 65
-22 60 -15 -4 -18 -14 -17 -58 2 -42 -2 -58 -16 -71 -18 -16 -19 -16 -20 2 0
14 -2 15 -6 4 -17 -43 -39 -25 -44 35 -1 19 -5 11 -9 -25 -6 -51 -7 -49 -8 32
-1 48 3 131 8 185 6 54 14 199 18 323 6 190 9 225 22 225 10 0 16 12 18 39 3
33 1 38 -14 32 -15 -6 -16 3 -10 116 14 254 17 284 27 316 6 18 8 44 5 58 -5
19 -3 24 14 24 11 0 20 5 20 10 0 6 9 10 20 10 11 0 20 4 20 10 0 5 -6 7 -14
4 -8 -3 -17 -1 -20 4 -3 5 -8 100 -11 211 -6 195 -6 203 15 239 l22 37 -35
-40 c-19 -22 -38 -37 -42 -33 -3 3 -7 45 -7 92 -1 65 -4 86 -15 86 -10 0 -13
-26 -13 -118z m357 -1789 c-3 -10 -5 -2 -5 17 0 19 2 27 5 18 2 -10 2 -26 0
-35z m-35 -191 c3 -86 7 -213 8 -282 l2 -125 13 60 c12 59 12 59 8 -50 -7
-169 -21 -364 -27 -374 -3 -5 -7 -67 -9 -138 -4 -139 -15 -178 -47 -168 -15 5
-24 -3 -40 -34 -11 -22 -20 -47 -20 -56 0 -8 -5 -15 -11 -15 -7 0 -9 10 -4 27
21 86 26 140 17 216 -5 46 -5 119 -1 167 11 112 26 374 34 585 6 158 20 315
32 359 5 17 6 17 22 2 13 -13 17 -47 23 -174z m38 -34 c0 -186 -7 -227 -11
-58 -2 142 0 230 6 230 3 0 5 -77 5 -172z m-214 -65 c-3 -3 -19 3 -36 14 -30
17 -32 21 -27 63 3 24 10 46 16 48 6 2 11 10 11 18 0 7 8 23 18 34 16 20 17
17 20 -76 1 -53 1 -99 -2 -101z m283 -118 c0 -110 -4 -220 -8 -245 -8 -42 -9
-39 -10 32 -1 71 -12 106 -24 76 -3 -7 -6 10 -6 37 -1 38 2 46 10 35 8 -11 9
-7 6 20 -3 19 1 79 8 133 7 54 11 108 8 120 -4 18 -3 19 6 7 7 -10 10 -88 10
-215z m-252 -67 c-3 -7 -5 -2 -5 12 0 14 2 19 5 13 2 -7 2 -19 0 -25z m-177
-98 c0 -11 -6 -36 -14 -55 -8 -19 -18 -56 -22 -82 -3 -26 -10 -54 -14 -61 -9
-18 -5 166 4 196 9 29 46 30 46 2z m387 -62 c-3 -7 -5 -2 -5 12 0 14 2 19 5
13 2 -7 2 -19 0 -25z m90 -30 c-3 -7 -5 -2 -5 12 0 14 2 19 5 13 2 -7 2 -19 0
-25z m-802 -70 c-4 -29 -10 -66 -15 -83 -5 -16 -19 -74 -31 -127 -12 -54 -26
-98 -32 -98 -5 0 -7 7 -3 15 3 8 10 55 16 103 13 104 26 162 45 208 20 49 28
42 20 -18z m730 -65 c-4 -43 -9 -80 -11 -82 -2 -2 -4 32 -4 77 0 52 4 82 11
82 7 0 9 -24 4 -77z m-198 -40 c-2 -21 -4 -6 -4 32 0 39 2 55 4 38 2 -18 2
-50 0 -70z m-824 -79 c-9 -38 -19 -61 -21 -52 -4 20 27 133 34 125 3 -2 -3
-35 -13 -73z m184 -81 c-7 -126 -13 -154 -33 -146 -19 7 -16 99 4 96 8 -2 12
12 12 46 0 52 9 111 18 111 3 0 2 -48 -1 -107z m626 94 c3 -8 1 -20 -4 -28 -6
-10 -9 -7 -9 14 0 29 5 35 13 14z m-863 -70 c0 -24 -3 -28 -10 -17 -13 20 -13
63 0 55 6 -3 10 -21 10 -38z m857 -34 c-3 -10 -5 -4 -5 12 0 17 2 24 5 18 2
-7 2 -21 0 -30z m-873 -45 c-9 -58 -26 -75 -23 -23 2 35 14 65 25 65 2 0 1
-19 -2 -42z m-221 2 c-3 -12 -8 -19 -11 -16 -5 6 5 36 12 36 2 0 2 -9 -1 -20z
m1089 -92 c-9 -9 -12 1 -11 43 l1 54 11 -43 c7 -31 7 -46 -1 -54z m-675 20
c-3 -8 -6 -5 -6 6 -1 11 2 17 5 13 3 -3 4 -12 1 -19z m-404 -53 c-3 -9 -8 -14
-10 -11 -3 3 -2 9 2 15 9 16 15 13 8 -4z m-30 -10 c-3 -9 -8 -14 -10 -11 -3 3
-2 9 2 15 9 16 15 13 8 -4z m843 -17 l29 -31 -32 23 c-24 17 -39 21 -62 17
-30 -6 -44 6 -18 16 30 13 55 5 83 -25z m-404 -9 c-3 -21 -7 -27 -13 -18 -4 7
-3 21 2 31 14 25 16 23 11 -13z m402 -43 c28 -13 62 -36 75 -50 25 -26 25 -26
-50 6 -86 39 -99 46 -99 59 0 15 19 11 74 -15z m-851 -1 c-3 -9 -8 -14 -10
-11 -3 3 -2 9 2 15 9 16 15 13 8 -4z m-28 -65 c-9 -16 -20 -30 -26 -30 -5 0
-3 14 6 30 9 17 20 30 26 30 5 0 3 -13 -6 -30z"/>
<path d="M3627 1148 c-2 -45 -11 -144 -20 -218 -31 -254 -45 -405 -44 -452 2
-56 15 -39 18 23 0 24 7 98 14 164 44 393 55 548 41 562 -2 3 -6 -33 -9 -79z"/>
<path d="M2636 3524 c-8 -22 1 -31 16 -16 9 9 9 15 1 23 -7 7 -12 5 -17 -7z"/>
<path d="M2441 3414 c-40 -75 -33 -82 9 -9 18 31 30 58 27 61 -3 3 -19 -21
-36 -52z"/>
<path d="M2370 3288 c-18 -29 -25 -46 -18 -38 18 19 61 90 55 90 -3 0 -20 -24
-37 -52z"/>
<path d="M3737 3303 c-13 -13 -6 -48 19 -93 15 -28 23 -35 19 -20 -3 14 -8 46
-12 73 -6 45 -12 55 -26 40z"/>
<path d="M3792 3290 c0 -14 2 -19 5 -12 2 6 2 18 0 25 -3 6 -5 1 -5 -13z"/>
<path d="M3890 3200 c0 -5 7 -10 16 -10 8 0 12 5 9 10 -3 6 -10 10 -16 10 -5
0 -9 -4 -9 -10z"/>
<path d="M3056 3149 c-8 -42 0 -50 9 -9 4 17 5 34 2 36 -2 3 -7 -10 -11 -27z"/>
<path d="M3880 3166 c0 -8 6 -16 14 -19 10 -4 12 0 9 14 -6 22 -23 26 -23 5z"/>
<path d="M2691 3152 c-8 -16 -7 -25 9 -44 l20 -23 -5 39 c-5 48 -10 53 -24 28z"/>
<path d="M2241 3134 c0 -11 3 -14 6 -6 3 7 2 16 -1 19 -3 4 -6 -2 -5 -13z"/>
<path d="M3210 2986 c0 -2 7 -7 16 -10 8 -3 12 -2 9 4 -6 10 -25 14 -25 6z"/>
<path d="M2103 2814 c-3 -9 2 -22 11 -30 8 -8 14 -11 11 -8 -2 4 0 15 5 24 7
13 6 20 -6 24 -8 3 -17 -1 -21 -10z"/>
<path d="M3194 2719 c-3 -6 -1 -16 5 -22 8 -8 11 -5 11 11 0 24 -5 28 -16 11z"/>
<path d="M2434 2657 c-3 -8 -1 -36 4 -63 l10 -49 1 63 c1 60 -4 77 -15 49z"/>
<path d="M3115 2473 c-50 -72 -468 -493 -491 -493 -11 0 -15 -6 -11 -20 3 -11
0 -23 -5 -27 -7 -3 -8 -1 -4 5 13 21 -8 13 -61 -23 -51 -34 -93 -45 -93 -25 0
6 4 10 9 10 11 0 9 14 -8 55 -12 29 -13 29 -27 10 -8 -11 -21 -19 -28 -17 -13
2 -13 -2 -3 -117 2 -22 -5 -28 -63 -48 -68 -24 -101 -26 -107 -6 -3 7 3 9 17
6 34 -9 110 17 110 38 0 10 4 20 9 23 10 6 2 58 -10 67 -12 7 -12 45 -1 97 5
23 6 42 2 42 -17 0 -104 -108 -132 -165 -17 -33 -34 -62 -37 -65 -4 -3 -17
-22 -29 -44 -28 -48 -22 -80 14 -75 4 0 11 -5 16 -13 8 -10 9 -9 5 4 -8 22 3
30 20 16 11 -9 16 -9 22 1 4 6 12 11 17 10 5 -2 35 3 67 11 43 10 57 18 57 31
0 10 8 20 18 23 9 2 27 7 40 11 18 5 22 2 22 -15 0 -17 -4 -20 -21 -15 -14 5
-26 0 -40 -16 -10 -12 -19 -26 -19 -32 0 -5 -11 -7 -25 -5 -13 3 -23 2 -22 -1
1 -3 -20 -28 -45 -56 -26 -27 -48 -53 -48 -57 0 -5 -7 -8 -15 -8 -8 0 -15 -4
-15 -9 0 -13 28 -22 35 -11 4 6 18 10 33 10 15 0 22 -4 16 -8 -5 -4 -18 -24
-27 -44 -10 -21 -22 -38 -27 -38 -6 0 -10 -9 -10 -20 0 -21 -15 -27 -25 -10
-14 22 -23 7 -30 -46 -5 -43 -13 -63 -35 -84 -18 -17 -31 -24 -33 -17 -2 7 -8
-10 -12 -38 -6 -34 -4 -50 4 -53 17 -6 13 -26 -10 -46 -15 -12 -20 -25 -16
-43 2 -14 0 -41 -6 -60 l-11 -35 -12 33 -12 34 -1 -43 c-1 -24 6 -68 15 -98 9
-31 13 -62 10 -70 -3 -7 -1 -14 4 -14 6 0 10 18 10 40 0 31 3 38 15 34 8 -4
17 1 21 9 9 25 58 16 62 -11 2 -12 8 -22 13 -22 6 0 7 14 3 35 -5 28 -3 35 10
35 14 0 21 12 17 33 -2 11 47 27 64 21 10 -4 13 -13 10 -25 -5 -14 -2 -17 9
-13 19 7 20 0 4 -29 -10 -19 -9 -20 4 -9 9 7 19 23 22 36 10 40 57 136 67 136
5 0 9 15 9 33 0 24 3 28 10 17 5 -8 10 -10 11 -5 1 6 3 15 4 20 2 6 3 26 4 45
1 27 4 31 11 20 15 -23 12 34 -5 105 -8 33 -14 70 -15 83 0 33 20 27 27 -8 3
-16 9 -30 14 -30 5 0 9 -15 8 -32 -1 -31 -1 -32 -9 -8 -8 24 -8 24 -8 -5 -1
-29 16 -83 17 -57 1 7 5 11 10 8 5 -4 3 -18 -4 -34 -8 -15 -15 -57 -16 -92 -1
-83 -6 -100 -29 -100 -12 0 -22 -12 -30 -35 -6 -19 -15 -35 -20 -35 -4 0 -6
-9 -3 -20 4 -13 0 -20 -9 -20 -8 0 -19 -15 -25 -32 -6 -22 -15 -33 -26 -32
-13 1 -17 -6 -17 -28 0 -23 -4 -29 -15 -24 -10 3 -15 -1 -15 -11 0 -9 -11 -31
-25 -49 -29 -38 -108 -114 -113 -109 -7 6 27 63 41 68 7 3 27 31 42 62 16 31
36 62 45 68 18 13 31 42 23 50 -3 3 -27 -17 -55 -44 -27 -27 -53 -49 -58 -49
-4 0 -22 -13 -40 -30 -18 -16 -42 -30 -55 -30 -30 0 -102 -39 -110 -58 -3 -9
-1 -20 5 -26 7 -7 10 -6 10 3 0 9 11 6 34 -8 26 -16 55 -23 118 -25 l83 -4 36
34 c20 19 42 34 50 32 8 -2 14 5 15 17 2 49 4 51 18 32 14 -18 14 -18 20 1 4
11 4 26 1 34 -3 8 3 23 15 33 11 10 20 24 20 31 0 7 8 19 18 26 10 7 29 33 43
57 l24 44 6 -34 c5 -29 7 -31 13 -14 4 11 16 36 27 56 10 20 19 48 19 63 0 19
5 26 20 26 11 0 21 -6 21 -12 1 -7 3 -23 4 -36 1 -14 -5 -27 -17 -33 -10 -5
-16 -14 -12 -20 14 -22 -41 -211 -72 -248 -50 -60 -21 -39 59 41 137 138 142
146 144 252 1 87 3 95 48 184 25 50 50 92 53 92 8 0 34 113 33 143 0 12 5 17
14 13 10 -3 12 0 8 11 -4 11 -2 14 5 9 7 -4 14 4 18 21 3 15 10 44 14 63 4 19
11 48 14 64 7 26 8 27 20 10 13 -17 14 -16 27 7 7 13 15 42 18 64 6 39 7 40
51 46 l45 6 -53 1 c-49 2 -52 3 -42 21 5 11 10 29 10 40 0 13 6 21 16 21 10 0
14 6 10 15 -3 8 -3 15 -1 15 9 0 50 -25 57 -35 5 -6 8 -3 8 7 0 9 -6 21 -14
25 -20 11 -26 83 -7 83 5 0 8 -7 7 -16 0 -9 5 -19 12 -21 8 -3 12 6 12 27 0
27 2 30 19 20 11 -5 31 -10 44 -10 21 0 24 4 20 21 -5 18 -12 20 -45 17 l-40
-4 5 61 c10 105 57 293 77 305 8 5 8 10 2 14 -7 4 -5 22 4 53 21 70 13 71 -31
6z m-820 -638 c-51 -44 -59 -36 -11 11 20 20 40 33 44 30 3 -4 -12 -22 -33
-41z m560 -15 c3 -6 -1 -13 -10 -16 -19 -8 -30 0 -20 15 8 14 22 14 30 1z m3
-51 c-19 -11 -25 -39 -9 -39 6 0 1 -17 -9 -37 -11 -21 -25 -51 -32 -68 l-12
-30 -4 33 c-2 19 -9 32 -18 32 -8 0 -14 5 -14 11 0 5 5 7 10 4 6 -4 10 7 10
26 0 38 34 77 70 78 22 0 23 -1 8 -10z m-121 -226 c-3 -10 -5 -4 -5 12 0 17 2
24 5 18 2 -7 2 -21 0 -30z m-11 -86 c4 -37 -4 -51 -24 -38 -9 5 -9 16 0 44 13
43 18 42 24 -6z m-189 -69 c-3 -7 -5 -2 -5 12 0 14 2 19 5 13 2 -7 2 -19 0
-25z m156 -18 c-7 -8 -22 24 -16 34 4 5 10 1 13 -10 4 -10 6 -21 3 -24z m-323
20 c0 -5 -4 -10 -10 -10 -5 0 -10 -7 -10 -15 0 -8 -7 -15 -15 -15 -8 0 -15 -3
-15 -7 0 -5 -14 -17 -30 -28 -16 -11 -30 -26 -30 -32 0 -7 -4 -13 -10 -13 -5
0 -10 15 -10 33 0 27 4 32 25 33 14 1 36 15 51 33 25 30 54 41 54 21z m274
-102 c-3 -55 -9 -77 -23 -88 -10 -8 -21 -23 -24 -32 -4 -10 -16 -18 -28 -18
-11 0 -19 4 -17 8 2 4 21 52 43 105 22 53 43 97 47 97 4 0 5 -33 2 -72z m-450
-23 c7 -20 -3 -45 -18 -45 -7 0 -22 -9 -33 -19 -23 -22 -33 -18 -33 13 0 12
14 30 33 43 39 26 43 27 51 8z m468 -147 c-9 -9 -12 -7 -12 12 0 19 3 21 12
12 9 -9 9 -15 0 -24z m-352 -78 c0 -11 -2 -20 -4 -20 -2 0 -6 9 -9 20 -3 11
-1 20 4 20 5 0 9 -9 9 -20z"/>
<path d="M2343 2445 c0 -27 2 -38 4 -22 2 15 2 37 0 50 -2 12 -4 0 -4 -28z"/>
<path d="M3440 2375 c0 -14 2 -25 4 -25 2 0 6 11 8 25 3 14 1 25 -3 25 -5 0
-9 -11 -9 -25z"/>
<path d="M3515 2390 c3 -5 14 -10 23 -10 15 0 15 2 2 10 -20 13 -33 13 -25 0z"/>
<path d="M3708 2383 c7 -3 16 -2 19 1 4 3 -2 6 -13 5 -11 0 -14 -3 -6 -6z"/>
<path d="M2980 2365 c-7 -9 -10 -18 -7 -21 3 -3 10 4 17 15 13 25 8 27 -10 6z"/>
<path d="M3766 2343 c10 -40 14 -41 14 -5 0 18 -5 32 -10 32 -6 0 -8 -11 -4
-27z"/>
<path d="M3791 2365 c1 -19 18 -51 18 -35 0 8 -4 22 -9 30 -5 8 -9 11 -9 5z"/>
<path d="M3877 2338 c3 -18 14 -42 23 -53 10 -11 20 -29 23 -40 3 -11 5 3 6
31 1 41 -3 55 -22 72 -32 30 -38 28 -30 -10z"/>
<path d="M3484 2304 c3 -9 6 -18 6 -20 0 -2 4 -4 9 -4 5 0 7 9 4 20 -3 11 -10
20 -15 20 -6 0 -7 -7 -4 -16z"/>
<path d="M3777 2223 c-4 -3 -7 -11 -7 -17 0 -6 5 -5 12 2 6 6 9 14 7 17 -3 3
-9 2 -12 -2z"/>
<path d="M3489 2174 c-1 -5 -1 -13 0 -17 1 -4 -6 -10 -14 -13 -8 -4 -15 -16
-15 -28 1 -20 1 -20 15 4 12 21 14 23 20 8 11 -27 1 -53 -18 -50 -16 3 -18 -5
-16 -79 2 -45 5 -77 7 -71 2 7 8 12 13 12 15 0 11 -110 -3 -110 -7 -1 -2 -7
11 -14 36 -20 47 -11 60 50 7 29 19 60 27 68 17 18 19 40 2 30 -18 -11 -48
-12 -48 -2 0 5 -4 6 -10 3 -5 -3 -10 0 -10 9 0 8 -3 21 -6 30 -4 11 -1 16 11
16 11 0 15 5 11 15 -3 8 1 21 9 29 17 17 20 56 5 56 -5 0 -10 -5 -10 -11 0 -5
-5 -7 -11 -3 -6 3 -9 17 -6 30 2 13 -2 29 -9 35 -8 6 -15 8 -15 3z"/>
<path d="M3817 2116 c-10 -66 -9 -86 3 -86 6 0 10 9 10 21 0 11 4 18 9 15 5
-3 12 1 15 10 9 23 7 36 -3 30 -5 -4 -7 4 -3 16 3 14 1 19 -6 14 -6 -3 -12 2
-14 11 -2 10 -7 -4 -11 -31z"/>
<path d="M3780 2139 c-1 -8 -3 -31 -6 -51 -4 -30 -2 -38 10 -38 13 0 15 8 9
48 -6 47 -13 68 -13 41z"/>
<path d="M3110 2100 c0 -5 7 -10 16 -10 8 0 12 5 9 10 -3 6 -10 10 -16 10 -5
0 -9 -4 -9 -10z"/>
<path d="M3342 2085 c0 -16 2 -22 5 -12 2 9 2 23 0 30 -3 6 -5 -1 -5 -18z"/>
<path d="M3777 2003 c-4 -3 -7 -13 -7 -22 1 -13 3 -13 11 2 11 19 8 33 -4 20z"/>
<path d="M2483 1965 c0 -22 2 -30 4 -17 2 12 2 30 0 40 -3 9 -5 -1 -4 -23z"/>
<path d="M3100 1875 c-12 -25 -26 -45 -31 -45 -5 0 -9 -3 -9 -7 0 -10 66 -10
76 -1 4 4 -1 10 -10 14 -9 3 -16 13 -16 21 0 13 3 13 15 3 13 -11 14 -10 10 2
-3 8 1 21 9 28 9 7 13 16 10 21 -12 20 -34 6 -54 -36z"/>
<path d="M3466 1881 c-4 -7 -5 -15 -2 -18 9 -9 19 4 14 18 -4 11 -6 11 -12 0z"/>
<path d="M3882 1852 c-8 -6 -10 -19 -6 -40 4 -17 11 -29 16 -26 5 3 7 9 3 12
-3 3 9 13 26 22 46 21 49 40 7 40 -18 0 -39 -4 -46 -8z"/>
<path d="M3320 1810 c0 -6 7 -10 15 -10 8 0 15 2 15 4 0 2 -7 6 -15 10 -8 3
-15 1 -15 -4z"/>
<path d="M3056 1783 c-2 -2 0 -18 4 -34 10 -35 10 -40 -1 -60 -4 -9 -4 -20 0
-25 5 -5 12 -49 15 -99 4 -63 10 -93 21 -101 9 -7 15 -28 15 -54 0 -24 2 -41
4 -39 11 10 2 381 -9 399 -6 9 -42 20 -49 13z m44 -240 c0 -10 3 -29 6 -43 4
-18 1 -16 -10 9 -19 39 -20 51 -6 51 6 0 10 -8 10 -17z"/>
<path d="M3470 1779 c0 -5 5 -7 10 -4 6 3 10 8 10 11 0 2 -4 4 -10 4 -5 0 -10
-5 -10 -11z"/>
<path d="M3027 1745 c-6 -35 2 -54 14 -32 5 8 5 26 1 38 -9 22 -9 22 -15 -6z"/>
<path d="M3472 1690 c0 -14 2 -19 5 -12 2 6 2 18 0 25 -3 6 -5 1 -5 -13z"/>
<path d="M2170 1569 c0 -13 5 -31 10 -39 7 -11 8 -5 4 20 -8 43 -14 51 -14 19z"/>
<path d="M3855 1390 c3 -30 5 -67 5 -82 0 -16 4 -28 9 -28 10 0 3 92 -10 135
-7 23 -8 18 -4 -25z"/>
<path d="M3010 1320 c0 -5 5 -10 10 -10 6 0 10 5 10 10 0 6 -4 10 -10 10 -5 0
-10 -4 -10 -10z"/>
<path d="M3836 1215 c3 -66 10 -135 16 -153 13 -42 4 -254 -21 -512 -5 -58 -8
-118 -7 -134 2 -15 -3 -41 -11 -57 -15 -30 -20 -99 -9 -118 13 -20 27 -12 21
12 -3 12 4 5 16 -17 16 -29 18 -40 8 -46 -7 -5 -2 -7 14 -7 15 1 27 6 27 11 0
5 7 3 15 -4 8 -7 15 -9 15 -5 0 4 7 2 15 -5 11 -9 15 -9 15 -1 0 7 -14 17 -30
23 -30 10 -62 48 -41 48 6 0 9 43 8 110 -1 60 -5 102 -8 92 -3 -9 -9 21 -12
67 -8 98 3 454 13 461 16 11 20 49 7 61 -10 10 -12 39 -10 123 3 80 1 107 -6
96 -6 -8 -11 -26 -12 -40 -1 -21 -2 -19 -9 9 -5 19 -6 39 -4 46 3 6 0 22 -6
36 -7 17 -8 -9 -4 -96z m31 -57 c-3 -8 -6 -5 -6 6 -1 11 2 17 5 13 3 -3 4 -12
1 -19z m-11 -892 c-4 -13 -26 39 -26 62 1 9 7 2 16 -17 8 -19 13 -39 10 -45z"/>
<path d="M2975 1200 c-18 -8 -17 -9 8 -9 16 -1 26 3 22 9 -3 6 -7 10 -8 9 -1
0 -11 -4 -22 -9z"/>
<path d="M2725 1170 c-8 -13 5 -13 25 0 13 8 13 10 -2 10 -9 0 -20 -4 -23 -10z"/>
<path d="M2732 1120 c0 -19 2 -27 5 -17 2 9 2 25 0 35 -3 9 -5 1 -5 -18z"/>
<path d="M2360 1076 c0 -31 6 -34 13 -6 3 11 1 23 -4 26 -5 3 -9 -6 -9 -20z"/>
<path d="M2195 969 c-11 -17 1 -21 15 -4 8 9 8 15 2 15 -6 0 -14 -5 -17 -11z"/>
<path d="M2094 895 c-10 -8 -14 -15 -8 -15 5 0 19 7 30 15 10 8 14 15 8 15 -5
0 -19 -7 -30 -15z"/>
<path d="M3044 839 c-3 -6 -1 -16 5 -22 8 -8 11 -5 11 11 0 24 -5 28 -16 11z"/>
<path d="M2100 671 c0 -6 4 -13 10 -16 6 -3 7 1 4 9 -7 18 -14 21 -14 7z"/>
<path d="M2249 646 c-15 -14 -46 -30 -70 -37 -24 -7 -46 -16 -49 -19 -9 -12
-69 -20 -75 -10 -9 14 -45 12 -45 -2 1 -35 25 -46 101 -44 85 1 119 17 140 65
7 16 21 32 31 34 20 6 25 37 5 37 -7 0 -24 -11 -38 -24z"/>
<path d="M1983 576 c4 -78 8 -93 35 -129 16 -23 40 -48 53 -56 23 -14 23 -14
-2 15 -52 58 -64 111 -15 65 22 -21 27 -21 65 -10 51 15 45 25 -15 28 -29 1
-55 8 -67 19 -24 21 -47 74 -46 104 1 17 2 18 6 6 2 -10 9 -18 14 -18 15 0 10
16 -12 41 l-20 24 4 -89z"/>
<path d="M2713 548 c-5 -7 -14 -35 -21 -63 -6 -27 -14 -59 -18 -70 -4 -11 -4
-17 -1 -14 10 8 59 151 54 155 -2 3 -9 -1 -14 -8z"/>
<path d="M2630 405 c-24 -46 -42 -86 -39 -89 6 -7 91 152 87 164 -2 5 -23 -29
-48 -75z"/>
<path d="M2283 465 c-18 -8 -33 -17 -33 -20 0 -3 10 0 23 6 20 11 21 11 8 -4
-15 -19 -139 -87 -158 -87 -7 0 -13 5 -13 11 0 6 -8 8 -19 4 -13 -4 -35 8 -71
36 l-53 42 7 -29 c4 -16 12 -30 17 -32 5 -2 9 -10 9 -18 0 -8 6 -14 14 -14 7
0 19 -6 25 -13 9 -11 3 -16 -28 -25 -21 -7 -47 -12 -57 -12 -32 0 6 -20 41
-21 29 -1 30 -1 5 -9 -17 -6 -19 -8 -7 -9 10 -1 20 -8 23 -16 5 -12 10 -11 27
6 12 11 26 18 33 15 16 -6 28 5 39 38 13 38 41 50 31 13 -5 -22 -3 -24 16 -19
12 3 17 7 10 10 -20 6 -14 31 13 48 33 21 38 15 20 -20 -18 -33 -18 -36 -6
-36 10 0 125 159 119 165 -2 2 -18 -3 -35 -10z"/>
<path d="M2095 400 c3 -5 8 -10 11 -10 2 0 4 5 4 10 0 6 -5 10 -11 10 -5 0 -7
-4 -4 -10z"/>
<path d="M1960 375 c-10 -13 -9 -15 9 -15 11 0 21 4 21 9 0 18 -18 21 -30 6z"/>
<path d="M2745 379 c-4 -6 -5 -12 -2 -15 2 -3 7 2 10 11 7 17 1 20 -8 4z"/>
<path d="M1915 340 c-3 -5 1 -10 10 -10 9 0 13 5 10 10 -3 6 -8 10 -10 10 -2
0 -7 -4 -10 -10z"/>
<path d="M2675 330 c-3 -5 -1 -10 4 -10 6 0 11 5 11 10 0 6 -2 10 -4 10 -3 0
-8 -4 -11 -10z"/>
<path d="M3250 320 c-9 -6 -10 -10 -3 -10 6 0 15 5 18 10 8 12 4 12 -15 0z"/>
<path d="M1836 307 c3 -10 9 -15 12 -12 3 3 0 11 -7 18 -10 9 -11 8 -5 -6z"/>
<path d="M1798 273 c-43 -52 -80 -148 -48 -128 6 3 10 1 10 -4 0 -6 -11 -11
-25 -11 -18 0 -23 -4 -19 -15 4 -8 1 -15 -6 -15 -24 0 1 -18 35 -24 19 -4 38
-13 43 -22 6 -11 14 -8 37 18 l30 32 -27 -17 c-15 -9 -31 -17 -35 -17 -13 1
41 40 55 40 6 0 12 4 12 9 0 5 -6 12 -12 14 -7 3 1 6 18 6 16 1 34 5 40 10 16
15 106 41 143 41 46 0 81 10 81 22 0 5 -4 7 -9 3 -19 -11 -20 13 -1 30 18 16
20 16 20 2 0 -10 5 -17 10 -17 12 0 13 10 0 30 -7 12 -17 9 -56 -19 -43 -30
-53 -33 -105 -29 -32 2 -57 2 -57 -1 2 -19 -5 -19 -24 -1 -13 12 -24 16 -26
10 -5 -15 -39 -12 -46 5 -3 8 2 19 12 24 14 8 15 12 4 23 -11 11 -16 9 -32
-12 -11 -14 -20 -20 -20 -14 0 5 5 15 12 22 6 6 9 14 6 17 -2 3 -12 -3 -20
-12z m12 -54 c0 -5 5 -7 10 -4 6 3 10 1 10 -4 0 -13 -3 -13 -24 -5 -18 7 -22
24 -6 24 6 0 10 -5 10 -11z m95 -18 c3 -5 1 -12 -5 -16 -5 -3 -10 1 -10 9 0
18 6 21 15 7z"/>
<path d="M3300 270 c0 -5 5 -10 10 -10 6 0 10 5 10 10 0 6 -4 10 -10 10 -5 0
-10 -4 -10 -10z"/>
<path d="M2325 242 c-5 -4 -11 -13 -13 -21 -2 -10 4 -12 20 -7 13 3 37 6 53 6
29 1 29 1 11 15 -21 16 -55 19 -71 7z m52 -8 c-3 -3 -12 -4 -19 -1 -8 3 -5 6
6 6 11 1 17 -2 13 -5z"/>
<path d="M2553 223 c9 -2 25 -2 35 0 9 3 1 5 -18 5 -19 0 -27 -2 -17 -5z"/>
<path d="M3705 220 c4 -6 13 -9 21 -6 7 3 16 1 19 -4 3 -5 -3 -10 -12 -12 -13
-3 -9 -6 10 -10 24 -5 28 -3 25 16 -2 16 -11 22 -37 24 -23 2 -31 0 -26 -8z"/>
<path d="M2278 160 c4 -30 5 -30 23 -14 20 18 25 29 9 19 -6 -3 -13 1 -16 9
-10 27 -21 18 -16 -14z"/>
<path d="M2130 115 c0 -37 4 -65 10 -65 6 0 10 -8 11 -17 0 -12 5 -8 14 11 7
17 10 47 7 68 -3 28 -1 38 9 38 11 0 11 2 -1 10 -12 7 -16 3 -21 -23 l-6 -32
-2 38 c-2 65 -21 40 -21 -28z"/>
<path d="M2230 154 c0 -8 5 -12 10 -9 6 4 8 11 5 16 -9 14 -15 11 -15 -7z"/>
<path d="M1950 156 c0 -2 7 -6 15 -10 8 -3 15 -1 15 4 0 6 -7 10 -15 10 -8 0
-15 -2 -15 -4z"/>
<path d="M3904 144 c3 -9 6 -18 6 -21 0 -3 7 0 15 7 21 18 19 30 -6 30 -15 0
-19 -4 -15 -16z"/>
<path d="M1906 135 c-11 -8 -18 -17 -15 -19 2 -2 15 4 28 15 27 22 15 26 -13
4z"/>
<path d="M1700 49 c0 -10 5 -19 11 -19 5 0 7 5 4 10 -3 6 3 10 14 10 10 0 21
-4 23 -10 2 -5 9 -6 16 -1 9 6 1 11 -27 19 -37 9 -41 8 -41 -9z"/>
</g>
</svg>
