<?xml version="1.0" standalone="no"?>
<!DOCTYPE svg PUBLIC "-//W3C//DTD SVG 20010904//EN"
 "http://www.w3.org/TR/2001/REC-SVG-20010904/DTD/svg10.dtd">
<svg version="1.0" xmlns="http://www.w3.org/2000/svg"
 width="1920.000000pt" height="1483.000000pt" viewBox="0 0 1920.000000 1483.000000"
 preserveAspectRatio="xMidYMid meet">

<g transform="translate(0.000000,1483.000000) scale(0.100000,-0.100000)"
fill="#000000" stroke="none">
<path d="M0 7415 l0 -7415 9600 0 9600 0 0 7415 0 7415 -9600 0 -9600 0 0
-7415z m9765 4394 c180 -37 401 -100 587 -167 173 -63 248 -82 326 -82 l62 0
0 -295 0 -295 -47 0 c-73 0 -157 24 -320 89 -177 71 -294 104 -463 130 -99 16
-320 41 -362 41 -5 0 -8 -295 -8 -655 0 -360 -2 -655 -4 -655 -2 0 -11 -3 -20
-6 -15 -6 -16 84 -16 966 l0 973 58 -7 c31 -4 125 -20 207 -37z m625 -2264
c448 -180 1083 -435 1410 -567 1157 -465 1415 -570 1422 -576 3 -4 -7 -36 -23
-71 -22 -49 -33 -62 -46 -59 -10 3 -565 218 -1233 478 -668 260 -1480 575
-1804 701 l-589 229 -456 -181 c-251 -100 -629 -250 -841 -334 -212 -84 -805
-320 -1318 -524 -514 -204 -937 -371 -941 -371 -9 0 -66 118 -60 124 2 2 787
322 1744 711 957 389 1776 722 1820 741 44 18 85 32 90 30 6 -2 377 -151 825
-331z m200 -330 c520 -202 1280 -497 1688 -656 409 -159 751 -293 760 -299 11
-6 -1228 -10 -3468 -10 -2125 0 -3480 4 -3475 9 6 5 624 253 1375 552 751 298
1520 604 1710 679 l345 138 60 -23 c33 -12 485 -188 1005 -390z m-2651 61 c-2
-2 -37 -18 -78 -35 l-73 -31 -679 0 -679 0 0 35 0 35 757 0 c416 0 754 -2 752
-4z m4701 -31 l0 -35 -644 0 -643 0 -73 30 c-41 17 -76 33 -79 35 -2 3 320 5
717 5 l722 0 0 -35z m-4971 -79 c-4 -4 -100 -44 -439 -181 -446 -181 -1269
-516 -1302 -530 l-38 -15 0 365 0 365 892 0 c490 0 889 -2 887 -4z m5611 -361
c0 -201 -3 -365 -6 -365 -8 0 -1775 710 -1794 721 -8 5 383 9 893 9 l907 0 0
-365z m-8202 -62 c3 -62 2 -63 -23 -63 -24 0 -25 2 -25 66 0 62 1 65 23 62 20
-3 22 -9 25 -65z m9002 2 c0 -58 -2 -65 -20 -65 -18 0 -20 7 -20 65 0 58 2 65
20 65 18 0 20 -7 20 -65z m-8730 -155 l0 -40 -290 0 -290 0 0 33 c0 19 3 37 7
40 3 4 134 7 290 7 l283 0 0 -40z m9010 0 l0 -40 -290 0 -290 0 0 40 0 40 290
0 290 0 0 -40z m-9060 -195 l0 -95 -230 0 -230 0 0 95 0 95 230 0 230 0 0 -95z
m9010 0 l0 -95 -230 0 -230 0 0 95 0 95 230 0 230 0 0 -95z m-1030 -125 l0
-110 -40 0 c-37 0 -40 2 -40 28 0 23 67 192 77 192 1 0 3 -49 3 -110z m-7344
-83 c-1 -15 -8 -23 -23 -25 -22 -3 -23 -1 -22 70 l1 73 22 -48 c13 -26 23 -57
22 -70z m-86 28 l0 -35 -2657 2 -2658 3 -3 33 -3 32 2660 0 2661 0 0 -35z
m12658 3 l-3 -33 -2592 -3 -2593 -2 0 35 0 35 2596 0 2595 0 -3 -32z m-5350
-60 l3 -58 -3591 0 -3590 0 0 60 0 60 3588 -2 3587 -3 3 -57z m-11948 -128 l0
-80 -290 0 -290 0 0 80 0 80 290 0 290 0 0 -80z m70 0 c0 -73 -2 -80 -20 -80
-18 0 -20 7 -20 80 0 73 2 80 20 80 18 0 20 -7 20 -80z m60 0 c0 -64 -3 -80
-15 -80 -12 0 -15 16 -15 80 0 64 3 80 15 80 12 0 15 -16 15 -80z m78 3 c-3
-72 -5 -78 -25 -81 -22 -3 -23 -1 -23 77 0 80 0 81 25 81 26 0 26 0 23 -77z
m62 -3 c0 -64 -3 -80 -15 -80 -12 0 -15 16 -15 80 0 64 3 80 15 80 12 0 15
-16 15 -80z m60 0 c0 -64 -3 -80 -15 -80 -12 0 -15 16 -15 80 0 64 3 80 15 80
12 0 15 -16 15 -80z m50 0 c0 -47 -4 -80 -10 -80 -6 0 -10 33 -10 80 0 47 4
80 10 80 6 0 10 -33 10 -80z m1180 0 l0 -80 -569 0 -569 0 -4 48 c-1 26 -2 62
0 80 l3 32 570 0 569 0 0 -80z m70 0 c0 -73 -2 -80 -20 -80 -18 0 -20 7 -20
80 0 73 2 80 20 80 18 0 20 -7 20 -80z m71 58 c3 -50 0 -131 -5 -135 -3 -3
-12 -3 -21 0 -12 5 -15 23 -15 82 0 68 2 75 20 75 14 0 20 -7 21 -22z m59 -58
c0 -47 -4 -80 -10 -80 -6 0 -10 33 -10 80 0 47 4 80 10 80 6 0 10 -33 10 -80z
m70 0 c0 -73 -2 -80 -20 -80 -18 0 -20 7 -20 80 0 73 2 80 20 80 18 0 20 -7
20 -80z m60 0 c0 -64 -3 -80 -15 -80 -12 0 -15 16 -15 80 0 64 3 80 15 80 12
0 15 -16 15 -80z m50 0 c0 -47 -4 -80 -10 -80 -6 0 -10 33 -10 80 0 47 4 80
10 80 6 0 10 -33 10 -80z m1000 0 l0 -80 -482 2 -483 3 -3 78 -3 77 486 0 485
0 0 -80z m80 -1 c0 -77 -1 -80 -22 -77 -19 3 -22 10 -25 68 -4 78 0 90 27 90
18 0 20 -6 20 -81z m70 1 c0 -73 -2 -80 -20 -80 -18 0 -20 7 -20 80 0 73 2 80
20 80 18 0 20 -7 20 -80z m50 0 c0 -47 -4 -80 -10 -80 -6 0 -10 33 -10 80 0
47 4 80 10 80 6 0 10 -33 10 -80z m75 0 c0 -63 -3 -75 -17 -78 -16 -3 -18 6
-18 78 0 72 2 81 18 78 14 -3 17 -15 17 -78z m55 0 c0 -47 -4 -80 -10 -80 -6
0 -10 33 -10 80 0 47 4 80 10 80 6 0 10 -33 10 -80z m60 0 c0 -64 -3 -80 -15
-80 -12 0 -15 16 -15 80 0 64 3 80 15 80 12 0 15 -16 15 -80z m920 0 l0 -80
-445 0 -445 0 0 80 0 80 445 0 445 0 0 -80z m70 0 c0 -73 -2 -80 -20 -80 -18
0 -20 7 -20 80 0 73 2 80 20 80 18 0 20 -7 20 -80z m70 0 c0 -73 -2 -80 -20
-80 -18 0 -20 7 -20 80 0 73 2 80 20 80 18 0 20 -7 20 -80z m60 0 c0 -64 -3
-80 -15 -80 -12 0 -15 16 -15 80 0 64 3 80 15 80 12 0 15 -16 15 -80z m70 0
c0 -73 -2 -80 -20 -80 -18 0 -20 7 -20 80 0 73 2 80 20 80 18 0 20 -7 20 -80z
m58 3 c-2 -50 -7 -78 -15 -81 -10 -3 -13 17 -13 77 0 66 3 81 15 81 13 0 15
-13 13 -77z m52 -3 c0 -47 -4 -80 -10 -80 -6 0 -10 33 -10 80 0 47 4 80 10 80
6 0 10 -33 10 -80z m98 53 l3 -23 230 0 229 0 0 -55 0 -55 -265 0 -265 0 0 81
0 80 33 -3 c24 -2 33 -8 35 -25z m7312 -53 c0 -79 0 -80 -25 -80 -33 0 -39 17
-30 95 6 60 8 65 31 65 23 0 24 -2 24 -80z m90 0 l0 -80 -30 0 -30 0 0 80 0
80 30 0 30 0 0 -80z m90 0 l0 -80 -30 0 -30 0 0 80 0 80 30 0 30 0 0 -80z m60
-1 c0 -60 -3 -80 -12 -77 -9 3 -14 31 -16 81 -2 64 0 77 13 77 12 0 15 -15 15
-81z m52 29 c4 -67 -1 -108 -13 -108 -5 0 -9 36 -9 80 0 89 16 110 22 28z
m1178 -28 l0 -80 -570 0 -570 0 0 80 0 80 570 0 570 0 0 -80z m70 0 c0 -73 -2
-80 -20 -80 -18 0 -20 7 -20 80 0 73 2 80 20 80 18 0 20 -7 20 -80z m60 0 c0
-47 -4 -80 -10 -80 -6 0 -10 33 -10 80 0 47 4 80 10 80 6 0 10 -33 10 -80z
m70 0 c0 -73 -2 -80 -20 -80 -18 0 -20 7 -20 80 0 73 2 80 20 80 18 0 20 -7
20 -80z m70 0 c0 -73 -2 -80 -20 -80 -18 0 -20 7 -20 80 0 73 2 80 20 80 18 0
20 -7 20 -80z m60 0 c0 -64 -3 -80 -15 -80 -12 0 -15 16 -15 80 0 64 3 80 15
80 12 0 15 -16 15 -80z m50 0 c0 -47 -4 -80 -10 -80 -6 0 -10 33 -10 80 0 47
4 80 10 80 6 0 10 -33 10 -80z m1002 16 c1 -35 2 -71 0 -80 -3 -14 -50 -16
-483 -16 l-479 0 0 80 0 80 479 0 479 0 4 -64z m78 -16 c0 -73 -2 -80 -20 -80
-18 0 -20 7 -20 80 0 73 2 80 20 80 18 0 20 -7 20 -80z m70 0 c0 -73 -2 -80
-20 -80 -18 0 -20 7 -20 80 0 73 2 80 20 80 18 0 20 -7 20 -80z m58 3 c-2 -50
-7 -78 -15 -81 -10 -3 -13 17 -13 77 0 66 3 81 15 81 13 0 15 -13 13 -77z m70
0 c-3 -65 -6 -78 -20 -81 -16 -3 -18 6 -18 77 0 75 2 81 20 81 19 0 21 -5 18
-77z m52 -3 c0 -47 -4 -80 -10 -80 -6 0 -10 33 -10 80 0 47 4 80 10 80 6 0 10
-33 10 -80z m60 0 c0 -47 -4 -80 -10 -80 -6 0 -10 33 -10 80 0 47 4 80 10 80
6 0 10 -33 10 -80z m920 0 l0 -80 -445 0 -445 0 0 80 0 80 445 0 445 0 0 -80z
m70 0 c0 -73 -2 -80 -20 -80 -18 0 -20 7 -20 80 0 73 2 80 20 80 18 0 20 -7
20 -80z m70 0 c0 -64 -3 -80 -15 -80 -15 0 -17 8 -17 55 0 87 3 105 17 105 12
0 15 -16 15 -80z m60 -1 c0 -60 -3 -80 -12 -77 -9 3 -14 31 -16 81 -2 64 0 77
13 77 12 0 15 -15 15 -81z m70 1 c0 -73 -2 -80 -20 -80 -18 0 -20 7 -20 80 0
73 2 80 20 80 18 0 20 -7 20 -80z m60 0 c0 -64 -3 -80 -15 -80 -12 0 -15 16
-15 80 0 64 3 80 15 80 12 0 15 -16 15 -80z m50 0 c0 -47 -4 -80 -10 -80 -6 0
-10 33 -10 80 0 47 4 80 10 80 6 0 10 -33 10 -80z m630 0 l0 -80 -297 2 -298
3 -3 78 -3 77 301 0 300 0 0 -80z m-11974 -124 c-1 -85 -5 -158 -9 -162 -4 -4
-7 62 -7 148 0 130 3 168 15 168 1 0 1 -69 1 -154z m6714 99 l0 -55 -245 0
-245 0 0 48 c0 27 3 52 7 55 3 4 114 7 245 7 l238 0 0 -55z m-520 -120 l0
-145 -3085 0 -3085 0 0 138 c0 76 3 142 7 145 3 4 1392 7 3085 7 l3078 0 0
-145z m-6240 -25 l0 -60 -2885 0 -2885 0 0 60 0 60 2885 0 2885 0 0 -60z
m12020 0 l0 -60 -2875 0 -2875 0 0 60 0 60 2875 0 2875 0 0 -60z m-12020 -210
l0 -120 -60 0 -60 0 0 -70 0 -70 -2825 0 -2825 0 0 183 c0 101 3 187 7 190 3
4 1302 7 2885 7 l2878 0 0 -120z m12020 -70 l0 -190 -2795 0 -2795 0 0 70 0
70 -80 0 -80 0 0 113 c0 63 3 117 7 120 3 4 1297 7 2875 7 l2868 0 0 -190z
m-5810 90 l0 -40 -3087 2 -3088 3 -3 23 c-2 13 -1 30 2 38 5 12 427 14 3091
14 l3085 0 0 -40z m-6163 -105 c0 -19 -4 -35 -9 -35 -4 0 -8 16 -8 35 0 19 4
35 8 35 5 0 9 -16 9 -35z m6193 15 c0 -20 -7 -20 -3085 -20 -3078 0 -3085 0
-3085 20 0 20 7 20 3085 20 3078 0 3085 0 3085 -20z m-640 -145 l0 -94 71 -3
72 -3 -2 -100 c-2 -114 -28 -1055 -36 -1310 -3 -93 -10 -339 -15 -545 -6 -206
-15 -519 -20 -695 -5 -176 -10 -348 -10 -382 l0 -63 -75 0 -75 0 0 395 0 395
-345 0 -345 0 0 -590 0 -590 185 0 185 0 0 -35 0 -34 -107 -3 -108 -3 -3 -97
-3 -98 -294 0 c-274 0 -295 1 -295 18 0 9 -1 136 -3 282 l-2 265 -46 3 -46 3
-7 292 c-3 161 -11 510 -16 777 -6 267 -14 703 -20 970 -5 267 -13 619 -16
783 l-7 297 46 0 47 0 0 120 0 120 -365 0 -365 0 0 -120 0 -120 51 0 52 0 -7
-572 c-3 -315 -8 -663 -11 -773 -3 -110 -7 -364 -10 -565 -3 -201 -8 -555 -11
-787 l-7 -423 -53 0 -54 0 -2 -282 -3 -283 -37 -3 -38 -3 0 870 0 871 -450 0
-450 0 0 -870 0 -870 -30 0 -30 0 0 285 0 285 -50 0 -50 0 -2 235 c-1 129 -2
247 -3 263 -1 15 -5 212 -9 437 -3 226 -8 482 -11 570 -3 88 -10 405 -15 705
-5 300 -12 627 -16 728 l-6 182 46 0 46 0 0 120 0 120 -365 0 -365 0 0 -120 0
-120 56 0 56 0 -6 -272 c-6 -245 -15 -833 -31 -1993 -3 -214 -8 -495 -11 -622
l-6 -233 -54 0 -54 0 0 -285 0 -285 -180 0 -180 0 0 100 0 100 -105 0 -105 0
0 85 0 85 180 0 180 0 0 590 0 590 -345 0 -345 0 0 -445 0 -445 -70 0 -69 0
-5 33 c-3 17 -10 235 -16 482 -6 248 -15 601 -20 785 -24 798 -50 1719 -50
1758 l0 42 100 0 100 0 0 95 0 95 2445 0 2445 0 0 -95z m-4912 -2 l3 -73 -391
0 -390 0 0 75 0 75 388 -2 387 -3 3 -72z m5720 0 l3 -73 -391 0 -390 0 0 75 0
75 388 -2 387 -3 3 -72z m-4018 -38 l0 -95 -335 0 -335 0 0 95 0 95 335 0 335
0 0 -95z m1890 0 l0 -95 -340 0 -340 0 0 95 0 95 340 0 340 0 0 -95z m-3800
-92 c0 -16 5 -172 10 -348 5 -176 14 -489 20 -695 6 -206 15 -526 20 -710 5
-184 14 -513 20 -730 5 -217 12 -437 15 -487 l5 -93 -285 0 -285 0 0 1545 0
1545 240 0 240 0 0 -27z m5780 -1518 l0 -1545 -285 0 -285 0 0 79 c0 43 4 227
10 407 11 372 25 873 40 1407 5 199 12 421 15 492 2 72 8 259 11 418 l7 287
243 0 244 0 0 -1545z m-6290 -5 l0 -1540 -30 0 -30 0 0 -330 0 -330 -175 0
-175 0 0 -210 0 -210 -2610 0 -2610 0 0 2080 0 2080 2815 0 2815 0 0 -1540z
m11940 -540 l0 -2080 -2595 0 -2595 0 0 210 0 210 -185 0 -185 0 0 330 0 330
-30 0 -30 0 0 1540 0 1540 2810 0 2810 0 0 -2080z m-9606 1888 c3 -79 11 -395
16 -703 6 -308 15 -760 20 -1005 5 -245 12 -618 15 -830 3 -212 8 -397 10
-412 l5 -28 -295 0 -295 0 0 53 c0 28 4 309 10 622 18 1095 20 1223 25 1670 3
248 8 523 11 613 l6 162 233 0 233 0 6 -142z m1886 25 c0 -65 3 -170 5 -233 3
-63 10 -362 15 -665 6 -302 15 -750 20 -995 5 -245 12 -595 16 -777 l7 -333
-292 0 -291 0 0 178 c0 157 7 615 24 1622 3 168 9 533 12 813 l7 507 239 0
238 0 0 -117z m-1280 -1993 l0 -130 -165 0 -165 0 0 130 0 130 165 0 165 0 0
-130z m130 -15 l0 -145 188 -2 187 -3 3 -42 3 -43 -190 0 -191 0 0 -185 0
-185 191 0 190 0 -3 -42 -3 -43 -187 -3 -188 -2 0 -205 0 -205 190 0 190 0 0
-45 0 -45 -190 0 -190 0 0 -175 0 -175 -50 0 -50 0 0 175 0 175 -180 0 -180 0
0 45 0 45 180 0 180 0 0 205 0 205 -177 2 -178 3 -3 43 -3 42 180 0 181 0 0
185 0 185 -181 0 -180 0 3 43 3 42 178 3 177 2 0 145 0 145 50 0 50 0 0 -145z
m380 15 l0 -130 -175 0 -175 0 0 130 0 130 175 0 175 0 0 -130z m-2400 -140
l0 -81 -122 3 -123 3 -3 63 c-2 35 -1 70 2 78 4 11 30 14 126 14 l120 0 0 -80z
m100 -20 l0 -101 138 2 c132 1 137 1 140 -20 3 -21 0 -21 -137 -21 l-141 0 0
-130 0 -130 140 0 140 0 0 -25 0 -25 -140 0 -140 0 0 -145 0 -145 140 0 c133
0 140 -1 140 -20 0 -19 -7 -20 -140 -20 l-139 0 -3 -117 c-3 -114 -4 -118 -25
-121 -23 -3 -23 -2 -23 122 l0 125 -147 3 c-104 2 -148 7 -150 15 -3 9 30 13
134 15 l138 3 3 143 3 142 -135 0 c-113 0 -135 2 -140 16 -3 9 -4 20 0 25 3 5
66 9 140 9 l134 0 0 130 0 130 -139 0 c-127 0 -139 2 -136 18 2 9 4 19 4 22 1
3 61 5 133 5 l133 0 3 98 3 97 34 0 35 0 0 -100z m280 20 l0 -80 -125 0 -125
0 0 80 0 80 125 0 125 0 0 -80z m3710 -100 l0 -80 -130 0 -130 0 0 80 0 80
130 0 130 0 0 -80z m92 -17 l3 -98 138 -3 c128 -2 137 -4 137 -22 0 -18 -9
-20 -137 -22 l-138 -3 -3 -127 -3 -128 141 0 140 0 0 -25 0 -25 -140 0 -140 0
0 -285 0 -285 -30 0 -29 0 -3 118 -3 117 -143 3 c-138 2 -143 3 -140 23 3 20
10 21 143 22 l140 2 3 143 3 142 -146 0 -145 0 0 25 0 25 145 0 146 0 -3 128
-3 127 -142 3 c-134 2 -143 4 -143 22 0 18 9 20 143 22 l142 3 3 98 3 97 29 0
29 0 3 -97z m278 17 l0 -80 -120 0 -120 0 0 80 0 80 120 0 120 0 0 -80z
m-2570 -195 l0 -155 -165 0 -165 0 0 155 0 155 165 0 165 0 0 -155z m510 0 l0
-155 -175 0 -175 0 0 148 c0 82 3 152 7 155 3 4 82 7 175 7 l168 0 0 -155z
m-2402 2 l3 -98 -123 3 -123 3 -2 85 c-1 47 0 91 2 98 3 9 34 12 122 10 l118
-3 3 -98z m382 3 l0 -100 -125 0 -125 0 0 100 0 100 125 0 125 0 0 -100z
m3708 -102 l3 -98 -131 0 -130 0 0 93 c0 52 3 97 7 101 4 4 61 5 128 4 l120
-3 3 -97z m370 0 l3 -98 -121 0 -120 0 0 93 c0 52 2 96 5 99 3 3 56 5 118 4
l112 -1 3 -97z m-4458 -218 l0 -111 -122 3 -123 3 -3 93 c-2 52 -1 100 2 108
4 11 31 14 126 14 l120 0 0 -110z m380 0 l0 -110 -125 0 -125 0 0 110 0 110
125 0 125 0 0 -110z m1510 -165 l0 -175 -165 0 -165 0 0 175 0 175 165 0 165
0 0 -175z m510 0 l0 -175 -175 0 -175 0 0 175 0 175 175 0 175 0 0 -175z
m1690 65 l0 -110 -130 0 -130 0 0 110 0 110 130 0 130 0 0 -110z m368 23 l-3
-88 -117 -3 -118 -3 0 91 0 90 120 0 121 0 -3 -87z m-4452 -135 c2 -2 3 -40 3
-84 -1 -43 0 -134 1 -201 l2 -123 -546 0 -546 0 0 100 0 100 410 0 c356 0 410
2 410 15 0 13 -55 15 -412 17 l-413 3 -3 79 c-2 44 0 86 3 94 5 13 72 14 546
9 297 -3 542 -7 545 -9z m5289 -83 l0 -90 -407 -3 c-354 -2 -408 -4 -408 -17
0 -13 53 -15 405 -15 l405 0 0 -100 0 -100 -546 0 -546 0 7 38 c5 20 9 105 10
187 0 83 2 160 3 173 l2 22 538 -2 537 -3 0 -90z m-4915 -30 l0 -105 -125 0
-125 0 0 105 0 105 125 0 125 0 0 -105z m1055 -235 l0 -265 -392 -3 -393 -2 0
263 c0 145 3 267 7 270 4 4 180 6 392 5 l386 -3 0 -265z m1885 0 l0 -270 -390
0 -390 0 0 270 0 270 390 0 390 0 0 -270z m768 133 l3 -103 -131 0 -130 0 0
98 c0 54 3 102 7 106 4 3 61 5 127 4 l121 -3 3 -102z m-2198 -223 l0 -160
-165 0 -165 0 0 160 0 160 165 0 165 0 0 -160z m510 0 l0 -160 -175 0 -175 0
0 160 0 160 175 0 175 0 0 -160z m-2180 -100 l0 -80 -647 2 -648 3 -3 78 -3
77 651 0 650 0 0 -80z m5068 3 l-3 -78 -647 -3 -648 -2 0 80 0 80 650 0 651 0
-3 -77z m362 -178 l0 -55 -3532 2 -3533 3 -1 45 c-1 25 1 48 3 53 2 4 1592 7
3534 7 l3529 0 0 -55z m0 -110 l0 -25 -3532 2 -3533 3 -3 23 -3 22 3535 0
3536 0 0 -25z m0 -95 l0 -40 -3533 0 -3533 0 -2 31 c-1 16 0 34 3 40 4 5 1349
9 3536 9 l3529 0 0 -40z m0 -115 l0 -45 -3532 2 -3533 3 -3 28 c-2 16 -1 35 2
43 5 12 500 14 3536 14 l3530 0 0 -45z m-7110 -120 l0 -65 -2655 0 -2655 0 0
65 0 65 2655 0 2655 0 0 -65z m12448 -2 l3 -63 -2646 0 -2645 0 0 65 0 65
2643 -2 2642 -3 3 -62z m-5338 -23 l0 -70 -3532 2 -3533 3 -3 54 c-2 29 -1 60
2 67 5 12 557 14 3536 14 l3530 0 0 -70z"/>
<path d="M7140 6590 l0 -590 345 0 345 0 0 590 0 590 -345 0 -345 0 0 -590z
m278 478 l-3 -83 -120 0 -120 0 -2 70 c-1 39 0 76 2 83 3 9 37 12 125 12 l121
0 -3 -82z m100 -20 l3 -98 139 0 140 0 0 -25 0 -25 -140 0 -140 0 0 -125 0
-125 140 0 140 0 0 -25 0 -25 -140 0 -140 0 0 -145 0 -145 140 0 c133 0 140
-1 140 -20 0 -19 -7 -20 -140 -20 l-140 0 0 -120 0 -120 -35 0 -34 0 -3 118
-3 117 -133 5 c-72 3 -132 8 -132 13 0 4 0 12 0 17 0 6 52 10 135 10 l135 0 0
145 0 145 -134 0 c-74 0 -137 4 -140 9 -4 5 -3 16 0 25 5 14 27 16 140 16
l134 0 0 125 0 125 -134 0 c-113 0 -135 2 -140 16 -3 9 -4 20 0 25 3 5 66 9
140 9 l134 0 0 101 0 100 33 -3 32 -3 3 -97z m282 17 l0 -85 -125 0 -125 0 0
85 0 85 125 0 125 0 0 -85z m-380 -290 l0 -95 -124 0 -123 0 -2 78 c-3 117 -9
112 130 112 l119 0 0 -95z m380 0 l0 -95 -125 0 -125 0 0 95 0 95 125 0 125 0
0 -95z m-382 -317 l-3 -113 -120 0 -120 0 -2 100 c-1 55 0 106 2 113 3 9 37
12 125 12 l121 0 -3 -112z m382 -3 l0 -115 -125 0 -125 0 0 115 0 115 125 0
125 0 0 -115z m-380 -325 l0 -101 -122 3 -123 3 -3 65 c-1 36 0 80 3 98 l6 32
119 0 120 0 0 -100z m380 0 l0 -100 -125 0 -125 0 0 100 0 100 125 0 125 0 0
-100z"/>
<path d="M9180 6590 l0 -590 345 0 345 0 0 590 0 590 -345 0 -345 0 0 -590z
m270 475 l0 -86 -117 3 -118 3 -3 83 -3 82 121 0 120 0 0 -85z m102 -12 l3
-98 143 -3 c142 -3 143 -3 140 -25 -3 -21 -7 -22 -145 -25 l-143 -3 0 -124 0
-125 145 0 145 0 0 -25 0 -25 -145 0 -146 0 3 -142 3 -143 143 -3 c133 -2 142
-4 142 -22 0 -18 -9 -20 -142 -22 l-143 -3 -3 -117 -3 -118 -29 0 -29 0 -3
118 -3 117 -137 3 c-129 2 -138 4 -138 22 0 18 9 20 138 22 l137 3 3 143 3
142 -141 0 -140 0 0 25 0 25 140 0 140 0 0 125 0 124 -137 3 c-134 3 -138 4
-141 25 -3 22 -1 22 135 25 l138 3 3 98 3 97 29 0 29 0 3 -97z m286 15 l-3
-83 -122 -3 -123 -3 0 86 0 85 125 0 126 0 -3 -82z m-388 -293 l0 -95 -120 0
-120 0 0 95 0 95 120 0 120 0 0 -95z m390 0 l0 -95 -125 0 -125 0 0 95 0 95
125 0 125 0 0 -95z m-390 -320 l0 -116 -117 3 -118 3 -3 113 -3 112 121 0 120
0 0 -115z m388 3 l-3 -113 -122 -3 -123 -3 0 116 0 115 125 0 126 0 -3 -112z
m-388 -328 l0 -100 -120 0 -120 0 0 100 0 100 120 0 120 0 0 -100z m390 0 l0
-100 -124 0 -125 0 -3 100 -3 100 128 0 127 0 0 -100z"/>
<path d="M11220 6590 l0 -590 345 0 345 0 0 590 0 590 -345 0 -345 0 0 -590z
m285 475 l0 -80 -125 0 -125 0 -3 83 -3 83 128 -3 128 -3 0 -80z m97 -12 l3
-98 138 -3 c136 -3 138 -3 135 -25 -3 -21 -7 -22 -140 -25 l-138 -3 0 -124 0
-125 140 0 140 0 0 -25 0 -25 -140 0 -141 0 3 -142 3 -143 138 -3 c128 -2 137
-4 137 -22 0 -18 -9 -20 -137 -22 l-138 -3 -3 -117 -3 -118 -29 0 -29 0 -3
118 -3 117 -142 3 c-134 2 -143 4 -143 22 0 18 9 20 143 22 l142 3 3 143 3
142 -146 0 -145 0 0 25 0 25 145 0 145 0 0 125 0 124 -142 3 c-140 3 -143 4
-146 26 -3 22 -3 22 142 22 l146 0 0 100 0 100 30 0 29 0 3 -97z m276 15 l-3
-83 -117 -3 -118 -3 0 86 0 85 120 0 121 0 -3 -82z m-368 -293 l0 -95 -130 0
-130 0 0 95 0 95 130 0 130 0 0 -95z m370 0 l0 -95 -120 0 -120 0 0 95 0 95
120 0 120 0 0 -95z m-375 -320 l0 -110 -125 0 -125 0 -3 113 -3 113 128 -3
128 -3 0 -110z m373 3 l-3 -113 -117 -3 -118 -3 0 116 0 115 120 0 121 0 -3
-112z m-368 -328 l0 -100 -130 0 -130 0 0 100 0 100 130 0 130 0 0 -100z m370
0 l0 -100 -120 0 -120 0 0 100 0 100 120 0 120 0 0 -100z"/>
<path d="M9299 5797 c-102 -29 -191 -105 -234 -201 -46 -101 -81 -91 335 -91
l365 0 -3 25 c-9 83 -109 201 -210 247 -67 31 -181 40 -253 20z m237 -47 c71
-31 127 -82 162 -148 17 -32 29 -62 25 -66 -3 -3 -150 -6 -325 -6 -354 0 -336
-4 -299 68 39 75 135 150 225 173 50 13 161 2 212 -21z"/>
<path d="M7424 5510 c-57 -12 -136 -53 -184 -96 -37 -34 -110 -160 -110 -190
0 -12 64 -14 369 -14 l370 0 -9 31 c-40 138 -156 242 -299 269 -61 11 -79 11
-137 0z m201 -51 c83 -31 173 -121 191 -192 l6 -27 -326 0 c-179 0 -326 2
-326 5 0 19 49 97 84 133 96 101 235 131 371 81z"/>
<path d="M11480 5406 c-75 -16 -122 -41 -178 -91 -46 -42 -94 -121 -108 -177
l-6 -28 366 0 c420 0 389 -9 335 98 -75 151 -247 235 -409 198z m238 -66 c35
-19 78 -52 97 -74 34 -43 65 -97 65 -116 0 -7 -105 -10 -326 -10 l-325 0 6 23
c19 62 91 143 160 179 64 33 85 38 175 35 75 -3 93 -7 148 -37z"/>
<path d="M1187 7173 c-4 -3 -7 -269 -7 -590 l0 -583 350 0 350 0 0 590 0 590
-343 0 c-189 0 -347 -3 -350 -7z m273 -108 l0 -85 -120 0 -120 0 0 85 0 85
120 0 120 0 0 -85z m100 -15 l0 -100 144 0 c142 0 143 0 142 -22 -1 -23 -4
-23 -143 -26 l-143 -3 0 -124 0 -124 143 -3 c134 -3 142 -4 142 -23 0 -19 -8
-20 -142 -23 l-143 -3 0 -144 0 -145 144 0 c132 0 144 -2 142 -17 -3 -16 -19
-18 -144 -21 l-142 -3 0 -119 0 -120 -35 0 -34 0 -3 118 -3 117 -132 3 c-125
2 -133 4 -133 22 0 19 7 20 135 20 l135 0 0 145 0 145 -135 0 -135 0 0 25 0
25 135 0 135 0 0 125 0 125 -135 0 -135 0 0 25 0 25 135 0 135 0 0 100 0 100
35 0 35 0 0 -100z m284 78 c3 -13 4 -50 3 -83 l-2 -60 -127 -3 -128 -3 0 86 0
85 125 0 c121 0 125 -1 129 -22z m-384 -353 l0 -95 -120 0 -120 0 0 95 0 95
120 0 120 0 0 -95z m385 0 l0 -90 -127 -3 -128 -3 0 96 0 96 128 -3 127 -3 0
-90z m-385 -320 l0 -115 -120 0 -120 0 0 115 0 115 120 0 120 0 0 -115z m385
0 l0 -110 -127 -3 -128 -3 0 116 0 116 128 -3 127 -3 0 -110z m-385 -325 l0
-100 -120 0 -120 0 0 100 0 100 120 0 120 0 0 -100z m388 20 c5 -126 12 -120
-133 -120 l-125 0 0 100 0 101 128 -3 127 -3 3 -75z"/>
<path d="M2670 7063 c-1 -309 -1 -462 -1 -750 l1 -313 345 0 345 0 0 590 0
590 -345 0 -345 0 0 -117z m270 2 l0 -85 -120 0 -120 0 0 85 0 85 120 0 120 0
0 -85z m100 -15 l0 -100 140 0 140 0 0 -25 0 -25 -140 0 -140 0 0 -125 0 -125
140 0 140 0 0 -25 0 -25 -140 0 -140 0 0 -145 0 -145 140 0 c133 0 140 -1 140
-20 0 -19 -7 -20 -140 -20 l-140 0 0 -120 0 -120 -35 0 -35 0 0 120 0 120
-135 0 c-128 0 -135 1 -135 20 0 19 7 20 135 20 l135 0 0 145 0 145 -135 0
-135 0 0 25 0 25 135 0 135 0 0 125 0 125 -135 0 -135 0 0 25 0 25 135 0 135
0 0 100 0 100 35 0 35 0 0 -100z m280 15 l0 -85 -125 0 -125 0 0 85 0 85 125
0 125 0 0 -85z m-380 -290 l0 -95 -120 0 -120 0 0 95 0 95 120 0 120 0 0 -95z
m380 0 l0 -95 -125 0 -125 0 0 95 0 95 125 0 125 0 0 -95z m-380 -320 l0 -115
-120 0 -120 0 0 115 0 115 120 0 120 0 0 -115z m380 0 l0 -115 -125 0 -125 0
0 115 0 115 125 0 125 0 0 -115z m-380 -325 l0 -100 -120 0 -120 0 0 100 0
100 120 0 120 0 0 -100z m380 0 l0 -100 -125 0 -125 0 0 100 0 100 125 0 125
0 0 -100z"/>
<path d="M4020 6590 l0 -590 345 0 345 0 0 590 0 590 -345 0 -345 0 0 -590z
m270 475 l0 -85 -120 0 -120 0 0 85 0 85 120 0 120 0 0 -85z m100 -15 l0 -100
140 0 140 0 0 -25 0 -25 -140 0 -140 0 0 -125 0 -125 140 0 140 0 0 -25 0 -25
-140 0 -140 0 0 -145 0 -145 140 0 c133 0 140 -1 140 -20 0 -18 -8 -20 -137
-22 l-138 -3 -3 -117 -3 -118 -34 0 -35 0 0 120 0 120 -135 0 c-128 0 -135 1
-135 20 0 19 7 20 135 20 l135 0 0 145 0 145 -135 0 -135 0 0 25 0 25 135 0
135 0 0 125 0 125 -135 0 -135 0 0 25 0 25 135 0 135 0 0 100 0 100 35 0 35 0
0 -100z m280 15 l0 -86 -122 3 -123 3 -3 83 -3 82 126 0 125 0 0 -85z m-380
-290 l0 -95 -120 0 -120 0 0 95 0 95 120 0 120 0 0 -95z m380 0 l0 -95 -125 0
-125 0 0 95 0 95 125 0 125 0 0 -95z m-380 -320 l0 -115 -120 0 -120 0 0 115
0 115 120 0 120 0 0 -115z m380 0 l0 -116 -122 3 -123 3 -3 113 -3 112 126 0
125 0 0 -115z m-380 -325 l0 -100 -120 0 -120 0 0 100 0 100 120 0 120 0 0
-100z m380 0 l0 -100 -125 0 -125 0 0 100 0 100 125 0 125 0 0 -100z"/>
<path d="M5320 6590 l0 -590 345 0 345 0 0 590 0 590 -345 0 -345 0 0 -590z
m273 523 c-1 -18 -2 -56 -2 -83 l-1 -51 -117 3 -118 3 -3 83 -3 83 122 -3 123
-3 -1 -32z m99 -60 l3 -98 143 -3 c142 -3 143 -3 140 -25 -3 -21 -7 -22 -145
-25 l-143 -3 0 -124 0 -125 145 0 145 0 0 -25 0 -25 -145 0 -146 0 3 -142 3
-143 143 -3 c133 -2 142 -4 142 -22 0 -18 -9 -20 -142 -22 l-143 -3 -3 -117
-3 -118 -29 0 -29 0 -3 118 -3 117 -137 3 c-129 2 -138 4 -138 22 0 18 9 20
138 22 l137 3 3 143 3 142 -141 0 c-141 0 -141 0 -138 23 3 21 6 22 141 25
l137 3 0 124 0 124 -137 3 c-134 3 -138 4 -141 25 -3 22 -1 22 135 25 l138 3
3 98 3 97 29 0 29 0 3 -97z m286 15 l-3 -83 -125 0 -125 0 -3 69 c-2 38 -1 75
2 83 4 10 35 13 131 13 l126 0 -3 -82z m-387 -208 c0 -5 0 -39 0 -75 0 -36 0
-74 0 -85 -1 -19 -8 -20 -121 -20 l-120 0 0 95 0 95 120 0 c73 0 120 -4 121
-10z m389 -85 l0 -95 -130 0 -130 0 0 95 0 95 130 0 130 0 0 -95z m-388 -215
c2 -5 2 -57 0 -115 l-3 -106 -117 3 -117 3 -3 113 -3 112 120 0 c69 0 121 -4
123 -10z m386 -102 l-3 -113 -125 0 -125 0 -3 99 c-1 55 0 106 2 113 4 10 36
13 131 13 l126 0 -3 -112z m-388 -238 c1 -5 1 -49 1 -97 l1 -88 -121 -3 -121
-3 0 101 0 100 120 0 c73 0 120 -4 120 -10z m390 -90 l0 -101 -127 3 -128 3
-3 98 -3 97 131 0 130 0 0 -100z"/>
<path d="M1440 5434 c-127 -34 -224 -133 -265 -271 l-6 -23 371 0 370 0 -6 28
c-30 124 -140 233 -269 267 -72 18 -123 18 -195 -1z m240 -50 c63 -29 133 -92
161 -146 37 -72 55 -68 -299 -68 -175 0 -321 3 -325 6 -10 11 32 83 76 131 99
107 253 138 387 77z"/>
<path d="M2920 5434 c-125 -34 -234 -144 -264 -266 l-6 -28 370 0 371 0 -6 23
c-42 140 -138 237 -270 272 -72 18 -123 18 -195 -1z m240 -50 c64 -29 111 -70
151 -133 55 -86 72 -81 -289 -81 -175 0 -321 3 -325 6 -21 21 96 168 161 203
85 45 208 47 302 5z"/>
<path d="M4270 5435 c-113 -32 -208 -120 -249 -230 -12 -31 -21 -58 -21 -60 0
-3 167 -5 370 -5 l370 0 -6 28 c-13 55 -69 144 -116 187 -88 79 -232 112 -348
80z m223 -41 c60 -20 150 -101 182 -164 13 -26 21 -50 18 -54 -4 -3 -150 -6
-325 -6 -351 0 -336 -3 -302 62 26 50 95 118 147 145 90 45 177 50 280 17z"/>
<path d="M5587 5440 c-103 -26 -206 -112 -251 -210 -46 -98 -77 -90 339 -90
417 0 386 -9 336 95 -34 73 -110 147 -186 181 -62 29 -175 40 -238 24z m216
-50 c30 -11 73 -36 96 -56 40 -35 101 -125 101 -151 0 -10 -72 -13 -325 -13
-253 0 -325 3 -325 13 0 24 59 114 94 145 102 89 228 111 359 62z"/>
<path d="M1185 5058 c-3 -7 -4 -274 -3 -593 l3 -580 345 0 345 0 0 590 0 590
-343 3 c-269 2 -344 0 -347 -10z m275 -108 l0 -80 -120 0 -120 0 0 80 0 80
120 0 120 0 0 -80z m100 -15 l0 -95 138 0 c76 0 141 -3 144 -6 3 -3 4 -14 1
-25 -5 -18 -15 -19 -144 -19 l-139 0 0 -130 0 -130 139 0 c120 0 140 -2 145
-16 4 -9 5 -18 3 -20 -1 -2 -61 -4 -132 -5 -71 -1 -135 -3 -142 -6 -10 -4 -13
-40 -13 -144 l0 -139 139 0 c77 0 142 -4 145 -9 4 -5 3 -16 0 -25 -5 -14 -27
-16 -145 -16 l-138 0 -3 -117 -3 -118 -30 0 -30 0 -3 118 -3 117 -134 0 -135
0 0 25 0 25 135 0 136 0 -3 143 -3 142 -133 0 c-130 0 -132 0 -132 23 0 22 2
22 135 22 l135 0 0 130 0 130 -135 0 -135 0 0 25 0 25 135 0 135 0 0 95 0 95
35 0 35 0 0 -95z m288 45 c2 -24 1 -59 -3 -77 l-6 -33 -124 0 -125 0 0 80 0
81 128 -3 127 -3 3 -45z m-388 -320 l0 -100 -120 0 -120 0 0 100 0 100 120 0
120 0 0 -100z m385 0 l0 -95 -127 -3 -128 -3 0 101 0 101 128 -3 127 -3 0 -95z
m-385 -320 l0 -110 -120 0 -120 0 0 110 0 110 120 0 120 0 0 -110z m390 23 c0
-142 9 -133 -136 -133 l-124 0 0 110 0 110 130 0 130 0 0 -87z m-390 -348 l0
-105 -120 0 -120 0 0 105 0 105 120 0 120 0 0 -105z m385 0 l0 -100 -125 0
-125 0 -3 103 -3 103 128 -3 128 -3 0 -100z"/>
<path d="M2670 4983 c-1 -119 -1 -772 0 -956 l0 -147 343 2 342 3 0 590 0 590
-342 3 -343 2 0 -87z m270 -33 l0 -80 -120 0 -120 0 0 80 0 80 120 0 120 0 0
-80z m100 -15 l0 -95 140 0 140 0 0 -25 0 -25 -140 0 -140 0 0 -130 0 -130
140 0 c133 0 140 -1 140 -20 0 -11 -6 -20 -12 -20 -7 0 -69 -1 -138 -3 l-125
-2 -3 -143 -3 -142 141 0 140 0 0 -25 0 -25 -140 0 -139 0 -3 -117 -3 -118
-30 0 -30 0 -3 118 -3 117 -134 0 -135 0 0 25 0 25 135 0 135 0 0 143 0 144
-135 -1 c-134 -1 -135 -1 -135 22 0 22 2 22 135 22 l135 0 0 130 0 130 -135 0
-135 0 0 25 0 25 135 0 135 0 0 95 0 95 35 0 35 0 0 -95z m280 15 l0 -80 -125
0 -125 0 0 80 0 80 125 0 125 0 0 -80z m-380 -290 l0 -100 -120 0 -120 0 0
100 0 100 120 0 120 0 0 -100z m380 0 l0 -100 -125 0 -125 0 0 100 0 100 125
0 125 0 0 -100z m-380 -320 l0 -110 -120 0 -120 0 0 110 0 110 120 0 120 0 0
-110z m380 0 l0 -110 -125 0 -125 0 0 110 0 110 125 0 125 0 0 -110z m-380
-325 l0 -105 -120 0 -120 0 0 105 0 105 120 0 120 0 0 -105z m380 0 l0 -106
-122 3 -123 3 -3 103 -3 102 126 0 125 0 0 -105z"/>
<path d="M4020 4475 l0 -595 343 2 342 3 0 590 0 590 -342 3 -343 2 0 -595z
m270 475 l0 -80 -120 0 -120 0 0 80 0 80 120 0 120 0 0 -80z m100 -15 l0 -95
140 0 140 0 0 -25 0 -25 -140 0 -140 0 0 -130 0 -130 140 0 c139 0 140 0 140
-22 0 -23 -2 -23 -138 -23 l-137 0 -3 -142 -3 -143 141 0 140 0 0 -25 0 -25
-140 0 -139 0 -3 -117 -3 -118 -30 0 -30 0 -3 118 -3 117 -134 0 -135 0 0 25
0 25 135 0 136 0 -3 143 -3 142 -35 1 c-19 1 -79 2 -132 3 -91 1 -98 2 -98 21
0 19 7 20 135 20 l135 0 0 130 0 130 -135 0 -135 0 0 25 0 25 135 0 135 0 0
95 0 95 35 0 35 0 0 -95z m280 15 l0 -80 -125 0 -125 0 0 80 0 80 125 0 125 0
0 -80z m-380 -290 l0 -100 -120 0 -120 0 0 100 0 100 120 0 120 0 0 -100z
m380 0 l0 -101 -122 3 -123 3 -3 98 -3 97 126 0 125 0 0 -100z m-380 -320 l0
-110 -120 0 -120 0 0 110 0 110 120 0 120 0 0 -110z m380 0 l0 -110 -125 0
-125 0 0 110 0 110 125 0 125 0 0 -110z m-380 -325 l0 -105 -120 0 -120 0 0
105 0 105 120 0 120 0 0 -105z m380 0 l0 -106 -122 3 -123 3 -3 103 -3 102
126 0 125 0 0 -105z"/>
<path d="M5333 5064 c-10 -5 -13 -133 -13 -595 l0 -589 345 0 345 0 -2 593 -3
592 -330 2 c-181 1 -336 -1 -342 -3z m258 -44 c0 -5 0 -37 0 -70 0 -33 0 -64
0 -70 -1 -6 -48 -10 -121 -10 l-120 0 0 80 0 80 120 0 c73 0 120 -4 121 -10z
m99 -85 l0 -95 145 0 145 0 0 -25 0 -25 -145 0 -146 0 3 -127 3 -128 143 -3
c142 -3 143 -3 140 -25 -3 -22 -6 -22 -143 -22 l-140 0 -3 -142 -3 -143 146 0
145 0 0 -25 0 -25 -145 0 -145 0 0 -120 0 -120 -30 0 -30 0 0 120 0 120 -140
0 -140 0 0 25 0 25 140 0 141 0 -3 143 -3 142 -135 0 c-132 0 -135 0 -138 23
-3 22 -3 22 137 22 l141 0 0 130 0 130 -140 0 -140 0 0 25 0 25 140 0 140 0 0
95 0 95 30 0 30 0 0 -95z m290 15 l0 -81 -127 3 -128 3 -3 78 -3 77 131 0 130
0 0 -80z m-388 -281 c2 -50 0 -95 -3 -100 -3 -6 -57 -8 -120 -7 l-114 3 -3 98
-3 97 120 0 120 0 3 -91z m386 -6 l-3 -98 -125 0 -125 0 -3 84 c-2 46 -1 90 2
98 4 10 36 13 131 13 l126 0 -3 -97z m-386 -313 c2 -55 2 -105 0 -110 -2 -6
-54 -10 -123 -10 l-119 0 0 110 0 110 119 0 120 0 3 -100z m388 -10 l0 -111
-127 3 -128 3 -3 108 -3 107 131 0 130 0 0 -110z m-390 -325 l0 -106 -117 3
-118 3 -3 103 -3 102 121 0 120 0 0 -105z m388 3 l-3 -103 -125 0 -125 0 -3
89 c-2 49 -1 95 2 103 4 10 36 13 131 13 l126 0 -3 -102z"/>
<path d="M13040 6590 l0 -590 345 0 345 0 0 590 0 590 -345 0 -345 0 0 -590z
m288 478 l-3 -83 -125 0 -125 0 -3 69 c-2 38 -1 75 2 83 4 10 35 13 131 13
l126 0 -3 -82z m102 -18 l0 -100 135 0 135 0 0 -25 0 -25 -135 0 -135 0 0
-125 0 -125 135 0 135 0 0 -25 0 -25 -135 0 -135 0 0 -145 0 -145 135 0 c128
0 135 -1 135 -20 0 -19 -7 -20 -135 -20 l-135 0 0 -120 0 -120 -35 0 -34 0 -3
118 -3 117 -142 3 c-135 2 -143 4 -143 22 0 19 7 20 145 20 l145 0 0 145 0
145 -146 0 c-145 0 -145 0 -142 23 3 21 6 22 146 25 l142 3 0 124 0 124 -142
3 c-140 3 -143 4 -146 26 -3 22 -3 22 142 22 l146 0 0 100 0 100 35 0 35 0 0
-100z m270 15 l0 -85 -120 0 -120 0 0 85 0 85 120 0 120 0 0 -85z m-370 -290
l0 -95 -130 0 -130 0 0 95 0 95 130 0 130 0 0 -95z m370 0 l0 -95 -120 0 -120
0 0 95 0 95 120 0 120 0 0 -95z m-372 -317 l-3 -113 -125 0 -125 0 -3 99 c-1
55 0 106 2 113 4 10 36 13 131 13 l126 0 -3 -112z m372 -3 l0 -115 -120 0
-120 0 0 115 0 115 120 0 120 0 0 -115z m-370 -325 l0 -100 -130 0 -130 0 0
100 0 100 130 0 130 0 0 -100z m370 0 l0 -100 -120 0 -120 0 0 100 0 100 120
0 120 0 0 -100z"/>
<path d="M14350 6590 l0 -590 345 0 345 0 0 590 0 590 -345 0 -345 0 0 -590z
m280 475 l0 -85 -125 0 -125 0 0 85 0 85 125 0 125 0 0 -85z m100 -15 l0 -100
141 0 c140 0 140 0 137 -22 -3 -22 -6 -23 -140 -26 l-138 -3 0 -124 0 -124
138 -3 c134 -3 137 -4 140 -25 3 -23 3 -23 -137 -23 l-141 0 0 -145 0 -145
140 0 c133 0 140 -1 140 -20 0 -18 -8 -20 -137 -22 l-138 -3 -3 -117 -3 -118
-34 0 -35 0 0 120 0 120 -140 0 c-133 0 -140 1 -140 20 0 19 7 20 140 20 l140
0 0 145 0 145 -140 0 -140 0 0 25 0 25 140 0 140 0 0 125 0 125 -140 0 -140 0
0 25 0 25 140 0 140 0 0 93 c0 52 3 97 7 100 3 4 19 7 35 7 l28 0 0 -100z
m275 15 l0 -80 -120 0 -120 0 -3 83 -3 83 123 -3 123 -3 0 -80z m-375 -290 l0
-95 -125 0 -125 0 0 95 0 95 125 0 125 0 0 -95z m380 0 l0 -95 -125 0 -125 0
0 95 0 95 125 0 125 0 0 -95z m-380 -320 l0 -115 -125 0 -125 0 0 115 0 115
125 0 125 0 0 -115z m375 0 l0 -110 -120 0 -120 0 -3 99 c-1 55 0 106 2 113 4
11 32 13 123 11 l118 -3 0 -110z m-375 -325 l0 -100 -125 0 -125 0 0 100 0
100 125 0 125 0 0 -100z m380 0 l0 -100 -125 0 -125 0 0 100 0 100 125 0 125
0 0 -100z"/>
<path d="M15700 6590 l0 -590 345 0 345 0 0 590 0 590 -345 0 -345 0 0 -590z
m280 475 l0 -86 -122 3 -123 3 -3 83 -3 82 126 0 125 0 0 -85z m100 -15 l0
-100 141 0 c140 0 140 0 137 -22 -3 -22 -6 -23 -140 -26 l-138 -3 0 -124 0
-124 138 -3 c134 -3 137 -4 140 -25 3 -23 3 -23 -137 -23 l-141 0 0 -145 0
-145 140 0 c133 0 140 -1 140 -20 0 -18 -8 -20 -137 -22 l-138 -3 -3 -117 -3
-118 -29 0 -29 0 -3 118 -3 117 -142 3 c-134 2 -143 4 -143 22 0 18 9 20 143
22 l142 3 0 140 0 140 -142 3 -143 3 0 24 0 25 145 0 145 0 0 125 0 124 -142
3 c-139 3 -143 4 -146 25 -3 22 -2 22 140 25 l143 3 3 98 3 97 29 0 30 0 0
-100z m278 18 l-3 -83 -120 0 -120 0 -3 83 -3 82 126 0 126 0 -3 -82z m-378
-293 l0 -95 -125 0 -125 0 0 95 0 95 125 0 125 0 0 -95z m380 0 l0 -95 -125 0
-125 0 0 95 0 95 125 0 125 0 0 -95z m-380 -320 l0 -115 -125 0 -125 0 0 115
0 115 125 0 125 0 0 -115z m378 3 l-3 -113 -120 0 -120 0 -3 99 c-1 55 0 106
2 113 4 10 35 13 126 13 l121 0 -3 -112z m-378 -328 l0 -100 -125 0 -125 0 0
100 0 100 125 0 125 0 0 -100z m380 0 l0 -100 -125 0 -125 0 0 100 0 100 125
0 125 0 0 -100z"/>
<path d="M17180 6590 l0 -590 345 0 345 0 0 590 0 590 -345 0 -345 0 0 -590z
m280 475 l0 -85 -125 0 -125 0 0 85 0 85 125 0 125 0 0 -85z m100 -15 l0 -100
141 0 c140 0 140 0 137 -22 -3 -22 -6 -23 -140 -26 l-138 -3 0 -124 0 -124
138 -3 c129 -3 137 -4 137 -23 0 -19 -8 -20 -137 -23 l-138 -3 0 -144 0 -145
140 0 c133 0 140 -1 140 -20 0 -18 -8 -20 -137 -22 l-138 -3 -3 -117 -3 -118
-29 0 -30 0 -1 83 c0 45 -1 98 -2 117 l-2 35 -142 3 c-134 2 -143 4 -143 22 0
18 9 20 143 22 l142 3 0 140 0 140 -142 3 -143 3 0 24 0 25 145 0 145 0 0 125
0 125 -145 0 -145 0 0 25 0 24 143 3 142 3 3 98 3 97 29 0 30 0 0 -100z m275
15 l0 -80 -120 0 -120 0 -3 69 c-2 38 -1 75 2 83 4 11 30 13 123 11 l118 -3 0
-80z m-375 -290 l0 -95 -125 0 -125 0 0 95 0 95 125 0 125 0 0 -95z m380 0 l0
-95 -125 0 -125 0 0 95 0 95 125 0 125 0 0 -95z m-380 -320 l0 -115 -125 0
-125 0 0 115 0 115 125 0 125 0 0 -115z m375 0 l0 -110 -120 0 -120 0 -3 99
c-1 55 0 106 2 113 4 11 32 13 123 11 l118 -3 0 -110z m-375 -325 l0 -100
-125 0 -125 0 0 100 0 100 125 0 125 0 0 -100z m380 0 l0 -100 -125 0 -125 0
0 100 0 100 125 0 125 0 0 -100z"/>
<path d="M13280 5434 c-30 -8 -73 -26 -96 -39 -74 -43 -148 -144 -170 -229
l-6 -26 371 0 c204 0 371 2 371 5 0 2 -9 29 -21 60 -42 113 -138 199 -254 230
-72 18 -123 18 -195 -1z m240 -50 c64 -29 111 -71 151 -133 55 -86 72 -81
-289 -81 -175 0 -321 3 -325 6 -11 12 40 98 84 142 101 100 249 126 379 66z"/>
<path d="M14597 5439 c-104 -24 -206 -107 -251 -204 -49 -103 -79 -95 339 -95
227 0 365 4 365 10 0 33 -48 127 -87 170 -95 106 -232 151 -366 119z m212 -48
c28 -10 68 -33 90 -50 39 -31 93 -107 106 -148 l6 -23 -325 0 c-218 0 -326 3
-326 10 0 26 52 110 89 143 103 93 231 117 360 68z"/>
<path d="M15947 5440 c-106 -27 -201 -105 -248 -203 -50 -106 -82 -97 336 -97
418 0 388 -9 335 97 -37 73 -111 146 -185 179 -62 29 -175 40 -238 24z m218
-51 c82 -31 165 -116 189 -196 l7 -23 -325 0 c-254 0 -326 3 -326 13 0 24 59
114 94 145 102 90 228 111 361 61z"/>
<path d="M17427 5439 c-129 -30 -249 -147 -273 -267 l-6 -32 366 0 c228 0 366
4 366 10 0 33 -48 127 -87 170 -95 106 -232 151 -366 119z m168 -34 c105 -28
193 -100 230 -189 8 -19 15 -38 15 -41 0 -3 -146 -5 -325 -5 -253 0 -325 3
-325 13 0 24 59 114 94 145 92 80 197 106 311 77z"/>
<path d="M13045 5058 c-3 -7 -4 -274 -3 -593 l3 -580 343 -3 342 -2 0 594 0
595 -340 1 c-267 0 -342 -2 -345 -12z m285 -108 l0 -80 -130 0 -130 0 0 80 0
80 130 0 130 0 0 -80z m100 -15 l0 -95 135 0 135 0 0 -25 0 -25 -135 0 -135 0
0 -130 0 -130 135 0 c128 0 135 -1 135 -20 0 -19 -7 -20 -107 -21 -60 -1 -120
-2 -135 -2 l-28 -1 0 -143 0 -143 135 0 135 0 0 -25 0 -25 -135 0 -134 0 -3
-117 -3 -118 -30 0 -30 0 -3 118 -3 117 -145 0 c-145 0 -145 0 -142 23 3 21 6
22 146 25 l143 3 -3 142 -3 142 -130 2 c-71 1 -136 2 -142 3 -7 0 -13 9 -13
20 0 19 7 20 145 20 l145 0 0 130 0 130 -146 0 c-145 0 -145 0 -142 23 3 21 6
22 146 25 l142 3 0 94 0 95 35 0 35 0 0 -95z m270 15 l0 -80 -120 0 -120 0 0
80 0 80 120 0 120 0 0 -80z m-372 -287 l-3 -98 -125 0 -125 0 -3 84 c-2 46 -1
90 2 98 4 10 36 13 131 13 l126 0 -3 -97z m372 -3 l0 -100 -120 0 -120 0 0
100 0 100 120 0 120 0 0 -100z m-370 -320 l0 -110 -130 0 -130 0 0 110 0 110
130 0 130 0 0 -110z m370 0 l0 -110 -120 0 -120 0 0 110 0 110 120 0 120 0 0
-110z m-372 -322 l-3 -103 -125 0 -125 0 -3 89 c-2 49 -1 95 2 103 4 10 36 13
131 13 l126 0 -3 -102z m372 -3 l0 -105 -120 0 -120 0 0 105 0 105 120 0 120
0 0 -105z"/>
<path d="M14357 5063 c-4 -3 -7 -271 -7 -595 l0 -588 345 0 345 0 -2 593 -3
592 -336 3 c-184 1 -338 -1 -342 -5z m273 -113 l0 -80 -125 0 -125 0 0 80 0
80 125 0 125 0 0 -80z m100 -15 l0 -94 138 -3 c134 -3 137 -4 140 -25 3 -23 3
-23 -137 -23 l-141 0 0 -130 0 -130 140 0 c133 0 140 -1 140 -20 0 -11 -7 -20
-15 -21 -8 0 -65 0 -127 -1 -62 0 -118 -2 -125 -5 -10 -4 -13 -40 -13 -144 l0
-138 138 -3 c134 -3 137 -4 140 -25 3 -23 3 -23 -137 -23 l-140 0 -3 -117 -3
-118 -30 0 -30 0 -3 118 -3 117 -139 0 -140 0 0 25 0 25 140 0 140 0 0 143 0
143 -137 2 c-131 1 -138 2 -141 21 -3 20 1 21 137 21 l141 0 0 130 0 130 -140
0 -140 0 0 25 0 25 140 0 140 0 0 95 0 95 35 0 35 0 0 -95z m280 15 l0 -80
-125 0 -125 0 0 80 0 80 125 0 125 0 0 -80z m-380 -290 l0 -100 -125 0 -125 0
0 100 0 100 125 0 125 0 0 -100z m375 0 l0 -95 -120 0 -120 0 -3 98 -3 98 123
-3 123 -3 0 -95z m-375 -320 l0 -110 -125 0 -125 0 0 110 0 110 125 0 125 0 0
-110z m380 0 l0 -110 -125 0 -125 0 0 110 0 110 125 0 125 0 0 -110z m-380
-325 l0 -105 -125 0 -125 0 0 105 0 105 125 0 125 0 0 -105z m375 0 l0 -100
-120 0 -120 0 -3 103 -3 103 123 -3 123 -3 0 -100z"/>
<path d="M15700 4475 l0 -595 345 0 345 0 -2 593 -3 592 -342 2 -343 2 0 -594z
m280 475 l0 -80 -125 0 -125 0 0 80 0 80 125 0 125 0 0 -80z m100 -15 l0 -94
138 -3 c134 -3 137 -4 140 -25 3 -23 3 -23 -137 -23 l-141 0 0 -130 0 -130
140 0 c133 0 140 -1 140 -20 0 -11 -6 -20 -12 -20 -7 -1 -69 -2 -138 -3 l-125
-2 -3 -142 -3 -143 141 0 140 0 0 -25 0 -25 -140 0 -140 0 0 -120 0 -120 -30
0 -30 0 0 120 0 120 -145 0 -145 0 0 25 0 25 145 0 146 0 -3 142 -3 142 -40 2
c-22 1 -86 2 -142 3 -95 1 -103 2 -103 21 0 18 8 20 143 22 l142 3 3 128 3
127 -146 0 -145 0 0 25 0 25 145 0 145 0 0 95 0 95 30 0 30 0 0 -95z m280 15
l0 -80 -125 0 -125 0 0 80 0 80 125 0 125 0 0 -80z m-380 -290 l0 -100 -125 0
-125 0 0 100 0 100 125 0 125 0 0 -100z m378 3 l-3 -98 -120 0 -120 0 -3 98
-3 97 126 0 126 0 -3 -97z m-378 -323 l0 -110 -125 0 -125 0 0 110 0 110 125
0 125 0 0 -110z m380 0 l0 -110 -125 0 -125 0 0 110 0 110 125 0 125 0 0 -110z
m-380 -325 l0 -106 -122 3 -123 3 -3 103 -3 102 126 0 125 0 0 -105z m378 3
l-3 -103 -120 0 -120 0 -3 89 c-2 49 -1 95 2 103 4 10 35 13 126 13 l121 0 -3
-102z"/>
<path d="M17180 4475 l0 -595 345 0 345 0 -2 593 -3 592 -342 3 -343 2 0 -595z
m280 475 l0 -80 -125 0 -125 0 0 80 0 80 125 0 125 0 0 -80z m100 -15 l0 -94
138 -3 c134 -3 137 -4 140 -25 3 -23 3 -23 -137 -23 l-141 0 0 -130 0 -130
141 0 c137 0 140 0 137 -21 -3 -20 -9 -21 -138 -23 l-135 -1 -3 -142 -3 -142
138 -3 c135 -3 138 -4 141 -25 3 -23 3 -23 -137 -23 l-141 0 0 -120 0 -120
-30 0 -29 0 -3 118 -3 117 -142 3 -143 3 0 24 0 25 145 0 145 0 0 139 0 139
-49 7 c-27 4 -85 6 -128 5 -110 -3 -113 -3 -113 20 0 18 8 20 143 22 l142 3 0
125 0 125 -142 3 -143 3 0 24 0 25 145 0 145 0 0 95 0 95 30 0 30 0 0 -95z
m280 15 l0 -80 -125 0 -125 0 0 80 0 80 125 0 125 0 0 -80z m-380 -290 l0
-100 -125 0 -125 0 0 100 0 100 125 0 125 0 0 -100z m375 0 l0 -95 -120 0
-120 0 -3 84 c-2 46 -1 90 2 98 4 11 31 13 123 11 l118 -3 0 -95z m-375 -320
l0 -110 -125 0 -125 0 0 110 0 110 125 0 125 0 0 -110z m380 0 l0 -110 -125 0
-125 0 0 110 0 110 125 0 125 0 0 -110z m-380 -325 l0 -105 -125 0 -125 0 0
105 0 105 125 0 125 0 0 -105z m375 0 l0 -100 -120 0 -120 0 -3 89 c-2 49 0
96 2 103 4 11 31 13 123 11 l118 -3 0 -100z"/>
</g>
</svg>
