<?xml version="1.0" standalone="no"?>
<!DOCTYPE svg PUBLIC "-//W3C//DTD SVG 20010904//EN"
 "http://www.w3.org/TR/2001/REC-SVG-20010904/DTD/svg10.dtd">
<svg version="1.0" xmlns="http://www.w3.org/2000/svg"
 width="1199.000000pt" height="630.000000pt" viewBox="0 0 1199.000000 630.000000"
 preserveAspectRatio="xMidYMid meet">

<g transform="translate(0.000000,630.000000) scale(0.100000,-0.100000)"
fill="#000000" stroke="none">
<path d="M3320 5915 c0 -96 3 -115 15 -115 11 0 15 12 15 45 l0 45 45 0 c54 0
85 25 85 70 0 49 -30 70 -100 70 l-60 0 0 -115z m111 85 c21 -12 25 -50 7 -68
-7 -7 -29 -12 -50 -12 l-38 0 0 45 c0 44 1 45 31 45 17 0 39 -5 50 -10z"/>
<path d="M3940 6015 c0 -8 7 -15 15 -15 8 0 15 7 15 15 0 8 -7 15 -15 15 -8 0
-15 -7 -15 -15z"/>
<path d="M4110 5996 c0 -34 -1 -35 -34 -29 -47 7 -76 -22 -76 -77 0 -30 7 -47
25 -65 25 -26 59 -33 71 -14 4 8 9 8 17 0 23 -23 27 -8 27 104 0 96 -3 115
-15 115 -10 0 -15 -10 -15 -34z m-10 -65 c15 -29 12 -77 -6 -95 -19 -20 -23
-20 -46 1 -21 19 -25 82 -6 101 18 18 46 14 58 -7z"/>
<path d="M4607 6024 c-8 -8 1 -24 14 -24 5 0 9 7 9 15 0 15 -12 20 -23 9z"/>
<path d="M4840 5915 c0 -96 3 -115 15 -115 12 0 15 19 15 115 0 96 -3 115 -15
115 -12 0 -15 -19 -15 -115z"/>
<path d="M5043 6020 c-27 -11 -53 -59 -53 -98 0 -72 42 -122 104 -122 31 0 86
45 86 71 0 27 -13 24 -38 -11 -42 -56 -122 -28 -122 43 0 53 11 77 41 92 31
17 75 6 85 -20 8 -19 34 -20 34 -1 0 40 -82 68 -137 46z"/>
<path d="M5980 6015 c0 -8 7 -15 15 -15 8 0 15 7 15 15 0 8 -7 15 -15 15 -8 0
-15 -7 -15 -15z"/>
<path d="M6500 6010 c-23 -23 -26 -62 -6 -79 7 -6 37 -18 65 -27 29 -8 55 -22
58 -30 17 -46 -92 -62 -112 -16 -5 12 -15 22 -22 22 -21 0 -15 -29 13 -57 22
-22 32 -25 72 -20 46 5 82 32 82 62 0 27 -37 56 -85 69 -38 9 -51 17 -53 33
-6 44 80 55 93 12 7 -21 35 -26 35 -6 -1 50 -100 77 -140 37z"/>
<path d="M7290 5996 c0 -29 -3 -33 -20 -29 -57 15 -98 -34 -86 -102 9 -48 47
-73 87 -58 16 6 29 7 29 2 0 -5 5 -9 10 -9 6 0 10 45 10 115 0 96 -3 115 -15
115 -10 0 -15 -10 -15 -34z m-12 -58 c7 -7 12 -31 12 -55 0 -33 -5 -45 -21
-53 -30 -17 -59 12 -59 60 0 39 14 60 40 60 9 0 21 -5 28 -12z"/>
<path d="M7360 6014 c0 -9 5 -14 12 -12 18 6 21 28 4 28 -9 0 -16 -7 -16 -16z"/>
<path d="M4520 5996 c0 -13 -6 -27 -12 -30 -10 -5 -10 -7 0 -12 7 -4 12 -27
12 -63 0 -66 17 -98 46 -87 18 7 18 8 2 17 -24 13 -26 129 -3 129 8 0 15 4 15
9 0 5 -7 11 -15 15 -8 3 -15 15 -15 26 0 11 -7 20 -15 20 -9 0 -15 -9 -15 -24z"/>
<path d="M8000 6001 c-5 -11 -19 -23 -30 -26 -28 -9 -25 -25 5 -25 24 0 25 -2
25 -75 0 -60 3 -75 15 -75 12 0 15 19 15 110 0 108 -8 132 -30 91z"/>
<path d="M8120 5998 c-47 -51 -10 -135 56 -125 42 7 47 -14 9 -39 -24 -16 -27
-15 -45 1 -28 26 -49 14 -22 -13 27 -27 62 -28 93 -3 19 15 24 30 27 82 3 54
1 68 -18 92 -27 34 -71 36 -100 5z m71 -8 c30 -17 26 -77 -6 -92 -19 -8 -28
-8 -40 2 -21 17 -20 76 3 89 21 13 20 13 43 1z"/>
<path d="M8307 6008 c-23 -18 -37 -62 -37 -114 0 -97 104 -131 139 -45 22 51
-22 99 -80 87 -24 -5 -29 -2 -29 14 0 11 12 27 26 37 26 16 27 16 44 -5 10
-12 23 -22 29 -22 19 0 12 28 -11 44 -27 19 -58 20 -81 4z m67 -107 c19 -21
15 -51 -9 -71 -21 -18 -65 13 -65 45 0 42 46 57 74 26z"/>
<path d="M8482 6013 c-38 -15 -53 -107 -28 -167 25 -60 92 -61 120 -2 45 95
-12 201 -92 169z m66 -43 c18 -35 10 -120 -14 -137 -15 -11 -21 -11 -38 1 -16
10 -22 26 -24 66 -5 86 43 131 76 70z"/>
<path d="M8740 6000 c-20 -20 -27 -60 -11 -60 5 0 12 9 16 19 10 33 32 45 60
33 41 -19 33 -57 -17 -88 -50 -30 -77 -62 -78 -86 0 -16 10 -18 76 -18 56 0
75 3 72 13 -3 7 -29 14 -62 17 -55 5 -57 6 -40 21 11 9 33 24 51 34 55 32 65
97 19 127 -21 14 -66 8 -86 -12z"/>
<path d="M8911 5999 c-25 -27 -34 -77 -22 -130 14 -62 53 -85 101 -59 37 20
52 117 25 169 -23 46 -71 55 -104 20z m73 -21 c24 -33 21 -113 -4 -138 -22
-22 -52 -15 -64 16 -20 52 5 144 39 144 8 0 21 -10 29 -22z"/>
<path d="M9126 6005 c-3 -8 -17 -20 -31 -27 -32 -14 -32 -28 0 -28 23 0 24 -3
27 -72 2 -46 7 -73 16 -76 9 -3 12 23 12 107 0 101 -8 135 -24 96z"/>
<path d="M9253 5996 c-25 -22 -28 -30 -28 -91 0 -58 3 -69 24 -86 32 -26 67
-24 96 6 52 51 16 122 -56 112 -29 -4 -39 -2 -39 9 0 16 35 54 50 54 6 0 18
-9 27 -20 20 -24 33 -26 33 -6 0 18 -38 46 -62 46 -9 0 -30 -11 -45 -24z m71
-92 c22 -22 20 -50 -6 -68 -19 -13 -25 -14 -43 -2 -27 18 -31 43 -9 67 21 23
37 24 58 3z"/>
<path d="M3520 5884 c0 -63 3 -85 12 -82 8 3 11 20 10 46 -5 56 5 81 34 92 13
5 24 14 24 20 0 13 -16 13 -41 0 -13 -7 -19 -7 -19 0 0 5 -4 10 -10 10 -6 0
-10 -35 -10 -86z"/>
<path d="M3631 5944 c-31 -39 -28 -97 5 -123 33 -26 65 -27 95 -2 32 26 16 39
-21 18 -33 -20 -70 -10 -70 18 0 12 14 15 60 15 69 0 75 11 40 68 -26 43 -78
46 -109 6z m88 -16 c12 -32 6 -38 -40 -38 -31 0 -39 4 -39 18 0 44 64 59 79
20z"/>
<path d="M3795 5954 c-27 -28 -15 -57 30 -72 54 -18 65 -30 42 -47 -21 -15
-46 -10 -64 12 -17 22 -32 12 -22 -14 19 -52 129 -34 129 22 0 20 -9 27 -50
42 -34 12 -50 23 -48 33 4 22 49 25 64 5 7 -9 18 -14 24 -10 8 5 6 13 -6 26
-21 24 -76 25 -99 3z"/>
<path d="M3940 5885 c0 -69 3 -85 15 -85 12 0 15 16 15 85 0 69 -3 85 -15 85
-12 0 -15 -16 -15 -85z"/>
<path d="M4196 5951 c-10 -11 -20 -37 -23 -59 -5 -34 -1 -45 20 -66 31 -31 66
-33 98 -7 30 24 19 38 -14 17 -24 -17 -55 -13 -69 8 -15 22 -7 26 52 26 56 0
60 1 60 24 0 13 -9 35 -21 50 -25 32 -77 36 -103 7z m82 -13 c7 -7 12 -20 12
-30 0 -15 -8 -18 -45 -18 -49 0 -56 11 -28 42 19 21 44 23 61 6z"/>
<path d="M4350 5883 c0 -66 3 -83 15 -83 11 0 15 16 17 66 3 70 18 94 52 81
13 -5 16 -21 16 -77 0 -56 3 -70 15 -70 12 0 15 14 15 69 0 86 -11 100 -80 99
l-50 -1 0 -84z"/>
<path d="M4602 5903 c-2 -73 4 -103 19 -103 5 0 9 38 9 85 0 63 -3 85 -13 85
-9 0 -14 -19 -15 -67z"/>
<path d="M4692 5958 c-14 -14 -16 -38 -3 -38 5 0 12 7 15 16 8 21 60 15 64 -8
2 -12 -5 -19 -25 -24 -56 -12 -63 -16 -74 -35 -8 -16 -7 -26 6 -45 17 -26 44
-31 77 -13 15 8 22 8 28 -1 5 -8 16 -10 26 -6 13 5 15 9 6 18 -7 7 -12 36 -12
64 0 34 -5 58 -16 68 -18 19 -75 21 -92 4z m78 -96 c0 -11 -12 -24 -27 -31
-22 -10 -29 -9 -41 3 -13 12 -13 18 -2 30 18 23 70 21 70 -2z"/>
<path d="M5232 5958 c-14 -14 -16 -38 -2 -38 5 0 13 7 18 16 11 21 56 15 60
-8 2 -12 -5 -19 -25 -23 -74 -16 -98 -50 -62 -86 22 -22 41 -24 71 -8 15 8 22
8 28 -1 5 -8 16 -10 26 -6 13 5 15 9 6 18 -7 7 -12 38 -12 70 0 46 -4 59 -19
68 -26 14 -74 13 -89 -2z m78 -96 c0 -20 -45 -46 -61 -37 -10 7 -12 39 -2 48
3 4 19 7 35 7 21 0 28 -5 28 -18z"/>
<path d="M5385 5888 c0 -56 4 -83 13 -85 9 -4 12 12 12 55 0 64 17 96 49 90
13 -3 17 -18 19 -76 2 -55 6 -72 17 -72 12 0 15 15 15 64 0 67 15 94 45 82 11
-4 15 -22 15 -76 0 -56 3 -70 15 -70 12 0 15 15 15 73 0 43 -5 78 -12 85 -15
15 -60 16 -75 1 -8 -8 -13 -8 -17 0 -9 15 -59 14 -74 -1 -9 -9 -12 -9 -12 0 0
7 -6 12 -12 12 -9 0 -13 -23 -13 -82z"/>
<path d="M5640 5850 c0 -73 4 -120 10 -120 6 0 10 18 10 40 0 41 0 41 33 35
48 -9 78 18 84 77 4 37 2 49 -16 67 -23 23 -70 28 -89 9 -9 -9 -12 -9 -12 0 0
7 -4 12 -10 12 -6 0 -10 -47 -10 -120z m98 88 c25 -25 3 -118 -29 -118 -17 0
-49 40 -49 63 0 50 49 84 78 55z"/>
<path d="M5827 5952 c-21 -23 -21 -32 -3 -32 8 0 17 7 20 16 8 21 60 15 64 -8
2 -12 -5 -19 -25 -24 -56 -12 -63 -16 -74 -35 -8 -16 -7 -26 6 -45 17 -26 44
-31 78 -13 16 9 22 9 25 0 2 -6 11 -11 19 -11 10 0 13 6 9 16 -3 9 -6 40 -6
69 0 35 -5 59 -16 69 -21 22 -77 20 -97 -2z m83 -87 c0 -8 -11 -22 -25 -31
-20 -13 -28 -14 -40 -4 -18 15 -19 37 -2 43 27 12 67 7 67 -8z"/>
<path d="M5980 5885 c0 -69 3 -85 15 -85 12 0 15 16 15 85 0 69 -3 85 -15 85
-12 0 -15 -16 -15 -85z"/>
<path d="M6064 5956 c-14 -11 -19 -27 -19 -66 0 -65 29 -95 82 -85 36 6 38 4
23 -26 -12 -22 -41 -25 -70 -7 -29 18 -39 -1 -11 -23 30 -24 52 -24 85 2 25
20 26 25 26 118 l0 97 -48 2 c-29 1 -56 -4 -68 -12z m85 -37 c18 -32 8 -74
-21 -90 -41 -22 -75 51 -47 102 14 27 49 21 68 -12z"/>
<path d="M6220 5883 c0 -67 3 -83 15 -83 12 0 15 14 15 64 0 67 13 91 47 84
15 -3 19 -16 23 -72 3 -43 10 -71 18 -74 9 -3 12 15 12 66 0 88 -11 101 -80
100 l-50 -1 0 -84z"/>
<path d="M6672 5851 c2 -95 6 -116 18 -116 11 0 14 9 12 38 l-4 38 35 -6 c28
-6 39 -3 56 14 25 25 35 62 27 95 -11 43 -32 55 -92 54 l-55 -2 3 -115z m108
79 c29 -53 -14 -126 -55 -96 -22 16 -26 76 -6 100 19 22 48 20 61 -4z"/>
<path d="M6861 5944 c-31 -39 -28 -97 5 -123 33 -26 65 -27 95 -2 32 26 19 36
-20 16 -34 -17 -71 -7 -71 20 0 12 14 15 60 15 l60 0 -6 28 c-12 51 -32 72
-69 72 -24 0 -39 -7 -54 -26z m83 -10 c30 -29 20 -44 -29 -44 -46 0 -53 7 -35
41 13 23 43 25 64 3z"/>
<path d="M7020 5883 c0 -66 3 -83 15 -83 11 0 15 16 17 66 3 70 18 94 52 81
13 -5 16 -21 16 -77 0 -56 3 -70 15 -70 12 0 15 14 15 66 0 93 -8 104 -75 101
l-55 -2 0 -82z"/>
<path d="M7360 5884 c0 -64 3 -85 13 -82 8 3 13 32 15 86 2 68 0 82 -13 82
-12 0 -15 -15 -15 -86z"/>
<path d="M7430 5885 c0 -50 4 -85 10 -85 6 0 10 24 10 53 0 58 20 97 49 97 25
0 31 -19 31 -91 0 -46 3 -59 15 -59 12 0 15 14 15 66 0 83 -11 104 -53 104
-18 0 -38 -5 -45 -12 -9 -9 -12 -9 -12 0 0 7 -4 12 -10 12 -6 0 -10 -35 -10
-85z"/>
<path d="M7610 5950 c-50 -50 -5 -160 61 -146 29 6 34 0 23 -28 -7 -18 -59
-22 -69 -6 -9 15 -25 12 -25 -5 0 -17 30 -35 60 -35 11 0 32 11 45 25 23 22
25 32 25 120 0 78 -3 95 -15 95 -8 0 -15 -5 -15 -12 0 -9 -3 -9 -12 0 -18 18
-56 14 -78 -8z m78 -12 c7 -7 12 -28 12 -48 0 -67 -61 -91 -77 -31 -18 66 25
119 65 79z"/>
<path d="M8610 5885 c0 -13 8 -16 38 -13 20 2 37 8 37 13 0 6 -17 11 -37 13
-30 3 -38 0 -38 -13z"/>
<path d="M7770 5816 c0 -8 6 -16 13 -19 9 -3 9 -7 -2 -20 -8 -11 -9 -17 -3
-17 13 0 32 32 32 54 0 9 -9 16 -20 16 -11 0 -20 -6 -20 -14z"/>
<path d="M63 5653 c-33 -22 -31 -70 2 -83 17 -7 25 -17 25 -34 0 -32 -20 -44
-27 -17 -7 28 -25 27 -21 0 2 -12 12 -27 23 -33 11 -6 23 -15 27 -21 5 -6 8
-5 8 3 0 6 7 12 15 12 21 0 48 45 41 68 -4 10 -18 24 -31 30 -17 8 -25 20 -25
37 0 27 17 34 26 10 8 -19 24 -20 24 -1 0 13 -42 47 -57 45 -4 0 -18 -7 -30
-16z m27 -38 c0 -26 -14 -33 -25 -15 -9 14 1 40 15 40 5 0 10 -11 10 -25z m38
-91 c-5 -28 -28 -29 -28 -1 0 13 3 27 7 30 10 11 25 -9 21 -29z"/>
<path d="M226 5645 c-3 -8 -12 -15 -21 -15 -22 0 -18 -17 5 -23 17 -4 20 -14
20 -66 0 -59 19 -89 21 -33 6 103 3 152 -7 152 -7 0 -14 -7 -18 -15z"/>
<path d="M396 5638 c-23 -33 -21 -113 4 -138 48 -48 100 -9 100 73 0 40 -5 58
-18 70 -26 24 -68 21 -86 -5z m78 -30 c14 -41 -3 -102 -31 -106 -35 -5 -53 83
-26 131 10 18 48 1 57 -25z"/>
<path d="M537 5643 c-14 -17 -20 -50 -18 -100 1 -29 35 -63 61 -63 11 0 29 9
40 20 25 25 27 105 4 138 -19 27 -64 29 -87 5z m75 -38 c11 -43 -8 -105 -32
-105 -36 0 -54 76 -29 121 16 30 51 21 61 -16z"/>
<path d="M676 5644 c-26 -25 -25 -117 1 -146 32 -36 81 -15 98 40 9 31 -2 87
-21 107 -20 19 -58 19 -78 -1z m70 -27 c17 -70 -14 -137 -50 -108 -16 14 -22
83 -10 115 10 26 53 20 60 -7z"/>
<path d="M800 5548 c0 -79 15 -91 22 -17 6 55 18 75 42 66 12 -5 16 -21 16
-62 0 -30 5 -55 10 -55 6 0 10 22 10 49 0 31 5 53 15 61 26 21 45 -5 45 -61 0
-27 5 -49 10 -49 15 0 13 117 -2 126 -7 5 -48 9 -90 10 l-78 1 0 -69z"/>
<path d="M324 5498 c-4 -6 -2 -14 4 -16 6 -2 8 -10 5 -19 -4 -11 -2 -14 5 -9
14 9 16 42 3 51 -5 3 -13 0 -17 -7z"/>
<path d="M10670 5440 c-41 -5 -45 -8 -48 -34 -2 -16 1 -33 7 -39 16 -16 26 0
12 17 -7 8 -10 20 -6 26 11 18 25 11 25 -13 0 -25 17 -47 37 -47 19 0 32 33
25 65 -7 29 -9 30 -52 25z m35 -43 c0 -26 -20 -25 -23 2 -3 16 1 22 10 19 7
-3 13 -12 13 -21z"/>
<path d="M1720 5294 l0 -106 208 6 207 6 3 100 3 100 -211 0 -210 0 0 -106z"/>
<path d="M2227 5360 c-33 -26 -36 -71 -7 -100 41 -41 110 -10 110 48 0 60 -56
88 -103 52z m71 -12 c7 -7 12 -24 12 -38 0 -31 -17 -50 -45 -50 -29 0 -45 19
-45 52 0 40 50 64 78 36z"/>
<path d="M2361 5358 c-9 -28 -2 -118 10 -118 5 0 9 21 9 46 0 59 24 55 28 -4
4 -55 22 -54 23 1 0 23 2 54 4 70 4 31 -14 37 -22 7 -3 -11 -12 -20 -20 -20
-10 0 -12 6 -8 20 9 28 -14 26 -24 -2z"/>
<path d="M2460 5370 c0 -5 5 -10 10 -10 6 0 10 5 10 10 0 6 -4 10 -10 10 -5 0
-10 -4 -10 -10z"/>
<path d="M2600 5370 c0 -5 5 -10 11 -10 5 0 7 5 4 10 -3 6 -8 10 -11 10 -2 0
-4 -4 -4 -10z"/>
<path d="M2750 5311 c0 -41 4 -71 10 -71 6 0 10 28 10 64 0 36 -4 68 -10 71
-6 4 -10 -20 -10 -64z"/>
<path d="M2865 5355 c-14 -13 -25 -36 -25 -50 0 -29 32 -65 59 -65 22 0 69 35
59 45 -3 4 -16 -3 -28 -15 -19 -19 -24 -20 -43 -7 -13 8 -23 27 -25 46 -3 25
2 33 22 42 20 10 30 9 51 -5 31 -20 34 -3 3 18 -31 22 -45 20 -73 -9z"/>
<path d="M3460 5370 c0 -5 5 -10 11 -10 5 0 7 5 4 10 -3 6 -8 10 -11 10 -2 0
-4 -4 -4 -10z"/>
<path d="M2460 5290 c0 -27 5 -50 10 -50 6 0 10 23 10 50 0 28 -4 50 -10 50
-5 0 -10 -22 -10 -50z"/>
<path d="M2511 5326 c-17 -20 -10 -67 12 -80 19 -12 48 0 55 25 4 10 -1 8 -16
-4 -26 -24 -42 -15 -42 23 0 34 15 47 36 29 8 -6 18 -9 21 -5 9 9 -16 26 -38
26 -9 0 -22 -6 -28 -14z"/>
<path d="M2600 5290 c0 -27 5 -50 10 -50 6 0 10 23 10 50 0 28 -4 50 -10 50
-5 0 -10 -22 -10 -50z"/>
<path d="M2650 5331 c-8 -6 -11 -13 -7 -17 3 -4 13 -1 21 5 8 7 20 10 26 6 18
-11 11 -24 -17 -27 -22 -2 -28 -8 -28 -28 0 -22 4 -25 40 -26 l41 -1 -6 46
c-4 40 -8 46 -30 49 -14 1 -32 -2 -40 -7z m50 -55 c0 -18 -27 -29 -36 -14 -4
5 0 14 7 19 20 13 29 11 29 -5z"/>
<path d="M2990 5325 c-15 -18 1 -20 18 -3 9 9 15 9 24 0 9 -9 7 -13 -5 -17 -9
-3 -24 -7 -33 -10 -9 -3 -14 -14 -12 -27 2 -19 9 -23 43 -24 l41 0 -4 35 c-3
20 -9 42 -14 49 -14 16 -43 15 -58 -3z m39 -61 c-6 -8 -15 -14 -20 -14 -14 0
-11 28 4 33 20 7 29 -4 16 -19z"/>
<path d="M3082 5289 c0 -27 3 -49 8 -49 6 0 10 15 10 34 0 33 20 62 33 49 4
-3 7 -24 7 -45 0 -21 5 -38 10 -38 6 0 10 18 10 39 0 26 5 41 16 45 25 10 34
-2 34 -45 0 -46 17 -53 18 -7 1 56 -10 65 -81 65 l-63 0 -2 -48z"/>
<path d="M3245 5274 c0 -35 3 -64 8 -64 4 0 7 6 7 14 0 9 12 16 27 18 20 2 30
11 37 31 14 39 -2 62 -45 64 l-34 2 0 -65z m63 21 c4 -31 -15 -50 -35 -33 -16
13 -17 40 -1 56 18 18 33 9 36 -23z"/>
<path d="M3360 5330 c-8 -5 -11 -12 -7 -16 3 -4 13 -1 21 5 8 7 20 10 26 6 18
-11 11 -22 -21 -29 -25 -5 -30 -10 -27 -28 3 -20 9 -23 45 -24 l41 -1 -5 36
c-2 20 -6 42 -9 49 -4 14 -42 16 -64 2z m50 -54 c0 -18 -27 -29 -36 -14 -4 5
0 14 7 19 20 13 29 11 29 -5z"/>
<path d="M3460 5290 c0 -27 5 -50 10 -50 6 0 10 23 10 50 0 28 -4 50 -10 50
-5 0 -10 -22 -10 -50z"/>
<path d="M3512 5328 c-16 -16 -15 -61 0 -76 7 -7 20 -12 30 -12 10 0 18 -5 18
-11 0 -7 -12 -8 -32 -4 -31 6 -32 5 -14 -10 24 -18 27 -19 51 -1 15 11 20 28
21 68 l2 55 -32 1 c-18 1 -38 -4 -44 -10z m48 -18 c8 -14 8 -26 0 -41 -14 -25
-34 -20 -38 10 -7 47 18 68 38 31z"/>
<path d="M3610 5289 c0 -60 18 -65 22 -6 2 29 8 42 18 42 10 0 16 -13 18 -42
4 -54 22 -57 22 -4 0 44 -13 59 -52 59 -27 0 -28 -3 -28 -49z"/>
<path d="M10631 5331 c-12 -8 -15 -33 -12 -108 1 -21 6 -23 51 -23 61 0 67 18
8 22 -30 2 -43 8 -43 18 0 10 13 16 43 18 23 2 42 7 42 12 0 5 -19 10 -42 12
-30 2 -43 8 -43 18 0 10 13 16 43 18 23 2 42 7 42 13 0 11 -70 12 -89 0z"/>
<path d="M277 5218 c-34 -25 -35 -60 -2 -82 16 -10 25 -26 25 -41 0 -27 -17
-34 -26 -10 -4 8 -12 15 -20 15 -11 0 -11 -5 -2 -25 6 -14 17 -25 24 -25 7 0
18 -8 23 -17 6 -10 11 -13 11 -6 0 6 9 15 20 18 46 15 49 78 4 95 -17 7 -24
17 -24 35 0 25 14 33 25 15 9 -15 25 -12 25 4 0 8 -13 21 -28 29 -26 13 -32
12 -55 -5z m23 -38 c0 -11 -7 -20 -15 -20 -15 0 -21 21 -8 33 12 13 23 7 23
-13z m38 -88 c2 -15 -2 -22 -12 -22 -11 0 -16 9 -16 26 0 31 23 28 28 -4z"/>
<path d="M9960 5231 c-39 -5 -45 -9 -48 -32 -2 -14 4 -31 12 -39 18 -14 22 0
5 17 -6 6 -8 16 -5 22 11 17 26 13 26 -7 0 -10 5 -23 12 -30 16 -16 48 -15 49
1 4 39 3 77 -1 75 -3 0 -25 -4 -50 -7z m36 -56 c-9 -23 -26 -9 -26 23 0 24 1
25 16 10 10 -9 14 -24 10 -33z"/>
<path d="M401 5204 c-27 -35 -26 -50 4 -80 19 -19 31 -23 51 -18 24 6 25 5 15
-15 -13 -23 -40 -28 -58 -10 -6 6 -17 9 -24 7 -17 -6 25 -48 46 -48 9 0 27 11
40 25 20 19 25 34 25 75 0 82 -56 119 -99 64z m63 -10 c20 -20 20 -27 -3 -55
-16 -20 -21 -21 -35 -10 -19 16 -21 52 -4 69 16 16 23 15 42 -4z"/>
<path d="M541 5204 c-31 -39 -29 -107 4 -139 27 -28 42 -30 68 -11 27 20 39
73 27 118 -17 61 -64 76 -99 32z m57 -3 c19 -11 27 -83 13 -110 -17 -30 -49
-27 -62 7 -11 29 -5 77 12 99 13 15 19 16 37 4z"/>
<path d="M680 5210 c-15 -15 -20 -33 -20 -75 0 -57 22 -95 55 -95 32 0 65 47
65 90 0 86 -52 128 -100 80z m69 -35 c29 -60 -20 -138 -56 -89 -18 25 -16 89
3 109 21 21 36 15 53 -20z"/>
<path d="M802 5111 c4 -80 21 -87 28 -11 4 48 8 55 28 58 21 3 22 0 22 -57 0
-34 4 -61 10 -61 6 0 10 19 10 43 0 50 19 83 44 74 12 -5 16 -20 16 -62 0 -30
5 -55 10 -55 15 0 13 117 -2 127 -7 4 -48 8 -91 9 l-78 1 3 -66z"/>
<path d="M10668 5173 c-47 -4 -48 -5 -48 -37 0 -21 6 -36 15 -40 18 -6 20 5 4
21 -13 13 -4 47 10 39 4 -3 11 -19 14 -36 5 -21 12 -30 26 -30 28 0 45 25 32
48 -7 13 -7 22 1 30 7 7 8 11 3 10 -6 -1 -31 -3 -57 -5z m38 -58 c-9 -23 -26
-9 -26 23 0 24 1 25 16 10 10 -9 14 -24 10 -33z"/>
<path d="M9917 5122 c-3 -4 -5 -35 -5 -70 l1 -62 48 0 c27 0 49 5 49 10 0 6
-15 10 -34 10 -39 0 -64 21 -44 38 7 6 28 9 46 8 17 -1 32 1 32 6 0 4 -15 8
-34 8 -33 0 -62 20 -49 33 3 4 24 7 45 7 21 0 38 5 38 10 0 12 -86 14 -93 2z"/>
<path d="M1720 4980 l0 -100 206 0 205 0 -2 78 c0 42 0 84 2 92 3 12 -16 16
-111 21 -63 4 -157 7 -207 8 l-93 1 0 -100z m227 23 c-3 -10 -5 -2 -5 17 0 19
2 27 5 18 2 -10 2 -26 0 -35z"/>
<path d="M10627 5059 c-8 -11 -13 -29 -10 -39 4 -13 -2 -20 -19 -23 -12 -2 9
-5 48 -6 66 -1 72 1 77 21 15 56 -64 94 -96 47z m77 -16 c6 -16 -16 -43 -34
-43 -18 0 -43 29 -37 44 9 22 63 22 71 -1z"/>
<path d="M2209 5024 c-19 -23 0 -47 45 -57 37 -9 48 -30 20 -41 -24 -9 -31 -8
-49 10 -20 20 -33 11 -15 -11 23 -28 100 -10 100 24 0 14 -26 31 -58 37 -34 7
-43 28 -16 38 21 8 20 8 39 -10 20 -20 33 -11 15 11 -16 20 -64 19 -81 -1z"/>
<path d="M2330 5029 c0 -5 5 -7 10 -4 6 3 10 8 10 11 0 2 -4 4 -10 4 -5 0 -10
-5 -10 -11z"/>
<path d="M2580 4975 c0 -37 4 -65 10 -65 6 0 10 28 10 65 0 37 -4 65 -10 65
-6 0 -10 -28 -10 -65z"/>
<path d="M2816 5025 c-55 -55 -1 -139 70 -106 13 6 24 18 24 28 0 14 -3 14
-20 -5 -12 -12 -24 -22 -28 -22 -15 0 -41 25 -42 40 -7 54 20 78 63 55 28 -14
36 -8 15 13 -17 17 -64 15 -82 -3z"/>
<path d="M3210 5021 c0 -14 -6 -17 -25 -14 -33 7 -54 -34 -37 -72 9 -20 19
-25 47 -25 l35 0 0 65 c0 37 -4 65 -10 65 -5 0 -10 -8 -10 -19z m-2 -62 c2
-17 -3 -29 -13 -33 -25 -9 -35 1 -35 35 0 26 3 30 23 27 15 -2 23 -11 25 -29z"/>
<path d="M3250 5030 c0 -5 5 -10 10 -10 6 0 10 5 10 10 0 6 -4 10 -10 10 -5 0
-10 -4 -10 -10z"/>
<path d="M3360 5019 c0 -16 -4 -19 -20 -14 -28 9 -50 -11 -50 -45 0 -35 17
-49 58 -48 l32 1 0 64 c0 35 -4 63 -10 63 -5 0 -10 -9 -10 -21z m-2 -60 c2
-17 -3 -29 -13 -33 -25 -9 -35 1 -35 35 0 26 3 30 23 27 15 -2 23 -11 25 -29z"/>
<path d="M3722 5023 c-14 -28 -4 -42 39 -53 40 -11 52 -33 23 -44 -21 -8 -20
-8 -39 10 -20 20 -33 11 -15 -11 16 -20 64 -19 84 1 23 22 4 52 -39 60 -43 8
-52 20 -26 33 25 14 27 14 46 -5 20 -20 33 -11 15 11 -18 21 -77 20 -88 -2z"/>
<path d="M4288 5018 c-5 -37 3 -108 13 -108 5 0 9 11 9 25 0 20 5 25 23 25 13
0 32 9 43 21 26 29 8 53 -44 57 -36 3 -41 0 -44 -20z m71 3 c21 -13 5 -41 -24
-41 -20 0 -25 5 -25 25 0 26 22 33 49 16z"/>
<path d="M4403 4975 c-21 -64 -19 -84 5 -45 7 11 21 20 32 20 10 0 24 -9 30
-20 23 -43 27 -17 7 45 -28 85 -45 85 -74 0z m50 14 c3 -12 0 -22 -9 -26 -20
-8 -27 2 -19 26 8 27 21 27 28 0z"/>
<path d="M4526 5025 c-55 -55 -1 -139 70 -106 13 6 24 18 24 28 0 14 -3 14
-20 -5 -24 -25 -30 -27 -52 -9 -29 21 -27 71 3 87 16 9 26 8 45 -5 25 -16 33
-8 12 13 -17 17 -64 15 -82 -3z"/>
<path d="M3507 5018 c-7 -20 7 -101 18 -105 8 -2 11 47 6 110 -1 12 -18 8 -24
-5z"/>
<path d="M2330 4960 c0 -27 5 -50 10 -50 6 0 10 23 10 50 0 28 -4 50 -10 50
-5 0 -10 -22 -10 -50z"/>
<path d="M2370 4958 c0 -27 5 -48 10 -48 6 0 10 18 10 40 0 33 3 40 20 40 17
0 20 -7 20 -40 0 -22 5 -40 10 -40 14 0 12 76 -2 88 -7 6 -25 10 -40 9 -26 -2
-28 -5 -28 -49z"/>
<path d="M2482 4997 c-30 -39 -9 -93 34 -84 17 3 24 0 24 -11 0 -11 -8 -13
-35 -9 -35 6 -48 -6 -19 -17 48 -19 74 8 74 78 l0 53 -34 1 c-19 1 -38 -4 -44
-11z m56 -38 c4 -30 -22 -46 -44 -28 -15 12 -19 41 -7 53 16 16 48 1 51 -25z"/>
<path d="M2630 4990 c-24 -24 -25 -43 -4 -65 20 -19 65 -16 72 5 5 13 3 13
-11 2 -9 -8 -25 -11 -37 -7 -34 11 -22 25 21 25 37 0 40 2 33 23 -13 41 -43
48 -74 17z m60 -21 c0 -12 -47 -11 -55 0 -9 15 28 31 42 19 7 -6 13 -14 13
-19z"/>
<path d="M2939 4993 c-12 -15 -12 -16 6 -9 33 12 40 12 40 -4 0 -8 -6 -14 -14
-12 -7 2 -22 -5 -32 -14 -26 -24 -8 -43 39 -41 37 1 37 1 33 42 -2 22 -9 43
-15 47 -19 13 -43 9 -57 -9z m51 -52 c0 -12 -29 -23 -41 -15 -18 10 -9 24 16
24 14 0 25 -4 25 -9z"/>
<path d="M3040 4958 c0 -26 5 -48 10 -48 6 0 10 18 10 40 0 33 3 40 20 40 17
0 20 -7 20 -40 0 -22 5 -40 10 -40 15 0 13 90 -2 92 -66 8 -68 6 -68 -44z"/>
<path d="M3250 4960 c0 -27 5 -50 10 -50 6 0 10 23 10 50 0 28 -4 50 -10 50
-5 0 -10 -22 -10 -50z"/>
<path d="M3410 5000 c-8 -5 -11 -12 -7 -16 4 -4 12 -3 18 3 12 12 39 6 39 -8
0 -5 -9 -9 -19 -9 -11 0 -27 -7 -36 -16 -23 -23 -4 -41 43 -41 37 0 38 0 34
36 -7 56 -33 76 -72 51z m50 -59 c0 -12 -29 -23 -41 -15 -5 3 -7 10 -4 15 8
12 45 12 45 0z"/>
<path d="M3564 4985 c-33 -50 28 -105 66 -60 14 17 0 21 -16 5 -12 -12 -44 -3
-44 11 0 5 16 9 35 9 37 0 42 9 25 41 -15 27 -46 24 -66 -6z m56 -10 c0 -16
-35 -21 -44 -6 -8 12 4 21 26 21 10 0 18 -7 18 -15z"/>
<path d="M3840 4972 c0 -47 14 -62 57 -62 l34 0 -2 50 c-3 56 -19 70 -19 16 0
-35 -21 -63 -40 -51 -5 3 -10 24 -10 46 0 21 -4 39 -10 39 -5 0 -10 -17 -10
-38z"/>
<path d="M3949 5001 c-6 -29 -4 -123 3 -127 4 -3 8 4 8 15 0 17 6 21 30 21 41
0 63 43 40 80 -8 13 -79 23 -81 11z m71 -45 c0 -29 -28 -42 -49 -22 -12 12
-12 20 -3 41 10 22 15 24 32 15 11 -6 20 -21 20 -34z"/>
<path d="M4076 4994 c-20 -20 -21 -58 -1 -74 16 -14 65 -6 65 11 0 6 -7 6 -20
-1 -21 -11 -40 -6 -40 11 0 5 16 9 35 9 39 0 42 6 19 38 -18 26 -37 28 -58 6z
m49 -19 c0 -5 -10 -11 -22 -13 -16 -2 -23 2 -23 13 0 11 7 15 23 13 12 -2 22
-7 22 -13z"/>
<path d="M4170 4958 c0 -27 5 -48 10 -48 6 0 10 16 10 35 0 22 6 38 15 41 24
9 17 22 -10 20 -23 -1 -25 -5 -25 -48z"/>
<path d="M4650 4995 c-16 -19 2 -45 31 -45 11 0 19 -4 19 -9 0 -17 -19 -22
-41 -10 -17 9 -20 8 -17 -3 7 -20 53 -22 68 -2 12 14 12 18 -5 30 -10 8 -25
14 -32 14 -7 0 -13 4 -13 8 0 17 13 21 32 11 16 -9 19 -8 16 3 -7 19 -43 22
-58 3z"/>
<path d="M9960 4970 c-41 -4 -45 -8 -48 -34 -2 -16 1 -33 7 -39 16 -16 26 0
12 17 -7 8 -10 20 -6 26 11 18 25 11 25 -14 0 -32 26 -53 48 -39 16 9 25 82
12 87 -3 1 -25 -1 -50 -4z m38 -48 c2 -15 -2 -22 -12 -22 -11 0 -16 9 -16 26
0 31 23 28 28 -4z"/>
<path d="M2730 4960 c0 -5 9 -10 20 -10 11 0 20 5 20 10 0 6 -9 10 -20 10 -11
0 -20 -4 -20 -10z"/>
<path d="M10602 4954 c-15 -10 -22 -25 -22 -49 0 -63 78 -88 125 -40 30 29 31
45 4 79 -24 30 -72 35 -107 10z m87 -13 c7 -5 14 -21 14 -36 0 -31 -17 -45
-53 -45 -31 0 -50 17 -50 45 0 12 5 26 12 33 14 14 57 16 77 3z"/>
<path d="M9923 4863 c-7 -2 -13 -17 -13 -33 0 -20 -6 -30 -22 -36 -17 -6 -4
-9 46 -11 37 -2 70 -3 71 -1 2 2 6 15 10 29 11 44 -41 73 -92 52z m72 -39 c0
-27 -59 -33 -69 -7 -10 24 19 44 47 34 12 -5 22 -17 22 -27z"/>
<path d="M2413 4803 c433 -2 1141 -2 1575 0 433 1 78 2 -788 2 -866 0 -1221
-1 -787 -2z"/>
<path d="M284 4777 c-42 -23 -47 -71 -9 -89 18 -8 25 -19 25 -40 0 -31 -14
-37 -28 -12 -5 9 -15 14 -23 12 -10 -4 -4 -14 19 -36 33 -31 34 -31 60 -14 52
33 56 65 12 90 -19 11 -30 25 -30 40 0 23 14 30 25 12 9 -15 25 -12 25 4 0 22
-54 45 -76 33z m16 -47 c0 -11 -4 -20 -9 -20 -14 0 -23 18 -16 30 10 17 25 11
25 -10z m40 -85 c0 -16 -6 -25 -15 -25 -9 0 -15 9 -15 25 0 16 6 25 15 25 9 0
15 -9 15 -25z"/>
<path d="M400 4765 c-8 -9 -10 -29 -7 -50 3 -19 1 -37 -4 -40 -14 -9 -11 -42
7 -59 18 -19 75 -21 92 -4 15 15 16 60 1 75 -8 8 -8 13 0 17 16 10 13 42 -5
60 -20 20 -68 21 -84 1z m65 -35 c0 -33 -40 -41 -50 -11 -9 28 2 43 28 39 16
-2 22 -10 22 -28z m5 -65 c18 -21 5 -45 -25 -45 -27 0 -41 20 -31 45 7 19 40
19 56 0z"/>
<path d="M540 4760 c-25 -25 -27 -105 -4 -138 19 -28 65 -29 89 -2 24 26 24
99 1 134 -20 32 -58 34 -86 6z m74 -37 c14 -50 -3 -98 -34 -98 -21 0 -26 6
-33 40 -12 54 5 98 35 93 15 -2 25 -13 32 -35z"/>
<path d="M680 4760 c-14 -14 -20 -33 -20 -68 0 -60 21 -92 60 -92 37 0 60 32
60 83 0 83 -53 124 -100 77z m71 -39 c14 -46 1 -94 -26 -100 -25 -4 -45 25
-45 67 0 77 51 101 71 33z"/>
<path d="M9920 4763 c-76 -29 -58 -133 22 -133 33 0 78 39 78 68 0 42 -60 81
-100 65z m60 -33 c24 -24 25 -38 3 -62 -31 -34 -93 -13 -93 32 0 20 35 50 57
50 7 0 22 -9 33 -20z"/>
<path d="M800 4665 c0 -50 3 -65 14 -65 11 0 16 15 18 53 3 45 6 52 26 55 21
3 22 0 22 -52 0 -31 5 -56 10 -56 6 0 10 17 10 38 0 46 20 78 44 69 12 -5 16
-19 16 -57 0 -28 5 -50 10 -50 7 0 10 24 8 63 l-3 62 -87 2 -88 3 0 -65z"/>
<path d="M10508 3383 c-2 -731 -2 -1525 0 -1765 l2 -438 287 0 286 0 -5 1313
-6 1312 -128 3 c-71 1 -135 5 -141 7 -10 3 -13 102 -13 450 l0 445 -140 0
-140 0 -2 -1327z"/>
<path d="M11330 4650 l0 -40 50 0 c29 0 50 5 50 11 0 6 -12 8 -29 6 -17 -3
-38 1 -48 8 -26 19 -1 43 50 48 36 3 33 4 -15 5 l-58 2 0 -40z"/>
<path d="M10910 4632 c0 -6 17 -16 38 -23 l37 -13 -37 -14 c-21 -8 -38 -19
-38 -24 0 -6 6 -8 14 -5 65 25 98 30 106 17 5 -8 12 -11 16 -8 14 15 -6 35
-52 50 -27 9 -57 19 -66 23 -10 4 -18 3 -18 -3z"/>
<path d="M11342 4578 c-18 -18 -14 -55 8 -71 46 -32 106 14 81 62 -13 24 -68
30 -89 9z m78 -33 c0 -21 -31 -34 -57 -24 -13 5 -23 15 -23 24 0 9 10 19 23
24 26 10 57 -3 57 -24z"/>
<path d="M10916 4524 c-9 -8 -16 -22 -16 -29 0 -37 70 -61 98 -33 17 17 15 53
-3 68 -17 14 -19 7 -6 -19 10 -17 -2 -51 -14 -39 -6 6 -13 31 -14 56 -1 17
-26 15 -45 -4z m34 -35 c0 -20 -15 -26 -25 -9 -9 15 3 43 15 35 5 -3 10 -15
10 -26z"/>
<path d="M9790 2840 l0 -1660 290 0 290 0 0 520 0 520 -145 0 -145 0 0 1140 0
1140 -145 0 -145 0 0 -1660z"/>
<path d="M11330 4483 c0 -6 -8 -13 -17 -15 -16 -4 -16 -5 2 -15 12 -7 38 -8
68 -3 54 8 66 15 49 32 -9 9 -12 9 -12 0 0 -16 -62 -16 -78 0 -8 8 -12 9 -12
1z"/>
<path d="M10906 4414 c-3 -8 -3 -26 0 -40 5 -21 12 -24 55 -24 27 0 49 4 49 9
0 6 -12 9 -27 7 -35 -3 -63 10 -63 29 0 11 11 15 39 15 22 0 43 5 46 10 4 6
-13 10 -43 10 -36 0 -52 -4 -56 -16z"/>
<path d="M11343 4423 c-8 -2 -13 -22 -13 -44 l0 -39 50 0 c28 0 50 5 50 10 0
6 -15 10 -34 10 -35 0 -63 21 -51 40 3 5 24 10 46 10 21 0 39 5 39 10 0 10
-65 13 -87 3z"/>
<path d="M273 4333 c-31 -21 -29 -58 2 -79 17 -11 25 -25 25 -45 0 -33 -19
-39 -27 -9 -6 21 -18 26 -27 12 -7 -12 22 -52 39 -52 7 0 16 -6 18 -12 4 -10
6 -10 6 0 1 6 8 12 16 12 21 0 48 45 41 68 -4 10 -18 24 -31 30 -17 8 -25 20
-25 37 0 29 7 31 32 8 16 -14 18 -15 18 0 0 16 -36 47 -55 46 -5 0 -20 -7 -32
-16z m27 -38 c0 -26 -14 -33 -25 -15 -9 14 1 40 15 40 5 0 10 -11 10 -25z m35
-83 c0 -31 -19 -28 -23 4 -3 18 0 25 10 22 7 -3 13 -14 13 -26z"/>
<path d="M380 4330 c0 -5 22 -10 50 -10 l49 0 -24 -36 c-27 -40 -52 -110 -42
-120 10 -11 27 7 27 28 0 12 16 50 35 85 l35 63 -65 0 c-37 0 -65 -4 -65 -10z"/>
<path d="M536 4318 c-23 -33 -21 -113 4 -138 69 -69 147 68 82 143 -22 24 -67
22 -86 -5z m78 -30 c14 -41 -3 -102 -30 -106 -17 -2 -24 5 -33 29 -14 39 -14
51 -1 84 13 35 51 31 64 -7z"/>
<path d="M676 4318 c-23 -33 -21 -113 4 -138 23 -23 49 -26 74 -7 27 20 34
108 12 142 -21 33 -68 34 -90 3z m75 -25 c15 -40 0 -107 -25 -111 -11 -3 -26
4 -33 14 -16 22 -17 96 -1 112 21 21 48 14 59 -15z"/>
<path d="M10907 4313 c-3 -7 -3 -65 2 -113 1 -12 12 -14 52 -11 29 2 46 6 40
11 -7 4 -22 5 -35 3 -24 -5 -52 20 -41 37 3 5 24 10 46 10 53 0 50 18 -3 22
-61 4 -59 31 2 39 l45 6 -52 1 c-28 1 -54 -1 -56 -5z"/>
<path d="M11333 4308 c-2 -5 19 -8 46 -8 29 0 51 5 51 10 0 12 -89 9 -97 -2z"/>
<path d="M11298 4303 c7 -3 16 -2 19 1 4 3 -2 6 -13 5 -11 0 -14 -3 -6 -6z"/>
<path d="M800 4228 c0 -54 3 -68 15 -68 11 0 15 12 15 49 0 49 18 79 40 66 5
-3 10 -31 10 -61 0 -30 5 -54 10 -54 6 0 10 19 10 43 0 50 19 83 44 74 12 -5
16 -20 16 -62 0 -30 5 -55 10 -55 15 0 13 117 -2 127 -7 4 -48 8 -90 9 l-78 0
0 -68z"/>
<path d="M11295 4260 c3 -5 35 -10 71 -10 36 0 64 4 64 10 0 6 -30 10 -71 10
-44 0 -68 -4 -64 -10z"/>
<path d="M11300 4221 c-17 -32 -12 -69 12 -85 31 -22 84 -20 108 4 24 24 25
48 4 78 -15 22 -44 30 -44 12 0 -5 4 -10 10 -10 18 0 31 -39 20 -60 -12 -23
-68 -28 -88 -8 -17 17 -15 57 3 64 19 8 19 24 0 24 -8 0 -19 -9 -25 -19z"/>
<path d="M10916 4154 c-19 -19 -20 -35 -3 -58 15 -21 75 -25 88 -5 12 20 11
53 -3 67 -17 17 -64 15 -82 -4z m76 -18 c4 -5 2 -18 -3 -29 -13 -22 -48 -19
-63 6 -21 35 43 57 66 23z"/>
<path d="M10881 4047 c-6 -6 -11 -30 -11 -54 l0 -43 70 0 c40 0 70 4 70 10 0
6 -14 10 -31 10 -28 0 -30 2 -27 33 2 27 8 33 31 35 15 2 27 7 27 12 0 13
-117 9 -129 -3z m47 -45 c3 -28 0 -32 -22 -32 -20 0 -26 5 -26 23 0 26 19 49
35 44 5 -2 11 -18 13 -35z"/>
<path d="M11410 4020 c0 -5 4 -10 9 -10 6 0 13 5 16 10 3 6 -1 10 -9 10 -9 0
-16 -4 -16 -10z"/>
<path d="M11295 3980 c3 -5 17 -10 31 -10 21 0 24 -5 24 -35 0 -32 -2 -35 -30
-35 -16 0 -30 -4 -30 -10 0 -6 30 -10 70 -10 40 0 70 4 70 10 0 6 -13 10 -30
10 -28 0 -30 3 -30 35 0 32 2 35 30 35 17 0 30 5 30 10 0 6 -30 10 -71 10 -44
0 -68 -4 -64 -10z"/>
<path d="M275 3896 c-33 -26 -31 -66 3 -81 15 -7 22 -18 22 -37 0 -30 -17 -38
-26 -13 -4 8 -12 15 -19 15 -22 0 -5 -41 21 -51 13 -4 24 -13 24 -19 0 -5 9
-1 20 10 11 11 24 20 29 20 14 0 23 34 15 54 -4 10 -17 22 -30 27 -17 6 -24
16 -24 34 0 25 14 33 25 15 9 -15 25 -12 25 4 0 8 -13 21 -29 29 -27 13 -31
13 -56 -7z m25 -36 c0 -11 -7 -20 -15 -20 -15 0 -21 21 -8 33 12 13 23 7 23
-13z m38 -88 c2 -15 -2 -22 -12 -22 -11 0 -16 9 -16 26 0 31 23 28 28 -4z"/>
<path d="M422 3903 c-20 -8 -42 -59 -42 -98 0 -39 35 -85 65 -85 28 0 67 48
59 73 -10 33 -21 41 -59 41 -38 0 -45 15 -19 40 19 20 28 20 44 1 16 -19 30
-19 30 0 0 25 -45 41 -78 28z m48 -98 c20 -25 8 -50 -25 -50 -21 0 -31 5 -33
18 -4 21 14 47 33 47 7 0 18 -7 25 -15z"/>
<path d="M545 3896 c-13 -9 -20 -30 -23 -69 -4 -50 -2 -58 21 -81 15 -14 30
-26 35 -26 22 0 60 42 64 72 13 85 -42 144 -97 104z m63 -31 c24 -52 8 -115
-29 -115 -37 0 -50 88 -18 127 17 20 35 16 47 -12z"/>
<path d="M680 3890 c-15 -15 -20 -33 -20 -72 0 -59 5 -70 38 -87 42 -22 82 18
82 84 0 81 -54 121 -100 75z m69 -35 c28 -58 -13 -129 -54 -95 -21 17 -19 94
1 115 21 21 36 15 53 -20z"/>
<path d="M802 3791 c4 -80 21 -87 28 -11 4 47 8 55 27 58 20 3 22 -2 25 -52 2
-31 7 -56 13 -56 5 0 8 20 6 43 -2 47 16 74 44 63 11 -4 15 -21 15 -61 0 -30
5 -55 10 -55 15 0 13 117 -2 127 -7 4 -48 8 -91 9 l-78 1 3 -66z"/>
<path d="M9495 3744 c-9 -9 -13 -24 -10 -35 5 -14 1 -19 -14 -19 -12 0 -21 -4
-21 -10 0 -6 30 -10 70 -10 40 0 70 4 70 10 0 6 -18 10 -39 10 -26 0 -41 5
-45 16 -10 25 2 34 45 34 21 0 39 5 39 10 0 16 -77 12 -95 -6z"/>
<path d="M11224 3741 c-2 -2 -4 -580 -4 -1283 l0 -1278 286 0 285 0 -2 565
c-1 311 -5 565 -10 565 -4 0 -5 9 -2 20 5 19 -1 20 -133 22 l-139 3 -5 694 -5
693 -133 2 c-74 0 -136 -1 -138 -3z"/>
<path d="M9547 3649 c-9 -6 -17 -19 -17 -29 0 -11 -7 -20 -15 -20 -18 0 -19
12 -3 28 6 6 8 15 5 19 -4 4 -15 -1 -25 -10 -20 -21 -7 -50 25 -55 16 -2 24 5
32 29 9 26 14 30 23 21 10 -10 10 -17 0 -33 -17 -27 -5 -40 14 -15 18 26 18
40 -4 59 -12 11 -22 13 -35 6z"/>
<path d="M9510 3549 c-22 -6 -20 -7 11 -8 66 -2 79 -51 14 -51 -19 0 -37 -4
-40 -10 -10 -16 81 -12 94 4 7 8 9 25 6 39 -7 27 -42 38 -85 26z"/>
<path d="M276 3463 c-36 -19 -37 -69 -1 -83 19 -7 25 -17 25 -40 0 -35 -14
-39 -30 -10 -6 11 -15 18 -21 15 -12 -8 8 -44 29 -52 9 -4 20 -11 24 -17 5 -7
8 -7 8 2 0 6 7 12 15 12 21 0 48 45 40 69 -3 10 -17 22 -30 25 -20 5 -25 13
-25 36 0 31 17 41 26 15 8 -19 24 -20 24 -1 0 8 -13 21 -29 29 -24 12 -32 12
-55 0z m24 -38 c0 -26 -14 -33 -25 -15 -9 14 1 40 15 40 5 0 10 -11 10 -25z
m38 -87 c-5 -32 -28 -35 -28 -4 0 17 5 26 16 26 10 0 14 -7 12 -22z"/>
<path d="M396 3439 c-12 -63 -9 -71 27 -64 40 8 68 -16 50 -43 -14 -23 -41
-27 -62 -8 -23 21 -36 8 -14 -16 20 -22 66 -24 87 -2 19 18 21 65 4 82 -7 7
-25 12 -40 12 -23 0 -28 4 -28 25 0 23 4 25 40 25 22 0 40 5 40 10 0 6 -22 10
-49 10 -46 0 -49 -1 -55 -31z"/>
<path d="M536 3448 c-23 -33 -21 -113 4 -138 25 -25 62 -26 85 0 24 26 24 114
0 140 -25 27 -70 26 -89 -2z m78 -35 c13 -46 -3 -97 -32 -101 -16 -3 -25 4
-32 23 -21 56 -3 118 32 113 15 -2 25 -13 32 -35z"/>
<path d="M676 3448 c-9 -12 -16 -43 -16 -68 0 -58 22 -90 60 -90 38 0 60 32
60 90 0 58 -22 90 -60 90 -18 0 -34 -8 -44 -22z m76 -35 c18 -69 -25 -133 -59
-87 -16 22 -17 78 -2 105 16 31 51 21 61 -18z"/>
<path d="M9495 3441 c-39 -6 -40 -7 -43 -48 l-3 -43 73 0 74 0 -4 38 c-2 20
-9 43 -14 50 -11 13 -18 13 -83 3z m13 -50 c-3 -30 -31 -36 -36 -8 -6 28 5 47
23 41 10 -4 15 -16 13 -33z m60 22 c14 -29 8 -48 -15 -51 -19 -3 -23 1 -23 26
0 43 22 58 38 25z"/>
<path d="M804 3421 c-2 -2 -4 -33 -4 -68 0 -48 3 -63 14 -63 11 0 16 15 18 53
3 45 6 52 26 55 21 3 22 0 22 -52 0 -31 5 -56 10 -56 6 0 10 10 11 23 2 61 6
79 19 87 24 15 40 -9 40 -61 0 -27 5 -49 10 -49 6 0 10 27 10 60 0 50 -3 61
-21 70 -11 7 -28 8 -37 4 -9 -4 -21 -6 -27 -4 -16 5 -86 6 -91 1z"/>
<path d="M9575 3250 c-3 -5 -1 -10 4 -10 6 0 11 5 11 10 0 6 -2 10 -4 10 -3 0
-8 -4 -11 -10z"/>
<path d="M9450 3214 c0 -8 18 -15 45 -20 62 -9 64 -20 5 -35 -27 -7 -50 -18
-50 -24 0 -6 23 -17 51 -24 56 -15 52 -23 -13 -35 -21 -4 -38 -11 -38 -16 0
-13 0 -13 76 6 37 10 63 21 61 28 -2 6 -26 18 -53 27 l-49 17 48 12 c44 12 65
25 54 36 -2 2 -34 13 -71 23 -51 14 -66 15 -66 5z"/>
<path d="M9204 3192 c3 -6 23 -16 44 -23 l37 -13 -40 -11 c-36 -11 -40 -15
-40 -46 0 -33 1 -33 45 -34 62 -1 75 9 20 15 -64 7 -66 33 -3 54 43 15 49 15
59 1 14 -19 24 -19 24 -1 0 13 -69 48 -124 62 -20 5 -27 3 -22 -4z"/>
<path d="M9203 3025 c0 -24 3 -25 54 -25 34 0 52 4 48 10 -3 6 -22 10 -41 10
-22 0 -37 6 -40 15 -9 23 -21 18 -21 -10z"/>
<path d="M272 3024 c-30 -21 -29 -59 3 -80 28 -18 35 -64 10 -64 -8 0 -15 7
-15 15 0 8 -6 15 -14 15 -22 0 -7 -40 20 -52 13 -6 24 -15 24 -20 0 -10 19 4
55 40 31 31 92 31 97 0 5 -32 28 -35 28 -4 0 18 5 26 18 26 16 1 16 1 0 14
-13 10 -18 27 -18 64 0 28 -4 53 -10 57 -5 3 -29 -24 -54 -61 -33 -49 -46 -62
-52 -51 -5 8 -19 19 -31 26 -15 7 -23 21 -23 36 0 27 9 32 28 13 6 -6 15 -8
19 -4 9 9 -33 46 -51 46 -6 0 -22 -7 -34 -16z m28 -39 c0 -26 -14 -33 -25 -15
-9 14 1 40 15 40 5 0 10 -11 10 -25z m150 -30 c0 -29 -4 -35 -21 -35 -11 0
-19 3 -17 8 21 42 32 62 35 62 1 0 3 -16 3 -35z m-112 -53 c2 -15 -2 -22 -12
-22 -11 0 -16 9 -16 26 0 31 23 28 28 -4z"/>
<path d="M545 3015 c-36 -35 -35 -112 0 -145 21 -20 30 -22 53 -14 53 19 64
133 15 170 -26 19 -41 17 -68 -11z m65 -24 c16 -30 12 -76 -9 -102 -16 -20
-21 -21 -35 -10 -37 31 -27 131 13 131 11 0 25 -9 31 -19z"/>
<path d="M695 3028 c-30 -17 -35 -28 -35 -85 0 -57 23 -93 58 -93 60 1 87 116
37 165 -27 28 -32 29 -60 13z m60 -61 c7 -34 -6 -80 -25 -92 -6 -4 -20 1 -31
11 -40 36 -12 147 31 124 11 -6 22 -25 25 -43z"/>
<path d="M8780 3005 c-6 -8 -9 -23 -5 -35 5 -16 2 -20 -14 -20 -12 0 -21 -4
-21 -10 0 -6 28 -10 64 -10 36 0 68 5 71 10 4 6 -5 10 -20 10 -34 0 -65 17
-65 35 0 11 12 15 45 15 25 0 45 5 45 10 0 16 -86 12 -100 -5z"/>
<path d="M9575 3010 c3 -5 8 -10 11 -10 2 0 4 5 4 10 0 6 -5 10 -11 10 -5 0
-7 -4 -4 -10z"/>
<path d="M11620 3005 c-7 -9 -9 -26 -5 -45 7 -30 7 -30 76 -30 39 0 69 4 69
10 0 6 -9 10 -20 10 -14 0 -20 7 -20 23 0 13 -5 28 -12 35 -17 17 -73 15 -88
-3z m68 -4 c25 -15 10 -46 -23 -46 -21 0 -31 5 -33 19 -4 18 13 36 33 36 6 0
16 -4 23 -9z"/>
<path d="M802 2922 c4 -86 26 -97 30 -15 3 50 6 58 23 58 17 0 20 -8 23 -57 3
-67 22 -79 22 -15 0 50 19 83 44 74 12 -5 16 -20 16 -62 0 -30 5 -55 10 -55
15 0 13 117 -2 127 -7 4 -48 8 -91 9 l-78 1 3 -65z"/>
<path d="M9466 2961 c-32 -36 -15 -91 35 -106 55 -18 112 34 90 81 -6 14 -9
30 -6 35 4 5 -10 9 -29 9 -34 0 -36 -2 -35 -32 1 -24 3 -27 6 -10 6 29 31 28
45 -3 19 -42 -25 -75 -76 -56 -30 12 -35 45 -10 72 8 9 11 20 6 23 -5 3 -17
-3 -26 -13z"/>
<path d="M10206 2964 c-18 -17 -18 -20 -10 -51 6 -20 13 -23 55 -23 27 0 49 5
49 10 0 6 -18 10 -39 10 -26 0 -41 5 -45 16 -10 25 2 34 45 34 21 0 39 5 39
10 0 16 -77 12 -94 -6z"/>
<path d="M9212 2958 c-36 -36 7 -88 62 -74 30 7 45 48 26 71 -18 21 -32 18
-19 -4 13 -20 6 -51 -11 -51 -5 0 -10 16 -10 35 0 27 -4 35 -18 35 -10 0 -23
-5 -30 -12z m28 -34 c0 -14 -4 -23 -10 -19 -5 3 -10 15 -10 26 0 10 5 19 10
19 6 0 10 -12 10 -26z"/>
<path d="M8825 2905 c-15 -48 -16 -48 -27 -37 -8 8 -8 15 3 28 12 14 11 16 -6
13 -24 -5 -31 -34 -15 -54 20 -24 41 -17 53 15 6 17 15 30 19 30 14 0 19 -20
8 -40 -7 -13 -7 -20 -1 -20 19 0 33 38 21 60 -13 23 -49 27 -55 5z"/>
<path d="M11615 2898 c-2 -7 -3 -39 -2 -70 l1 -58 53 0 c63 0 71 18 11 22 -35
2 -43 7 -43 23 0 16 8 21 45 24 l45 5 -45 5 c-32 4 -46 11 -48 24 -3 14 4 17
42 17 25 0 46 5 46 10 0 15 -100 13 -105 -2z"/>
<path d="M9160 2862 c0 -5 14 -21 30 -37 38 -36 38 -43 -2 -48 -18 -2 3 -4 47
-4 44 0 69 2 55 4 -51 10 -55 24 -13 59 44 39 27 46 -21 9 l-33 -25 -23 25
c-24 25 -40 32 -40 17z"/>
<path d="M10223 2853 c15 -2 39 -2 55 0 15 2 2 4 -28 4 -30 0 -43 -2 -27 -4z"/>
<path d="M7408 2823 c-48 -4 -48 -4 -48 -40 0 -27 -3 -34 -15 -30 -8 4 -17 2
-20 -3 -4 -6 23 -10 67 -9 57 1 65 3 38 8 -44 9 -60 18 -60 36 0 16 22 25 61
25 16 0 29 5 29 10 0 6 -1 9 -2 8 -2 -1 -24 -3 -50 -5z"/>
<path d="M10248 2823 c-41 -4 -49 -8 -54 -29 -7 -26 18 -65 33 -51 3 4 1 13
-5 19 -16 16 -15 38 2 38 9 0 16 -12 18 -27 2 -22 9 -29 31 -31 26 -3 27 -2
25 42 0 25 -2 45 -2 44 -1 -1 -22 -3 -48 -5z m39 -39 c3 -8 1 -20 -6 -27 -13
-13 -16 -10 -25 21 -6 16 -3 22 9 22 8 0 18 -7 22 -16z"/>
<path d="M8774 2812 c2 -4 22 -9 42 -10 71 -5 67 -49 -4 -55 -46 -3 -46 -3 9
-5 62 -2 71 5 62 51 -5 25 -9 27 -60 27 -30 0 -52 -4 -49 -8z"/>
<path d="M11615 2745 c6 -2 27 -6 48 -10 32 -5 38 -10 35 -28 -2 -18 -12 -23
-48 -28 -44 -7 -44 -7 10 -5 l55 1 0 38 1 37 -56 -1 c-30 0 -50 -2 -45 -4z"/>
<path d="M6649 2723 c-1 -10 -1 -26 0 -35 1 -10 -7 -18 -21 -21 -13 -2 10 -5
50 -6 39 0 72 3 72 8 0 4 -11 6 -24 4 -29 -6 -66 12 -66 32 0 14 14 19 70 28
14 3 1 5 -27 6 -44 1 -53 -2 -54 -16z"/>
<path d="M10177 2712 c-22 -24 -22 -75 -1 -93 9 -7 33 -14 54 -14 21 0 45 7
54 14 23 19 20 74 -4 96 -28 26 -36 11 -11 -21 24 -31 15 -60 -23 -70 -49 -12
-91 39 -59 71 8 8 13 20 11 26 -2 6 -11 2 -21 -9z"/>
<path d="M7373 2713 c-19 -7 -16 -60 3 -67 21 -8 33 0 44 30 10 25 30 33 30
11 0 -7 -5 -18 -12 -25 -17 -17 -2 -28 17 -12 18 15 20 41 3 58 -22 22 -46 13
-57 -20 -8 -24 -14 -29 -23 -20 -8 8 -8 15 2 27 14 17 11 25 -7 18z"/>
<path d="M9370 2675 l0 -45 -145 0 -145 0 0 -725 0 -725 285 0 285 0 0 770 0
770 -140 0 -140 0 0 -45z"/>
<path d="M8751 2697 c-6 -6 -11 -28 -11 -49 l0 -38 71 0 70 0 -3 48 -3 47 -57
1 c-31 1 -61 -3 -67 -9z m107 -35 c3 -27 0 -32 -17 -32 -16 0 -21 6 -21 28 0
53 33 56 38 4z m-60 -5 c3 -21 -1 -27 -16 -27 -26 0 -30 6 -24 36 6 34 36 28
40 -9z"/>
<path d="M11614 2635 c1 -23 4 -25 55 -25 59 0 64 9 10 15 -19 3 -39 11 -45
20 -16 22 -22 19 -20 -10z"/>
<path d="M6695 2625 c-15 -48 -16 -48 -27 -37 -8 8 -8 15 2 27 10 12 10 15 -3
15 -20 0 -26 -20 -16 -47 14 -37 59 -22 59 19 0 10 7 18 15 18 17 0 20 -25 5
-35 -13 -8 -13 -25 0 -25 18 0 31 39 20 60 -13 23 -49 27 -55 5z"/>
<path d="M7393 2610 c74 -14 77 -56 5 -63 -43 -3 -43 -4 8 -5 57 -2 69 9 58
54 -6 22 -11 24 -58 23 -50 -1 -51 -1 -13 -9z"/>
<path d="M7793 2613 c-8 -2 -13 -22 -13 -44 l0 -39 57 0 c62 0 64 16 3 22 -27
2 -36 8 -38 26 -3 20 1 22 43 22 28 0 44 4 40 10 -6 10 -70 13 -92 3z"/>
<path d="M284 2596 c-43 -24 -48 -70 -9 -88 18 -8 25 -19 25 -40 0 -31 -14
-37 -28 -12 -5 9 -15 14 -23 12 -10 -4 -4 -14 19 -36 32 -30 33 -30 62 -14 49
28 50 75 4 93 -17 6 -24 16 -24 34 0 25 14 33 25 15 9 -15 25 -12 25 4 0 23
-52 45 -76 32z m16 -46 c0 -11 -7 -20 -15 -20 -15 0 -21 21 -8 33 12 13 23 7
23 -13z m40 -85 c0 -16 -6 -25 -15 -25 -9 0 -15 9 -15 25 0 16 6 25 15 25 9 0
15 -9 15 -25z"/>
<path d="M400 2580 c-23 -23 -26 -40 -6 -40 8 0 18 9 21 20 7 23 37 26 54 6
15 -18 3 -46 -20 -46 -26 0 -24 -13 4 -25 32 -15 29 -49 -6 -53 -18 -2 -29 2
-33 12 -7 17 -34 22 -34 7 0 -20 33 -41 65 -41 42 0 73 37 57 67 -5 10 -7 33
-4 52 3 26 0 38 -14 48 -26 19 -61 16 -84 -7z"/>
<path d="M540 2580 c-14 -14 -20 -33 -20 -68 0 -59 21 -92 59 -92 51 0 79 57
60 123 -15 56 -62 74 -99 37z m74 -43 c12 -49 -2 -91 -32 -95 -23 -4 -42 28
-42 68 0 75 57 96 74 27z"/>
<path d="M680 2580 c-14 -14 -20 -33 -20 -68 0 -60 21 -92 60 -92 37 0 60 32
60 83 0 83 -53 124 -100 77z m73 -45 c11 -50 -5 -95 -32 -95 -25 0 -41 28 -41
70 0 78 58 98 73 25z"/>
<path d="M10200 2575 c-17 -21 -9 -47 22 -64 35 -20 78 -2 78 33 0 24 -26 54
-37 42 -4 -3 2 -12 12 -20 16 -12 17 -16 6 -30 -17 -20 -45 -21 -61 -1 -10 12
-10 19 -2 27 7 7 12 16 12 20 0 13 -17 9 -30 -7z"/>
<path d="M11574 2576 c-3 -8 -4 -31 -2 -52 3 -43 28 -61 28 -20 0 24 3 25 63
29 l62 3 -62 2 c-60 2 -63 3 -63 27 0 27 -17 34 -26 11z"/>
<path d="M7075 2571 c-3 -6 -4 -24 -3 -40 2 -31 3 -31 58 -30 30 1 44 3 30 6
-60 9 -70 14 -70 33 0 20 4 22 52 24 50 3 42 16 -10 16 -28 0 -53 -4 -57 -9z"/>
<path d="M800 2484 c0 -49 3 -64 14 -64 11 0 16 15 18 53 3 45 6 52 26 55 21
3 22 0 22 -52 0 -56 19 -81 21 -28 1 15 2 32 4 37 1 6 3 18 3 28 2 13 9 17 25
15 19 -3 22 -10 25 -55 4 -73 22 -67 22 6 0 70 0 69 -107 69 l-73 0 0 -64z"/>
<path d="M6683 2530 c21 -4 43 -12 49 -18 18 -18 -8 -40 -50 -45 -30 -3 -27
-4 15 -5 55 -2 64 6 55 56 -4 20 -10 22 -56 21 -50 -1 -51 -1 -13 -9z"/>
<path d="M7402 2511 c-7 -4 -23 -6 -36 -4 -30 6 -48 -18 -44 -59 l3 -33 68 -3
c59 -3 67 -1 68 15 0 10 2 26 4 36 2 10 -5 27 -16 38 -21 21 -28 23 -47 10z
m41 -33 c14 -22 1 -48 -23 -48 -15 0 -20 7 -20 28 0 44 22 54 43 20z m-65 -21
c3 -22 -1 -27 -17 -27 -15 0 -21 6 -21 23 0 46 33 49 38 4z"/>
<path d="M7803 2508 c-33 -16 -32 -65 1 -79 60 -28 115 33 66 73 -25 20 -35
21 -67 6z m55 -17 c25 -15 10 -46 -23 -46 -21 0 -31 5 -33 19 -4 18 13 36 33
36 6 0 16 -4 23 -9z"/>
<path d="M8860 2510 c0 -5 5 -10 10 -10 6 0 10 5 10 10 0 6 -4 10 -10 10 -5 0
-10 -4 -10 -10z"/>
<path d="M8742 2478 c3 -7 27 -17 54 -23 l49 -11 -40 -12 c-22 -7 -46 -12 -52
-12 -7 0 -13 -7 -13 -15 0 -13 55 -35 88 -35 30 0 -1 -18 -43 -24 -29 -5 -45
-12 -45 -21 0 -8 6 -13 13 -10 6 2 38 11 70 20 31 8 57 20 57 25 0 5 -20 15
-45 21 -25 6 -48 15 -50 19 -3 5 18 14 45 21 28 7 49 17 47 23 -2 6 -30 18
-63 28 -70 21 -77 22 -72 6z"/>
<path d="M10162 2473 c2 -10 22 -23 51 -32 26 -8 47 -17 47 -21 0 -3 -22 -14
-50 -24 -75 -27 -66 -46 20 -46 40 0 70 4 70 10 0 6 -24 10 -52 11 l-53 1 49
17 c28 9 51 22 53 28 2 6 -20 19 -49 30 l-53 18 53 3 c78 5 63 22 -19 22 -61
0 -70 -2 -67 -17z"/>
<path d="M7080 2466 c-18 -23 -8 -59 21 -75 24 -13 29 -13 53 2 28 19 35 54
14 75 -17 17 -73 15 -88 -2z m77 -22 c8 -23 -20 -47 -46 -39 -20 6 -28 34 -14
48 12 13 54 7 60 -9z"/>
<path d="M6686 2432 c-3 -5 -19 -7 -35 -4 -25 3 -31 0 -36 -21 -4 -14 -5 -36
-3 -48 3 -22 8 -24 71 -27 l67 -3 0 45 c0 35 -5 48 -19 56 -24 12 -38 13 -45
2z m47 -34 c14 -22 1 -48 -23 -48 -15 0 -20 7 -20 28 0 44 22 54 43 20z m-65
-21 c3 -22 -1 -27 -17 -27 -17 0 -21 6 -21 31 0 24 4 30 18 27 10 -2 18 -14
20 -31z"/>
<path d="M7768 2397 c-15 -12 -15 -14 5 -26 15 -10 22 -11 25 -2 2 6 24 11 48
11 32 0 44 4 44 15 0 8 -4 15 -10 15 -5 0 -10 -4 -10 -10 0 -5 -16 -10 -35
-10 -19 0 -35 5 -35 10 0 13 -11 12 -32 -3z"/>
<path d="M7052 2359 c-15 -5 -14 -7 3 -16 23 -12 117 -3 122 12 3 11 -96 14
-125 4z"/>
<path d="M7785 2341 c-3 -6 -4 -24 -3 -40 2 -23 7 -31 23 -32 11 0 29 -2 40
-5 11 -2 27 -1 35 3 9 4 -3 9 -30 12 -37 5 -46 10 -48 29 -3 20 1 22 37 22 22
0 43 5 46 10 4 6 -13 10 -44 10 -27 0 -52 -4 -56 -9z"/>
<path d="M7446 2321 c-4 -7 -5 -15 -2 -18 9 -9 19 4 14 18 -4 11 -6 11 -12 0z"/>
<path d="M7087 2309 c-11 -7 -17 -22 -17 -44 l0 -35 57 0 c62 0 64 16 3 22
-27 2 -35 7 -35 23 0 16 8 21 45 25 25 3 41 8 35 11 -16 10 -68 8 -88 -2z"/>
<path d="M5662 2288 c-7 -7 -12 -22 -12 -35 0 -45 91 -56 105 -13 9 27 -3 60
-21 60 -11 0 -12 -4 -3 -19 13 -20 6 -51 -11 -51 -5 0 -10 16 -10 35 0 27 -4
35 -18 35 -10 0 -23 -5 -30 -12z m31 -27 c5 -22 -1 -33 -14 -25 -12 7 -12 44
0 44 5 0 11 -9 14 -19z"/>
<path d="M6409 2271 c-6 -17 -15 -31 -20 -31 -13 0 -11 24 4 39 10 10 8 12 -8
9 -24 -4 -32 -33 -15 -53 20 -24 40 -17 51 15 6 17 15 30 20 30 13 0 11 -34
-3 -49 -11 -10 -9 -12 7 -9 15 2 20 11 20 38 0 29 -4 36 -23 38 -18 3 -25 -3
-33 -27z"/>
<path d="M3530 2270 c-6 -11 -8 -26 -4 -32 4 -6 6 -28 6 -50 l-2 -38 50 0 c28
0 50 4 50 8 0 4 -15 6 -33 4 -22 -2 -38 2 -46 12 -19 23 -6 34 33 29 19 -2 37
0 41 6 4 7 -6 11 -27 11 -42 0 -63 13 -55 34 4 11 19 16 47 16 22 0 40 5 40
10 0 6 -20 10 -45 10 -34 0 -47 -5 -55 -20z"/>
<path d="M7320 2282 c0 -6 17 -14 38 -18 66 -12 70 -21 17 -37 -28 -8 -49 -18
-47 -23 1 -5 20 -15 42 -22 51 -17 51 -28 1 -36 -22 -3 -43 -11 -47 -18 -5 -8
2 -9 26 -4 123 24 137 41 54 65 l-49 15 53 14 c82 23 66 44 -56 68 -20 4 -32
3 -32 -4z"/>
<path d="M8860 2280 c0 -5 5 -10 10 -10 6 0 10 5 10 10 0 6 -4 10 -10 10 -5 0
-10 -4 -10 -10z"/>
<path d="M5947 2243 c-4 -3 -7 -24 -7 -45 l0 -38 50 0 c28 0 50 5 50 10 0 6
-15 10 -34 10 -35 0 -63 21 -51 40 3 5 24 10 46 10 21 0 39 5 39 10 0 11 -83
14 -93 3z"/>
<path d="M6730 2230 c0 -5 5 -10 10 -10 6 0 10 5 10 10 0 6 -4 10 -10 10 -5 0
-10 -4 -10 -10z"/>
<path d="M7745 2230 c-3 -5 -1 -10 4 -10 6 0 11 5 11 10 0 6 -2 10 -4 10 -3 0
-8 -4 -11 -10z"/>
<path d="M7785 2230 c-4 -6 15 -10 50 -10 35 0 54 4 50 10 -3 6 -26 10 -50 10
-24 0 -47 -4 -50 -10z"/>
<path d="M8752 2228 c-7 -7 -12 -27 -12 -44 0 -62 79 -86 126 -39 19 19 23 31
18 48 -4 12 -7 28 -7 35 0 7 -15 12 -39 12 -34 0 -38 -3 -38 -24 0 -14 5 -28
10 -31 6 -3 10 3 10 14 0 26 26 28 38 4 16 -30 -3 -63 -37 -63 -47 0 -61 10
-61 40 0 16 5 32 10 35 12 7 13 25 2 25 -4 0 -13 -5 -20 -12z"/>
<path d="M2393 2210 c1 -17 8 -20 55 -20 29 0 51 4 48 8 -3 5 -18 7 -34 4 -18
-2 -33 2 -41 12 -18 22 -30 20 -28 -4z"/>
<path d="M8502 2218 c-19 -19 -14 -46 13 -64 47 -31 97 4 80 56 -3 11 -13 20
-21 20 -11 0 -12 -4 -3 -19 13 -20 5 -56 -11 -46 -5 3 -10 19 -10 36 0 31 -25
40 -48 17z m25 -45 c-4 -17 -4 -17 -12 0 -4 9 -4 25 0 35 8 16 8 16 12 0 3
-10 3 -26 0 -35z"/>
<path d="M2815 2210 c-3 -4 11 -14 30 -20 43 -14 45 -26 5 -35 -31 -7 -51 -25
-27 -25 7 0 35 7 61 16 45 15 48 15 61 -2 12 -16 14 -17 15 -3 0 9 -6 21 -12
26 -25 18 -127 52 -133 43z"/>
<path d="M6610 2201 c0 -4 24 -15 53 -23 l52 -15 -49 -15 c-28 -8 -51 -19 -53
-25 -2 -6 17 -16 42 -23 25 -7 45 -16 45 -21 0 -4 -20 -11 -45 -15 -25 -3 -45
-11 -45 -16 0 -6 13 -8 32 -4 120 24 134 41 52 65 l-49 15 53 15 c28 9 52 21
52 27 0 6 -29 19 -65 28 -75 19 -75 19 -75 7z"/>
<path d="M5237 2193 c-4 -3 -7 -21 -7 -40 l0 -33 57 0 c63 0 67 7 8 15 -71 9
-65 51 8 58 41 3 40 4 -9 5 -28 1 -54 -1 -57 -5z"/>
<path d="M6330 2190 c0 -5 5 -10 10 -10 6 0 10 5 10 10 0 6 -4 10 -10 10 -5 0
-10 -4 -10 -10z"/>
<path d="M6365 2190 c-4 -6 15 -10 50 -10 35 0 54 4 50 10 -3 6 -26 10 -50 10
-24 0 -47 -4 -50 -10z"/>
<path d="M7098 2193 c18 -2 45 -2 60 0 15 2 0 4 -33 4 -33 0 -45 -2 -27 -4z"/>
<path d="M7740 2190 c0 -6 30 -10 69 -10 39 0 73 5 76 10 4 6 -22 10 -69 10
-44 0 -76 -4 -76 -10z"/>
<path d="M5615 2180 c8 -12 133 -11 141 1 3 5 -29 9 -71 9 -49 0 -74 -4 -70
-10z"/>
<path d="M273 2153 c-31 -21 -29 -58 2 -79 15 -10 25 -26 25 -40 0 -30 -20
-42 -27 -15 -5 22 -18 27 -27 13 -7 -12 22 -52 39 -52 7 0 16 -6 18 -12 4 -10
6 -10 6 0 1 6 8 12 16 12 21 0 48 45 41 68 -4 10 -18 24 -31 30 -17 8 -25 20
-25 37 0 27 17 34 26 10 8 -19 24 -20 24 -1 0 13 -42 47 -57 45 -4 0 -18 -7
-30 -16z m27 -38 c0 -26 -14 -33 -25 -15 -9 14 1 40 15 40 5 0 10 -11 10 -25z
m35 -83 c0 -31 -19 -28 -23 4 -3 18 0 25 10 22 7 -3 13 -14 13 -26z"/>
<path d="M7836 2162 c-3 -5 4 -16 15 -26 26 -22 21 -46 -12 -65 -24 -13 -29
-13 -53 2 -30 20 -33 43 -9 69 13 15 14 18 2 18 -39 0 -53 -64 -21 -92 28 -24
53 -29 88 -18 36 12 49 38 40 75 -7 26 -41 51 -50 37z"/>
<path d="M396 2138 c-20 -28 -20 -38 -2 -38 7 0 16 9 19 20 6 22 39 27 55 8
11 -14 -1 -58 -17 -58 -16 0 -71 -57 -71 -74 0 -13 12 -16 60 -16 33 0 60 4
60 10 0 6 -20 10 -45 10 -25 0 -45 4 -45 9 0 5 19 22 43 38 67 46 62 113 -9
113 -23 0 -38 -7 -48 -22z"/>
<path d="M536 2138 c-23 -33 -21 -113 4 -138 69 -69 147 68 82 143 -22 24 -67
22 -86 -5z m78 -35 c22 -78 -39 -144 -63 -70 -11 31 -7 76 6 100 12 20 48 1
57 -30z"/>
<path d="M676 2138 c-23 -33 -21 -113 4 -138 47 -47 100 -6 100 77 0 51 -23
83 -60 83 -18 0 -34 -8 -44 -22z m75 -25 c15 -40 0 -107 -25 -111 -39 -8 -62
70 -36 119 16 28 49 24 61 -8z"/>
<path d="M2408 2149 c-21 -12 -24 -49 -6 -67 7 -7 26 -12 43 -12 17 0 36 5 43
12 17 17 15 53 -3 68 -20 17 -32 5 -15 -15 13 -16 7 -45 -10 -45 -5 0 -10 16
-10 35 0 37 -11 43 -42 24z m30 -31 c-2 -13 -7 -23 -13 -23 -5 0 -11 10 -13
23 -2 15 2 22 13 22 11 0 15 -7 13 -22z"/>
<path d="M5700 2151 c-44 -6 -45 -7 -45 -41 0 -27 5 -36 20 -38 16 -3 18 -1 8
9 -15 15 -17 49 -4 49 5 0 12 -13 16 -29 7 -33 31 -47 51 -30 12 10 16 91 4
87 -3 0 -25 -4 -50 -7z m38 -50 c3 -16 -1 -22 -10 -19 -7 3 -15 15 -16 27 -3
16 1 22 10 19 7 -3 15 -15 16 -27z"/>
<path d="M6360 2153 c0 -4 10 -17 22 -30 l21 -23 -36 0 c-20 0 -37 -4 -37 -10
0 -6 28 -10 64 -10 36 0 68 5 71 10 3 6 -3 10 -14 10 -31 0 -35 19 -7 32 14 6
26 15 26 20 0 11 -7 10 -39 -7 -26 -13 -30 -13 -41 0 -13 16 -30 20 -30 8z"/>
<path d="M7073 2153 c20 -2 54 -2 75 0 20 2 3 4 -38 4 -41 0 -58 -2 -37 -4z"/>
<path d="M5990 2141 c-40 -5 -45 -9 -48 -35 -2 -16 1 -33 7 -39 16 -16 26 0
12 17 -7 8 -10 20 -6 26 11 18 25 11 25 -14 0 -32 26 -53 48 -39 11 7 17 24
18 52 0 22 -2 40 -5 39 -3 0 -26 -4 -51 -7z m38 -49 c2 -15 -2 -22 -12 -22
-11 0 -16 9 -16 26 0 31 23 28 28 -4z"/>
<path d="M8494 2118 c2 -19 10 -24 46 -26 23 -2 48 2 53 7 8 8 -1 11 -31 11
-29 0 -45 5 -48 15 -9 23 -24 18 -20 -7z"/>
<path d="M7046 2114 c-22 -21 -20 -60 4 -84 43 -43 130 -13 130 43 0 26 -28
57 -50 57 -9 0 -6 -7 8 -20 26 -25 28 -43 6 -64 -30 -30 -94 -10 -94 29 0 7 7
20 15 29 8 8 15 17 15 20 0 11 -19 6 -34 -10z"/>
<path d="M800 2048 c0 -54 3 -68 15 -68 11 0 15 12 15 49 0 49 18 79 40 66 5
-3 10 -31 10 -61 0 -30 5 -54 10 -54 6 0 10 19 10 43 0 50 19 83 44 74 12 -5
16 -20 16 -62 0 -32 4 -55 10 -55 7 0 10 23 8 61 -3 67 -19 89 -54 74 -11 -4
-23 -7 -29 -5 -5 2 -29 4 -52 5 l-43 2 0 -69z"/>
<path d="M2840 2107 c-58 -29 -5 -106 54 -79 19 9 26 19 26 41 0 16 -5 33 -11
36 -17 11 -23 -3 -9 -20 11 -13 11 -19 -3 -32 -17 -17 -19 -14 -29 49 -3 15
-6 16 -28 5z m20 -36 c0 -26 -16 -35 -24 -15 -10 25 -7 34 9 34 8 0 15 -9 15
-19z"/>
<path d="M3536 2105 c-20 -21 -20 -39 0 -59 18 -19 65 -21 82 -4 15 15 16 64
1 73 -17 11 -23 -3 -9 -20 13 -16 7 -45 -9 -45 -5 0 -11 15 -13 32 -3 38 -27
48 -52 23z m34 -30 c0 -26 -14 -33 -25 -15 -9 14 1 40 15 40 5 0 10 -11 10
-25z"/>
<path d="M5282 2093 c-47 -5 -58 -18 -48 -58 9 -36 27 -31 20 5 -4 17 -2 30 4
30 5 0 12 -14 16 -31 5 -26 10 -30 33 -27 26 3 28 7 29 46 0 23 -2 41 -5 40
-3 -1 -25 -3 -49 -5z m36 -45 c-2 -13 -7 -23 -13 -23 -5 0 -11 10 -13 23 -2
15 2 22 13 22 11 0 15 -7 13 -22z"/>
<path d="M1400 2081 c0 -5 17 -15 38 -22 l37 -13 -37 -14 c-21 -8 -38 -19 -38
-24 0 -10 23 -5 77 17 27 11 34 11 44 -1 16 -20 32 -18 21 2 -5 10 -31 25 -58
36 -75 28 -84 30 -84 19z"/>
<path d="M7440 2080 c0 -5 5 -10 10 -10 6 0 10 5 10 10 0 6 -4 10 -10 10 -5 0
-10 -4 -10 -10z"/>
<path d="M6435 2063 c-72 -9 -76 -12 -73 -46 2 -23 9 -33 23 -35 16 -3 18 -1
8 9 -7 7 -13 21 -13 32 0 28 25 15 28 -15 3 -28 23 -41 47 -32 10 4 14 19 13
50 -1 24 -2 43 -3 43 0 -1 -13 -4 -30 -6z m13 -52 c3 -16 -1 -22 -10 -19 -7 3
-15 15 -16 27 -3 16 1 22 10 19 7 -3 15 -15 16 -27z"/>
<path d="M8508 2059 c-26 -15 -22 -56 6 -75 22 -13 29 -14 53 -2 17 8 29 23
31 38 6 41 -48 64 -90 39z m70 -33 c4 -20 -13 -36 -41 -36 -20 0 -32 23 -23
46 8 22 60 15 64 -10z"/>
<path d="M2390 2050 c0 -5 -8 -10 -17 -11 -14 0 -15 -2 -3 -6 8 -3 18 -11 22
-17 5 -8 11 -7 20 2 6 6 29 12 50 12 27 0 38 4 38 15 0 8 -4 15 -10 15 -5 0
-10 -4 -10 -10 0 -5 -13 -10 -29 -10 -17 0 -33 5 -36 10 -3 6 -10 10 -16 10
-5 0 -9 -4 -9 -10z"/>
<path d="M5615 2040 c3 -5 13 -10 21 -10 8 0 14 -10 14 -23 0 -30 18 -47 48
-47 43 0 62 17 59 55 l-2 35 -73 0 c-46 0 -71 -4 -67 -10z m122 -26 c4 -11 -1
-22 -12 -30 -24 -18 -30 -17 -50 2 -12 12 -13 19 -4 30 16 19 58 18 66 -2z"/>
<path d="M2112 2027 c-6 -7 -10 -26 -8 -42 3 -27 6 -28 50 -28 26 0 50 3 53 7
4 3 -10 6 -29 6 -37 0 -65 21 -53 40 3 5 24 10 46 10 21 0 39 5 39 10 0 15
-86 12 -98 -3z"/>
<path d="M3822 2028 c-7 -7 -12 -27 -12 -45 l0 -33 56 0 c34 0 53 4 49 10 -3
6 -24 10 -46 10 -36 0 -40 2 -37 23 2 18 10 23 46 25 23 2 40 7 37 13 -9 13
-79 11 -93 -3z"/>
<path d="M4945 2018 c1 -20 8 -23 45 -26 23 -2 48 2 53 7 8 8 0 11 -25 11 -20
0 -43 7 -52 15 -20 20 -23 19 -21 -7z"/>
<path d="M5942 1998 c3 -41 4 -43 39 -46 43 -4 73 20 64 49 -4 11 -2 19 5 19
17 0 23 -29 10 -45 -17 -20 -5 -32 15 -15 20 17 19 43 -3 63 -13 12 -37 17
-76 17 l-57 0 3 -42z m86 0 c2 -11 -6 -22 -23 -30 -21 -10 -29 -9 -42 5 -14
13 -14 19 -3 32 17 21 64 16 68 -7z"/>
<path d="M7345 2031 c26 -5 30 -10 30 -41 0 -31 -3 -35 -28 -38 -15 -2 -25 -8
-22 -13 8 -12 135 -12 135 1 0 6 -14 10 -31 10 -29 0 -30 2 -27 37 3 33 7 39
33 44 18 4 1 7 -45 7 -47 0 -64 -3 -45 -7z"/>
<path d="M2820 1998 c0 -27 2 -28 50 -28 28 0 50 5 50 10 0 6 -18 10 -40 10
-27 0 -42 6 -49 18 -9 14 -10 13 -11 -10z"/>
<path d="M3530 2012 c0 -6 17 -16 38 -23 l37 -12 -34 -12 c-19 -6 -37 -17 -39
-24 -3 -8 1 -11 9 -8 8 3 31 11 52 18 20 7 37 17 37 24 0 7 -17 17 -37 24 -21
7 -44 15 -50 17 -7 3 -13 1 -13 -4z"/>
<path d="M6730 2000 c0 -5 5 -10 10 -10 6 0 10 5 10 10 0 6 -4 10 -10 10 -5 0
-10 -4 -10 -10z"/>
<path d="M2440 1991 c-37 -5 -46 -10 -48 -29 -4 -25 15 -55 29 -46 5 3 3 14
-3 24 -10 15 -10 22 -1 31 9 9 14 4 20 -22 7 -27 14 -34 34 -34 21 0 24 5 25
43 1 23 -1 41 -5 40 -3 0 -26 -4 -51 -7z m38 -40 c3 -16 -1 -22 -10 -19 -7 3
-15 15 -16 27 -3 16 1 22 10 19 7 -3 15 -15 16 -27z"/>
<path d="M1360 1980 c0 -5 9 -10 21 -10 16 0 19 -4 14 -20 -9 -29 12 -50 51
-50 36 0 68 25 60 47 -3 8 -6 21 -6 29 0 11 -16 14 -70 14 -40 0 -70 -4 -70
-10z m124 -27 c7 -18 -16 -43 -40 -43 -18 0 -35 26 -28 44 8 22 60 21 68 -1z"/>
<path d="M5232 1959 c-3 -40 13 -59 49 -59 34 0 62 26 56 51 -3 11 -1 19 4 19
16 0 22 -29 10 -44 -7 -9 -8 -17 -3 -20 19 -11 36 24 26 52 -9 25 -14 27 -75
30 l-65 3 -2 -32z m86 -13 c-3 -24 -56 -36 -68 -15 -18 27 13 50 53 41 12 -3
17 -12 15 -26z"/>
<path d="M8660 1845 l0 -145 -140 0 -140 0 0 -260 0 -260 280 0 280 0 0 405 0
405 -140 0 -140 0 0 -145z"/>
<path d="M4238 1945 c4 -22 9 -25 48 -25 23 0 46 5 49 10 4 6 -8 10 -28 10
-19 0 -40 7 -47 15 -19 22 -28 18 -22 -10z"/>
<path d="M4956 1954 c-34 -33 -12 -74 39 -74 17 0 36 5 43 12 17 17 15 53 -4
69 -14 11 -15 9 -9 -24 6 -30 4 -37 -9 -37 -12 0 -16 9 -16 35 0 39 -17 46
-44 19z m29 -44 c-3 -6 -10 -10 -16 -10 -10 0 -12 33 -2 44 9 9 26 -22 18 -34z"/>
<path d="M6360 1955 c0 -5 10 -19 22 -32 l21 -23 -36 0 c-20 0 -37 -4 -37 -10
0 -6 30 -10 70 -10 40 0 70 4 70 10 0 6 -12 10 -27 10 l-28 1 30 24 c36 30 27
43 -14 19 -29 -17 -31 -17 -51 1 -11 10 -20 14 -20 10z"/>
<path d="M6635 1951 c26 -5 30 -10 30 -41 0 -31 -3 -35 -27 -38 -56 -7 -26
-22 42 -22 40 0 70 4 70 10 0 6 -14 10 -31 10 -29 0 -30 2 -27 37 3 33 7 39
33 44 18 4 1 7 -45 7 -47 0 -64 -3 -45 -7z"/>
<path d="M7865 1950 c-3 -5 1 -10 10 -10 9 0 13 5 10 10 -3 6 -8 10 -10 10 -2
0 -7 -4 -10 -10z"/>
<path d="M8070 1940 c-25 -46 37 -87 85 -56 14 9 25 22 25 29 0 19 -27 53 -36
45 -4 -4 -2 -14 5 -21 6 -8 9 -22 5 -31 -11 -28 -24 -17 -24 19 0 31 -3 35
-25 35 -14 0 -29 -8 -35 -20z m40 -25 c0 -26 -14 -33 -25 -15 -9 14 1 40 15
40 5 0 10 -11 10 -25z"/>
<path d="M8520 1930 c0 -16 5 -30 10 -30 6 0 10 9 10 20 0 23 10 26 28 8 31
-31 3 -78 -46 -78 -21 0 -52 29 -52 50 0 7 7 22 17 32 15 16 15 18 0 18 -19 0
-37 -29 -37 -59 0 -26 46 -61 81 -61 45 0 70 32 67 85 -3 45 -3 45 -40 45 -36
0 -38 -2 -38 -30z"/>
<path d="M2820 1935 c-7 -8 -10 -24 -7 -35 4 -15 0 -20 -14 -20 -10 0 -19 -4
-19 -10 0 -6 30 -10 70 -10 76 0 97 17 28 22 -35 2 -43 7 -43 23 0 16 8 21 43
23 23 2 42 7 42 13 0 15 -86 11 -100 -6z"/>
<path d="M5700 1941 c-44 -6 -45 -7 -48 -43 l-3 -38 57 0 c61 0 67 14 7 16
-19 1 -40 7 -46 13 -17 17 7 34 48 33 25 -1 35 3 35 13 0 8 -1 14 -2 13 -2 0
-23 -4 -48 -7z"/>
<path d="M2116 1921 c-23 -26 -17 -52 16 -70 38 -22 78 -2 78 38 0 49 -61 69
-94 32z m74 -16 c10 -12 10 -18 0 -30 -25 -30 -80 -5 -66 30 7 19 50 19 66 0z"/>
<path d="M6028 1934 c-4 -3 -21 -7 -40 -9 -18 -2 -36 -4 -40 -4 -14 -2 -8 -58
7 -71 12 -10 15 -10 15 2 0 8 -5 19 -12 26 -9 9 -9 15 0 24 9 9 13 7 17 -8 11
-35 22 -49 40 -52 23 -5 32 11 30 54 -2 36 -8 48 -17 38z m0 -52 c2 -15 -2
-22 -12 -22 -11 0 -16 9 -16 26 0 31 23 28 28 -4z"/>
<path d="M3554 1920 c-30 -12 -37 -39 -19 -66 27 -42 95 -27 95 21 0 40 -36
61 -76 45z m55 -24 c24 -29 -17 -64 -53 -44 -19 11 -21 29 -4 46 16 16 43 15
57 -2z"/>
<path d="M3822 1918 c-16 -16 -15 -53 2 -67 8 -7 30 -11 48 -9 39 4 61 45 38
72 -15 19 -71 21 -88 4z m59 -8 c24 -14 24 -36 0 -50 -27 -14 -51 -2 -51 25 0
20 8 29 28 34 2 1 12 -4 23 -9z"/>
<path d="M7155 1910 c3 -5 10 -10 16 -10 5 0 9 5 9 10 0 6 -7 10 -16 10 -8 0
-12 -4 -9 -10z"/>
<path d="M7822 1911 c-7 -4 -23 -6 -36 -4 -30 6 -48 -18 -44 -59 l3 -33 70 0
70 0 3 37 c2 28 -2 40 -20 52 -26 18 -28 19 -46 7z m46 -49 c3 -29 1 -32 -22
-32 -22 0 -26 5 -26 28 0 33 8 44 30 40 9 -2 16 -16 18 -36z m-68 -2 c0 -23
-4 -30 -20 -30 -16 0 -20 7 -20 30 0 23 4 30 20 30 16 0 20 -7 20 -30z"/>
<path d="M2394 1891 c4 -6 16 -11 26 -11 32 0 32 -17 -1 -29 -36 -13 -32 -26
13 -36 l33 -7 -37 -10 c-47 -12 -51 -33 -5 -23 84 19 100 38 40 50 l-38 8 32
11 c44 15 50 24 22 34 -47 18 -92 25 -85 13z"/>
<path d="M4246 1884 c-9 -8 -16 -22 -16 -29 0 -37 70 -61 98 -33 17 17 15 53
-5 69 -15 12 -16 12 -9 -6 8 -22 9 -25 7 -42 -3 -30 -21 -10 -21 22 0 28 -4
35 -19 35 -11 0 -27 -7 -35 -16z m34 -35 c0 -20 -15 -26 -25 -9 -9 15 3 43 15
35 5 -3 10 -15 10 -26z"/>
<path d="M7440 1890 c0 -5 5 -10 10 -10 6 0 10 5 10 10 0 6 -4 10 -10 10 -5 0
-10 -4 -10 -10z"/>
<path d="M3112 1878 c-7 -7 -12 -27 -12 -45 l0 -33 55 0 c65 0 74 17 13 22
-35 2 -43 7 -43 23 0 16 8 21 43 23 23 2 40 7 37 13 -9 13 -79 11 -93 -3z"/>
<path d="M5280 1881 c-43 -6 -45 -7 -45 -40 0 -21 6 -36 14 -39 10 -3 12 0 7
14 -12 30 -12 36 2 41 7 3 12 -5 12 -21 0 -29 29 -49 51 -36 13 9 23 92 10 88
-3 0 -26 -4 -51 -7z m38 -50 c3 -16 -1 -22 -10 -19 -7 3 -15 15 -16 27 -3 16
1 22 10 19 7 -3 15 -15 16 -27z"/>
<path d="M1406 1865 c-22 -22 -20 -41 6 -59 31 -22 61 -20 83 4 15 17 16 24 7
45 -6 14 -16 25 -22 25 -13 0 -13 -13 1 -27 13 -13 5 -43 -10 -43 -5 0 -11 15
-13 32 -3 38 -27 48 -52 23z m34 -30 c0 -14 -4 -25 -9 -25 -12 0 -23 29 -15
41 10 18 24 9 24 -16z"/>
<path d="M7039 1852 c-6 -14 -9 -35 -7 -46 3 -19 11 -21 76 -24 l72 -3 0 39
c0 50 -13 60 -78 60 -48 0 -54 -3 -63 -26z m49 -25 c3 -22 -1 -27 -17 -27 -15
0 -21 6 -21 23 0 46 33 49 38 4z m70 0 c3 -23 0 -27 -22 -27 -21 0 -26 5 -26
23 0 13 3 27 7 31 15 14 38 0 41 -27z"/>
<path d="M4935 1854 c-16 -12 -17 -16 -6 -23 7 -5 14 -20 14 -35 0 -25 2 -26
53 -26 64 0 73 17 12 22 -31 2 -44 8 -46 20 -3 13 6 17 40 20 34 2 44 7 46 23
3 16 1 18 -9 8 -15 -15 -76 -17 -81 -4 -1 5 -12 3 -23 -5z"/>
<path d="M6360 1851 c0 -6 19 -11 43 -13 34 -2 42 -7 42 -23 0 -16 -8 -21 -42
-23 -24 -2 -43 -7 -43 -13 0 -11 80 -12 97 -1 7 4 12 25 11 45 l-1 37 -54 0
c-29 0 -53 -4 -53 -9z"/>
<path d="M7423 1853 c-27 -4 -33 -9 -33 -29 0 -13 5 -24 10 -24 6 0 10 7 10
15 0 8 7 15 15 15 20 0 30 -46 15 -65 -15 -18 -71 -20 -88 -3 -17 17 -15 55 4
66 10 6 13 12 6 16 -17 10 -42 -23 -42 -54 0 -18 8 -34 22 -44 54 -38 137 -3
123 52 -3 15 -6 35 -6 45 0 9 -1 16 -2 15 -1 0 -17 -3 -34 -5z"/>
<path d="M8030 1840 c0 -6 30 -10 70 -10 40 0 70 4 70 10 0 6 -30 10 -70 10
-40 0 -70 -4 -70 -10z"/>
<path d="M2821 1826 c-6 -7 -8 -27 -5 -45 l7 -31 68 0 c39 0 69 4 69 10 0 6
-9 10 -20 10 -14 0 -20 7 -20 23 0 13 -5 28 -12 35 -16 16 -73 15 -87 -2z m74
-10 c17 -12 17 -16 5 -30 -18 -22 -64 -17 -68 8 -7 33 31 46 63 22z"/>
<path d="M4485 1830 c-4 -6 4 -10 18 -10 20 0 23 -4 19 -29 -5 -33 8 -44 50
-43 41 1 59 19 55 56 -3 31 -4 31 -69 34 -39 2 -69 -2 -73 -8z m123 -34 c4
-20 -13 -36 -41 -36 -20 0 -32 23 -23 46 8 22 60 15 64 -10z"/>
<path d="M5662 1828 c-17 -17 -15 -53 3 -68 35 -29 95 -7 95 36 0 38 -69 61
-98 32z m78 -31 c0 -16 -20 -37 -36 -37 -19 0 -44 29 -38 45 11 28 74 21 74
-8z"/>
<path d="M2112 1818 c-16 -16 -15 -43 3 -58 20 -17 43 -6 51 25 3 14 12 25 20
25 17 0 18 -22 2 -38 -6 -6 -9 -15 -5 -19 13 -12 29 14 25 43 -2 21 -9 30 -26
32 -18 3 -25 -3 -34 -28 -7 -22 -14 -28 -21 -21 -7 7 -6 15 2 25 15 17 -1 30
-17 14z"/>
<path d="M3887 1813 c-14 -15 -21 -15 -37 -5 -30 19 -46 15 -26 -7 15 -16 15
-19 1 -31 -25 -21 -17 -34 10 -16 23 15 27 15 50 0 33 -22 47 -8 16 15 l-24
19 21 11 c12 6 22 16 22 21 0 15 -14 12 -33 -7z"/>
<path d="M1691 1807 c-6 -7 -9 -28 -8 -45 2 -32 3 -32 55 -32 62 0 70 18 10
22 -35 2 -43 7 -43 23 0 16 8 21 43 23 23 2 42 7 42 13 0 14 -86 11 -99 -4z"/>
<path d="M5944 1806 c-11 -30 1 -60 26 -66 34 -9 59 -1 71 21 11 21 -3 59 -22
59 -6 0 -6 -8 1 -21 12 -22 7 -49 -10 -49 -5 0 -10 16 -10 35 0 31 -3 35 -25
35 -14 0 -28 -6 -31 -14z m36 -28 c0 -30 -1 -31 -17 -16 -13 14 -14 20 -3 32
18 22 20 20 20 -16z"/>
<path d="M6730 1810 c0 -5 5 -10 10 -10 6 0 10 5 10 10 0 6 -4 10 -10 10 -5 0
-10 -4 -10 -10z"/>
<path d="M8075 1796 c-13 -19 -14 -29 -5 -45 6 -12 18 -21 26 -21 8 0 12 -4 9
-10 -3 -5 -14 -10 -24 -10 -28 0 -51 -33 -51 -74 l0 -37 73 3 72 3 -3 35 c-2
22 -12 43 -27 57 -24 21 -24 22 -5 28 56 18 39 95 -20 95 -20 0 -35 -8 -45
-24z m75 -11 c15 -18 -2 -45 -30 -45 -10 0 -23 7 -30 15 -15 18 2 45 30 45 10
0 23 -7 30 -15z m-16 -101 c10 -4 16 -18 16 -40 l0 -34 -50 0 -50 0 0 34 c0
19 6 37 13 39 18 8 53 8 71 1z"/>
<path d="M3512 1803 c-7 -3 -17 -16 -22 -29 -22 -57 48 -110 107 -82 25 12 28
19 28 66 l1 52 -38 0 c-36 0 -38 -2 -38 -30 0 -16 5 -30 10 -30 6 0 10 9 10
20 0 24 22 26 40 5 10 -12 10 -21 1 -41 -10 -22 -16 -25 -54 -22 -38 3 -42 6
-45 31 -2 16 2 35 9 43 14 17 10 23 -9 17z"/>
<path d="M4226 1785 c-17 -13 -17 -15 -2 -30 9 -9 16 -25 16 -36 0 -16 7 -19
50 -19 61 0 67 18 8 22 -31 2 -44 8 -46 20 -3 13 6 17 40 20 34 2 44 7 46 23
3 16 1 18 -9 8 -15 -15 -76 -17 -81 -4 -1 5 -11 3 -22 -4z"/>
<path d="M3122 1774 c-24 -17 -29 -53 -10 -72 7 -7 26 -12 43 -12 37 0 55 15
55 46 0 22 -33 54 -55 54 -6 0 -21 -7 -33 -16z m58 -19 c19 -23 4 -47 -27 -43
-31 3 -44 35 -21 49 19 13 34 11 48 -6z"/>
<path d="M1406 1764 c-18 -17 -18 -20 -10 -51 6 -20 13 -23 55 -23 27 0 49 5
49 10 0 6 -18 10 -39 10 -26 0 -41 5 -45 16 -10 25 2 34 45 34 21 0 39 5 39
10 0 16 -77 12 -94 -6z"/>
<path d="M5248 1769 c-21 -11 -24 -49 -6 -67 7 -7 27 -12 45 -12 25 0 36 6 44
24 12 26 -4 71 -22 60 -6 -4 -6 -11 2 -20 12 -15 6 -44 -10 -44 -5 0 -11 14
-13 32 -3 35 -14 42 -40 27z m22 -34 c0 -14 -4 -25 -9 -25 -12 0 -19 21 -13
38 8 21 22 13 22 -13z"/>
<path d="M6627 1759 c-26 -15 -23 -74 5 -93 26 -18 71 -21 99 -5 16 8 20 19
18 60 l-3 49 -38 0 c-34 0 -38 -3 -38 -25 0 -30 16 -33 23 -5 6 24 33 17 42
-11 10 -32 -12 -59 -48 -59 -18 0 -38 5 -45 12 -15 15 -15 51 0 66 16 16 7 23
-15 11z"/>
<path d="M2360 1749 c0 -5 8 -9 18 -9 15 0 18 -6 14 -30 -4 -25 0 -31 23 -40
43 -16 80 6 80 50 l0 35 -67 2 c-38 1 -68 -2 -68 -8z m118 -33 c4 -20 -13 -36
-41 -36 -20 0 -32 23 -23 46 8 22 60 15 64 -10z"/>
<path d="M6352 1744 c-17 -12 -22 -25 -22 -60 l0 -44 70 0 70 0 0 38 c0 43 -6
55 -37 71 -30 15 -54 14 -81 -5z m79 -14 c12 -7 19 -21 19 -40 0 -30 -1 -30
-55 -30 -52 0 -55 2 -55 24 0 47 46 70 91 46z"/>
<path d="M4990 1741 c-37 -5 -46 -10 -48 -29 -4 -24 13 -52 31 -52 7 0 7 4 -1
12 -15 15 -16 48 -2 48 6 0 13 -13 16 -29 7 -33 30 -47 50 -30 12 10 16 91 4
87 -3 0 -25 -4 -50 -7z m38 -49 c4 -25 -13 -30 -22 -6 -9 25 -7 36 7 32 6 -3
13 -14 15 -26z"/>
<path d="M4524 1718 c2 -19 10 -24 46 -26 23 -2 48 2 53 7 8 8 -1 11 -31 11
-29 0 -45 5 -48 15 -9 23 -24 18 -20 -7z"/>
<path d="M277 1708 c-35 -25 -36 -62 -2 -84 15 -10 25 -26 25 -40 0 -27 -17
-32 -26 -9 -7 17 -34 21 -34 5 0 -9 16 -27 54 -58 9 -7 16 -8 16 -3 0 5 9 13
20 16 46 15 49 73 5 93 -17 8 -25 20 -25 37 0 29 7 31 32 8 16 -14 18 -14 18
0 0 8 -12 25 -28 35 -27 20 -28 20 -55 0z m23 -43 c0 -26 -14 -33 -25 -15 -9
14 1 40 15 40 5 0 10 -11 10 -25z m38 -83 c2 -15 -2 -22 -12 -22 -11 0 -16 9
-16 26 0 31 23 28 28 -4z"/>
<path d="M2112 1717 c-6 -7 -10 -26 -8 -42 3 -29 5 -30 51 -28 57 3 74 13 23
13 -37 0 -65 21 -53 40 3 5 24 10 46 10 21 0 39 5 39 10 0 15 -86 12 -98 -3z"/>
<path d="M2818 1718 c-5 -43 -5 -76 -1 -100 4 -26 8 -28 54 -28 27 0 49 5 49
10 0 6 -15 10 -32 10 -74 0 -79 49 -6 52 l43 1 -45 6 c-32 4 -46 11 -48 24 -3
14 4 17 42 17 25 0 46 5 46 10 0 15 -100 13 -102 -2z"/>
<path d="M5616 1721 c-8 -13 13 -27 62 -42 49 -14 47 -18 -14 -39 -24 -8 -44
-19 -44 -25 0 -12 130 -24 137 -12 2 4 -17 7 -42 7 -54 0 -52 11 4 30 23 7 41
17 41 21 0 4 -17 13 -37 19 -57 18 -63 30 -16 30 23 0 45 5 48 10 4 6 -20 10
-64 10 -38 0 -72 -4 -75 -9z"/>
<path d="M440 1700 c-6 -11 -17 -20 -25 -20 -8 0 -15 -4 -15 -10 0 -5 9 -10
20 -10 18 0 20 -7 20 -65 0 -37 4 -65 10 -65 6 0 10 38 10 95 0 52 -2 95 -5
95 -2 0 -9 -9 -15 -20z"/>
<path d="M541 1694 c-30 -38 -28 -104 3 -141 21 -24 27 -26 52 -18 39 14 59
71 44 126 -17 62 -64 77 -99 33z m65 -19 c28 -44 6 -133 -31 -122 -32 11 -42
99 -14 133 16 20 26 18 45 -11z"/>
<path d="M680 1700 c-15 -15 -20 -33 -20 -75 0 -59 22 -95 58 -95 58 1 85 108
41 164 -24 31 -52 33 -79 6z m68 -31 c14 -27 9 -83 -9 -105 -41 -50 -82 59
-43 114 19 27 34 24 52 -9z"/>
<path d="M1699 1701 c-20 -16 -22 -23 -14 -47 19 -53 105 -43 105 12 0 22 -33
54 -56 54 -7 0 -22 -9 -35 -19z m59 -10 c25 -15 10 -46 -23 -46 -21 0 -31 5
-33 19 -4 18 13 36 33 36 6 0 16 -4 23 -9z"/>
<path d="M3775 1710 c3 -5 8 -10 11 -10 2 0 4 5 4 10 0 6 -5 10 -11 10 -5 0
-7 -4 -4 -10z"/>
<path d="M3815 1710 c3 -5 26 -10 50 -10 24 0 47 5 50 10 4 6 -15 10 -50 10
-35 0 -54 -4 -50 -10z"/>
<path d="M5910 1706 c-5 -5 -10 -29 -10 -53 l0 -43 73 1 c65 1 69 2 40 11 -24
8 -33 17 -33 32 0 27 18 46 42 46 10 0 18 4 18 9 0 12 -117 10 -130 -3z m55
-51 c0 -23 -4 -30 -20 -30 -15 0 -21 8 -23 33 -3 30 -1 33 20 30 18 -2 23 -9
23 -33z"/>
<path d="M3100 1674 c0 -4 7 -15 15 -24 14 -15 14 -18 0 -30 -25 -21 -17 -31
14 -16 25 13 31 13 50 -1 26 -18 44 -7 18 11 -9 7 -17 17 -17 21 0 4 8 14 17
21 27 19 8 28 -20 9 -24 -15 -27 -15 -51 0 -14 10 -26 14 -26 9z"/>
<path d="M3773 1673 c4 -3 22 -6 40 -5 58 2 60 -12 7 -44 -27 -16 -48 -33 -46
-39 4 -14 126 -19 139 -6 8 8 -7 11 -48 11 l-60 0 57 38 c32 20 58 40 58 45 0
4 -34 7 -77 7 -42 0 -73 -3 -70 -7z"/>
<path d="M4283 1673 c-36 -3 -44 -8 -49 -29 -6 -25 9 -54 29 -54 7 0 7 4 -1
12 -14 14 -16 48 -2 48 5 0 12 -11 16 -25 7 -28 34 -47 52 -36 11 6 13 93 2
89 -3 -1 -24 -3 -47 -5z m37 -48 c0 -14 -4 -25 -10 -25 -5 0 -10 4 -10 9 0 5
-3 16 -6 25 -4 11 -1 16 10 16 10 0 16 -9 16 -25z"/>
<path d="M7670 1430 l0 -250 285 0 285 0 0 140 0 140 -140 0 -140 0 0 110 0
110 -145 0 -145 0 0 -250z"/>
<path d="M800 1598 c0 -54 3 -68 15 -68 11 0 15 12 15 44 0 57 8 76 31 76 17
0 19 -8 19 -60 0 -33 4 -60 10 -60 11 0 11 -1 13 57 3 47 18 69 41 60 12 -5
16 -21 16 -62 0 -30 5 -55 10 -55 15 0 13 117 -2 127 -7 4 -48 8 -90 9 l-78 1
0 -69z"/>
<path d="M1400 1655 c-8 -10 -9 -23 -3 -42 9 -25 15 -28 52 -28 23 -1 45 3 47
7 3 4 -10 8 -29 8 -36 0 -64 21 -52 40 3 5 21 10 40 10 19 0 37 5 40 10 10 16
-81 12 -95 -5z"/>
<path d="M3530 1651 c-22 -41 26 -80 75 -61 19 7 25 17 25 39 0 18 -6 31 -16
35 -25 10 -30 -2 -9 -18 16 -12 17 -16 6 -30 -17 -20 -45 -21 -61 -1 -10 12
-10 19 -2 27 15 15 15 28 2 28 -5 0 -14 -9 -20 -19z"/>
<path d="M4532 1658 c-7 -7 -12 -21 -12 -33 0 -30 19 -45 55 -45 36 0 55 15
55 45 0 30 -19 45 -55 45 -17 0 -36 -5 -43 -12z m66 -10 c17 -17 15 -45 -4
-52 -28 -11 -54 3 -54 29 0 32 35 46 58 23z"/>
<path d="M5201 1657 c-6 -6 -11 -30 -11 -54 l0 -43 70 0 c40 0 70 4 70 10 0 6
-14 10 -31 10 -28 0 -31 3 -25 23 3 12 6 28 6 35 0 6 8 12 18 12 9 0 24 5 32
10 10 6 -6 9 -52 8 -37 0 -72 -6 -77 -11z m57 -45 c3 -29 1 -32 -22 -32 -22 0
-26 5 -26 28 0 33 8 44 30 40 9 -2 16 -16 18 -36z"/>
<path d="M2360 1638 c0 -10 19 -12 70 -10 87 4 83 22 -6 22 -44 0 -64 -4 -64
-12z"/>
<path d="M5000 1636 c0 -8 7 -16 15 -20 22 -8 19 -53 -4 -66 -30 -15 -56 -12
-75 9 -18 20 -15 61 5 61 5 0 9 5 9 10 0 18 -29 11 -40 -9 -17 -32 -12 -58 16
-80 66 -52 152 7 114 78 -12 24 -40 35 -40 17z"/>
<path d="M6960 1415 l0 -235 285 0 285 0 0 210 0 210 -139 0 c-137 0 -140 0
-143 23 -3 21 -6 22 -145 25 l-143 3 0 -236z"/>
<path d="M2128 1622 c-19 -4 -33 -36 -23 -52 3 -5 -3 -10 -14 -10 -12 0 -21
-4 -21 -10 0 -6 30 -10 70 -10 76 0 97 17 28 22 -35 2 -43 7 -43 23 0 16 8 21
45 25 l45 6 -35 4 c-19 3 -43 4 -52 2z"/>
<path d="M1680 1601 c0 -6 8 -14 17 -20 17 -9 17 -10 0 -28 -25 -29 -21 -38
10 -18 24 16 28 16 55 1 32 -19 36 -12 11 17 -17 18 -17 19 0 28 9 6 17 15 17
21 0 6 -11 3 -25 -6 -23 -15 -28 -15 -55 -1 -17 9 -30 11 -30 6z"/>
<path d="M2402 1598 c-7 -7 -12 -21 -12 -33 0 -30 19 -45 55 -45 36 0 55 15
55 45 0 30 -19 45 -55 45 -17 0 -36 -5 -43 -12z m78 -33 c0 -28 -34 -43 -55
-25 -20 16 -19 37 1 48 26 15 54 3 54 -23z"/>
<path d="M4290 1567 c0 -8 7 -17 15 -21 8 -3 15 -17 15 -31 0 -51 -90 -56
-103 -6 -3 12 1 28 9 35 18 18 18 26 1 26 -8 0 -19 -11 -26 -24 -27 -50 21
-103 84 -92 39 8 58 34 53 73 -3 30 -48 67 -48 40z"/>
<path d="M2814 1562 c3 -5 18 -7 34 -4 18 2 35 -2 46 -13 24 -24 5 -43 -47
-48 -31 -3 -27 -4 13 -3 l55 1 3 38 3 37 -56 0 c-31 0 -54 -4 -51 -8z"/>
<path d="M3068 1563 c7 -3 16 -2 19 1 4 3 -2 6 -13 5 -11 0 -14 -3 -6 -6z"/>
<path d="M3145 1559 c30 -5 54 -4 59 1 7 7 -12 10 -49 9 l-60 -1 50 -9z"/>
<path d="M3490 1556 c0 -12 46 -34 99 -48 8 -2 -8 -12 -35 -22 -92 -35 -85
-56 16 -46 63 7 63 7 15 8 -54 2 -52 13 8 32 45 14 44 31 -4 43 -55 14 -58 27
-6 27 26 0 47 5 47 10 0 6 -30 10 -70 10 -54 0 -70 -3 -70 -14z"/>
<path d="M4488 1564 c-5 -4 -8 -27 -8 -51 l0 -43 76 0 c47 0 73 4 69 10 -3 6
-19 10 -36 10 -27 0 -29 3 -29 36 0 21 -4 33 -10 29 -5 -3 -10 -19 -10 -36 0
-22 -5 -29 -19 -29 -16 0 -20 8 -23 41 -2 22 -6 37 -10 33z"/>
<path d="M1407 1542 c-22 -24 -21 -35 1 -55 25 -23 65 -21 87 3 15 17 16 24 7
45 -6 14 -16 25 -22 25 -13 0 -13 -13 0 -26 11 -11 3 -44 -10 -44 -5 0 -10 15
-12 32 -4 39 -26 47 -51 20z m33 -27 c0 -26 -14 -33 -25 -15 -9 14 1 40 15 40
5 0 10 -11 10 -25z"/>
<path d="M3108 1523 c28 -2 52 -7 52 -11 0 -4 -23 -22 -51 -40 -27 -18 -47
-37 -44 -42 8 -13 132 -13 140 0 4 6 -16 10 -52 10 l-58 0 57 38 c32 20 58 40
58 45 0 4 -35 6 -77 5 -63 -1 -68 -2 -25 -5z"/>
<path d="M2116 1504 c-44 -43 14 -93 78 -68 19 7 21 55 4 72 -17 17 -64 15
-82 -4z m65 -4 c25 -14 24 -36 -1 -50 -38 -20 -77 19 -48 48 15 15 24 15 49 2z"/>
<path d="M6398 1513 l-148 -4 0 -164 0 -165 285 0 285 0 0 170 0 170 -137 -2
c-76 -1 -204 -4 -285 -5z"/>
<path d="M1687 1498 c-6 -4 15 -7 48 -7 64 1 65 5 2 11 -20 2 -43 0 -50 -4z"/>
<path d="M2420 1470 c0 -16 5 -30 10 -30 6 0 10 9 10 20 0 23 10 26 28 8 18
-18 14 -56 -7 -68 -28 -15 -46 -12 -72 9 -23 19 -24 21 -7 50 14 26 15 31 2
31 -18 0 -37 -46 -28 -72 10 -31 50 -51 89 -44 42 8 55 30 52 85 -2 40 -3 41
-39 41 -36 0 -38 -2 -38 -30z"/>
<path d="M5683 1463 l-143 -4 0 -139 0 -140 285 0 285 0 0 145 0 145 -142 -2
c-79 -1 -207 -4 -285 -5z"/>
<path d="M1360 1449 c0 -7 14 -28 32 -46 l32 -33 -32 0 c-18 0 -32 -4 -32 -8
0 -10 126 -9 136 1 4 4 -4 7 -19 7 -42 0 -43 20 -1 56 45 39 27 46 -22 9 l-33
-25 -30 26 c-19 15 -31 21 -31 13z"/>
<path d="M1700 1451 l55 -6 -52 -33 c-72 -46 -69 -58 12 -56 83 2 99 14 19 14
l-59 1 55 35 c30 19 57 39 58 44 2 6 -26 9 -70 8 l-73 -1 55 -6z"/>
<path d="M2803 1453 c24 -4 27 -8 27 -44 0 -36 -2 -39 -27 -40 -26 0 -27 -1
-6 -9 12 -5 34 -7 50 -5 15 2 39 5 53 6 20 1 18 3 -10 8 -32 5 -35 9 -35 41 0
32 3 36 35 41 23 4 10 6 -40 6 -41 0 -63 -2 -47 -4z"/>
<path d="M3700 1370 l0 -70 -145 0 -145 0 0 -60 0 -60 290 0 291 0 -3 128 -3
127 -142 3 -143 3 0 -71z"/>
<path d="M5113 1410 c-5 -19 -14 -20 -144 -20 l-139 0 0 -105 0 -105 285 0
285 0 0 125 0 125 -141 0 c-132 0 -141 -1 -146 -20z"/>
<path d="M2070 1400 c0 -5 28 -10 62 -12 62 -3 92 -24 49 -35 -11 -3 -18 -9
-15 -14 8 -13 21 -11 38 6 15 16 11 44 -8 57 -16 11 -126 10 -126 -2z"/>
<path d="M4278 1333 l-148 -4 0 -74 0 -75 285 0 285 0 0 80 0 80 -137 -2 c-76
-1 -204 -4 -285 -5z"/>
<path d="M548 1269 c-34 -25 -36 -53 -4 -74 27 -18 38 -46 25 -66 -7 -11 -11
-10 -23 6 -8 11 -18 17 -21 13 -11 -11 2 -38 22 -45 10 -4 21 -11 26 -17 4 -7
10 -8 15 -1 4 6 16 15 27 21 12 7 21 24 23 43 3 26 -1 33 -22 41 -21 8 -26 16
-26 42 1 30 2 31 14 16 14 -19 36 -24 36 -9 0 9 -53 52 -62 51 -1 0 -15 -10
-30 -21z m22 -39 c0 -11 -4 -20 -10 -20 -5 0 -10 9 -10 20 0 11 5 20 10 20 6
0 10 -9 10 -20z m45 -85 c0 -10 -6 -20 -12 -22 -8 -3 -13 5 -13 22 0 17 5 25
13 23 6 -3 12 -13 12 -23z"/>
<path d="M2990 1255 l0 -35 -145 0 c-138 0 -145 -1 -145 -20 0 -20 7 -20 285
-20 l285 0 0 55 0 55 -140 0 -140 0 0 -35z"/>
<path d="M680 1260 c-25 -25 -27 -105 -4 -138 22 -31 69 -30 90 3 22 34 15
122 -12 142 -25 19 -51 16 -74 -7z m73 -45 c11 -50 -5 -95 -32 -95 -25 0 -41
28 -41 70 0 78 58 98 73 25z"/>
<path d="M2280 1225 c0 -13 -23 -15 -145 -15 -122 0 -145 -2 -145 -15 0 -13
38 -15 285 -15 l285 0 0 30 0 30 -140 0 c-118 0 -140 -2 -140 -15z"/>
<path d="M800 1165 c0 -50 3 -65 14 -65 11 0 16 15 18 53 3 45 6 52 26 55 21
3 22 0 22 -52 0 -31 5 -56 10 -56 6 0 10 18 10 39 0 55 8 71 36 71 22 0 24 -4
24 -55 0 -32 4 -55 10 -55 7 0 10 24 8 63 l-3 62 -87 2 -88 3 0 -65z"/>
<path d="M1280 1200 c0 -20 7 -20 285 -20 278 0 285 0 285 20 0 20 -7 20 -285
20 -278 0 -285 0 -285 -20z"/>
<path d="M2307 1017 c-4 -11 -22 -17 -59 -19 l-53 -3 54 -43 c30 -23 59 -41
65 -39 6 2 12 18 14 35 2 24 8 32 23 32 10 0 19 5 19 10 0 6 -7 10 -16 10 -9
0 -22 7 -29 16 -11 15 -12 15 -18 1z m3 -57 c0 -25 -2 -25 -42 0 l-33 20 38 0
c30 0 37 -4 37 -20z"/>
<path d="M1533 1010 c-36 -15 -46 -44 -24 -72 16 -18 29 -23 69 -23 27 0 56 6
65 14 21 17 22 54 2 71 -19 16 -85 22 -112 10z m101 -30 c15 -15 -2 -38 -33
-45 -32 -7 -87 13 -85 30 3 30 91 40 118 15z"/>
<path d="M3005 1011 c-3 -5 -21 -7 -40 -4 -30 5 -36 2 -43 -18 -5 -13 -7 -32
-4 -42 6 -23 41 -38 64 -26 10 6 19 5 23 -1 18 -30 75 4 75 45 0 40 -56 75
-75 46z m55 -45 c0 -23 -22 -36 -42 -25 -23 12 -23 35 -1 48 19 10 43 -2 43
-23z m-82 -4 c3 -16 -2 -22 -16 -22 -22 0 -32 17 -24 38 7 20 37 9 40 -16z"/>
<path d="M3634 995 c-19 -28 -11 -60 18 -76 29 -16 36 0 9 20 -29 22 -22 51
12 51 16 0 28 -9 35 -24 13 -29 57 -60 72 -51 13 8 13 92 0 100 -6 4 -10 -10
-10 -34 0 -50 -12 -52 -39 -7 -33 53 -71 61 -97 21z"/>
<path d="M4405 1003 c-10 -9 -15 -26 -12 -40 5 -27 -14 -31 -34 -7 -11 14 -10
18 6 30 23 17 11 33 -13 18 -25 -16 -26 -47 -1 -70 30 -27 115 -27 135 0 19
27 18 42 -6 66 -24 24 -53 26 -75 3z m75 -28 c0 -34 -55 -50 -67 -19 -9 24 24
46 48 33 11 -5 19 -11 19 -14z"/>
<path d="M5073 1006 c-36 -16 -45 -53 -20 -75 39 -32 140 -19 153 21 15 47
-71 82 -133 54z m102 -26 c34 -28 -24 -57 -81 -41 -37 9 -44 38 -12 50 28 10
75 6 93 -9z"/>
<path d="M5854 1009 c-3 -5 -27 -9 -55 -9 -27 0 -49 -3 -49 -7 1 -12 96 -78
112 -78 8 0 13 12 13 33 0 24 4 32 17 32 10 0 18 3 18 8 0 12 -49 31 -56 21z
m3 -49 c2 -25 -4 -25 -42 0 l-30 20 35 0 c29 0 36 -4 37 -20z"/>
<path d="M6555 1010 c-3 -5 -19 -7 -35 -3 -18 3 -36 0 -45 -7 -38 -31 5 -102
48 -79 13 8 22 8 30 0 25 -25 77 6 77 46 0 32 -60 67 -75 43z m49 -35 c2 -7
-1 -21 -9 -31 -11 -15 -15 -16 -29 -5 -19 16 -20 33 -5 48 13 13 35 7 43 -12z
m-76 -8 c4 -20 -25 -34 -40 -19 -15 15 -1 44 19 40 10 -2 19 -11 21 -21z"/>
<path d="M7186 1004 c-24 -24 -20 -61 9 -80 33 -22 47 -8 16 15 -16 12 -22 24
-18 35 10 27 38 18 77 -24 20 -22 42 -40 48 -40 8 0 12 20 12 56 0 34 -4 53
-10 49 -5 -3 -10 -23 -10 -43 l0 -37 -36 43 c-38 44 -63 52 -88 26z"/>
<path d="M7949 999 c-13 -13 -18 -27 -14 -40 6 -17 3 -20 -12 -17 -19 3 -32
48 -14 48 6 0 11 5 11 10 0 18 -29 10 -35 -10 -10 -30 4 -60 32 -71 61 -23
123 1 123 48 0 49 -54 69 -91 32z m61 -14 c18 -21 5 -47 -22 -43 -26 3 -37 36
-16 49 18 12 24 11 38 -6z"/>
<path d="M8618 1005 c-31 -17 -38 -55 -14 -74 38 -32 125 -21 145 18 26 48
-71 90 -131 56z m110 -28 c9 -7 9 -13 2 -22 -27 -32 -115 -24 -115 10 0 32 77
40 113 12z"/>
<path d="M9400 1011 c0 -6 -21 -11 -50 -11 -27 0 -50 -4 -50 -9 0 -11 95 -81
110 -81 6 0 10 16 10 35 0 28 4 35 20 35 25 0 26 15 3 24 -10 3 -24 9 -30 12
-7 3 -13 1 -13 -5z m0 -51 c0 -11 -3 -20 -6 -20 -3 0 -17 9 -31 20 l-26 20 32
0 c24 0 31 -4 31 -20z"/>
<path d="M10107 1014 c-4 -4 -26 -7 -49 -8 l-43 -1 0 -40 c0 -39 1 -40 37 -41
21 0 41 -3 45 -7 23 -24 73 9 73 48 0 37 -42 69 -63 49z m43 -49 c0 -29 -25
-39 -45 -19 -8 9 -15 17 -15 19 0 2 7 10 15 19 20 20 45 10 45 -19z m-80 0 c0
-18 -5 -25 -20 -25 -20 0 -28 28 -13 43 15 16 33 6 33 -18z"/>
<path d="M10738 1009 c-28 -16 -23 -65 7 -85 14 -9 29 -13 33 -9 4 4 -3 14
-15 22 -26 18 -30 48 -8 57 9 3 31 -12 59 -39 24 -25 49 -45 55 -45 7 0 11 21
11 55 0 30 -4 55 -10 55 -5 0 -10 -19 -10 -42 l0 -41 -38 41 c-40 43 -55 49
-84 31z"/>
<path d="M11499 999 c-13 -13 -18 -27 -14 -40 5 -13 2 -19 -10 -19 -21 0 -30
27 -15 45 15 18 7 30 -13 22 -22 -8 -27 -45 -8 -68 20 -25 87 -35 121 -17 31
17 37 53 14 79 -22 25 -49 24 -75 -2z m66 -34 c0 -23 -30 -32 -50 -15 -21 18
-7 42 24 38 18 -2 26 -9 26 -23z"/>
<path d="M3630 845 c0 -30 5 -55 10 -55 6 0 10 17 10 38 l0 39 56 -29 c31 -15
63 -28 70 -28 25 0 15 19 -13 26 -16 4 -49 19 -76 35 -26 16 -49 29 -52 29 -3
0 -5 -25 -5 -55z"/>
<path d="M4330 845 c0 -42 3 -55 15 -55 11 0 15 11 15 41 l0 40 28 -19 c39
-27 94 -44 105 -33 6 6 -5 13 -29 20 -22 6 -56 22 -76 36 -20 14 -42 25 -47
25 -7 0 -11 -23 -11 -55z"/>
<path d="M1517 879 c-24 -14 -23 -65 2 -79 11 -5 38 -10 61 -10 57 0 80 14 80
50 0 31 -22 50 -59 50 -29 0 -54 -29 -48 -57 5 -28 -17 -32 -32 -6 -7 13 -5
23 6 36 19 21 14 29 -10 16z m117 -24 c8 -22 -4 -45 -24 -45 -10 0 -23 7 -30
15 -15 18 2 45 30 45 10 0 20 -7 24 -15z"/>
<path d="M2275 874 c-10 -11 -14 -25 -11 -40 7 -28 -14 -33 -34 -9 -10 13 -10
19 5 35 16 18 16 20 2 20 -20 0 -39 -33 -31 -55 9 -23 38 -35 87 -35 65 0 99
46 61 84 -20 21 -58 20 -79 0z m65 -14 c12 -7 12 -13 4 -27 -23 -38 -72 -24
-59 16 7 22 30 27 55 11z"/>
<path d="M2985 874 c-10 -11 -14 -25 -11 -40 7 -28 -6 -31 -29 -8 -15 15 -15
18 1 35 15 17 16 19 1 19 -19 0 -36 -29 -29 -50 8 -27 35 -40 80 -40 56 0 82
14 82 45 0 49 -60 73 -95 39z m59 -10 c23 -9 20 -42 -5 -49 -30 -10 -57 18
-39 39 14 18 21 19 44 10z"/>
<path d="M5055 877 c-21 -11 -19 -64 3 -75 9 -5 43 -10 75 -10 53 -1 58 1 68
25 7 19 6 31 -5 49 -13 19 -23 22 -71 21 -30 -1 -62 -5 -70 -10z m50 -27 c8
-24 -1 -40 -21 -40 -20 0 -29 27 -14 45 17 20 27 19 35 -5z m74 6 c15 -18 3
-46 -20 -46 -22 0 -34 22 -25 45 7 19 30 19 45 1z"/>
<path d="M5764 872 c-8 -7 -14 -22 -14 -32 0 -34 24 -47 91 -46 60 1 64 3 73
28 16 44 -12 67 -81 65 -32 -1 -62 -7 -69 -15z m51 -22 c7 -23 -1 -40 -20 -40
-18 0 -28 30 -14 46 16 19 27 17 34 -6z m79 5 c8 -23 -4 -45 -24 -45 -24 0
-33 15 -25 40 7 23 40 27 49 5z"/>
<path d="M6474 872 c-17 -17 -18 -58 -2 -68 6 -4 40 -9 75 -11 53 -3 64 0 73
16 14 27 13 47 -5 65 -19 19 -122 18 -141 -2z m46 -17 c15 -18 6 -45 -14 -45
-20 0 -29 16 -21 40 8 24 18 25 35 5z m78 -18 c3 -22 -1 -27 -18 -27 -23 0
-35 22 -26 46 10 25 41 12 44 -19z"/>
<path d="M7187 872 c-36 -40 -11 -82 47 -82 29 0 50 31 41 60 -7 22 5 26 23 8
15 -15 16 -48 2 -48 -5 0 -10 -4 -10 -10 0 -15 16 -12 34 6 22 21 20 31 -9 59
-31 32 -103 35 -128 7z m63 -17 c18 -21 5 -45 -25 -45 -14 0 -28 7 -31 15 -7
17 12 45 31 45 7 0 18 -7 25 -15z"/>
<path d="M7903 875 c-43 -30 -24 -85 28 -85 37 0 62 26 55 56 -7 27 5 31 25 8
10 -13 10 -19 0 -36 -14 -23 -10 -31 12 -23 23 9 27 42 8 66 -23 28 -97 37
-128 14z m56 -19 c6 -7 8 -21 5 -30 -9 -24 -58 -17 -62 8 -6 31 36 48 57 22z"/>
<path d="M8613 875 c-32 -23 -30 -63 3 -75 43 -17 102 -12 124 10 24 24 24 30
7 54 -19 26 -104 33 -134 11z m112 -19 c16 -12 17 -16 6 -30 -22 -26 -121 -20
-121 8 0 35 77 50 115 22z"/>
<path d="M9322 874 c-27 -19 -29 -60 -3 -74 11 -5 38 -10 61 -10 57 0 80 14
80 51 0 22 -6 32 -26 39 -38 15 -87 12 -112 -6z m106 -13 c8 -5 12 -17 10 -27
-2 -15 -14 -20 -56 -22 -56 -3 -77 13 -52 43 13 16 77 20 98 6z"/>
<path d="M10033 880 c-17 -7 -23 -18 -23 -39 0 -37 23 -51 80 -51 54 0 80 15
80 45 0 45 -75 70 -137 45z m105 -19 c8 -5 12 -17 10 -27 -3 -16 -12 -19 -58
-19 -46 0 -55 3 -58 19 -5 24 14 36 58 36 19 0 41 -4 48 -9z"/>
<path d="M10720 855 c0 -12 33 -55 41 -55 5 0 9 7 9 14 0 11 15 16 52 18 30 2
53 8 56 16 3 9 -17 12 -77 12 -45 0 -81 -2 -81 -5z"/>
<path d="M11430 855 c0 -11 33 -55 41 -55 5 0 9 7 9 14 0 11 15 16 53 18 80 5
62 23 -25 26 -43 2 -78 0 -78 -3z"/>
<path d="M1513 748 c-19 -25 -21 -46 -7 -67 29 -41 94 -20 94 30 0 33 16 35
34 5 9 -13 7 -20 -8 -31 -23 -18 -12 -34 12 -19 27 17 27 59 0 78 -27 19 -111
21 -125 4z m62 -38 c0 -31 -33 -40 -52 -14 -16 22 1 46 31 42 15 -2 21 -10 21
-28z"/>
<path d="M2214 735 c-15 -23 -15 -27 0 -50 30 -46 104 -23 94 29 -4 20 -2 26
10 24 8 -2 20 -11 26 -21 9 -15 7 -21 -8 -32 -22 -17 -17 -29 8 -19 9 3 19 18
23 32 9 37 -26 62 -88 62 -41 0 -51 -4 -65 -25z m71 -25 c0 -29 -34 -40 -54
-17 -18 23 -2 49 28 45 20 -2 26 -8 26 -28z"/>
<path d="M2924 735 c-15 -23 -15 -27 0 -50 32 -48 104 -25 94 30 -5 26 -1 29
26 19 21 -8 20 -33 -1 -56 -13 -15 -14 -18 -2 -18 22 0 39 21 39 46 0 33 -37
54 -92 54 -40 0 -50 -4 -64 -25z m71 -25 c0 -30 -35 -40 -55 -15 -10 12 -10
18 0 30 20 25 55 15 55 -15z"/>
<path d="M3633 734 c-28 -43 13 -86 64 -68 23 8 28 16 28 42 0 36 20 40 39 9
9 -14 7 -21 -6 -31 -20 -14 -23 -26 -9 -26 15 0 41 30 41 46 0 31 -38 54 -90
54 -42 0 -52 -4 -67 -26z m72 -24 c0 -30 -35 -40 -55 -15 -10 12 -10 18 0 30
20 25 55 15 55 -15z"/>
<path d="M4347 742 c-22 -24 -21 -45 1 -65 38 -35 98 -8 89 40 -5 26 14 31 32
9 12 -14 5 -46 -10 -46 -5 0 -9 -4 -9 -10 0 -15 16 -12 34 6 21 21 20 40 -4
64 -27 27 -110 28 -133 2z m68 -32 c0 -30 -35 -40 -55 -15 -10 12 -10 18 0 30
20 25 55 15 55 -15z"/>
<path d="M5058 749 c-22 -12 -23 -52 -2 -73 35 -35 100 -6 91 41 -5 28 17 32
32 6 7 -13 5 -23 -6 -36 -18 -19 -13 -30 10 -22 17 7 28 40 20 62 -12 30 -107
45 -145 22z m66 -24 c8 -22 -4 -45 -24 -45 -23 0 -42 24 -34 44 8 20 50 21 58
1z"/>
<path d="M5766 744 c-21 -21 -20 -47 2 -67 38 -35 99 -10 90 36 -6 30 11 37
31 13 12 -14 5 -46 -10 -46 -5 0 -9 -4 -9 -10 0 -15 16 -12 34 6 21 21 20 40
-4 64 -25 25 -111 28 -134 4z m69 -34 c0 -29 -34 -40 -54 -17 -18 23 -2 49 28
45 20 -2 26 -8 26 -28z"/>
<path d="M6477 742 c-22 -24 -21 -45 1 -65 38 -35 98 -8 89 40 -5 28 18 32 32
4 8 -14 7 -22 -4 -31 -17 -14 -20 -30 -6 -30 15 0 41 30 41 46 0 8 -9 23 -20
34 -27 27 -110 28 -133 2z m67 -18 c7 -19 -10 -44 -29 -44 -19 0 -38 28 -31
45 7 20 52 19 60 -1z"/>
<path d="M7186 744 c-21 -21 -20 -47 2 -67 38 -35 98 -8 89 40 -3 15 0 23 10
23 20 0 28 -30 14 -52 -18 -28 -4 -36 20 -11 26 26 18 60 -18 74 -38 14 -100
11 -117 -7z m64 -19 c10 -12 10 -18 0 -30 -27 -32 -71 -8 -56 30 3 8 14 15 24
15 11 0 25 -7 32 -15z"/>
<path d="M7898 749 c-25 -14 -24 -65 1 -79 11 -5 29 -10 40 -10 26 0 54 41 44
65 -5 15 -3 17 11 12 10 -4 20 -7 22 -7 9 0 3 -37 -8 -48 -17 -17 -2 -28 17
-12 25 21 19 65 -10 78 -32 15 -94 15 -117 1z m62 -25 c18 -21 -9 -49 -39 -39
-20 6 -28 34 -14 48 11 12 40 7 53 -9z"/>
<path d="M8608 749 c-25 -14 -22 -55 4 -73 43 -30 131 -15 141 24 9 35 -25 60
-80 60 -27 0 -56 -5 -65 -11z m121 -23 c18 -22 -13 -46 -58 -46 -41 0 -67 20
-57 45 7 20 99 21 115 1z"/>
<path d="M9318 749 c-25 -14 -22 -55 4 -73 25 -18 74 -21 112 -6 33 12 37 64
7 80 -25 13 -101 13 -123 -1z m120 -33 c5 -24 -14 -36 -59 -36 -40 0 -65 21
-55 45 9 25 110 17 114 -9z"/>
<path d="M10028 749 c-28 -16 -23 -63 7 -77 36 -17 86 -15 113 4 27 19 29 60
3 74 -25 13 -101 13 -123 -1z m118 -24 c9 -24 -15 -45 -51 -45 -45 0 -65 9
-65 29 0 27 9 31 62 31 34 0 50 -4 54 -15z"/>
<path d="M10738 749 c-25 -14 -22 -55 4 -73 49 -35 138 -9 138 39 0 14 -8 29
-19 35 -25 13 -101 13 -123 -1z m120 -33 c5 -24 -14 -36 -59 -36 -40 0 -65 21
-55 45 9 25 110 17 114 -9z"/>
<path d="M11448 749 c-25 -14 -22 -55 4 -73 49 -35 138 -9 138 39 0 14 -8 29
-19 35 -25 13 -101 13 -123 -1z m118 -24 c10 -25 -16 -45 -56 -45 -40 0 -66
20 -56 45 4 11 20 15 56 15 36 0 52 -4 56 -15z"/>
<path d="M8606 624 c-9 -8 -16 -26 -16 -39 0 -26 37 -58 53 -48 6 4 1 13 -11
21 -26 17 -29 47 -5 57 13 4 28 -5 53 -33 19 -22 43 -42 53 -45 15 -6 17 1 17
48 0 30 -4 55 -10 55 -5 0 -10 -19 -10 -42 l0 -43 -36 43 c-38 44 -63 52 -88
26z"/>
<path d="M9318 629 c-26 -14 -23 -64 4 -83 12 -8 26 -12 31 -9 6 4 1 13 -11
21 -26 17 -29 47 -5 56 12 5 28 -5 52 -33 20 -21 44 -41 54 -45 15 -5 17 2 17
49 0 30 -4 55 -10 55 -5 0 -10 -19 -10 -42 l-1 -43 -37 43 c-38 43 -54 49 -84
31z"/>
<path d="M10022 628 c-20 -20 -14 -65 10 -82 12 -8 26 -12 31 -9 6 4 1 13 -11
21 -26 17 -29 47 -5 56 12 5 27 -4 51 -33 19 -23 42 -41 53 -41 16 0 19 7 19
50 0 28 -4 50 -10 50 -5 0 -10 -19 -10 -42 l-1 -43 -37 43 c-37 43 -67 53 -90
30z"/>
<path d="M10738 629 c-26 -14 -23 -64 4 -83 12 -8 26 -12 31 -9 6 4 1 13 -11
21 -26 17 -29 47 -5 56 12 5 28 -5 52 -33 20 -21 44 -41 54 -45 15 -5 17 2 17
49 0 30 -4 55 -10 55 -5 0 -10 -19 -10 -42 l0 -43 -36 43 c-36 43 -55 50 -86
31z"/>
<path d="M11435 616 c-12 -18 -14 -30 -6 -44 16 -31 40 -47 52 -35 8 8 5 14
-10 22 -25 14 -28 46 -5 55 11 4 30 -8 59 -40 24 -25 48 -43 54 -39 14 8 15
105 1 105 -5 0 -10 -19 -10 -42 l0 -43 -39 43 c-44 48 -73 53 -96 18z"/>
<path d="M1500 590 c0 -5 5 -10 10 -10 6 0 10 -7 10 -15 0 -8 5 -15 10 -15 6
0 10 7 10 15 0 12 13 15 60 15 33 0 60 4 60 10 0 6 -33 10 -80 10 -47 0 -80
-4 -80 -10z"/>
<path d="M2217 575 c21 -28 33 -32 33 -10 0 12 13 15 60 15 33 0 60 4 60 10 0
6 -35 10 -85 10 l-86 0 18 -25z"/>
<path d="M2920 590 c0 -5 5 -10 10 -10 6 0 10 -7 10 -16 0 -9 6 -14 13 -11 6
2 11 10 10 16 -2 7 18 11 57 11 33 0 60 4 60 10 0 6 -33 10 -80 10 -47 0 -80
-4 -80 -10z"/>
<path d="M3633 586 c9 -7 17 -18 17 -25 0 -6 5 -11 10 -11 6 0 10 7 10 15 0
11 13 15 54 15 30 0 58 5 61 10 4 6 -26 10 -82 10 -75 -1 -85 -3 -70 -14z"/>
<path d="M4347 575 c21 -28 33 -32 33 -10 0 11 13 15 54 15 30 0 58 5 61 10 4
6 -25 10 -80 10 l-86 0 18 -25z"/>
<path d="M5057 575 c21 -28 33 -32 33 -10 0 12 13 15 55 15 30 0 55 5 55 10 0
6 -33 10 -80 10 l-81 0 18 -25z"/>
<path d="M5767 575 c21 -28 33 -32 33 -10 0 11 13 15 54 15 30 0 58 5 61 10 4
6 -25 10 -80 10 l-86 0 18 -25z"/>
<path d="M6477 575 c21 -28 33 -32 33 -10 0 11 13 15 54 15 30 0 58 5 61 10 4
6 -25 10 -80 10 l-86 0 18 -25z"/>
<path d="M7187 575 c21 -28 33 -32 33 -10 0 12 13 15 55 15 30 0 55 5 55 10 0
6 -33 10 -80 10 l-81 0 18 -25z"/>
<path d="M7896 575 c18 -27 40 -34 30 -10 -4 12 5 15 54 15 33 0 60 4 60 10 0
6 -33 10 -80 10 l-80 0 16 -25z"/>
<path d="M5900 275 l0 -75 55 0 c30 0 55 5 55 10 0 6 -20 10 -45 10 -41 0 -45
2 -45 25 0 23 4 25 41 25 24 0 38 4 34 10 -3 6 -22 10 -41 10 -27 0 -34 4 -34
20 0 17 7 20 39 20 22 0 43 5 46 10 4 6 -15 10 -49 10 l-56 0 0 -75z"/>
<path d="M6038 295 c-3 -46 5 -110 12 -95 1 3 4 35 5 73 4 80 -12 101 -17 22z"/>
<path d="M6360 340 c0 -5 5 -10 10 -10 6 0 10 5 10 10 0 6 -4 10 -10 10 -5 0
-10 -4 -10 -10z"/>
<path d="M6719 332 c-48 -40 -15 -132 47 -132 24 0 64 31 64 50 0 16 -14 12
-33 -10 -33 -39 -77 -16 -77 42 0 46 46 64 82 31 15 -13 18 -14 18 -2 0 40
-61 52 -101 21z"/>
<path d="M7060 275 c0 -43 4 -75 10 -75 6 0 10 32 10 75 0 43 -4 75 -10 75 -6
0 -10 -32 -10 -75z"/>
<path d="M6308 328 c-8 -21 6 -121 17 -125 8 -2 11 76 6 130 -2 12 -18 8 -23
-5z"/>
<path d="M6096 304 c-9 -8 -16 -31 -16 -50 0 -27 5 -37 26 -46 27 -13 54 -3
62 22 3 9 -2 8 -18 -3 -18 -12 -27 -14 -37 -5 -23 19 -14 28 27 28 46 0 53 17
20 50 -24 24 -43 25 -64 4z m52 -27 c3 -12 -3 -17 -22 -17 -25 0 -35 18 -19
34 12 12 38 2 41 -17z"/>
<path d="M6210 300 c-25 -25 -25 -51 -2 -80 14 -18 25 -22 45 -16 15 3 27 13
27 21 0 18 -17 20 -23 3 -7 -21 -42 6 -42 32 0 30 32 51 45 30 5 -8 12 -11 16
-7 9 9 -15 37 -32 37 -8 0 -23 -9 -34 -20z"/>
<path d="M6360 260 c0 -33 4 -60 10 -60 6 0 10 27 10 60 0 33 -4 60 -10 60 -6
0 -10 -27 -10 -60z"/>
<path d="M6429 310 c-41 -24 -25 -110 21 -110 46 0 68 71 32 103 -21 19 -30
20 -53 7z m49 -48 c4 -38 -21 -54 -46 -29 -13 13 -13 21 -4 42 17 37 46 29 50
-13z"/>
<path d="M6526 311 c-1 -3 -2 -28 -2 -55 1 -67 24 -74 28 -9 2 35 7 49 20 51
14 3 17 -6 20 -45 2 -26 8 -48 13 -48 13 0 18 76 6 95 -9 14 -79 23 -85 11z"/>
<path d="M6849 315 c-3 -3 3 -33 15 -66 21 -60 21 -61 2 -75 -19 -14 -19 -14
1 -14 16 0 26 15 48 75 15 42 25 78 22 81 -11 12 -25 -7 -31 -41 -7 -35 -26
-40 -26 -6 0 20 -23 55 -31 46z"/>
<path d="M6975 306 c-23 -16 -24 -71 -3 -93 20 -19 68 -10 68 12 0 8 -4 15
-10 15 -5 0 -10 -4 -10 -10 0 -5 -9 -10 -20 -10 -27 0 -38 46 -16 68 12 13 19
14 28 4 16 -16 28 -15 28 2 0 13 -20 26 -39 26 -4 0 -16 -6 -26 -14z"/>
<path d="M7140 313 c-37 -14 -43 -85 -9 -104 23 -12 69 2 69 21 0 6 -7 6 -19
-1 -20 -13 -51 -6 -51 11 0 5 18 10 41 10 37 0 40 2 34 23 -7 21 -32 48 -44
46 -3 0 -13 -3 -21 -6z m40 -33 c10 -18 8 -20 -20 -20 -18 0 -30 5 -30 13 0
32 34 37 50 7z"/>
<path d="M66 223 c-10 -11 -7 -133 4 -133 6 0 10 18 10 40 0 22 4 40 8 40 5 0
14 -18 21 -40 6 -22 16 -40 20 -40 5 0 18 21 29 48 l20 47 1 -47 c1 -27 6 -48
11 -48 6 0 10 28 10 65 0 52 -3 65 -15 65 -9 0 -19 -10 -24 -22 -5 -13 -15
-36 -21 -53 l-12 -30 -15 52 c-14 48 -33 70 -47 56z"/>
<path d="M1073 155 c0 -38 2 -53 4 -32 2 20 2 52 0 70 -2 17 -4 1 -4 -38z"/>
<path d="M1170 201 c-11 -22 9 -51 36 -51 9 0 25 -5 36 -11 20 -11 20 -12 4
-24 -18 -13 -56 -9 -56 6 0 5 -7 9 -17 9 -14 0 -14 -2 2 -20 24 -26 69 -26 95
2 16 18 20 19 20 6 0 -19 32 -32 59 -23 26 8 34 45 15 72 -19 30 -49 29 -69
-1 -15 -23 -18 -23 -43 -10 -15 8 -35 14 -44 14 -22 0 -24 28 -3 37 9 3 24 -2
34 -11 24 -22 34 -20 21 4 -15 27 -75 28 -90 1z m188 -57 c4 -29 -23 -51 -43
-34 -16 13 -20 42 -8 54 14 14 48 1 51 -20z"/>
<path d="M1868 200 c-10 -11 -13 -22 -8 -25 6 -4 10 -24 10 -46 0 -53 20 -50
21 4 0 23 2 52 3 65 3 27 -4 28 -26 2z"/>
<path d="M327 198 c-7 -20 7 -101 18 -105 8 -2 11 47 6 110 -1 12 -18 8 -24
-5z"/>
<path d="M3458 199 c-7 -21 7 -102 19 -106 8 -3 10 8 6 35 -3 24 -1 42 6 46 8
5 7 11 -3 22 -17 17 -23 18 -28 3z"/>
<path d="M230 170 c-24 -24 -25 -43 -4 -64 20 -20 58 -21 74 -1 14 17 0 21
-17 4 -13 -13 -43 -5 -43 11 0 5 16 10 35 10 37 0 42 9 25 41 -14 25 -45 24
-70 -1z m60 -15 c0 -10 -9 -14 -25 -13 -14 1 -25 8 -25 15 0 7 11 13 25 13 15
0 25 -6 25 -15z"/>
<path d="M380 139 c0 -27 5 -49 10 -49 6 0 10 13 10 29 0 16 7 36 15 45 20 19
19 21 -10 22 -23 2 -25 -1 -25 -47z"/>
<path d="M456 174 c-19 -18 -20 -38 -6 -65 12 -21 50 -25 68 -7 26 26 3 88
-33 88 -7 0 -21 -7 -29 -16z m54 -34 c0 -30 -21 -45 -39 -27 -23 23 -4 71 25
60 8 -3 14 -18 14 -33z"/>
<path d="M554 165 c-15 -23 -15 -27 0 -50 9 -14 24 -25 34 -25 23 0 48 17 39
26 -3 4 -13 1 -21 -5 -21 -18 -36 -5 -36 31 0 29 2 30 31 24 27 -5 30 -4 19 9
-19 22 -48 18 -66 -10z"/>
<path d="M656 174 c-19 -18 -20 -38 -6 -65 15 -27 56 -24 76 6 15 23 15 27 0
50 -19 29 -47 32 -70 9z m59 -25 c10 -30 -18 -57 -39 -39 -16 13 -21 42 -9 53
14 14 42 6 48 -14z"/>
<path d="M760 175 c-16 -19 2 -45 31 -45 11 0 19 -4 19 -9 0 -17 -19 -22 -41
-10 -17 9 -20 8 -17 -3 7 -20 53 -22 68 -2 12 14 12 18 -5 30 -10 8 -25 14
-32 14 -7 0 -13 4 -13 8 0 17 13 21 32 11 16 -9 19 -8 16 3 -7 19 -43 22 -58
3z"/>
<path d="M850 138 c0 -27 5 -48 10 -48 6 0 10 18 10 40 0 29 4 40 15 40 11 0
15 -11 15 -40 0 -22 5 -40 10 -40 6 0 10 15 10 33 0 37 15 58 36 50 9 -3 14
-20 14 -44 0 -21 5 -39 10 -39 15 0 12 77 -2 87 -7 4 -39 8 -70 8 l-58 0 0
-47z"/>
<path d="M1402 143 c3 -48 3 -48 41 -50 l37 -1 0 49 c0 60 -18 65 -22 7 -2
-30 -8 -43 -18 -43 -10 0 -16 13 -18 43 -2 23 -8 42 -13 42 -6 0 -9 -21 -7
-47z"/>
<path d="M1510 138 c0 -27 5 -48 10 -48 6 0 10 14 10 32 0 17 7 39 16 49 14
16 13 17 -10 15 -24 -1 -26 -5 -26 -48z"/>
<path d="M1582 178 c-17 -17 -15 -63 3 -78 16 -13 65 -6 65 10 0 14 -13 13
-28 -2 -17 -17 -35 3 -30 33 2 19 9 24 31 22 29 -2 37 11 11 21 -24 9 -39 7
-52 -6z"/>
<path d="M1676 174 c-19 -18 -21 -55 -4 -72 17 -17 53 -15 69 5 12 15 12 16
-6 9 -31 -13 -47 -12 -52 2 -3 8 7 12 31 12 25 0 36 5 36 14 0 18 -27 46 -45
46 -7 0 -21 -7 -29 -16z m48 -25 c-7 -11 -44 -12 -44 -1 0 4 5 13 12 20 13 13
42 -4 32 -19z"/>
<path d="M1770 180 c0 -5 7 -10 16 -10 8 0 12 5 9 10 -3 6 -10 10 -16 10 -5 0
-9 -4 -9 -10z"/>
<path d="M1926 174 c-20 -19 -21 -58 -2 -74 19 -15 58 -9 64 10 4 12 3 13 -10
2 -9 -7 -23 -10 -32 -6 -28 11 -17 24 19 24 24 0 35 5 35 14 0 18 -27 46 -45
46 -7 0 -21 -7 -29 -16z m54 -14 c0 -14 -20 -22 -37 -16 -12 5 -13 9 -3 21 11
14 40 10 40 -5z"/>
<path d="M2038 179 c-21 -12 -24 -59 -6 -77 16 -16 43 -15 58 3 14 17 0 21
-17 4 -17 -17 -33 -1 -33 33 0 29 2 30 30 25 31 -7 42 6 14 17 -21 8 -26 7
-46 -5z"/>
<path d="M2175 170 c-26 -29 -13 -69 25 -77 17 -3 30 -10 30 -16 0 -5 -13 -7
-30 -4 -16 4 -30 2 -30 -3 0 -15 38 -22 60 -10 16 9 20 21 20 68 0 56 -1 57
-29 59 -18 1 -35 -5 -46 -17z m58 -19 c5 -21 -9 -51 -24 -51 -5 0 -14 11 -21
25 -8 18 -8 28 1 39 15 18 37 11 44 -13z"/>
<path d="M2286 174 c-30 -30 -9 -84 33 -84 41 0 58 70 22 90 -27 14 -37 13
-55 -6z m58 -20 c9 -22 -13 -57 -31 -50 -8 3 -17 6 -19 6 -9 0 -3 47 7 57 14
14 35 7 43 -13z"/>
<path d="M2388 140 c9 -27 21 -50 28 -50 7 0 19 21 28 47 19 55 19 53 7 53 -5
0 -12 -13 -16 -30 -10 -43 -22 -45 -35 -5 -6 19 -15 35 -20 35 -4 0 -1 -22 8
-50z"/>
<path d="M2574 166 c-15 -24 -15 -28 0 -52 33 -49 99 -7 73 46 -17 35 -52 38
-73 6z m60 -12 c7 -17 -10 -54 -24 -54 -14 0 -31 37 -24 54 3 9 14 16 24 16
10 0 21 -7 24 -16z"/>
<path d="M2670 120 c0 -40 4 -70 10 -70 6 0 10 11 10 24 0 20 4 23 21 19 15
-4 27 0 35 12 30 40 11 77 -40 81 l-36 3 0 -69z m68 27 c5 -23 -16 -47 -34
-40 -14 5 -19 44 -7 57 12 12 38 1 41 -17z"/>
<path d="M2784 165 c-20 -31 -10 -63 23 -71 17 -5 30 -1 41 12 16 17 16 17 0
5 -19 -14 -48 -9 -48 9 0 5 16 10 36 10 32 0 35 2 28 23 -13 43 -55 50 -80 12z
m64 -12 c2 -8 -6 -13 -22 -13 -26 0 -40 12 -29 24 11 11 46 2 51 -11z"/>
<path d="M2889 185 c-5 -3 -2 -95 3 -95 5 0 8 12 8 28 0 36 14 56 34 49 10 -4
16 -19 16 -42 0 -19 5 -35 10 -35 13 0 13 60 0 80 -7 11 -59 22 -71 15z"/>
<path d="M3002 178 c-20 -20 -14 -35 20 -47 25 -9 29 -14 20 -23 -10 -10 -17
-10 -32 0 -27 16 -35 15 -20 -3 16 -20 54 -19 71 1 11 14 10 18 -6 30 -10 8
-25 14 -32 14 -7 0 -13 4 -13 8 0 17 13 21 31 11 11 -6 19 -6 19 0 0 8 -23 21
-39 21 -4 0 -12 -5 -19 -12z"/>
<path d="M3097 172 c-20 -22 -22 -53 -5 -70 17 -17 53 -15 68 3 14 17 0 21
-16 5 -12 -12 -44 -3 -44 11 0 5 16 9 35 9 37 0 42 9 25 41 -13 24 -42 25 -63
1z m53 -11 c0 -6 -5 -13 -10 -16 -15 -9 -43 3 -35 15 8 13 45 13 45 1z"/>
<path d="M3208 179 c-21 -12 -24 -59 -6 -77 16 -16 43 -15 58 3 14 17 0 21
-17 4 -17 -17 -33 -1 -33 33 0 29 2 30 31 24 27 -5 30 -4 19 9 -14 17 -28 18
-52 4z"/>
<path d="M3290 139 c0 -27 5 -49 10 -49 6 0 10 16 10 35 0 22 6 38 15 41 23 9
18 22 -10 22 -23 0 -25 -4 -25 -49z"/>
<path d="M3366 177 c-12 -9 -17 -23 -14 -41 4 -38 29 -53 60 -39 23 11 22 11
-6 10 -16 -1 -31 4 -33 11 -3 8 7 12 31 12 28 0 36 4 36 18 0 38 -40 54 -74
29z m54 -23 c0 -8 -10 -14 -25 -14 -26 0 -35 25 -12 33 18 6 37 -3 37 -19z"/>
<path d="M3520 175 c-10 -12 -10 -18 0 -30 7 -8 19 -15 26 -15 8 0 14 -7 14
-15 0 -18 -21 -20 -39 -2 -11 10 -13 9 -9 -3 3 -9 17 -15 34 -15 40 0 48 39
10 49 -15 3 -26 11 -26 17 0 7 10 9 26 5 19 -5 25 -3 22 6 -7 19 -43 21 -58 3z"/>
<path d="M3664 165 c-15 -23 -15 -27 0 -50 21 -32 51 -32 72 0 15 23 15 27 0
50 -9 14 -25 25 -36 25 -11 0 -27 -11 -36 -25z m60 -11 c7 -17 -10 -54 -24
-54 -14 0 -31 37 -24 54 3 9 14 16 24 16 10 0 21 -7 24 -16z"/>
<path d="M3770 138 c0 -27 5 -48 10 -48 6 0 10 16 10 35 0 22 6 38 15 41 24 9
17 22 -10 20 -23 -1 -25 -5 -25 -48z"/>
<path d="M3838 179 c-21 -11 -24 -59 -6 -77 7 -7 22 -12 35 -12 13 0 23 -5 23
-11 0 -7 -11 -9 -31 -5 -22 4 -29 2 -27 -7 13 -37 91 0 83 40 -2 10 -4 32 -4
48 -1 25 -5 30 -29 32 -15 1 -35 -3 -44 -8z m55 -29 c7 -26 -14 -53 -36 -44
-20 7 -24 60 -4 67 19 6 35 -2 40 -23z"/>
<path d="M1770 100 c0 -5 7 -10 15 -10 8 0 15 5 15 10 0 6 -7 10 -15 10 -8 0
-15 -4 -15 -10z"/>
<path d="M2120 100 c0 -5 5 -10 10 -10 6 0 10 5 10 10 0 6 -4 10 -10 10 -5 0
-10 -4 -10 -10z"/>
<path d="M2460 103 c0 -5 5 -15 10 -23 8 -12 10 -11 10 8 0 12 -4 22 -10 22
-5 0 -10 -3 -10 -7z"/>
<path d="M3610 100 c0 -5 5 -10 10 -10 6 0 10 5 10 10 0 6 -4 10 -10 10 -5 0
-10 -4 -10 -10z"/>
</g>
</svg>
